<svg width="104" height="44" viewBox="0 0 104 44" fill="none" xmlns="http://www.w3.org/2000/svg">
<path d="M1.17768 43.893C0.749433 43.7275 0.389316 43.3966 0.194658 43.0267C0.0194658 42.6861 0 42.4428 0 40.9342C0 39.0849 0.0389316 38.9195 0.554775 38.4426C1.14848 37.8878 0.418515 37.917 12.5554 37.8683L23.7969 37.8196L24.3517 37.5569C25.8019 36.8756 26.5708 35.4156 26.3567 33.7513C26.2107 32.6515 25.4029 31.6101 24.2836 31.0845L23.6996 30.812L15.9133 30.7536C8.37029 30.7049 8.09777 30.6952 7.34834 30.5005C3.58171 29.498 0.846762 26.6171 0.136261 22.8991C-0.0486645 21.9453 -0.0389316 20.135 0.155726 19.2103C0.535309 17.3611 1.36261 15.7941 2.66681 14.4315C3.99049 13.0494 5.54775 12.154 7.46513 11.6576L8.32163 11.4435H19.7578C32.5079 11.4435 31.4567 11.3851 32.0991 12.1151C32.4884 12.5628 32.5273 12.7964 32.4884 14.7235C32.4592 16.5241 32.4398 16.5727 31.6903 17.1762L31.3205 17.4779L20.0692 17.5266C7.65979 17.585 8.46762 17.5363 7.60139 18.1787C5.39203 19.7943 5.63535 23.0743 8.05884 24.2617L8.71094 24.5829L16.4486 24.6413C25.0233 24.6997 24.7702 24.6802 26.4638 25.3713C27.5928 25.8287 28.6245 26.4906 29.5296 27.3568C30.7949 28.5734 31.6514 29.9652 32.177 31.6977C32.43 32.5055 32.4495 32.6904 32.4495 34.3158C32.4495 35.9509 32.43 36.1261 32.1867 36.9242C31.6514 38.6567 30.9409 39.8928 29.8119 41.051C28.3325 42.5498 26.5513 43.4939 24.4782 43.854C23.7483 43.9806 22.045 44 12.5165 43.9903C5.80081 43.9903 1.32367 43.9514 1.17768 43.893Z" fill="white"/>
<path d="M36.5472 43.8541C36.3915 43.7763 36.1092 43.5427 35.934 43.348C35.2917 42.6278 35.3209 43.494 35.3501 27.4931L35.3793 13.0009L35.5934 12.6115C35.8562 12.1249 36.1287 11.8329 36.5277 11.6188C36.8197 11.4533 37.6665 11.4436 51.7305 11.4728C68.51 11.502 67.0014 11.4339 67.5952 12.2612C67.8871 12.6797 67.8871 12.6797 67.9163 14.2467C67.9358 15.2102 67.9066 15.9597 67.8482 16.1835C67.7022 16.6702 67.2934 17.1276 66.8165 17.3417C66.4467 17.5169 65.8432 17.5267 53.9496 17.5267H41.4623V21.0792V24.6317L52.3437 24.6511L63.2154 24.6803L63.6339 24.9237C63.8967 25.0697 64.1594 25.3324 64.3152 25.605C64.5585 26.0137 64.578 26.1403 64.6169 27.4348C64.6656 29.4592 64.4125 30.1697 63.5171 30.5785C63.1375 30.7537 62.6508 30.7634 52.295 30.7634H41.4623V34.3646V37.9657H54.0178C66.4272 37.9657 66.5829 37.9657 66.9625 38.1604C67.1766 38.2675 67.4686 38.54 67.6146 38.7638C67.8774 39.1629 67.8871 39.2018 67.9163 40.8272C67.9455 42.4039 67.9358 42.511 67.7217 42.9198C67.5952 43.1631 67.3324 43.494 67.128 43.6498L66.7484 43.9515L51.7987 43.9709C38.6106 44.0001 36.8003 43.9807 36.5472 43.8541Z" fill="white"/>
<path d="M71.7698 43.8148C71.546 43.7175 71.2443 43.4644 71.0885 43.26L70.8063 42.8999L70.7771 27.9015C70.7674 19.648 70.7771 12.8058 70.8063 12.689C70.8744 12.3873 71.4 11.8033 71.7698 11.6184C72.0424 11.4724 73.1714 11.4626 83.5077 11.4821C92.8026 11.5016 95.0607 11.5308 95.5765 11.6378C98.837 12.3289 101.543 14.655 102.672 17.7404C103.139 19.0056 103.217 19.4631 103.207 21.1274C103.197 22.4413 103.168 22.8696 102.993 23.473C102.536 25.1568 101.66 26.7044 100.511 27.8528C100.17 28.1935 97.3576 30.6267 94.282 33.2449C91.1967 35.8727 88.6759 38.0529 88.6759 38.1016C88.6662 38.1502 89.0457 38.16 89.5226 38.121C89.9898 38.0918 93.1336 38.0432 96.5011 38.0043C102.448 37.9459 102.643 37.9556 102.974 38.1405C103.158 38.2378 103.45 38.5104 103.606 38.7342L103.898 39.1527L103.927 40.8365C103.957 42.3646 103.937 42.5592 103.762 42.9096C103.48 43.4644 102.964 43.8732 102.467 43.9511C102.234 43.9803 97.4063 43.9997 91.732 43.9803L81.4151 43.9511L80.763 43.6299C79.9747 43.2406 79.3128 42.53 79.0209 41.7612C78.6023 40.6613 78.8165 39.1819 79.527 38.3254C79.6924 38.1308 83.5564 34.6756 88.1211 30.6656C95.6836 24.0278 96.4427 23.327 96.7153 22.8112C97.0851 22.1104 97.1532 21.8282 97.1435 21.0203C97.1338 19.6869 96.3746 18.519 95.1093 17.8961L94.4572 17.5749L85.6295 17.5457L76.792 17.5262V30.0233C76.792 40.6029 76.7726 42.569 76.6558 42.8415C76.4903 43.2406 75.9647 43.7564 75.5949 43.8927C75.4391 43.9511 74.6216 43.9997 73.7456 43.9997C72.4122 43.9997 72.1105 43.9705 71.7698 43.8148Z" fill="white"/>
<path d="M21.8002 5.95392C20.3987 5.49647 19.7758 4.45505 19.8731 2.76153C19.951 1.56438 20.4668 0.688418 21.372 0.250437C21.917 -0.0123508 23.1336 -0.0707482 23.7079 0.153108C24.7396 0.542424 25.343 1.51571 24.798 1.8953C24.4476 2.14835 24.2432 2.08022 23.7566 1.55465C23.338 1.10693 23.2407 1.04854 22.8125 1.0096C22.1409 0.951206 21.7321 1.19453 21.3817 1.8661C21.1287 2.33328 21.1092 2.46954 21.1384 3.12164C21.1968 4.37719 21.7029 5.00009 22.6957 5.00982C23.1531 5.01956 23.192 5.00009 23.6982 4.46478C24.2432 3.87108 24.4379 3.80295 24.798 4.056C25.2554 4.37719 24.8758 5.22395 24.0485 5.68139C23.6203 5.92472 23.3964 5.98311 22.7833 6.00258C22.3745 6.02205 21.9365 6.00258 21.8002 5.95392Z" fill="white"/>
<path d="M31.7194 5.83742C31.5734 5.69142 31.5247 5.55516 31.5637 5.37024C31.661 4.91279 33.4032 0.357795 33.5589 0.182603C33.7341 -0.0217878 34.5225 -0.0607194 34.7755 0.133939C34.9604 0.260466 36.8194 5.29237 36.7708 5.52596C36.7513 5.61356 36.615 5.76929 36.469 5.88608C36.216 6.07101 36.177 6.07101 35.9435 5.94448C35.778 5.84715 35.6028 5.60383 35.4665 5.26318L35.2524 4.72787L34.1429 4.69867L33.0333 4.66947L32.8581 5.20478C32.6148 5.99314 32.1379 6.25593 31.7194 5.83742ZM34.8728 3.73511C34.9215 3.63778 34.2499 1.56467 34.1721 1.56467C34.1331 1.56467 33.9579 2.01239 33.7828 2.56716C33.5978 3.11221 33.4324 3.61832 33.4129 3.68645C33.374 3.77404 33.5492 3.80324 34.0942 3.80324C34.503 3.80324 34.8534 3.77404 34.8728 3.73511Z" fill="white"/>
<path d="M67.8587 5.88551C67.6445 5.73951 67.6445 5.72005 67.6445 3.02403C67.6445 0.328022 67.6445 0.308556 67.8587 0.162562C68.102 -0.0126299 68.54 -0.0418285 68.8027 0.094432C68.9001 0.152829 69.5132 1.06772 70.1751 2.13834C70.8369 3.21869 71.3917 4.07519 71.4112 4.06545C71.4306 4.04599 71.4598 3.17976 71.4793 2.14807C71.5182 0.0846991 71.5377 0.00683594 72.1314 0.00683594C72.6764 0.00683594 72.7056 0.182028 72.7056 2.97537C72.7056 5.79791 72.6862 5.88551 72.073 6.0023C71.8394 6.04123 71.6642 6.01203 71.5085 5.9147C71.3917 5.83684 70.7688 4.94141 70.1264 3.91946C69.484 2.89751 68.9293 2.06048 68.8903 2.05074C68.8417 2.05074 68.8125 2.87804 68.8125 3.89026C68.8125 5.69085 68.8027 5.73951 68.5984 5.88551C68.4816 5.9731 68.3161 6.04123 68.2285 6.04123C68.1409 6.04123 67.9754 5.9731 67.8587 5.88551Z" fill="white"/>
<path d="M79.7013 5.83731C79.5456 5.68158 79.5164 5.57452 79.5748 5.34093C79.6916 4.80562 81.3851 0.357684 81.5408 0.182492C81.7452 -0.0608306 82.5628 -0.0608306 82.8061 0.182492C83.0591 0.435547 84.8013 5.34093 84.7332 5.61345C84.704 5.73024 84.5483 5.87624 84.3828 5.94437C83.974 6.10983 83.6918 5.90544 83.4387 5.2436L83.2441 4.72775H82.1345H81.0347L80.8498 5.2144C80.5675 6.00276 80.1101 6.24609 79.7013 5.83731ZM82.8548 3.735C82.9034 3.62794 82.2416 1.56456 82.154 1.56456C82.1151 1.56456 81.9399 2.01228 81.7647 2.56705C81.5797 3.11209 81.4143 3.6182 81.3948 3.68633C81.3559 3.77393 81.5311 3.80313 82.0761 3.80313C82.4849 3.80313 82.8353 3.77393 82.8548 3.735Z" fill="white"/>
<path d="M43.9915 5.82724C43.7676 5.71044 43.7384 5.61311 43.6703 4.82475C43.6314 4.33811 43.6119 3.17016 43.6216 2.21633C43.6606 -0.0416988 43.5535 0.0653631 45.5487 0.12376C46.7848 0.152959 47.0184 0.182158 47.4272 0.386549C48.3907 0.853728 48.8093 1.75889 48.7411 3.20909C48.7119 3.86119 48.6438 4.15318 48.4491 4.53276C47.9138 5.56445 47.3007 5.85644 45.5098 5.91483C44.5657 5.94403 44.1667 5.92457 43.9915 5.82724ZM46.8724 4.57169C47.3201 4.15318 47.4369 3.81253 47.4369 2.9755C47.4369 1.61289 47.0184 1.17491 45.7239 1.17491H44.9648V3.0339V4.90261L45.7921 4.85395C46.5026 4.81502 46.6583 4.77609 46.8724 4.57169Z" fill="white"/>
<path d="M56.3834 5.8469C55.994 5.69118 55.9648 5.47705 55.9648 2.95623C55.9648 0.649534 55.9746 0.523007 56.1595 0.318616C56.3542 0.114225 56.432 0.104492 58.3007 0.104492H60.2473L60.403 0.347815C60.5393 0.552205 60.549 0.649534 60.4614 0.834459L60.3446 1.07778H58.7874H57.2301V1.75908V2.44039H58.5343C59.9164 2.44039 60.15 2.50852 60.15 2.92703C60.15 3.34555 59.9164 3.41368 58.5343 3.41368H57.2301V4.14364V4.87361H58.6317C60.3252 4.87361 60.5393 4.93201 60.5393 5.39919C60.5393 5.68144 60.5004 5.74957 60.2376 5.83717C59.8677 5.9637 56.6948 5.97343 56.3834 5.8469Z" fill="white"/>
</svg>
