<svg width="113" height="46" viewBox="0 0 113 46" fill="none" xmlns="http://www.w3.org/2000/svg">
<path d="M64.5415 30.1933C63.7381 30.0433 63.2882 29.6256 63.5024 29.2292C63.6524 28.9614 63.8773 28.9614 64.2201 29.2292C64.5308 29.4756 65.1842 29.5185 65.4734 29.3042C65.602 29.2078 65.6555 29.0579 65.6234 28.8543C65.5913 28.5758 65.4841 28.4794 64.8414 28.1366C63.8988 27.6439 63.6096 27.3225 63.6096 26.7548C63.6096 26.1121 63.8452 25.7479 64.4129 25.5336C65.1949 25.2337 66.3946 25.4479 66.3946 25.8978C66.3946 26.2299 66.1161 26.3906 65.7948 26.2406C65.1521 25.9514 64.4129 26.1871 64.4879 26.6691C64.5094 26.8619 64.6807 27.0119 65.2163 27.2797C66.1054 27.7296 66.3946 28.0188 66.4696 28.5544C66.6196 29.7006 65.7734 30.4183 64.5415 30.1933Z" fill="white"/>
<path d="M82.238 30.1291C81.456 29.8934 81.1561 29.3793 81.6274 29.0793C81.7667 28.9936 81.8845 29.0258 82.1416 29.2079C82.6129 29.5614 83.2985 29.5078 83.5234 29.1008C83.6841 28.833 83.6734 28.7901 83.4377 28.5437C83.2985 28.4045 83.0414 28.2224 82.8593 28.1474C81.8309 27.7296 81.4025 27.1512 81.5417 26.3907C81.6596 25.7586 82.5058 25.298 83.3842 25.4052C84.0483 25.4801 84.4125 25.7265 84.2947 26.0479C84.1983 26.2942 84.1983 26.2942 83.2128 26.1657C82.6129 26.0907 82.2916 26.2835 82.388 26.6692C82.4415 26.8513 82.6772 27.0441 83.2556 27.3333C84.1983 27.8153 84.4125 28.0938 84.4125 28.8223C84.4125 29.9149 83.4377 30.504 82.238 30.1291Z" fill="white"/>
<path d="M51.5799 30.1292C51.5371 30.0863 51.505 29.0258 51.505 27.7725C51.505 25.0838 51.3229 25.3516 53.1653 25.3945L54.3436 25.4266V25.748V26.0693L53.3581 26.1015L52.3619 26.1336V26.7549C52.3619 27.3441 52.3833 27.3869 52.6297 27.4512C52.7797 27.494 52.9511 27.494 53.0153 27.4619C53.0689 27.419 53.2082 27.4298 53.3367 27.4619C53.4974 27.5154 53.5402 27.6119 53.5188 27.8154C53.4867 28.0832 53.4438 28.1046 52.9296 28.1367L52.3833 28.1689L52.3405 28.6295C52.2762 29.4436 52.2655 29.4329 53.3581 29.465L54.3436 29.4971V29.8185V30.1399L52.9939 30.172C52.2548 30.1827 51.6228 30.1613 51.5799 30.1292Z" fill="white"/>
<path d="M55.0621 30.0657C54.9657 29.9693 54.9336 29.348 54.9336 27.7626V25.5881L55.2014 25.4596C55.6192 25.2668 55.8977 25.556 56.5404 26.8628C56.8617 27.5163 57.1617 28.0519 57.2045 28.0519C57.2474 28.0519 57.2902 27.5055 57.2902 26.8307C57.2902 25.4596 57.3866 25.2346 57.8794 25.4596L58.1472 25.5881V27.7626C58.1472 30.055 58.115 30.1942 57.6544 30.1942C57.3545 30.1942 57.3331 30.1621 56.5297 28.641L55.8441 27.3556L55.7905 28.7481C55.737 30.1407 55.737 30.1407 55.4692 30.1728C55.3192 30.1942 55.1371 30.1407 55.0621 30.0657Z" fill="white"/>
<path d="M60.3218 30.1184C60.1289 30.0434 60.1289 25.6837 60.311 25.5016C60.3967 25.4159 60.8574 25.373 61.6929 25.373C63.0319 25.373 63.2675 25.4587 63.1283 25.9086C63.064 26.1015 62.9783 26.1229 62.0464 26.1229H61.0287L61.0609 26.7977L61.093 27.4619L61.6607 27.494C62.0357 27.5154 62.2499 27.5797 62.2927 27.6868C62.3999 27.9653 62.1106 28.1581 61.5643 28.1581H61.0395V28.8009V29.4436H62.0464C62.9355 29.4436 63.064 29.465 63.1283 29.6471C63.1604 29.7542 63.1604 29.9256 63.1176 30.022C63.064 30.172 62.8605 30.1934 61.7464 30.1827C61.0395 30.1827 60.386 30.1506 60.3218 30.1184Z" fill="white"/>
<path d="M67.2195 30.1189C67.1767 30.0868 67.1445 29.0263 67.1445 27.773V25.4807L67.423 25.4164C67.8729 25.2986 69.2119 25.4378 69.5868 25.6306C70.4545 26.0805 70.4545 27.6231 69.5868 28.1587C69.3405 28.3086 69.0512 28.3729 68.6228 28.3729H68.0015V29.0799C68.0015 29.4655 67.9479 29.8726 67.8944 29.9904C67.7872 30.1832 67.3588 30.2689 67.2195 30.1189ZM69.2226 27.4945C69.4797 27.141 69.4369 26.6911 69.1262 26.3805C68.912 26.1662 68.7727 26.1127 68.3978 26.1448C68.1514 26.1662 67.9586 26.2091 67.9801 26.2627C67.9908 26.3055 68.0015 26.6483 68.0015 27.0339V27.7302H68.5264C68.9548 27.7302 69.0941 27.6873 69.2226 27.4945Z" fill="white"/>
<path d="M71.4414 30.0542C71.3021 29.9899 71.0772 29.7864 70.9593 29.6257C70.7558 29.3472 70.7344 29.1758 70.7344 27.8475C70.7344 26.2193 70.8094 25.9623 71.345 25.6409C71.7627 25.3945 72.6625 25.3838 73.1017 25.6195C73.648 25.898 73.7873 26.3479 73.7873 27.7726C73.7873 29.2615 73.6266 29.765 73.091 30.0221C72.6732 30.2256 71.8056 30.247 71.4414 30.0542ZM72.7589 29.208C72.8875 29.0259 72.9303 28.6938 72.9303 27.8904C72.9303 27.3012 72.8982 26.7121 72.866 26.5943C72.7268 26.0801 71.827 26.0265 71.6342 26.5193C71.5806 26.6585 71.5378 27.2691 71.5378 27.869C71.5378 29.1651 71.6556 29.4436 72.234 29.4436C72.4911 29.4436 72.6518 29.3686 72.7589 29.208Z" fill="white"/>
<path d="M74.5784 30.0536C74.5569 29.9786 74.5462 28.9074 74.5569 27.6755L74.5891 25.426L75.2853 25.3939C76.1851 25.3511 77.0207 25.5332 77.2885 25.8331C77.8455 26.4437 77.6634 27.622 76.9564 28.0183C76.8171 28.0933 76.8707 28.254 77.2349 28.9824C77.6205 29.7215 77.6634 29.8715 77.5456 30.0214C77.4706 30.1179 77.2885 30.1928 77.1492 30.1928C76.9457 30.1928 76.8171 30.0214 76.3887 29.2073C75.9816 28.4254 75.8209 28.2219 75.6388 28.2111C75.4032 28.1897 75.3925 28.2326 75.3925 28.9824C75.3925 29.4216 75.3389 29.8715 75.2853 29.9893C75.1568 30.225 74.6641 30.2678 74.5784 30.0536ZM76.6136 27.2792C77.0207 26.7008 76.7315 26.2187 75.9495 26.1437L75.3925 26.0902V26.8079V27.5149H75.9173C76.3458 27.5149 76.4851 27.472 76.6136 27.2792Z" fill="white"/>
<path d="M79.2178 30.1189C79.175 30.0867 79.1428 29.2191 79.1428 28.2121C79.1428 26.209 79.1 26.0483 78.5751 26.1769C78.2323 26.2626 77.8574 26.0698 77.8574 25.8127C77.8574 25.427 78.0931 25.3628 79.5713 25.3949C80.7925 25.427 81.0067 25.4592 81.1138 25.6199C81.3281 25.9519 81.071 26.1769 80.4711 26.1769H79.9462L79.9248 28.0407C79.9141 29.0584 79.882 29.9582 79.8498 30.0439C79.7963 30.1938 79.3464 30.2474 79.2178 30.1189Z" fill="white"/>
<path d="M87.5076 29.9582C87.454 29.819 87.4219 29.3798 87.4219 28.962C87.4326 28.2336 87.4112 28.1801 86.7684 27.0767C86.4042 26.4447 86.1043 25.877 86.0829 25.802C86.04 25.6306 86.5006 25.3736 86.6935 25.4378C86.7684 25.47 87.0362 25.8877 87.2826 26.3698C87.529 26.8518 87.7754 27.291 87.8182 27.3445C87.8718 27.3981 88.1288 27.0018 88.3966 26.4769C88.6644 25.9413 88.943 25.4807 89.0179 25.4593C89.2322 25.3736 89.6392 25.5664 89.6392 25.7485C89.6392 25.8449 89.3393 26.434 88.9751 27.066C88.3109 28.2015 88.3002 28.2229 88.2467 29.1763C88.1931 30.1296 88.1931 30.1403 87.9039 30.1725C87.6682 30.2046 87.5825 30.1511 87.5076 29.9582Z" fill="white"/>
<path d="M91.9108 29.9255C91.4395 29.5292 91.3217 28.9936 91.3752 27.5154C91.4181 26.1442 91.5466 25.8229 92.1465 25.5765C92.6071 25.3837 93.4319 25.4265 93.8389 25.6622C94.3103 25.93 94.5995 26.6798 94.3317 26.9369C94.0639 27.2047 93.6461 27.0547 93.5712 26.6584C93.4747 26.2299 93.0891 26.0478 92.6499 26.2192C92.2643 26.3906 92.2107 26.562 92.2107 27.8903C92.2107 29.165 92.3393 29.4435 92.907 29.4435C93.3248 29.4435 93.6033 29.1436 93.6033 28.6722C93.6033 28.4259 93.5497 28.383 93.2605 28.3509C92.9606 28.3295 92.8963 28.2652 92.8749 28.0295C92.8535 27.8153 92.8856 27.7296 93.0034 27.7189C93.7211 27.6867 94.2353 27.7082 94.3424 27.7724C94.5031 27.8796 94.4924 28.9508 94.3103 29.3685C94.0639 29.9577 93.7747 30.1291 92.9713 30.1719C92.3179 30.2148 92.2215 30.1933 91.9108 29.9255Z" fill="white"/>
<path d="M94.9523 30.0541C94.7595 29.9149 94.7809 29.8292 95.3701 27.8796C95.7129 26.7656 96.0556 25.748 96.1306 25.6194C96.2377 25.448 96.3877 25.373 96.6019 25.373C96.8162 25.373 96.9662 25.4587 97.0733 25.6194C97.159 25.748 97.5017 26.7656 97.8445 27.8796C98.4337 29.8399 98.4551 29.9042 98.2516 30.0541C97.8874 30.3219 97.641 30.1827 97.5125 29.6578L97.3946 29.1758L96.6341 29.1436L95.8628 29.1115L95.7236 29.6257C95.5629 30.1827 95.3165 30.3219 94.9523 30.0541ZM97.0947 28.2438C97.0626 28.1046 96.9554 27.6975 96.859 27.3333C96.7626 26.9584 96.6555 26.6585 96.6127 26.6585C96.5698 26.6585 96.452 26.9798 96.3449 27.3869C96.2377 27.7832 96.1199 28.1903 96.0985 28.2974C96.0449 28.4581 96.1199 28.4795 96.6019 28.4795C97.1268 28.4795 97.159 28.4688 97.0947 28.2438Z" fill="white"/>
<path d="M98.9158 30.022C98.8837 29.9256 98.8516 28.9187 98.8516 27.7832C98.8516 26.0372 98.8837 25.6837 99.023 25.5444C99.3872 25.1695 99.7299 25.4266 100.33 26.5299C100.801 27.419 100.758 27.4297 101.358 26.2621C101.787 25.4052 102.397 25.1481 102.579 25.7372C102.622 25.8551 102.633 26.9048 102.601 28.051L102.547 30.1398H102.226H101.904L101.872 28.7258C101.862 27.9439 101.808 27.3012 101.765 27.3012C101.722 27.3012 101.53 27.5904 101.337 27.9332C101.144 28.2759 100.919 28.5866 100.844 28.6187C100.64 28.6937 100.426 28.4366 100.105 27.7618C99.9656 27.4511 99.8156 27.2262 99.7728 27.269C99.7406 27.3012 99.7085 27.9546 99.7085 28.7044C99.7085 29.8399 99.6764 30.0755 99.5371 30.1291C99.2372 30.2469 98.9801 30.1934 98.9158 30.022Z" fill="white"/>
<path d="M103.598 30.1187C103.491 30.0865 103.459 29.5081 103.459 27.7835C103.459 25.609 103.47 25.4911 103.673 25.4269C103.78 25.3947 103.973 25.4162 104.102 25.4804C104.305 25.5876 104.316 25.6947 104.316 27.7621C104.316 29.3153 104.284 29.9687 104.187 30.0651C104.059 30.1937 103.834 30.2151 103.598 30.1187Z" fill="white"/>
<path d="M105.129 30.0336C105.097 29.9371 105.064 28.8981 105.064 27.7305C105.064 25.6631 105.075 25.5881 105.289 25.4703C105.718 25.2453 105.964 25.4917 106.628 26.8093C106.982 27.4948 107.293 28.0519 107.346 28.0519C107.389 28.0519 107.421 27.5055 107.421 26.8307C107.421 25.4596 107.517 25.2346 108.01 25.4596L108.278 25.5881V27.7626C108.278 30.055 108.246 30.1942 107.785 30.1942C107.475 30.1942 107.421 30.1192 106.286 27.9447L105.975 27.3556L105.921 28.7481L105.868 30.1407L105.536 30.1728C105.3 30.1942 105.182 30.1514 105.129 30.0336Z" fill="white"/>
<path d="M109.608 29.9906C109.093 29.68 109.008 29.3372 109.051 27.6447C109.083 26.2415 109.104 26.1236 109.329 25.8773C110.165 24.9882 112.029 25.4916 112.029 26.6057C112.029 26.9163 111.986 26.9913 111.761 27.0448C111.45 27.1198 111.172 26.9377 111.172 26.6485C111.172 26.1558 110.229 25.9951 109.993 26.445C109.929 26.5521 109.886 27.2269 109.886 27.9339C109.886 29.3586 109.929 29.4443 110.604 29.4443C111.022 29.4443 111.172 29.2622 111.172 28.7802C111.172 28.4267 111.139 28.3731 110.915 28.3731C110.615 28.3731 110.368 28.116 110.465 27.8911C110.507 27.7733 110.7 27.7304 111.279 27.7304H112.029V28.4802C112.029 29.4015 111.836 29.8299 111.332 30.0442C110.807 30.2584 110.004 30.237 109.608 29.9906Z" fill="white"/>
<path d="M51.9662 21.0667C51.527 20.8525 51.3984 20.3598 51.3984 18.9672C51.3984 18.2495 51.4413 17.5532 51.5056 17.4033C51.6448 17.0391 52.2125 16.6963 52.6839 16.6963C53.3694 16.6963 54.0978 17.3711 53.9264 17.8425C53.83 18.0781 53.6372 17.9924 53.5194 17.6604C53.4658 17.4783 53.3266 17.2854 53.2195 17.2319C52.8767 17.0498 52.2768 17.1033 52.0412 17.339C51.8483 17.5318 51.8269 17.6925 51.8269 18.9244C51.8269 20.4669 51.9126 20.7132 52.5125 20.8311C52.9838 20.9168 53.3052 20.7347 53.498 20.2741C53.6586 19.8884 53.83 19.8027 53.9264 20.0705C54.0336 20.3276 53.7765 20.8204 53.4444 21.0132C53.1016 21.2167 52.3304 21.2381 51.9662 21.0667Z" fill="white"/>
<path d="M54.3553 21.1096C54.3017 21.0239 55.48 17.0498 55.63 16.7927C55.7157 16.6642 55.9728 16.6642 56.0478 16.7927C56.1227 16.9212 57.2582 20.649 57.3118 20.9275C57.3332 21.056 57.2796 21.1524 57.1725 21.1739C57.0333 21.1953 56.9583 21.0667 56.8512 20.6597L56.7119 20.1134L55.8657 20.1455L55.0194 20.1777L54.8373 20.649C54.6659 21.1203 54.4731 21.3024 54.3553 21.1096ZM56.5298 19.6742C56.5298 19.5992 56.3691 19.0529 56.1763 18.4638L55.8335 17.3926L55.4907 18.4852C55.2979 19.0743 55.148 19.6206 55.148 19.6849C55.148 19.7599 55.4158 19.8027 55.8442 19.8027C56.337 19.8027 56.5405 19.7599 56.5298 19.6742Z" fill="white"/>
<path d="M58.7888 19.1704V17.1352L58.2318 17.103C57.814 17.0816 57.6641 17.028 57.6641 16.9102C57.6641 16.7817 57.889 16.7388 58.8852 16.7174C60.2778 16.6853 60.492 16.7174 60.2885 16.9638C60.2028 17.0602 59.9671 17.1245 59.6886 17.1245H59.2173V18.8276C59.2173 20.6915 59.153 21.195 58.9388 21.195C58.8209 21.195 58.7888 20.8201 58.7888 19.1704Z" fill="white"/>
<path d="M60.9316 18.9458V16.6855L62.1421 16.7177C63.1276 16.7391 63.3418 16.782 63.3418 16.9105C63.3418 17.039 63.1597 17.0712 62.3456 17.0712H61.3601V17.896V18.7208L61.8743 18.7529C62.2385 18.7744 62.3777 18.8279 62.3777 18.9458C62.3777 19.0636 62.2385 19.1171 61.8636 19.1386L61.3494 19.1707L61.3815 19.9955L61.4137 20.8096L62.3349 20.8203C62.8384 20.831 63.3097 20.8739 63.374 20.9167C63.6846 21.1096 63.299 21.1953 62.1528 21.1953H60.9316V18.9458Z" fill="white"/>
<path d="M64.0391 18.9458V16.6963H64.8746C65.9029 16.6963 66.3314 16.9105 66.4921 17.5211C66.6421 18.0674 66.6313 19.9741 66.4707 20.4455C66.2886 20.9703 65.8065 21.1953 64.821 21.1953H64.0391V18.9458ZM65.7637 20.724C66.0743 20.5954 66.1814 20.1348 66.1814 18.9458C66.1814 17.2426 66.0529 17.0712 64.821 17.1141L64.4675 17.1248V18.9886V20.8418L65.0353 20.8204C65.3352 20.8097 65.6673 20.7561 65.7637 20.724Z" fill="white"/>
<path d="M67.4668 18.9457V16.6748L68.4202 16.7177C69.2557 16.7498 69.4164 16.7819 69.652 17.0069C69.9734 17.3068 70.1126 18.0031 69.9412 18.4423C69.877 18.6029 69.6627 18.8386 69.4592 18.9564L69.0843 19.1814L69.577 20.0812C69.952 20.7882 70.0377 21.0238 69.9412 21.1202C69.7699 21.2809 69.6199 21.0881 69.0629 19.9955C68.6558 19.1921 68.6237 19.16 68.2702 19.16H67.906L67.8738 20.1455C67.8417 20.9917 67.8096 21.1417 67.6596 21.1738C67.4775 21.2059 67.4668 21.0453 67.4668 18.9457ZM69.0629 18.7208C69.4485 18.5815 69.6092 18.3459 69.6092 17.8852C69.6092 17.3497 69.2878 17.1247 68.538 17.1247H67.8953V17.9817V18.8386H68.313C68.538 18.8386 68.8701 18.785 69.0629 18.7208Z" fill="white"/>
<path d="M70.4223 21.1104C70.3581 20.9926 71.5899 16.922 71.7399 16.7721C71.9863 16.5257 72.1684 16.8899 72.779 18.8502C73.1217 19.9964 73.411 20.9711 73.411 21.0354C73.411 21.089 73.336 21.1532 73.2396 21.1747C73.1217 21.1961 73.0253 21.0461 72.9182 20.6926L72.7575 20.1785L71.9006 20.1463L71.0436 20.1142L70.9044 20.6605C70.7758 21.1532 70.5723 21.3461 70.4223 21.1104ZM72.6076 19.7286C72.6076 19.6 71.9756 17.5219 71.922 17.4683C71.8685 17.4255 71.215 19.4822 71.215 19.6857C71.215 19.7607 71.4614 19.8035 71.9113 19.8035C72.2969 19.8035 72.6076 19.7714 72.6076 19.7286Z" fill="white"/>
<path d="M75.2852 18.9458V16.6963H76.0671C77.0526 16.6963 77.5347 16.9212 77.7168 17.4461C77.7917 17.6496 77.8453 18.3245 77.8453 18.9458C77.8453 19.5671 77.7917 20.2419 77.7168 20.4455C77.5347 20.9703 77.0526 21.1953 76.0671 21.1953H75.2852V18.9458ZM77.1919 20.499C77.4061 20.2419 77.4275 20.1134 77.4275 18.9886C77.4275 17.8103 77.3418 17.3926 77.0633 17.2105C76.9991 17.1676 76.667 17.1248 76.3349 17.1248H75.7136V18.9244C75.7136 19.9206 75.7458 20.7668 75.7993 20.8097C75.8422 20.8632 76.1207 20.8632 76.4099 20.8311C76.8062 20.7882 77.0098 20.7025 77.1919 20.499Z" fill="white"/>
<path d="M78.7343 18.9783L78.7665 16.7502L79.9769 16.7181C81.0909 16.6967 81.1873 16.7074 81.1552 16.8788C81.1231 17.0394 80.9838 17.0716 80.1269 17.1037L79.1414 17.1358V17.9285V18.7319H79.5484C79.7627 18.7319 80.009 18.7748 80.0947 18.8283C80.3518 18.9997 80.1054 19.1604 79.5913 19.1604H79.0878L79.1199 19.9638C79.1521 20.7029 79.1735 20.7672 79.3877 20.7779C79.5163 20.7886 79.6984 20.81 79.7841 20.8207C79.8698 20.8314 80.2233 20.8529 80.566 20.8636C81.0267 20.8743 81.1766 20.9171 81.1766 21.035C81.1766 21.1635 80.9731 21.1957 79.9448 21.1957H78.7129L78.7343 18.9783Z" fill="white"/>
<path d="M83.0623 21.0239C83.0302 20.9275 82.998 19.9956 82.998 18.9458C82.998 16.9534 83.0302 16.6963 83.2766 16.6963C83.4051 16.6963 83.4265 17.0926 83.4265 18.9458C83.4265 20.7989 83.4051 21.1953 83.2766 21.1953C83.1909 21.1953 83.0945 21.1203 83.0623 21.0239Z" fill="white"/>
<path d="M84.3906 18.9463C84.3906 16.0862 84.4228 16.0755 85.6225 18.4107L86.4794 20.071L86.533 18.4107C86.5759 16.9431 86.608 16.7503 86.7794 16.7182C86.9508 16.6861 86.9615 16.8467 86.9615 18.9463C86.9615 21.817 86.9401 21.8278 85.7082 19.4283L84.8298 17.7144L84.7977 19.4283C84.7655 20.9601 84.7441 21.1422 84.5834 21.1743C84.4013 21.2065 84.3906 21.0458 84.3906 18.9463Z" fill="white"/>
<path d="M87.9258 18.9355C87.9258 16.0754 87.9472 16.0754 89.1791 18.4642L90.0574 20.1781L90.0896 18.4642C90.1217 17.0288 90.1431 16.7503 90.2824 16.7503C90.4217 16.7503 90.4431 17.0823 90.4752 18.9783C90.5073 21.817 90.4752 21.8277 89.2648 19.4604L88.4078 17.7786L88.3864 19.2461C88.3543 20.9065 88.3114 21.1957 88.0865 21.1957C87.9472 21.1957 87.9258 20.8636 87.9258 18.9355Z" fill="white"/>
<path d="M91.8151 20.9383C91.5687 20.724 91.5152 20.5741 91.4616 19.9635C91.4295 19.5672 91.4295 18.7852 91.4616 18.2282C91.5259 17.0927 91.6544 16.8785 92.3828 16.7392C92.8863 16.6428 93.2612 16.7606 93.6147 17.1248L93.9253 17.4248V18.8816C93.9253 19.7707 93.8718 20.4348 93.7968 20.6062C93.5183 21.2168 92.3721 21.4096 91.8151 20.9383ZM93.1219 20.7455C93.5076 20.5741 93.6361 19.9742 93.5826 18.6566C93.5183 17.3391 93.4005 17.1248 92.6828 17.1248C92.3186 17.1248 92.1793 17.1784 92.0079 17.4033C91.8151 17.6604 91.783 17.8425 91.783 18.9137C91.783 20.4884 91.9329 20.8097 92.6613 20.8633C92.7577 20.8633 92.972 20.8204 93.1219 20.7455Z" fill="white"/>
<path d="M95.8099 21.11C95.7777 21.0457 95.4564 20.071 95.1029 18.9355C94.6851 17.5751 94.503 16.8253 94.5673 16.761C94.7601 16.5682 94.8672 16.8145 95.4135 18.6141C95.7027 19.5782 95.9705 20.3816 96.0027 20.4137C96.0241 20.4459 96.1526 20.1138 96.2812 19.6746C96.8275 17.8108 97.2024 16.761 97.3417 16.7181C97.5666 16.6432 97.4488 17.2216 96.7846 19.3211C96.3883 20.6066 96.1741 21.1529 96.0455 21.1743C95.9491 21.1957 95.842 21.1636 95.8099 21.11Z" fill="white"/>
<path d="M97.8442 21.1098C97.7799 20.992 99.0225 16.9107 99.1725 16.7608C99.4081 16.5251 99.601 16.9 100.19 18.8496C100.533 19.9957 100.822 20.9705 100.822 21.0241C100.833 21.0884 100.758 21.1419 100.661 21.1633C100.544 21.1955 100.447 21.0562 100.34 20.692L100.179 20.1778L99.3224 20.1457L98.4655 20.1136L98.3048 20.617C98.1548 21.1098 97.9727 21.3133 97.8442 21.1098ZM100.029 19.7279C100.029 19.5994 99.3974 17.5213 99.3439 17.4677C99.2903 17.4249 98.6369 19.4816 98.6369 19.6851C98.6369 19.7601 98.8833 19.8029 99.3332 19.8029C99.7188 19.8029 100.029 19.7708 100.029 19.7279Z" fill="white"/>
<path d="M101.99 21.088C101.487 20.8845 101.369 20.5096 101.369 19.0528C101.369 17.4996 101.487 17.1139 102.012 16.8676C102.451 16.6533 102.826 16.6533 103.297 16.8461C103.694 17.0175 103.886 17.296 103.886 17.7031C103.886 18.0459 103.608 18.078 103.501 17.7459C103.372 17.296 103.126 17.1246 102.655 17.1246C101.915 17.1246 101.808 17.3389 101.765 18.8386C101.723 20.3704 101.84 20.7131 102.462 20.831C102.922 20.9167 103.383 20.7131 103.447 20.3918C103.49 20.1133 103.672 19.899 103.79 19.974C103.994 20.0918 103.876 20.5739 103.576 20.8845C103.308 21.1416 103.179 21.1952 102.74 21.1845C102.462 21.1845 102.119 21.1416 101.99 21.088Z" fill="white"/>
<path d="M104.701 21.0239C104.669 20.9275 104.637 19.9956 104.637 18.9458C104.637 16.9534 104.669 16.6963 104.915 16.6963C105.044 16.6963 105.065 17.0926 105.065 18.9458C105.065 20.7989 105.044 21.1953 104.915 21.1953C104.83 21.1953 104.733 21.1203 104.701 21.0239Z" fill="white"/>
<path d="M106.34 20.8851C106.136 20.6709 106.029 20.4567 106.018 20.2103C105.922 17.4466 106.061 16.911 106.95 16.7396C107.475 16.6432 107.925 16.7825 108.225 17.1467C108.482 17.4466 108.493 17.5216 108.493 18.8927C108.493 19.7818 108.439 20.4352 108.364 20.6066C108.193 20.9815 107.754 21.1958 107.154 21.1958C106.747 21.1958 106.597 21.1422 106.34 20.8851ZM107.679 20.7566C108.086 20.5638 108.204 20.0496 108.15 18.7213C108.097 17.3288 107.979 17.1253 107.25 17.1253C106.886 17.1253 106.747 17.1788 106.575 17.4038C106.372 17.6609 106.35 17.8322 106.35 18.9677C106.35 19.6747 106.404 20.3388 106.468 20.4567C106.661 20.8316 107.207 20.9601 107.679 20.7566Z" fill="white"/>
<path d="M109.424 21.1203C109.296 21.0025 109.338 16.8248 109.456 16.7498C109.67 16.6213 109.906 16.9534 110.72 18.5709L111.545 20.1777L111.577 18.4423C111.599 17.0498 111.631 16.6963 111.749 16.6963C111.834 16.6963 111.92 16.7606 111.941 16.8355C112.027 17.0712 111.974 21.0667 111.888 21.1631C111.738 21.3024 111.406 20.7989 110.592 19.2136L109.831 17.7139L109.799 19.46C109.778 20.7989 109.745 21.1953 109.628 21.1953C109.553 21.1953 109.456 21.1631 109.424 21.1203Z" fill="white"/>
<path d="M55.4688 15.8504C55.4688 15.7218 56.1864 15.3041 56.2614 15.3791C56.39 15.5076 56.315 15.6254 56.0043 15.7861C55.6509 15.9682 55.4688 15.9896 55.4688 15.8504Z" fill="white"/>
<path d="M106.885 15.8396C106.885 15.7325 107.442 15.4111 107.635 15.4111C107.849 15.4111 107.731 15.6254 107.42 15.786C107.056 15.9682 106.885 15.9896 106.885 15.8396Z" fill="white"/>
<path d="M20.0849 45.5191C18.6602 45.2942 16.1965 44.6622 15.0717 44.223C13.8184 43.741 11.2583 42.4341 10.4656 41.8771C6.50221 39.1027 4.0599 36.3498 2.27101 32.6649C-0.278416 27.4053 -0.69618 21.4816 1.09271 16.0293C1.59617 14.5296 2.86017 11.9695 3.82424 10.5127C5.55957 7.92039 8.41964 5.19957 11.0548 3.63563C14.354 1.68607 17.1284 0.754133 21.2096 0.207826L21.7131 0.143555V4.83536V9.52717L20.5027 9.81639C18.221 10.3734 15.9394 11.7017 14.1826 13.4906C13.0043 14.6796 12.1688 15.8579 11.5475 17.1969C11.194 17.9681 10.787 19.05 10.7441 19.3607C10.7334 19.4142 13.0793 19.4464 15.9394 19.4357C18.8102 19.4357 21.2739 19.4571 21.4346 19.4999L21.7131 19.5642V23.8383V28.1123H16.4107H11.1083L11.2262 28.4122C12.2759 31.1866 15.0289 34.1324 17.9425 35.5999C18.7031 35.9855 20.5669 36.6175 21.2632 36.7354L21.7131 36.8104V41.2451V45.6798L21.3703 45.6691C21.1775 45.6584 20.5991 45.5941 20.0849 45.5191Z" fill="white"/>
<path d="M26.1269 41.0487L26.159 36.6354L26.8017 36.4962C28.7192 36.1105 30.7223 35.2215 32.1791 34.1288L32.9611 33.5397V30.7118V27.8838H29.5333H26.1055V23.5776V19.2607H34.0644H42.0126L42.0448 28.8586L42.0662 38.4672L41.2199 39.2598C39.7631 40.6417 37.4065 42.0771 34.8892 43.1268C31.515 44.5301 29.6083 45.055 26.6625 45.3978L26.1055 45.462L26.1269 41.0487Z" fill="white" fill-opacity="0.47"/>
<path d="M33.9787 13.3149C33.2931 12.5972 31.6328 11.3439 30.6473 10.7976C29.6618 10.2513 27.423 9.43718 26.5125 9.29792L26.1055 9.23365V4.61683V0L26.9089 0.0749832C29.062 0.267797 32.554 1.31756 34.7607 2.4316C35.6819 2.89221 36.9673 3.66347 37.9314 4.31689C38.7241 4.85249 40.2987 6.20219 40.2987 6.35215C40.2987 6.43785 39.8703 6.98415 38.4349 8.69806C38.0599 9.14796 37.0959 10.3048 36.2925 11.2689C35.4891 12.2437 34.7178 13.1756 34.5679 13.347L34.3001 13.647L33.9787 13.3149Z" fill="white" fill-opacity="0.47"/>
</svg>
