<svg width="218" height="42" viewBox="0 0 218 42" fill="none" xmlns="http://www.w3.org/2000/svg">
<g clip-path="url(#clip0_748_2409)">
<path d="M174.563 29.8252C171.842 28.8219 170.992 25.183 173.032 23.2616C174.903 21.5272 177.844 22.1563 179.086 24.5709C179.511 25.3871 179.562 26.8494 179.188 27.7337C178.814 28.5839 177.861 29.4681 176.892 29.8081C175.923 30.1482 175.464 30.1652 174.563 29.8252Z" fill="white"/>
<path d="M39.67 28.5498C35.436 27.9036 32.5793 25.6081 31.338 21.8672C30.9299 20.6089 30.8789 20.2518 30.8789 17.8542C30.8789 15.4396 30.9129 15.0996 31.338 13.8413C32.4093 10.6445 34.5518 8.53599 37.9186 7.37972C38.6668 7.12466 39.3469 7.05664 41.2344 7.05664C43.2919 7.05664 43.768 7.10765 44.7712 7.44773C48.6821 8.80806 50.5016 11.8858 50.5016 17.123V19.3846H43.785H37.0684L37.1704 19.8607C37.3574 20.7449 38.1056 22.0882 38.6498 22.5473C39.704 23.4485 40.5542 23.6866 42.7817 23.7716C45.0603 23.8566 46.7267 23.6016 48.5291 22.8704C50.2465 22.1902 50.1615 22.0882 50.1615 24.8259V27.2234L49.3623 27.5635C47.7469 28.2607 45.9445 28.5838 43.2749 28.6518C41.8805 28.6858 40.2481 28.6518 39.67 28.5498ZM44.5502 14.8445C44.5502 13.5522 43.785 12.1238 42.8498 11.6477C42.5607 11.4947 41.8975 11.3927 41.2344 11.3927C40.0271 11.3927 39.1429 11.7328 38.4797 12.4469C38.0886 12.855 37.5275 14.0453 37.3404 14.8445L37.2384 15.3036H40.8943H44.5502V14.8445Z" fill="white"/>
<path d="M106.615 28.4311C103.69 27.6659 101.752 25.5234 100.816 22.0206C100.272 20.0651 100.272 15.9842 100.816 14.0287C101.326 12.0902 102.109 10.6109 103.197 9.4546C104.914 7.66918 107.176 6.83598 109.93 7.00602C111.546 7.10805 113.042 7.70319 114.13 8.65541C114.471 8.94448 114.777 9.18254 114.828 9.18254C114.879 9.18254 114.964 8.79145 115.032 8.33234L115.151 7.48213H118.194H121.238V17.8546V28.2271H118.535H115.831L115.627 27.3429C115.253 25.6935 115.355 25.7445 114.267 26.7477C113.739 27.2408 112.957 27.819 112.549 28.006C110.9 28.7712 108.57 28.9412 106.615 28.4311ZM113.059 23.3809C113.45 23.2449 114.011 22.9728 114.284 22.7688L114.777 22.4117L114.743 17.6336L114.692 12.8384L113.824 12.3623C112.77 11.8012 111.257 11.6141 110.22 11.9032C109.25 12.1582 108.111 13.2125 107.652 14.2838C107.176 15.389 106.904 17.4975 107.04 18.9599C107.244 21.1194 108.128 22.7348 109.403 23.3129C110.271 23.704 112.056 23.738 113.059 23.3809Z" fill="white"/>
<path d="M157.491 28.5666C153.393 27.8184 150.434 25.3188 149.176 21.5269C148.785 20.3366 148.734 19.8605 148.717 17.939C148.717 16.3237 148.802 15.4394 149.023 14.6233C150.264 10.0832 154.022 7.2435 159.089 7.00544C162.677 6.8524 165.636 7.85564 167.829 9.96414C169.955 12.0046 170.924 14.5042 170.907 17.854C170.907 21.1528 169.989 23.5164 167.914 25.6079C166.605 26.9172 165.007 27.8354 163.153 28.3285C161.929 28.6516 158.732 28.7876 157.491 28.5666ZM161.283 23.7884C162.184 23.5334 163.442 22.2411 163.833 21.1528C164.02 20.6087 164.156 19.6224 164.207 18.2451C164.293 16.4767 164.241 16.0006 163.952 15.0143C163.748 14.3852 163.408 13.603 163.17 13.2799C161.317 10.7633 157.457 11.1544 156.046 13.9771C155.093 15.9156 155.042 19.3334 155.927 21.4079C156.369 22.4111 157.355 23.4143 158.239 23.7204C159.038 24.0095 160.365 24.0435 161.283 23.7884Z" fill="white"/>
<path d="M189.408 28.4821C185.633 27.7679 183.372 26.1695 181.943 23.2108C180.753 20.7622 180.447 17.1574 181.195 14.3687C181.858 11.8521 183.814 9.3355 185.973 8.19623C188.082 7.09097 191.041 6.68287 193.608 7.15898C196.006 7.60109 198.267 9.18246 199.339 11.1719C200.24 12.8723 200.835 16.3242 200.58 18.4327L200.461 19.3849H193.829H187.215V19.793C187.215 20.014 187.47 20.6772 187.776 21.2723C188.813 23.2788 190.394 23.908 194.05 23.7719C195.887 23.7039 196.363 23.6189 197.961 23.0748C198.947 22.7177 199.849 22.4456 199.951 22.4456C200.07 22.4456 200.138 23.2108 200.138 24.8262V27.1898L199.611 27.4788C199.322 27.6319 198.335 27.9379 197.434 28.176C195.343 28.7201 191.415 28.8732 189.408 28.4821ZM194.577 14.5898C194.526 14.1817 194.305 13.4675 194.084 12.9914C193.54 11.8351 192.758 11.393 191.262 11.393C189.306 11.393 187.997 12.4302 187.487 14.4197L187.249 15.3039H190.956H194.662L194.577 14.5898Z" fill="white"/>
<path d="M56.2156 28.3116C54.3622 27.7845 53.3419 26.5432 53.0529 24.4687C52.9678 23.8736 52.8828 18.4663 52.8828 12.4639V1.53027H56.1986H59.5144V12.3108V23.1084L59.9905 23.4655C60.3646 23.7716 60.5856 23.8226 61.2658 23.7376L62.065 23.6185V25.8291V28.0226L61.5209 28.2266C60.6537 28.5497 57.2018 28.6007 56.2156 28.3116Z" fill="white"/>
<path d="M205.952 28.3796C204.796 28.1925 203.096 27.6144 202.398 27.1723L201.837 26.8322V24.3836C201.837 22.9213 201.905 21.935 202.007 21.935C202.092 21.935 202.517 22.1561 202.96 22.4451C205.714 24.1796 210.611 24.4346 211.343 22.8532C211.921 21.5609 211.258 20.9658 208.384 20.2516C205.697 19.5885 204.66 19.1294 203.623 18.1771C201.735 16.4257 201.191 13.365 202.33 10.8144C203.079 9.11397 205.017 7.66862 207.279 7.12449C209.285 6.64838 213.672 6.97146 215.645 7.77065L216.291 8.02571V10.4913C216.291 12.7868 216.274 12.9569 216.002 12.8208C215.832 12.7528 215.049 12.4638 214.25 12.1747C212.958 11.7326 212.584 11.6646 210.73 11.6646C208.894 11.6476 208.622 11.6816 208.18 12.0047C207.398 12.5998 207.432 13.8241 208.248 14.3172C208.503 14.4702 209.778 14.8613 211.071 15.2014C214.828 16.1706 216.393 17.1059 217.209 18.8573C217.736 19.9966 217.702 22.8022 217.158 24.1796C216.036 27.0532 213.094 28.5836 208.826 28.5496C207.738 28.5326 206.445 28.4646 205.952 28.3796Z" fill="white"/>
<path d="M91.7714 28.2774C91.7034 28.2264 91.6523 23.5163 91.6523 17.8199V7.48145H94.8831H98.1139V17.9389V28.3964H95.0021C93.2847 28.3964 91.8224 28.3454 91.7714 28.2774Z" fill="white"/>
<path d="M124.469 17.939V7.48155H127.342H130.199L130.318 8.80787C130.522 11.0354 130.505 11.0184 131.406 9.84512C132.682 8.12771 134.535 7.14147 136.44 7.14147C138.191 7.14147 138.089 6.92042 138.038 10.4062L137.987 13.467L136.032 13.45C133.787 13.416 132.733 13.654 131.644 14.4532L130.93 14.9633V21.6799V28.3965H127.7H124.469V17.939Z" fill="white"/>
<path d="M140.028 28.1924C139.977 28.0733 139.96 23.3802 139.977 17.7689L140.028 7.56647L143.31 7.51545L146.575 7.48145L146.541 17.8879L146.49 28.3114L143.293 28.3624C140.844 28.3964 140.079 28.3624 140.028 28.1924Z" fill="white"/>
<path d="M64.4453 14.8613V1.49609L70.8728 1.58111C76.0931 1.64913 77.5214 1.70014 78.5417 1.9382C83.949 3.1965 87.2137 5.96816 88.5571 10.4572C89.1182 12.2937 89.2712 16.2896 88.8631 18.2961C88.0979 22.139 86.0915 24.7916 82.7757 26.441C79.732 27.9374 77.6405 28.2265 70.0226 28.2265H64.4453V14.8613ZM77.0623 22.4451C80.1911 21.4759 81.6364 19.1973 81.6704 15.1333C81.6874 11.4265 80.4631 9.01188 77.9805 7.8386C76.6032 7.19245 75.4809 6.9714 73.4575 6.9714H71.7571V14.9973V23.0062L73.8486 22.9042C75.2089 22.8362 76.3311 22.6661 77.0623 22.4451Z" fill="white"/>
<path d="M91.6523 2.63563V0H94.8831H98.1139V2.63563V5.27126H94.8831H91.6523V2.63563Z" fill="white"/>
<path d="M139.977 2.68658L140.028 0.0849609H143.259H146.489L146.54 2.68658L146.591 5.2712H143.259H139.926L139.977 2.68658Z" fill="white"/>
<path d="M11.3941 28.8384C8.63947 28.2603 6.36093 27.053 4.40546 25.1656C1.42976 22.2579 0.0184202 18.704 0.222469 14.555C0.324493 12.2595 0.613562 11.1032 1.6168 9.09673C2.50101 7.2773 3.69129 5.78094 5.15364 4.59066C6.25891 3.70645 8.92854 2.21009 9.43866 2.21009C9.82976 2.21009 13.6047 4.40362 13.6047 4.62467C13.6047 4.70969 13.1966 5.64491 12.6864 6.69916C11.7852 8.62062 11.7682 8.63762 10.731 9.18175C9.42166 9.87892 8.45243 10.9332 7.77227 12.3785C7.26214 13.4328 7.22814 13.6538 7.22814 15.3032C7.22814 16.9866 7.26214 17.1737 7.77227 18.2109C8.45243 19.5712 9.81275 20.9145 11.1731 21.5607C12.0573 21.9688 12.3464 22.0198 14.0298 22.0198C15.7982 22.0198 15.9682 21.9858 17.0395 21.4587C18.4848 20.7445 19.8962 19.2652 20.4063 17.9048C21.4775 15.1502 20.7804 12.0044 18.6719 10.117C17.8897 9.40281 16.2403 8.56961 15.2881 8.41657C14.6419 8.29754 14.6249 8.28054 14.6249 7.60038C14.6419 6.41009 15.101 1.68297 15.203 1.56394C15.4071 1.3769 17.6686 1.87001 19.0289 2.38013C23.0079 3.9275 26.0686 7.22629 27.3099 11.3073C27.701 12.6336 27.769 13.1437 27.786 15.1332C27.786 17.0376 27.735 17.6668 27.4119 18.772C26.0346 23.5672 22.4468 27.2401 17.8557 28.5664C16.2233 29.0425 12.9925 29.1615 11.3941 28.8384Z" fill="white" fill-opacity="0.51"/>
<path d="M118.212 38.055L118.263 34.7732L118.671 34.7222C118.892 34.6882 119.13 34.7562 119.198 34.8582C119.3 35.0113 119.453 34.9943 119.844 34.7902C120.507 34.4501 120.779 34.4501 121.511 34.7902C122.565 35.3003 122.922 37.3918 122.157 38.5651C121.817 39.0752 120.932 39.4493 120.048 39.4493H119.368V40.3845V41.3198H118.773H118.178L118.212 38.055ZM120.983 38.174C121.306 37.8679 121.409 37.5789 121.409 37.0348C121.409 36.0485 121.034 35.5384 120.32 35.5384C119.504 35.5384 119.368 35.7765 119.368 37.2728V38.5991H119.963C120.388 38.5991 120.711 38.4631 120.983 38.174Z" fill="white" fill-opacity="0.49"/>
<path d="M65.125 36.236V33.0222L65.9752 32.9032C67.6586 32.6651 69.0869 33.1583 69.478 34.0935C69.7841 34.8246 69.7841 35.4028 69.478 36.134C69.138 36.9161 68.5258 37.2732 67.2845 37.3923L66.2303 37.4943L66.1793 38.4805C66.1282 39.4327 66.1112 39.4498 65.6351 39.4498H65.125V36.236ZM68.0837 36.202C68.4408 35.9299 68.5258 35.7089 68.5258 35.1307C68.5258 34.6546 68.4238 34.3145 68.2367 34.1445C67.8116 33.7704 66.9104 33.6174 66.5023 33.8384C66.1963 33.9915 66.1452 34.1785 66.1452 35.1817C66.1452 35.8109 66.1963 36.389 66.2643 36.44C66.5023 36.6951 67.6416 36.5421 68.0837 36.202Z" fill="white" fill-opacity="0.49"/>
<path d="M71.1448 39.1262C69.8185 38.3101 69.9375 35.4534 71.3318 34.7902C72.046 34.4501 72.4881 34.4501 73.2023 34.7902C73.8144 35.0793 74.3075 36.0145 74.3075 36.8987V37.4088H72.8622C71.5699 37.4088 71.4169 37.4428 71.4169 37.7149C71.4169 38.3441 72.012 38.6501 73.0322 38.5651C73.9675 38.4801 73.9845 38.4971 73.9335 38.9222C73.8824 39.3473 73.8314 39.3643 72.7772 39.4153C71.927 39.4493 71.5529 39.3813 71.1448 39.1262ZM73.1513 36.2186C73.0662 35.6234 72.8112 35.3684 72.2841 35.3684C71.6889 35.3684 71.4169 35.6574 71.4169 36.2696C71.4169 36.7457 71.4339 36.7457 72.3181 36.6947C73.1513 36.6437 73.2023 36.6267 73.1513 36.2186Z" fill="white" fill-opacity="0.49"/>
<path d="M74.9883 37.0689V34.6884H75.4984C75.8215 34.6884 76.0085 34.7734 76.0085 34.9264C76.0085 35.0965 76.1616 35.0795 76.6887 34.8244C77.5219 34.3993 77.913 34.5183 77.845 35.1475C77.811 35.4195 77.7089 35.6066 77.5729 35.5726C77.4539 35.5556 77.0968 35.6406 76.7737 35.7766L76.1786 36.0317V37.7321V39.4495H75.5834H74.9883V37.0689Z" fill="white" fill-opacity="0.49"/>
<path d="M78.3887 37.086V34.6885H78.9838H79.596L79.5449 37.035L79.4939 39.3646L78.9498 39.4156L78.3887 39.4666V37.086Z" fill="white" fill-opacity="0.49"/>
<path d="M81.466 39.2287C80.6838 38.8376 80.3438 38.1574 80.3438 37.0012C80.3438 35.7259 80.6838 35.1137 81.585 34.7396C82.2482 34.4676 83.3705 34.5526 83.8296 34.9097C84.6798 35.5728 84.9859 37.3582 84.4247 38.4295C83.9486 39.3477 82.4523 39.7388 81.466 39.2287ZM83.2344 38.2595C83.4555 38.0214 83.5405 37.6473 83.5405 36.9501C83.5405 36.151 83.4725 35.9299 83.1494 35.6748C82.6393 35.2667 82.3672 35.2837 81.8401 35.8109C81.466 36.185 81.415 36.355 81.483 37.1542C81.534 37.6643 81.6531 38.1914 81.7721 38.3275C82.0952 38.7016 82.8603 38.6676 83.2344 38.2595Z" fill="white" fill-opacity="0.49"/>
<path d="M86.1591 39.1092C85.9211 38.9222 85.632 38.4801 85.513 38.14C85.2749 37.4088 85.4109 36.0485 85.785 35.4704C86.1081 34.9773 87.1794 34.5181 87.9956 34.5181H88.5907V33.4129V32.3076H89.1008H89.6109V35.8785V39.4493H89.2028C88.9818 39.4493 88.7437 39.3303 88.6927 39.1773C88.6077 38.9392 88.5567 38.9392 88.2166 39.1773C87.6895 39.5513 86.6862 39.5173 86.1591 39.1092ZM88.2166 38.3271C88.5397 38.106 88.5907 37.919 88.5907 36.8137C88.5907 35.7254 88.5397 35.5554 88.2676 35.4534C87.7745 35.3003 87.0773 35.5384 86.8053 35.9295C86.4992 36.3716 86.4652 37.7489 86.7713 38.123C87.1624 38.6331 87.6895 38.7011 88.2166 38.3271Z" fill="white" fill-opacity="0.49"/>
<path d="M90.6989 39.228C90.6649 39.109 90.6479 38.0547 90.6649 36.8814L90.7159 34.7729L91.277 34.7219L91.8211 34.6709V37.0515V39.449H91.311C91.022 39.449 90.7499 39.347 90.6989 39.228Z" fill="white" fill-opacity="0.49"/>
<path d="M92.8929 39.3471C92.7739 39.2961 92.6719 39.092 92.6719 38.888C92.6719 38.5479 92.7569 38.5139 93.8111 38.5139C94.8654 38.5139 94.9674 38.4799 95.0184 38.1398C95.0864 37.7317 94.7804 37.5107 93.8792 37.3406C93.029 37.1876 92.6719 36.7965 92.6719 36.0313C92.6719 35.5382 92.7739 35.3171 93.114 35.0451C93.6581 34.62 94.5083 34.4499 95.3075 34.586C95.8006 34.688 95.9026 34.773 95.9026 35.1131C95.9026 35.5042 95.8686 35.5212 95.1545 35.4362C94.3043 35.3171 93.6921 35.5722 93.6921 36.0483C93.6921 36.2694 93.8452 36.4224 94.1682 36.4904C95.8176 36.8475 96.3618 37.3236 96.1577 38.2418C95.9877 39.058 95.5116 39.3471 94.2362 39.3981C93.6071 39.4151 92.995 39.3981 92.8929 39.3471Z" fill="white" fill-opacity="0.49"/>
<path d="M96.9219 37.0857V34.6881H97.415C97.6871 34.6881 97.9421 34.7731 97.9761 34.8581C98.0101 34.9772 98.2312 34.9432 98.5883 34.7731C99.1834 34.467 99.9996 34.5521 100.323 34.9432C100.476 35.1302 100.612 35.1132 101.105 34.8241C101.802 34.416 102.652 34.501 103.145 35.0452C103.417 35.3512 103.485 35.7253 103.519 37.4257L103.587 39.4492H102.975H102.38L102.329 37.6468C102.278 35.6063 102.108 35.3002 101.275 35.6743C100.833 35.8614 100.833 35.8954 100.833 37.6638V39.4492H100.238H99.6425V37.6808C99.6425 35.6913 99.4725 35.3512 98.6563 35.6403C98.1972 35.7934 98.1972 35.8274 98.1122 37.5788L98.0271 39.3642L97.483 39.4152L96.9219 39.4662V37.0857Z" fill="white" fill-opacity="0.49"/>
<path d="M105.443 39.228C105.222 39.126 104.865 38.8029 104.678 38.5479C104.202 37.9017 104.168 36.1673 104.627 35.4701C105.052 34.824 105.987 34.4669 106.854 34.6029C108.113 34.79 108.657 35.5041 108.657 36.9835C108.657 38.1568 108.232 39.024 107.534 39.279C106.939 39.5171 105.936 39.4831 105.443 39.228ZM107.228 38.2418C107.619 37.7997 107.67 36.1673 107.296 35.8102C106.786 35.3341 106.31 35.3171 105.834 35.7932C105.443 36.2013 105.392 36.3373 105.46 37.1535C105.511 37.6637 105.63 38.1908 105.749 38.3268C106.072 38.7009 106.837 38.6669 107.228 38.2418Z" fill="white" fill-opacity="0.49"/>
<path d="M111.75 39.1089C111.274 38.6498 111.24 37.5785 111.699 37.1704C111.869 37.0174 112.481 36.8134 113.059 36.7113C113.875 36.5583 114.097 36.4563 114.097 36.2182C114.097 35.6911 113.603 35.453 112.617 35.487C111.767 35.5381 111.716 35.504 111.716 35.13C111.716 34.7899 111.818 34.7049 112.396 34.6028C113.382 34.4328 114.335 34.6538 114.794 35.13C115.168 35.5381 115.202 35.7081 115.202 37.4595V39.364L114.743 39.415C114.386 39.466 114.267 39.398 114.267 39.1939C114.267 38.9219 114.233 38.9219 113.841 39.1769C113.246 39.568 112.209 39.534 111.75 39.1089ZM113.824 38.4968C113.995 38.4287 114.097 38.1907 114.097 37.8166C114.097 37.3575 114.029 37.2385 113.773 37.2385C113.229 37.2385 112.617 37.5275 112.498 37.8506C112.277 38.4117 113.042 38.8028 113.824 38.4968Z" fill="white" fill-opacity="0.49"/>
<path d="M124.384 39.2962C123.262 38.8201 122.854 36.7966 123.602 35.4023C124.095 34.4841 125.915 34.297 126.646 35.0792C127.02 35.4703 127.445 36.9667 127.275 37.2557C127.207 37.3408 126.527 37.4088 125.728 37.4088C124.946 37.4088 124.299 37.4768 124.299 37.5618C124.299 37.6298 124.47 37.9189 124.674 38.174C125.014 38.5991 125.099 38.6331 126.034 38.5651C127.02 38.497 127.037 38.497 126.986 38.9221C126.935 39.3472 126.884 39.3642 125.83 39.3983C125.218 39.4153 124.572 39.3642 124.384 39.2962ZM126.17 36.2525C126.17 35.6574 125.898 35.3683 125.303 35.3683C124.793 35.3683 124.555 35.6064 124.384 36.2695L124.265 36.7286H125.218C126.153 36.7286 126.17 36.7116 126.17 36.2525Z" fill="white" fill-opacity="0.49"/>
<path d="M128.092 39.3307C127.973 39.2967 127.871 39.0927 127.871 38.8886C127.871 38.5485 127.956 38.5145 129.011 38.5145C130.065 38.5145 130.167 38.4805 130.218 38.1404C130.286 37.7153 129.963 37.5113 129.045 37.3413C127.718 37.1032 127.327 35.6919 128.365 34.9097C128.773 34.6206 129.691 34.4846 130.439 34.6036C131 34.7056 131.102 34.7906 131.102 35.1307C131.102 35.5048 131.051 35.5218 130.354 35.4368C128.909 35.2328 128.245 36.219 129.623 36.5591C130.694 36.8141 131.136 37.1032 131.306 37.6133C131.51 38.2085 131.187 38.9396 130.592 39.2287C130.184 39.4328 128.518 39.5178 128.092 39.3307Z" fill="white" fill-opacity="0.49"/>
<path d="M132.307 39.1608C132.12 38.9907 131.899 38.6166 131.848 38.3105C131.763 37.8514 131.831 37.6814 132.256 37.2393C132.546 36.9502 132.954 36.7292 133.192 36.7292C133.413 36.7292 133.855 36.6782 134.144 36.6271C134.586 36.5251 134.654 36.4571 134.569 36.151C134.382 35.5389 134.178 35.4539 133.124 35.5049C132.154 35.5389 132.103 35.5219 132.154 35.1648C132.273 34.3826 134.501 34.3486 135.283 35.1138C135.674 35.5049 135.691 35.6409 135.691 37.4944V39.4498H135.266C135.028 39.4498 134.79 39.3308 134.739 39.1948C134.654 38.9737 134.603 38.9737 134.28 39.1948C133.787 39.5348 132.75 39.5178 132.307 39.1608ZM134.467 38.3956C134.586 38.2765 134.671 37.9705 134.671 37.7154C134.671 37.1713 134.399 37.1203 133.498 37.4263C133.124 37.5624 132.971 37.7154 132.971 37.9875C132.971 38.2085 133.022 38.4296 133.09 38.4806C133.277 38.6846 134.246 38.6166 134.467 38.3956Z" fill="white" fill-opacity="0.49"/>
<path d="M136.711 37.0855V34.6879H137.221C137.578 34.6879 137.731 34.7729 137.731 34.977C137.731 35.232 137.748 35.232 138.037 34.977C138.207 34.8239 138.598 34.6369 138.887 34.5859C139.415 34.4839 139.432 34.5009 139.432 35.045C139.432 35.5721 139.381 35.6231 138.904 35.6571C138.02 35.7252 137.918 35.9292 137.867 37.7146L137.816 39.364L137.272 39.415L136.711 39.4661V37.0855Z" fill="white" fill-opacity="0.49"/>
<path d="M142.682 39.1773C141.866 38.5991 141.577 36.9667 142.07 35.7764C142.359 35.0793 143.396 34.5351 144.417 34.5181H145.046V33.4129V32.3076H145.556H146.066V35.8785V39.4493H145.641C145.403 39.4493 145.165 39.3303 145.114 39.1943C145.029 38.9732 144.978 38.9732 144.655 39.1943C144.178 39.5343 143.175 39.5173 142.682 39.1773ZM144.672 38.3271C144.995 38.106 145.046 37.919 145.046 36.8137C145.046 35.7254 144.995 35.5554 144.723 35.4534C144.229 35.3003 143.532 35.5384 143.26 35.9295C142.954 36.3716 142.92 37.7489 143.226 38.123C143.617 38.6331 144.144 38.7011 144.672 38.3271Z" fill="white" fill-opacity="0.49"/>
<path d="M147.97 39.1947C146.695 38.6336 146.542 36.032 147.715 34.9777C148.208 34.5526 149.126 34.4336 149.824 34.7397C150.521 35.0287 150.997 35.8619 150.997 36.7971V37.4093H149.551C147.97 37.4093 147.766 37.5793 148.463 38.2765C148.752 38.5656 148.99 38.6166 149.773 38.5826C150.589 38.5486 150.742 38.5826 150.793 38.8376C150.827 39.0077 150.759 39.2117 150.623 39.2967C150.266 39.5348 148.582 39.4668 147.97 39.1947ZM149.892 36.5591C149.943 36.4741 149.892 36.185 149.773 35.9299C149.33 34.9947 148.106 35.3008 148.106 36.338C148.106 36.6951 148.174 36.7291 148.939 36.7291C149.415 36.7291 149.841 36.6611 149.892 36.5591Z" fill="white" fill-opacity="0.49"/>
<path d="M154.635 39.0419C154.193 38.6848 154.159 38.5318 154.091 37.0864C154.023 35.5731 154.006 35.539 153.598 35.539C153.275 35.539 153.19 35.471 153.275 35.267C153.326 35.1139 153.377 34.9269 153.377 34.8419C153.377 34.7569 153.53 34.6888 153.717 34.6888C154.04 34.6888 154.159 34.4508 154.261 33.4986C154.295 33.1755 154.431 33.0565 154.788 33.0225C155.23 32.9714 155.248 32.9884 155.248 33.8216V34.6888H155.928C156.54 34.6888 156.608 34.7399 156.608 35.1139C156.608 35.505 156.54 35.539 155.928 35.539H155.248V36.7803C155.248 38.2257 155.384 38.4807 156.081 38.4807C156.54 38.4807 156.608 38.5488 156.608 38.9739C156.608 39.433 156.574 39.45 155.86 39.45C155.299 39.45 154.975 39.348 154.635 39.0419Z" fill="white" fill-opacity="0.49"/>
<path d="M157.866 39.1263C157.202 38.7182 156.879 37.834 156.981 36.6947C157.083 35.6405 157.543 35.0113 158.444 34.6883C159.073 34.4672 159.243 34.4672 159.872 34.6883C160.807 35.0283 161.232 35.6405 161.334 36.7797C161.419 37.902 161.028 38.8372 160.331 39.1943C159.668 39.5514 158.495 39.5174 157.866 39.1263ZM159.906 38.2251C160.246 37.749 160.263 36.2356 159.94 35.7935C159.804 35.6065 159.498 35.4874 159.158 35.4874C158.427 35.4874 158.138 35.8955 158.138 36.9838C158.138 38.0551 158.478 38.5992 159.158 38.5992C159.464 38.5992 159.736 38.4631 159.906 38.2251Z" fill="white" fill-opacity="0.49"/>
<path d="M162.695 38.9562C162.218 38.5311 162.15 38.3611 162.082 37.3748C161.963 35.5724 162.593 34.7732 164.242 34.5692L165.109 34.4671V33.3959V32.3076H165.704H166.299V35.8785V39.4493H165.874C165.636 39.4493 165.398 39.3303 165.347 39.1943C165.262 38.9732 165.211 38.9732 164.888 39.1943C164.276 39.6194 163.324 39.5173 162.695 38.9562ZM164.684 38.4291C165.109 38.259 165.126 38.242 165.075 36.8647L165.024 35.4534L164.446 35.4874C163.579 35.5214 163.205 35.9975 163.205 37.0517C163.222 38.157 163.307 38.276 164.208 38.5821C164.225 38.5991 164.429 38.5311 164.684 38.4291Z" fill="white" fill-opacity="0.49"/>
<path d="M168.067 39.1262C167.455 38.7521 167.148 38.0209 167.148 36.9667C167.148 35.5724 167.744 34.7732 168.934 34.6031C169.784 34.4671 170.736 34.8242 171.127 35.4023C171.28 35.6404 171.45 36.1675 171.501 36.5926C171.723 38.225 170.821 39.4493 169.393 39.4493C168.9 39.4493 168.39 39.3132 168.067 39.1262ZM170.107 38.225C170.26 38.0039 170.379 37.4938 170.379 37.0177C170.379 35.6574 169.376 34.9942 168.543 35.7934C168.203 36.1165 168.237 37.8679 168.611 38.276C169.019 38.7181 169.784 38.7011 170.107 38.225Z" fill="white" fill-opacity="0.49"/>
<path d="M78.3887 33.5826C78.0146 33.1405 78.2527 32.7324 78.8988 32.7324C79.392 32.7324 79.511 32.8004 79.545 33.1405C79.647 33.7867 78.8138 34.1097 78.3887 33.5826Z" fill="white" fill-opacity="0.49"/>
<path d="M90.835 33.6846C90.6989 33.6166 90.6309 33.3616 90.6649 33.1405C90.6989 32.8004 90.818 32.7324 91.3111 32.7324C91.7362 32.7324 91.9232 32.8174 91.9572 33.0385C92.0763 33.6506 91.3961 34.0417 90.835 33.6846Z" fill="white" fill-opacity="0.49"/>
<path d="M93.5729 0.0508967C94.287 0.0168886 95.4773 0.0168886 96.2085 0.0508967C96.9227 0.0679008 96.3275 0.101909 94.8822 0.101909C93.4368 0.101909 92.8417 0.0679008 93.5729 0.0508967Z" fill="white" fill-opacity="0.49"/>
<path d="M142.034 0.0508967C142.766 0.0168886 143.905 0.0168886 144.585 0.0508967C145.265 0.0679008 144.67 0.101909 143.259 0.101909C141.864 0.101909 141.303 0.0679008 142.034 0.0508967Z" fill="white" fill-opacity="0.49"/>
</g>
<defs>
<clipPath id="clip0_748_2409">
<rect width="217.652" height="42" fill="white"/>
</clipPath>
</defs>
</svg>
