<svg width="166" height="36" viewBox="0 0 166 36" fill="none" xmlns="http://www.w3.org/2000/svg">
<path d="M31.5446 35.8969C31.5065 35.846 31.5128 33.9503 31.5574 30.3308C31.6337 24.8919 31.6083 8.91879 31.5256 8.588C31.4556 8.30175 31.6146 8.18088 32.0726 8.16816C32.2953 8.1618 34.0383 8.12363 35.9466 8.07274C39.757 7.97732 40.3868 7.97732 41.7036 8.0791C43.5674 8.21905 43.8855 8.30811 45.7939 9.23685C46.6526 9.65669 46.7417 9.71395 47.2888 10.2674C48.3765 11.3552 49.0381 12.5193 49.4452 14.0587L49.6361 14.7902L49.6679 17.1757C49.706 19.7011 49.6233 21.6795 49.4643 22.2011C49.4198 22.3601 49.3498 22.6019 49.318 22.7418C49.2162 23.168 48.8155 24.0459 48.4338 24.6693C47.3587 26.4504 45.6221 27.7863 43.9618 28.1234C42.2252 28.4669 42.2506 28.4669 38.1095 28.5178L36.4873 28.5369L36.411 28.7023C36.3538 28.8168 36.3092 29.5992 36.2647 31.2723C36.1884 34.0776 36.0929 35.8142 35.9975 35.9287C35.9021 36.0432 31.6401 36.0114 31.5446 35.8969ZM41.5763 23.9886C42.4224 23.9441 42.486 23.9314 42.874 23.7278C43.3639 23.467 44.3371 22.5319 44.6934 21.9848C45.0496 21.4314 45.2214 20.7698 45.2977 19.5993C45.4313 17.5001 45.2214 15.7063 44.7124 14.6948C44.388 14.046 43.8664 13.4862 43.3766 13.2635C42.6196 12.92 42.1998 12.8819 39.2354 12.8819C36.7291 12.8819 36.5001 12.8882 36.4301 12.99C36.3156 13.1427 36.2647 15.3882 36.2647 19.9619C36.2647 23.5815 36.2647 23.6642 36.3919 23.7914C36.4619 23.8614 36.5955 23.925 36.6973 23.925C36.7927 23.9314 37.2825 23.9568 37.7914 23.9822C39.0891 24.0395 40.5331 24.0459 41.5763 23.9886Z" fill="white"/>
<path d="M23.6001 28.5685L23.4538 28.454L23.4093 23.9439C23.3839 21.463 23.3457 17.888 23.3266 15.9987C23.2566 9.97458 23.2757 0.4963 23.352 0.419965C23.3966 0.375436 23.6256 0.356352 23.9118 0.369075C24.179 0.375436 25.2286 0.356352 26.2401 0.324546C27.6713 0.273656 28.0975 0.280017 28.1421 0.337269C28.1675 0.381797 28.1739 1.22784 28.1421 2.22656C28.1166 3.22528 28.0912 9.4784 28.0912 16.1259C28.0912 28.7785 28.0975 28.4858 27.8367 28.5876C27.7986 28.6003 27.4614 28.5876 27.0988 28.5558C26.0874 28.4731 25.0887 28.4858 24.5416 28.594C23.8991 28.7148 23.7783 28.7148 23.6001 28.5685Z" fill="white"/>
<path d="M74.3242 28.6124C74.2224 28.4916 74.2097 13.8034 74.3051 13.0719C74.4005 12.3467 74.5278 11.9587 74.9094 11.1635C75.4056 10.1266 75.9527 9.52866 76.9514 8.9307C77.4158 8.6508 77.9692 8.38363 78.3763 8.24368L79.0443 8.00195L82.1804 8.0274C84.2223 8.04012 85.3355 8.06557 85.361 8.11009C85.4437 8.21824 85.3483 12.7093 85.2719 12.7856C85.2274 12.8301 84.9284 12.8683 84.604 12.881C80.4501 13.021 80.0493 13.091 79.6104 13.7462C79.445 14.0006 79.4069 14.1342 79.3623 14.6049C79.3305 14.9166 79.3051 17.7919 79.2987 20.9916C79.286 27.2257 79.2542 28.2371 79.0761 28.4025C78.9997 28.4725 78.7644 28.5043 78.1473 28.5297C77.6957 28.5425 76.8814 28.5743 76.3407 28.5933C75.8 28.6124 75.1384 28.6442 74.8713 28.6633C74.5087 28.6888 74.3751 28.676 74.3242 28.6124Z" fill="white"/>
<path d="M87.6783 28.6066C87.6211 28.5366 87.6083 26.2148 87.6274 18.3777L87.6592 8.2442L87.7928 8.19331C87.8691 8.16787 87.9582 8.15514 87.99 8.17423C88.0218 8.19331 88.9696 8.2124 90.0956 8.2124C91.2406 8.20603 92.1884 8.23148 92.2393 8.26329C92.3157 8.31418 92.3284 8.71493 92.3157 10.8905C92.3029 12.3027 92.2902 16.781 92.2839 20.8459C92.2775 27.6969 92.2711 28.2504 92.1694 28.3458C92.0803 28.4348 91.9085 28.4603 91.2152 28.473C90.4264 28.4921 88.8042 28.5875 88.0727 28.6638C87.8373 28.6893 87.7356 28.6766 87.6783 28.6066Z" fill="white"/>
<path d="M18.1996 28.5561C18.1359 28.5115 16.9655 28.5052 14.6054 28.537C10.9286 28.5815 9.76453 28.5434 7.59534 28.308C5.50249 28.079 5.40707 28.0599 4.33202 27.5255C3.16791 26.9467 2.02924 26.0052 1.4122 25.1083C1.02416 24.5421 0.527984 23.3398 0.394398 22.6465C0.349869 22.4175 0.273534 22.0421 0.222644 21.8068C0.0381676 20.9416 0 20.4137 0 18.8615C0.00636126 17.1503 0.0699738 16.1516 0.222644 15.5473C0.273534 15.3437 0.349869 15.0193 0.388037 14.8285C0.502539 14.2496 1.18319 12.8565 1.79387 11.9595C2.04833 11.5842 3.18063 10.4074 3.61319 10.0639C4.03304 9.73311 4.72642 9.3896 6.26584 8.74075C6.95922 8.44813 7.30272 8.35907 8.14877 8.23821C8.54953 8.18732 9.05843 8.11099 9.28108 8.07282C10.089 7.94559 11.075 7.93287 11.8701 8.03465C12.29 8.0919 12.8497 8.15551 13.1106 8.1746C13.3904 8.20004 13.7594 8.28274 13.9948 8.37816C14.2238 8.46722 14.6818 8.63261 15.0126 8.74711C16.8701 9.37688 17.7225 9.89214 18.5812 10.929C19.4909 12.0104 19.9107 13.1046 20.1207 14.8857C20.2034 15.63 20.2352 19.8984 20.1525 20.1783C20.127 20.2737 20.0316 20.4073 19.9362 20.4646C19.7772 20.5727 19.3064 20.5791 12.3472 20.5918C8.26964 20.6045 4.90453 20.6109 4.86636 20.6109C4.8282 20.6109 4.75822 20.6936 4.71369 20.7953C4.65008 20.9544 4.6628 21.0243 4.8282 21.3488C5.37526 22.4175 6.59663 23.4353 7.7989 23.836L8.3078 24.0014L13.3014 24.0269C16.1194 24.0459 18.3968 24.0777 18.524 24.1159C18.8866 24.205 18.9247 24.3704 18.8739 25.5917C18.8484 26.1579 18.7848 26.9212 18.7339 27.2838C18.683 27.6528 18.6448 28.0663 18.6448 28.2126C18.6448 28.5815 18.454 28.7342 18.1996 28.5561ZM16.0176 16.0626C16.2403 15.9099 16.2467 15.7 16.0367 15.1593C15.8268 14.6122 15.2543 13.7598 14.8599 13.4099C14.3128 12.9328 13.4604 12.6148 12.3154 12.4557C11.5902 12.3603 9.45283 12.3603 8.94393 12.4621C8.17422 12.6084 6.99102 13.2064 6.26584 13.8107C5.36254 14.5613 4.84092 15.2292 4.84092 15.63C4.84728 16.1007 4.79003 16.0944 8.53681 16.0689C10.3689 16.0562 12.3726 16.0626 12.9833 16.088C15.1016 16.1707 15.8713 16.1643 16.0176 16.0626Z" fill="white"/>
<path d="M62.5372 28.5622C59.7 28.4858 56.6912 28.1678 56.1823 27.8879C56.0296 27.8052 55.8769 27.7352 55.8388 27.7352C55.7306 27.7352 54.7701 27.2263 54.3629 26.9528C53.4978 26.3675 52.7981 25.6169 52.4228 24.8726C52.3273 24.6818 52.1111 24.1347 51.952 23.664C51.5067 22.3727 51.3223 20.9795 51.3223 18.9249C51.3286 17.0292 51.5449 15.0254 51.8439 14.0903C52.4291 12.2646 53.4596 10.916 55.1772 9.72648C55.8642 9.25574 58.3769 8.26975 58.8985 8.26975C58.9939 8.26975 59.5792 8.19341 60.1899 8.10435C61.1313 7.96441 61.4303 7.94532 62.1873 7.97713C63.1351 8.0153 64.6237 8.2125 65.088 8.35881C66.4048 8.78501 67.7152 9.36388 68.4213 9.84098C69.1783 10.3499 70.1261 11.3359 70.4633 11.972C70.7686 12.5445 71.0613 13.2124 71.0613 13.3333C71.0613 13.3842 71.1185 13.5878 71.1948 13.7913C71.3093 14.1094 71.3284 14.3956 71.3857 16.1895C71.4556 18.3778 71.4175 20.1971 71.2966 20.3625C71.0931 20.636 71.2775 20.6297 63.5422 20.617C56.0678 20.6042 55.9914 20.6106 55.8451 20.8269C55.5589 21.2594 56.7993 22.9706 57.8489 23.594C58.5932 24.0329 58.1924 24.0011 64.2102 24.0329C69.56 24.0584 69.6745 24.0584 69.8017 24.1856C69.8844 24.2683 69.9162 24.3637 69.8908 24.4528C69.8399 24.6564 69.8335 27.926 69.8844 28.1296C69.9162 28.2632 69.8971 28.3332 69.7763 28.4477L69.63 28.6003H66.9582C65.4888 28.6067 63.4977 28.5876 62.5372 28.5622ZM66.8883 16.1577C67.1173 16.075 67.1809 15.776 67.0727 15.2799C66.971 14.7837 66.8755 14.5928 66.4366 14.014C66.0486 13.5051 65.6733 13.1743 65.3361 13.0407C65.2153 12.9898 64.9862 12.888 64.8336 12.8053C64.6809 12.7226 64.5028 12.659 64.4328 12.659C64.3692 12.659 64.0957 12.6018 63.8221 12.5318C63.1924 12.3664 61.7166 12.2837 60.7878 12.3537C59.6046 12.4427 58.4723 12.8753 57.5245 13.6005C56.6912 14.2366 55.9024 15.2099 55.9024 15.6106C55.9024 15.9478 56.0932 16.0305 56.8693 16.0305C58.7013 16.0368 63.1606 16.1132 64.2865 16.1513C66.214 16.2277 66.7102 16.2277 66.8883 16.1577Z" fill="white"/>
<path d="M103.378 28.5618C100.573 28.5173 100.248 28.4982 99.8156 28.3837C98.8232 28.1166 98.6578 28.0593 98.5242 27.9639C98.4479 27.9066 98.2443 27.7667 98.0662 27.6458C97.5128 27.2705 96.7558 26.4563 96.336 25.7947C95.9988 25.2667 95.6171 24.3825 95.4899 23.8291C95.2927 23.0021 95.2164 20.4321 95.2673 16.2083C95.2991 13.4984 95.3309 12.5187 95.3945 12.277C95.6362 11.3546 96.9657 9.72615 98.0789 8.98824C98.3906 8.77832 98.8805 8.53659 99.2876 8.37756L99.9746 8.12311L104.141 8.11675C109.218 8.11039 109.955 8.15492 111.069 8.53659C111.476 8.67654 112.106 8.93735 112.474 9.11547C113.06 9.40809 113.219 9.52259 113.747 10.0506C114.516 10.8139 114.968 11.5709 115.146 12.3979C115.388 13.5175 115.42 14.1536 115.375 16.9525C115.356 18.422 115.331 20.4258 115.331 21.4054C115.318 23.8163 115.248 24.2743 114.669 25.4194C114.058 26.6471 112.843 27.7603 111.686 28.1611C110.528 28.5555 110.363 28.5809 108.34 28.5936C107.309 28.6 105.076 28.5873 103.378 28.5618ZM109.065 23.8736C109.701 23.6319 110.242 23.0403 110.592 22.2006C110.693 21.9525 110.712 21.6853 110.744 20.2477C110.763 19.2171 110.744 18.1039 110.693 17.3533C110.649 16.6854 110.611 15.6612 110.604 15.076C110.598 13.9246 110.592 13.9055 110.172 13.4857C109.669 12.9768 109.001 12.8941 105.636 12.9004C102.844 12.9004 101.673 12.9704 101.266 13.1549C100.903 13.3139 100.293 13.9627 100.197 14.2872C100.083 14.6625 100.019 16.4182 100.006 19.2108C99.9937 21.8825 100.013 22.0861 100.324 22.7095C100.592 23.2438 101.45 23.8418 102.137 23.9817C102.277 24.0135 103.81 24.0326 105.541 24.0263C108.626 24.0135 108.696 24.0135 109.065 23.8736Z" fill="white"/>
<path d="M140.915 28.5369C140.851 28.4669 140.826 27.5636 140.807 24.7647C140.787 22.7418 140.749 19.7011 140.718 18.0026C140.679 16.3042 140.654 13.9696 140.654 12.8182C140.648 11.6605 140.622 10.1783 140.59 9.51036C140.546 8.49256 140.552 8.289 140.628 8.2063C140.705 8.12361 141.074 8.10452 142.95 8.0918C144.916 8.07272 145.196 8.07908 145.291 8.16813C145.399 8.26355 145.406 8.80426 145.444 17.0675C145.476 22.7863 145.469 26.0942 145.425 26.5267C145.272 28.1234 145.24 28.3906 145.183 28.4478C145.145 28.486 144.464 28.5242 143.637 28.5369C142.817 28.5496 141.888 28.5751 141.57 28.5941C141.106 28.6259 140.978 28.6132 140.915 28.5369Z" fill="white"/>
<path d="M160.977 28.5555C156.308 28.4982 155.704 28.4473 154.107 27.9829C152.899 27.6267 151.086 26.329 150.259 25.2222C149.705 24.4906 149.152 23.2947 148.897 22.3151C148.497 20.7375 148.471 20.5975 148.401 19.2426C148.299 17.2642 148.408 15.1841 148.662 14.1536C149.126 12.3024 149.826 11.1892 151.34 9.9106C152.504 8.93097 153.662 8.44751 155.507 8.17398C155.939 8.11037 156.887 8.09765 159.324 8.10401C161.111 8.11673 162.67 8.13581 162.79 8.16126C162.911 8.18034 163.528 8.21215 164.158 8.23759C164.928 8.26304 165.329 8.30121 165.379 8.3521C165.437 8.40935 165.443 8.861 165.399 10.3368C165.335 12.3279 165.297 12.6459 165.1 12.8622C164.985 12.9958 164.96 12.9958 162.186 12.9449C160.647 12.9195 159.101 12.8877 158.751 12.875C158.051 12.8368 156.836 12.9322 156.149 13.0721C155.182 13.2757 153.942 14.2617 153.388 15.2731C152.962 16.0492 152.899 16.4691 152.899 18.4156C152.899 20.3622 152.969 20.9092 153.28 21.3672C153.388 21.5263 153.554 21.7871 153.643 21.9461C153.738 22.1051 154.037 22.4614 154.317 22.7413C154.902 23.3329 155.513 23.6891 156.366 23.9245C156.874 24.0644 157.014 24.0708 158.719 24.0708C159.718 24.0708 161.588 24.058 162.873 24.0453C164.871 24.0262 165.227 24.0326 165.278 24.1153C165.354 24.2298 165.309 27.4104 165.22 28.002C165.15 28.4982 165.068 28.6318 164.832 28.6127C164.743 28.6063 163.007 28.5809 160.977 28.5555Z" fill="white"/>
<path d="M123.949 28.4983C123.803 28.4665 123.472 28.3711 123.218 28.2884C122.957 28.1994 122.652 28.1103 122.543 28.0912C122.429 28.0721 122.213 28.0022 122.06 27.9322C121.914 27.8622 121.704 27.7859 121.602 27.7604C121.494 27.735 121.367 27.6841 121.316 27.6396C121.265 27.595 121.093 27.4933 120.94 27.4169C120.616 27.2515 119.776 26.4373 119.471 25.9856C119.115 25.464 118.587 24.3826 118.319 23.632C117.709 21.9272 117.562 20.8903 117.562 18.1931C117.562 15.4005 117.658 14.459 118.046 13.3458C118.135 13.0914 118.25 12.7415 118.307 12.5634C118.447 12.099 118.599 11.8255 119.172 10.9858C120.012 9.75807 120.813 9.10286 122.111 8.60032C123.37 8.11051 124.611 7.98328 127.454 8.04053C130.629 8.10415 131.106 8.13595 131.443 8.2759C131.863 8.44765 132.232 8.43493 132.333 8.25682C132.397 8.14231 132.422 7.23901 132.435 4.29375C132.448 2.16909 132.486 0.445189 132.518 0.407022C132.556 0.362493 133.148 0.324326 134.178 0.298881C135.062 0.273435 136.067 0.235268 136.405 0.216184C137.015 0.171655 137.022 0.171655 137.079 0.324326C137.117 0.413383 137.155 6.2721 137.181 14.3445C137.219 25.6421 137.206 28.2312 137.142 28.3202C137.085 28.3902 136.926 28.4347 136.614 28.4602C135.832 28.5238 124.223 28.562 123.949 28.4983ZM132.448 23.9437C132.48 23.9119 132.518 21.6027 132.531 18.4984C132.556 13.2059 132.556 13.1041 132.435 12.996C132.321 12.8942 132.13 12.8815 130.578 12.8624C128.631 12.8369 126.22 12.9323 125.336 13.0723C124.585 13.1868 124.115 13.4285 123.491 14.0265C123.09 14.4018 122.976 14.5608 122.709 15.1206C122.492 15.5595 122.359 15.9476 122.295 16.2974C122.079 17.4361 122.124 20.0251 122.365 20.8394C122.486 21.2529 123.224 22.4679 123.561 22.8241C123.828 23.104 124.668 23.6892 125.037 23.8483C125.145 23.8992 125.571 23.9564 125.991 23.9755C127.181 24.0327 132.378 24.0137 132.448 23.9437Z" fill="white"/>
<path d="M154.344 5.20987C153.962 5.0572 153.555 4.61191 153.25 3.99487C152.951 3.39055 153.014 2.61448 153.434 1.74935C153.574 1.46945 153.708 1.17047 153.733 1.08141C153.956 0.30534 154.993 -0.120864 156.004 0.15267C156.43 0.267173 156.488 0.30534 156.914 0.763351C157.302 1.17683 157.385 1.32314 157.385 1.58395C157.385 1.76843 157.372 1.78115 157.13 1.78115C156.869 1.78115 156.691 1.69846 156.348 1.41856C156.1 1.215 155.96 1.23408 155.33 1.5267C154.738 1.8066 154.433 2.08649 154.363 2.43C154.338 2.5445 154.249 2.72898 154.166 2.84348C153.962 3.11066 153.975 3.29513 154.204 3.75314C154.452 4.24932 154.605 4.33838 155.247 4.38927C155.998 4.44652 156.539 4.36382 156.748 4.16662C156.838 4.08393 157.022 3.97579 157.156 3.9249C157.346 3.86128 157.448 3.7595 157.626 3.47961L157.849 3.11066L157.747 2.77351C157.633 2.42364 157.607 2.04833 157.69 1.94018C157.715 1.90202 157.824 1.8066 157.932 1.73662C158.084 1.62848 158.142 1.52034 158.205 1.25317C158.269 0.954189 158.339 0.852409 158.663 0.540707C159.026 0.197199 159.058 0.178115 159.287 0.216283C159.439 0.235367 159.636 0.216283 159.789 0.165393C159.955 0.10178 160.177 0.0890576 160.444 0.108141C160.788 0.139948 160.902 0.178115 161.176 0.388037C161.602 0.712461 161.787 0.712461 162.13 0.375314C162.423 0.0890576 162.677 0.00636126 163.282 0C163.606 0 163.759 0.0381676 164.14 0.229005C164.395 0.356231 164.675 0.489817 164.757 0.534346C164.942 0.623403 165.304 1.1323 165.406 1.45037C165.495 1.7239 165.559 4.10937 165.495 4.62464C165.444 5.0572 165.298 5.21623 164.961 5.21623C164.522 5.21623 164.528 5.23532 164.497 3.2506L164.471 1.46945L164.236 1.12594C163.975 0.750629 163.886 0.699739 163.39 0.699739C163.014 0.699739 162.684 0.820602 162.505 1.0178C162.385 1.15139 162.378 1.25317 162.378 2.72898C162.378 3.58775 162.397 4.47197 162.41 4.69461C162.442 5.16534 162.397 5.21623 161.958 5.21623C161.418 5.21623 161.43 5.2544 161.379 3.42236C161.316 1.13867 161.233 0.833325 160.692 0.922383C160.565 0.941466 160.33 0.928744 160.164 0.890576C159.916 0.839686 159.827 0.846047 159.675 0.922383C159.299 1.11958 159.274 1.24681 159.248 3.23152C159.236 4.22388 159.21 5.06356 159.191 5.09537C159.077 5.27985 158.428 5.0572 158.371 4.81547C158.358 4.73914 158.307 4.51649 158.262 4.32566L158.18 3.97579L157.862 3.9567C157.518 3.93126 157.385 4.03304 157.385 4.29385C157.385 4.37019 157.27 4.54194 157.117 4.68825C156.965 4.8282 156.799 5.00631 156.748 5.08265C156.615 5.27348 156.278 5.34346 155.413 5.3371C154.834 5.3371 154.611 5.31165 154.344 5.20987Z" fill="white"/>
<path d="M89.1465 5.12106C88.9239 5.02564 88.1541 4.26865 87.8806 3.87425C87.6516 3.5371 87.5816 3.12362 87.6643 2.57655C87.7725 1.87045 87.8997 1.55875 88.2432 1.17708C88.6567 0.725426 89.3628 0.432808 90.0498 0.420085C90.6859 0.413724 91.0549 0.591839 91.5129 1.13255C91.9836 1.67961 92.1172 1.95951 92.1617 2.47477C92.2126 3.05365 92.0727 3.49893 91.691 4.00784C91.2394 4.59943 90.8004 4.87933 90.018 5.0638C89.6618 5.1465 89.3691 5.21647 89.3628 5.21647C89.3564 5.21011 89.2546 5.17195 89.1465 5.12106Z" fill="white"/>
<path d="M108.148 4.96155C107.989 4.89793 107.435 4.69437 106.907 4.51626C106.386 4.33178 105.883 4.14094 105.8 4.09005C105.47 3.88013 103.224 3.17403 102.365 3.02136C100.991 2.76055 101.068 2.786 100.966 2.57607C100.896 2.42977 100.89 2.34071 100.947 2.11806C100.991 1.96539 101.023 1.6855 101.023 1.50102C101.023 1.07482 101.106 0.979398 101.538 0.922147C101.755 0.890341 101.926 0.820367 102.06 0.699503C102.486 0.336911 102.728 0.311466 103.32 0.565917C103.472 0.629529 103.72 0.705864 103.873 0.731309C104.077 0.763116 104.229 0.852173 104.496 1.0939C104.757 1.33563 104.942 1.44377 105.241 1.53283C107.111 2.0799 108.962 2.90686 109.535 3.45393C109.776 3.68293 109.783 3.75291 109.605 4.06461C109.445 4.33178 108.638 5.08877 108.517 5.08877C108.472 5.08241 108.307 5.03152 108.148 4.96155Z" fill="white"/>
</svg>
