<svg width="201" height="49" viewBox="0 0 201 49" fill="none" xmlns="http://www.w3.org/2000/svg">
<path d="M35.3862 8.94752C35.9842 8.90433 36.3989 8.87023 36.8073 9.36733C38.8241 11.8224 40.7046 14.3764 42.6207 16.9096C44.0379 18.7835 45.6724 20.653 46.9453 22.6186C47.1393 18.7567 46.8102 14.6941 46.9784 10.8094C47.0719 8.65192 48.9982 8.38156 50.2638 9.86009C50.4598 10.69 50.3877 14.5997 50.3871 15.6225L50.3895 27.8648C49.9635 28.4738 49.6805 28.8085 49.0049 29.1218C47.4986 29.1534 46.6516 27.5528 45.8022 26.4624L43.0735 22.9821C41.4257 20.8583 38.8031 17.7226 37.3729 15.5598C37.3344 18.1996 37.3226 20.8398 37.3372 23.4799C37.3395 25.0787 37.6392 27.3791 36.7646 28.7029C35.4279 29.4506 34.1745 29.0231 34.0912 27.4865C33.9686 25.2267 33.9602 22.755 34.0065 20.4819C34.0778 16.9793 33.8364 13.2045 34.1312 9.74834C34.6396 9.33611 34.7843 9.22308 35.3862 8.94752Z" fill="white"/>
<path d="M183.018 8.95352C183.393 8.92789 183.955 8.85963 184.236 9.14786C185.141 10.075 185.949 11.2083 186.744 12.232L191.82 18.7803C192.634 19.8338 193.868 21.5572 194.748 22.47C194.94 18.59 194.525 13.4984 194.841 9.80512C194.929 9.70312 195.022 9.60625 195.121 9.515C195.549 9.128 196.114 8.92755 196.69 8.95788C197.058 8.97991 197.395 9.13687 197.638 9.41656C197.858 9.66701 197.997 9.97875 198.034 10.3101C198.103 10.945 198.063 12.5465 198.062 13.2751L198.056 18.8404C198.047 20.5176 198.048 22.1949 198.06 23.8721C198.075 25.1847 198.136 26.6511 198.036 27.9444C197.59 28.5821 197.456 28.7441 196.78 29.1294C196.267 29.138 195.636 28.9723 195.282 28.5798C194.021 27.182 192.955 25.6044 191.764 24.1508C190.253 22.3081 188.738 20.4731 187.285 18.5843C186.562 17.6444 185.7 16.6543 185.105 15.6421C184.986 19.5307 185.177 23.6148 184.992 27.5027C184.946 28.4755 183.933 29.2703 182.911 29.048C182.527 28.9611 182.192 28.7234 181.983 28.3881C181.485 27.6017 181.671 20.6678 181.67 19.3013V14.1484C181.672 12.5903 181.577 11.0625 181.914 9.54777C182.258 9.33716 182.657 9.14045 183.018 8.95352Z" fill="white"/>
<path d="M13.0613 8.93262C14.2719 8.90264 14.5902 9.56714 15.2965 10.4562C16.4617 11.9231 17.5756 13.4368 18.699 14.9361C20.6429 17.4863 22.603 20.024 24.579 22.5492C24.8248 18.6353 24.3817 14.4305 24.6467 10.4936C24.7814 8.4915 26.8034 8.54778 27.8374 9.94299C28.0718 11.3477 28.0199 27.2592 27.8289 27.8826C27.6344 28.5175 27.1288 28.8284 26.5758 29.1258C25.7167 29.1248 25.2753 28.8095 24.7365 28.1718C23.7629 27.0195 22.8898 25.7921 21.9566 24.6088C19.6009 21.6692 17.2846 18.6983 15.008 15.6969C14.9834 18.1318 14.9782 20.5668 14.9924 23.0018C14.9933 24.3558 15.2201 26.6013 14.8332 27.8524C14.6838 28.3357 14.4792 28.651 14.0247 28.8847C13.6227 29.0913 13.1514 29.1608 12.7169 29.0171C12.3127 28.8834 12.0107 28.575 11.8236 28.1993C11.6511 27.8532 11.6543 27.3542 11.6377 26.9712C11.5535 25.0327 11.4562 10.662 11.7923 9.77908C11.9517 9.36056 12.6755 9.1006 13.0613 8.93262Z" fill="white"/>
<path d="M136.074 8.87286C137.254 8.83928 138.508 8.86033 139.692 8.85454C142.211 8.82895 144.203 8.68056 146.201 10.4772C148.55 12.5903 148.882 16.0938 146.753 18.5046C144.242 21.3472 141.115 20.5654 137.746 20.7463C137.359 22.8147 138.751 28.7686 136.242 29.0842C135.841 29.1333 135.437 29.0202 135.119 28.7698C134.69 28.4263 134.473 27.8781 134.444 27.3439C134.288 24.5599 134.399 21.6834 134.383 18.8879C134.389 16.0642 134.205 13.2505 134.442 10.43C134.523 9.45698 135.128 8.97398 136.074 8.87286ZM137.759 17.3214C138.794 17.3601 139.824 17.3826 140.859 17.393C142.229 17.4066 142.702 17.3672 143.883 16.6794C145.956 14.8464 144.214 12.1795 141.756 12.2335C140.488 12.2613 139.011 12.1432 137.757 12.3038C138.107 14.7383 137.609 15.2285 137.759 17.3214Z" fill="white"/>
<path d="M105.126 8.93451C105.795 8.90838 106.14 9.15611 106.694 9.4893C107.898 11.8671 108.754 14.5803 109.847 17.0774C111.287 20.3707 112.908 23.8399 114.036 27.2569C114.177 27.6835 113.784 28.2963 113.543 28.6287C110.874 30.1078 110.279 26.8703 109.442 24.9361C108.213 24.8259 106.972 24.8483 105.738 24.8496C104.305 24.8416 102.874 24.866 101.443 24.9226C100.639 26.3275 100.502 27.6714 99.415 28.8942C99.1013 28.9966 98.7581 29.0569 98.4336 29.1228C98.3522 29.0918 98.2718 29.0598 98.1914 29.0269C96.6943 28.4122 96.598 27.5232 97.1903 26.1137C99.4719 20.686 101.702 14.9854 104.021 9.59511C104.445 9.29028 104.666 9.17079 105.126 8.93451ZM102.746 21.4659C103.768 21.4896 104.79 21.498 105.811 21.4911C106.459 21.4866 107.461 21.5072 108.078 21.4421C107.363 20.1716 105.95 15.9298 105.244 15.3045C105.018 16.2118 103.215 20.571 102.746 21.4659Z" fill="white"/>
<path d="M159.642 8.92871C160.221 8.9477 160.89 9.14253 161.182 9.70007C162.303 11.8357 163.093 14.0962 163.963 16.3324C165.168 19.4252 166.549 22.4718 167.784 25.5541C168.055 26.4099 168.632 27.151 168.257 28.0391C167.921 28.8315 166.813 29.3141 166.058 28.9501C164.979 28.4301 164.295 26.0297 163.889 24.9337C162.563 24.8312 161.283 24.846 159.954 24.8463C158.588 24.8388 157.221 24.8633 155.854 24.9199C155.226 26.1204 154.78 28.3737 153.521 28.9874C152.844 29.3173 151.696 28.8838 151.477 28.1276C151.374 27.7752 151.242 27.3125 151.338 26.9223C151.924 24.9138 152.914 23.055 153.697 21.1212C155.089 17.5909 156.476 14.1209 157.958 10.6328C158.415 9.55723 158.464 9.41186 159.642 8.92871ZM157.196 21.4919L160.151 21.491C160.869 21.4854 161.787 21.5041 162.49 21.461C161.881 20.2262 160.368 16.0297 159.652 15.3724C159.342 16.598 157.756 20.1556 157.196 21.4919Z" fill="white"/>
<path d="M122.183 8.95548C125.24 8.69807 129.008 10.1064 129.584 13.4807C129.759 14.5013 129.205 15.3921 128.135 15.4892C126.672 15.5864 126.432 13.8147 125.407 13.0495C123.809 11.8531 120.588 11.9267 119.837 14.1302C118.605 17.7498 122.748 17.1748 124.869 17.5282C129.189 18.2482 131.114 23.0968 128.37 26.5881C127.299 27.9357 125.744 28.8099 124.037 29.023C122.169 29.2089 120.049 28.8339 118.424 27.6912C117.431 27.0874 115.535 24.6092 116.41 23.4922C118.362 21.0032 119.292 23.9361 120.407 25.0726C120.786 25.4604 123.02 25.7969 123.566 25.7068C126.115 25.2856 127.685 21.7923 124.429 20.9452C123.298 20.7211 122.261 20.6414 121.109 20.4541C116.922 19.7734 114.738 15.5127 117.168 11.8671C118.349 10.0973 120.051 9.30434 122.183 8.95548Z" fill="white"/>
<path d="M91.0179 9.55276C92.2471 8.78503 92.4778 8.67109 93.6508 9.58208C94.1495 10.8251 93.808 11.5753 93.3986 12.7975C93.0551 13.8229 92.6769 14.8354 92.3635 15.8712C90.7753 19.8729 89.4859 24.0996 87.882 28.0967C87.3623 29.392 85.3867 29.3484 84.8526 28.0325C83.9536 25.8171 83.2356 23.5236 82.4375 21.2659C81.6101 18.9648 80.7985 16.6582 80.0026 14.3461C79.646 13.3079 79.2284 12.1647 78.9611 11.102C78.8385 10.6146 79.0442 10.0555 79.2016 9.58357C79.5605 9.29314 79.795 9.16717 80.1993 8.94206C82.212 8.82342 82.6722 11.636 83.2073 13.2042L85.3452 19.4117C85.5594 20.0323 85.9743 21.3899 86.3246 21.8548L86.4697 21.8464C86.7222 21.5542 87.2888 19.5307 87.4985 18.9979C88.7343 15.8579 89.5119 12.5798 91.0179 9.55276Z" fill="white"/>
<path d="M173.722 8.94181C175.519 8.86135 175.737 10.2508 175.747 11.6961C175.78 16.7726 175.666 21.853 175.767 26.931C175.787 27.9664 175.311 28.6594 174.404 29.1031C172.864 29.2771 172.368 28.2684 172.372 26.9131C172.381 24.0645 172.326 21.177 172.375 18.3311C172.42 15.6946 171.934 12.2103 172.62 9.66987C173.056 9.31742 173.228 9.20561 173.722 8.94181Z" fill="white"/>
<path d="M3.6288 8.92969C5.54295 8.95911 5.56934 10.5722 5.58983 12.043C5.60361 13.0307 5.59492 14.0154 5.58845 15.0024L5.57826 21.0459C5.57877 23.1338 5.62846 25.2368 5.56854 27.3219C5.54232 28.2338 4.81352 28.9297 3.96477 29.1405C3.82995 29.1367 3.69041 29.1259 3.55971 29.0904C3.15041 28.9792 2.67209 28.7341 2.45468 28.3526C1.96018 27.485 2.24207 18.6912 2.22009 16.9679C2.20593 15.8584 2.06504 14.7488 2.08858 13.6403C2.11559 12.3682 2.11183 10.9097 2.43789 9.68412C2.90503 9.31851 3.07406 9.17838 3.6288 8.92969Z" fill="white"/>
<path d="M189.909 37.0198C190.799 36.8041 191.735 37.0842 192.362 37.7531C192.987 38.422 193.205 39.3761 192.932 40.2508C192.659 41.1256 191.937 41.7856 191.042 41.9786C189.682 42.2717 188.34 41.4162 188.029 40.0591C187.719 38.7019 188.557 37.3474 189.909 37.0198ZM190.946 41.69C191.731 41.5295 192.367 40.9529 192.603 40.1862C192.839 39.4195 192.638 38.5849 192.079 38.0095C191.522 37.434 190.693 37.2095 189.921 37.4238C188.782 37.7397 188.098 38.9021 188.374 40.0524C188.651 41.2026 189.788 41.9267 190.946 41.69Z" fill="white"/>
<path d="M112.341 37.0244C113.494 36.785 114.657 37.3781 115.143 38.4517C115.462 39.1599 115.438 39.9763 115.076 40.6637C114.713 41.3513 114.054 41.8327 113.29 41.9682C111.936 42.208 110.641 41.3157 110.382 39.9644C110.122 38.6132 110.994 37.3039 112.341 37.0244ZM110.814 38.9697C110.625 39.6988 110.831 40.4737 111.356 41.0126C111.883 41.5514 112.651 41.7755 113.384 41.6033C114.138 41.4261 114.739 40.8561 114.955 40.1117C115.172 39.3674 114.971 38.564 114.431 38.009C113.89 37.454 113.092 37.2336 112.344 37.4321C111.593 37.6307 111.009 38.2184 110.814 38.9697Z" fill="white"/>
<path d="M137.199 37.0374C138.551 36.7637 139.868 37.6383 140.142 38.9913C140.416 40.3442 139.544 41.6636 138.192 41.9388C136.84 42.2142 135.52 41.3396 135.246 39.9855C134.971 38.6315 135.846 37.3113 137.199 37.0374ZM138.025 41.6507C139.142 41.4845 139.942 40.4847 139.86 39.3577C139.815 38.7533 139.519 38.1952 139.044 37.8197C138.568 37.4443 137.958 37.2861 137.36 37.3838C136.19 37.575 135.394 38.6754 135.576 39.8477C135.759 41.0201 136.853 41.8252 138.025 41.6507Z" fill="white"/>
<path d="M20.3307 37.0493C20.9167 36.9311 21.5256 37.0271 22.0468 37.3199C22.4925 37.5703 22.8507 37.9515 23.0731 38.4122C23.4082 39.1061 23.4048 39.916 23.0638 40.6071C22.7228 41.2983 22.0824 41.7933 21.3281 41.9488C19.9751 42.2278 18.6528 41.3542 18.377 39.9993C18.1011 38.6444 18.9765 37.3226 20.3307 37.0493ZM21.2828 41.7057C21.9668 41.4522 22.4707 41.1018 22.7857 40.414C23.0239 39.9045 23.0456 39.3203 22.846 38.7946C22.444 37.7339 21.4478 37.2846 20.3627 37.3893C17.1416 38.6804 19.1169 42.2245 21.2828 41.7057Z" fill="white"/>
<path d="M64.0805 36.916C65.4981 37.0297 67.6032 36.609 67.248 38.8459C67.1735 39.3151 66.587 39.602 66.2121 39.8336C66.6248 40.6859 67.0277 41.4944 67.3662 42.3815C67.0752 42.0755 66.6638 41.6855 66.4859 41.3164C65.6964 40.0824 66.2761 39.6954 64.4712 39.7492C64.4664 40.1945 64.4797 41.6623 64.2106 42.0031C63.9526 40.9721 64.0405 38.0834 64.0805 36.916ZM64.5007 39.3524C65.4672 39.3614 65.8047 39.4339 66.6478 38.9485C66.8771 38.7762 66.8885 38.676 66.9507 38.405C66.8877 37.8681 66.6105 37.6756 66.1821 37.3934C65.6604 37.3867 64.9587 37.3595 64.4508 37.3838C64.4534 37.9576 64.4359 38.8072 64.5007 39.3524Z" fill="white"/>
<path d="M25.1011 36.9102C26.3804 37.0255 28.6452 36.6139 28.2903 38.8314C28.2168 39.2908 27.5846 39.6076 27.2068 39.83C27.6446 40.7096 27.9897 41.4269 28.3645 42.3432C28.0939 42.088 27.8132 41.7469 27.5656 41.4616C26.8372 40.0787 27.1633 39.694 25.4864 39.7445C25.4807 40.6064 25.5201 41.061 25.2987 41.9074L25.2226 41.9184C24.9836 40.3022 25.076 38.5561 25.1011 36.9102ZM25.4985 39.3601C26.5167 39.3565 26.817 39.4296 27.7059 38.9266C27.922 38.6802 27.9401 38.5751 28.024 38.2665C27.7366 37.2594 26.322 37.3557 25.4787 37.3802C25.4844 38.0215 25.4754 38.7248 25.4985 39.3601Z" fill="white"/>
<path d="M172.062 36.9189C173.768 37.0061 174.743 36.562 175.255 38.4488C174.721 39.8326 173.986 39.7244 172.643 39.7505L172.495 39.8117C172.362 40.4729 172.337 41.6823 172.265 42.4387C171.978 41.2671 171.701 37.9739 172.062 36.9189ZM172.491 39.3959C173.461 39.3615 173.79 39.4622 174.561 38.9303C174.854 38.5089 174.819 38.6605 174.868 38.1817C174.614 37.2843 173.185 37.3569 172.44 37.3625C172.37 38.1434 172.421 38.6101 172.491 39.3959Z" fill="white"/>
<path d="M13.7606 36.9297C14.5722 36.9923 18.2472 36.8131 16.7047 39.061C16.2451 39.7308 15.1573 39.7399 14.3872 39.7547C14.3438 39.7512 14.2284 39.7818 14.1786 39.793C14.0353 40.4441 14.2447 41.6665 14.0385 42.0266L13.8921 41.9823C13.5786 41.4027 13.741 37.845 13.7606 36.9297ZM14.1622 39.3723C15.3826 39.3744 15.3988 39.4851 16.3946 38.9274L16.4296 38.9076C16.9494 38.232 16.4422 37.7718 15.9077 37.3805L14.1359 37.3473L14.1622 39.3723Z" fill="white"/>
<path d="M90.4742 37.4609L90.7735 37.5308C91.3389 38.1324 92.4439 41.3398 92.6016 42.2912C91.9158 41.3244 92.0931 40.8709 90.7128 40.8674C90.4714 40.8485 90.2297 40.8354 89.9876 40.8285C89.383 40.8147 88.9158 41.3463 88.487 41.7566C88.3634 41.3876 89.6309 38.4172 89.8697 37.9023C89.9166 37.8011 90.3467 37.5357 90.4742 37.4609ZM89.2488 40.5662C89.6702 40.5843 90.095 40.614 90.5168 40.6122C90.8423 40.6122 91.0374 40.6484 91.3261 40.4904C91.4609 40.2435 91.4436 39.9694 91.371 39.7047C91.2723 39.3448 90.8687 38.262 90.5814 38.0664C89.7424 38.6911 89.5695 39.621 89.2488 40.5662Z" fill="white"/>
<path d="M178.67 37.041C179.175 37.3592 180.662 41.5763 180.77 42.3319C179.751 40.9646 180.308 40.8917 178.356 40.8798L177.476 40.8562C177.144 41.3373 176.787 41.9309 176.469 42.431C176.726 41.2724 177.962 37.8793 178.67 37.041ZM177.576 40.5988L178.509 40.5978C178.865 40.6029 179.282 40.6492 179.615 40.5127C179.735 40.0447 179.051 38.5158 178.796 38.0887C178.765 38.0364 178.737 37.9923 178.689 37.9529C178.154 38.7902 177.854 39.6486 177.576 40.5988Z" fill="white"/>
<path d="M104.689 36.8926C105.404 37.1335 107.535 40.28 108.238 41.122C108.275 40.1329 108.213 37.8885 108.486 37.0566L108.564 37.1667L108.503 37.0808L108.476 37.2368L108.596 37.3216C108.695 38.1664 108.809 41.3749 108.615 42.1273C108.202 41.9209 105.546 38.3532 105.094 37.7793C105.063 38.6181 105.149 41.2275 104.868 41.8237C104.514 41.4456 104.617 37.6126 104.689 36.8926Z" fill="white"/>
<path d="M185.911 36.856C185.978 36.8965 186.1 36.961 186.115 37.0394C186.307 38.023 186.348 41.1674 186.127 41.9909L186.018 42.0483C185.065 41.0223 183.51 38.9119 182.616 37.7519C182.551 39.0477 182.601 40.603 182.556 41.9692L182.415 42.0356C182.007 41.4778 182.202 37.6238 182.275 36.7461C183.137 37.5384 185.008 40.1272 185.755 41.1594C185.899 39.7402 185.747 38.3192 185.911 36.856Z" fill="white"/>
<path d="M145.41 36.8701C145.453 36.91 145.534 37.0387 145.571 37.0938C145.621 37.6828 145.728 41.6956 145.51 41.9712C145.031 41.8098 142.597 38.4285 142.084 37.7468C141.967 39.0644 141.986 40.625 141.96 41.9734L141.801 42.0314C141.549 41.6694 141.673 37.6089 141.675 36.8232C142.483 37.3854 144.534 40.2232 145.193 41.1353C145.287 40.1647 145.204 37.5717 145.41 36.8701Z" fill="white"/>
<path d="M149.214 36.9141C149.975 36.9931 151.649 36.8768 152.295 37.1608C151.907 37.4214 150.115 37.3722 149.562 37.3603C149.531 38.0273 149.597 38.7027 149.646 39.3693C150.229 39.3543 151.045 39.2883 151.563 39.5377L151.455 39.646C150.909 39.8018 150.212 39.7499 149.636 39.7386C149.594 40.1766 149.478 40.7599 149.626 41.2001C149.989 42.2755 151.549 41.3385 151.834 42.0547C151.226 42.2237 150.025 42.2275 149.398 42.1371C148.762 41.6719 148.914 37.6271 149.214 36.9141Z" fill="white"/>
<path d="M102.283 40.9859C102.272 40.2832 102.267 37.592 102.615 37.1074L102.848 37.0371C103.126 37.3594 103.058 41.195 102.783 41.7531L102.6 41.8932C101.765 41.6998 100.352 38.8946 99.383 38.0807C99.3457 38.0447 99.0702 37.8691 99.0084 37.8283C98.9271 37.5913 98.8761 37.495 98.9565 37.2543L99.1183 37.1953C99.629 37.4674 101.598 40.2431 102.283 40.9859Z" fill="white"/>
<path d="M71.4759 36.9258C72.1492 36.9477 73.2538 36.9315 73.8259 37.2031C76.1779 38.32 75.6431 41.0404 73.4644 41.9704L73.3314 41.6577C74.6889 41.0551 74.8278 40.6185 75.0479 39.2284C74.2633 37.4965 73.7265 37.324 71.8555 37.3807C71.8332 38.7614 71.8389 40.1425 71.8727 41.5229C72.0429 41.7546 72.1492 41.8365 72.3625 42.0181C72.065 42.0537 71.7693 42.134 71.5354 41.9674C71.2539 41.3699 71.3981 37.7113 71.4759 36.9258Z" fill="white"/>
<path d="M53.5811 36.9238C54.0872 36.9391 54.6445 36.9438 55.1449 37.0016C58.0921 37.3412 58.3422 41.0864 55.5768 41.9522L55.4576 41.6321C56.8464 41.2377 57.0422 40.3416 57.1796 39.0865C56.2602 37.4515 55.8358 37.3115 53.9741 37.3854C53.9405 38.6176 53.9236 40.3368 54.0181 41.5403L54.3178 41.8879C54.168 42.0348 53.8584 42.0206 53.6028 42.0522C53.4488 41.0262 53.5563 38.0204 53.5811 36.9238Z" fill="white"/>
<path d="M59.2295 36.9338C60.3052 36.9313 62.0011 36.9521 63.0325 37.0907C61.9662 37.4422 60.7485 37.3757 59.6189 37.3831C59.6138 38.0902 59.5856 38.6695 59.7252 39.3646C60.3774 39.3512 60.7237 39.3409 61.371 39.4333L61.4933 39.6014L61.4969 39.4583L61.6352 39.5025L61.6046 39.5918C60.9999 39.79 60.2968 39.7569 59.6555 39.7638C59.4519 42.2175 60.2759 41.5179 62.3017 42.0174C61.2559 42.1789 60.3056 42.1921 59.2506 42.146C59.1627 40.742 59.1825 38.3498 59.2295 36.9338Z" fill="white"/>
<path d="M77.0865 36.9365C77.8039 36.9435 79.6451 36.9192 80.2252 37.1685C79.7222 37.3922 78.0975 37.375 77.4743 37.3789C77.4763 38.1151 77.4761 38.6396 77.5684 39.367C78.5923 39.3354 79.1051 39.3622 80.1015 39.5735C79.2258 39.7657 78.5477 39.7372 77.6551 39.7383L77.5626 39.8101C77.4075 40.0793 77.4814 41.0259 77.5017 41.2488C77.5481 41.758 78.9473 41.6136 79.5885 42.0066C79.2383 42.2416 77.5831 42.1622 77.1235 42.1518C77.0062 40.7881 77.0488 38.3414 77.0865 36.9365Z" fill="white"/>
<path d="M162.275 36.9141C163.53 37.0034 164.722 36.9135 165.995 37.1132C164.883 37.3909 163.793 37.3708 162.656 37.3606C162.693 37.9895 162.68 38.7407 162.685 39.3801C163.319 39.3565 163.951 39.2824 164.54 39.5205L164.484 39.6239C163.952 39.8089 163.25 39.752 162.675 39.7424L162.677 41.6654C163.347 41.6818 164.12 41.674 164.728 41.9661C164.361 42.2519 162.84 42.1869 162.294 42.1864C162.194 40.6676 162.262 38.4574 162.275 36.9141Z" fill="white"/>
<path d="M2.25769 36.876C3.47577 37.0776 4.72837 36.8821 6.01875 37.1093C4.75243 37.4146 3.96498 37.3801 2.66377 37.3589C2.67712 38.006 2.67539 38.7394 2.71183 39.3784C3.19617 39.3663 4.25148 39.2664 4.59913 39.5688C4.15096 39.8254 3.204 39.7501 2.67031 39.7373C2.68147 40.3166 2.67359 41.0846 2.71387 41.6478C3.35684 41.668 4.13048 41.6251 4.6827 41.9301L4.65937 42.0475C4.13124 42.2672 2.57995 42.4033 2.22656 41.8407C2.38247 40.9587 2.33493 37.8002 2.25769 36.876Z" fill="white"/>
<path d="M168.035 37.0155C168.587 36.9655 169.365 37.0716 169.794 37.4456C169.935 37.7219 169.957 37.7776 169.952 38.0917C169.69 38.1717 169.151 37.4308 168.667 37.3649C167.993 37.273 167.328 37.6935 167.179 38.3658C167.254 39.3642 168.599 39.3645 169.336 39.3985C170.488 40.3534 170.033 41.3268 168.904 41.9914C168.332 42.0595 167.912 41.8941 167.378 41.7225C167.231 41.5532 166.832 41.1776 167.015 40.9545C167.481 41.048 168.055 41.8921 168.763 41.6104C169.328 41.3861 169.78 40.9236 169.574 40.2806C169.191 39.728 168.073 39.6604 167.244 39.3787C166.564 38.2304 166.837 37.5582 168.035 37.0155Z" fill="white"/>
<path d="M7.25239 36.9238L7.40354 36.9853C7.70159 37.4209 7.53857 40.9221 7.5188 41.6544C7.91259 41.686 9.11399 41.7274 9.33038 42.0343L9.09338 42.1389C8.70704 42.1665 7.27886 42.2728 7.14952 42.0527C6.65447 41.2104 6.69005 37.527 7.25239 36.9238Z" fill="white"/>
<path d="M122.728 40.8117C122.491 41.0624 122.127 41.626 121.93 41.6979C121.82 41.2294 123.313 37.7941 123.599 37.3475C123.664 37.2479 123.742 37.1576 123.832 37.0791L124.029 37.1443C124.351 37.7864 125.683 41.0424 125.847 41.7074L125.79 41.7889C125.345 41.6108 125.342 41.1294 125.06 40.9222L124.832 40.6646C124.836 40.094 124.181 38.4572 123.961 37.838C123.531 38.5523 122.717 39.776 122.767 40.6128L122.728 40.8117Z" fill="white"/>
<path d="M56.8033 19.0275C56.7452 18.6021 56.723 18.491 56.8589 18.0866L56.9927 17.9561C57.1975 18.0982 57.2583 18.3425 57.3477 18.5789C57.4799 18.5246 57.5691 18.4805 57.6945 18.4151C57.8843 18.6471 57.8424 18.54 57.8468 18.856C57.7327 19.0413 57.6172 19.2244 57.5144 19.4163C57.5917 19.6741 58.0021 21.3012 58.0736 21.3963C58.0824 22.2763 58.0893 22.4532 58.4396 23.2836C58.5088 23.4477 58.6682 23.7881 58.612 23.9511C58.2171 23.8018 58.2819 23.5848 58.0011 23.3197L57.7379 22.9551C57.4482 22.4302 56.9384 21.6227 57.081 21.0185C57.2803 20.1747 57.083 19.8131 56.8033 19.0275Z" fill="white"/>
<path d="M35.4317 40.8193C35.005 41.0825 34.8631 41.3058 34.6522 41.7415L34.5323 41.7393C34.3629 41.0792 35.9307 37.944 36.2721 37.1871L36.4205 37.1338C36.9433 37.4974 38.4122 41.5034 38.6769 42.2899C37.0602 40.731 37.6009 39.6009 36.22 37.8097C36.0499 38.8175 35.5099 39.5243 35.3043 40.558L35.4317 40.8193Z" fill="white"/>
<path d="M129.174 37.0091C129.235 37.0031 129.296 36.9998 129.357 36.9991C129.905 36.996 130.76 37.0955 131.163 37.4946C130.788 38.3235 128.479 35.7477 127.414 39.4582C127.921 40.9864 128.566 41.9977 130.348 41.5266C130.701 41.4888 131.02 41.1352 131.424 41.0901L131.428 41.2797C130.909 41.9832 129.878 42.09 129.086 41.9439C127.243 41.604 127.07 39.9083 127.339 38.4398C127.837 37.7111 128.356 37.3075 129.174 37.0091Z" fill="white"/>
<path d="M116.826 36.9131C117.866 37.2109 117.845 40.5196 118.682 40.9598C119.326 40.346 119.813 37.2049 120.378 37.0452C120.48 37.4174 120.412 37.414 120.299 37.8425C119.854 38.6177 119.147 41.0253 118.687 42.0928C118.242 41.3358 116.866 37.7246 116.826 36.9131Z" fill="white"/>
<path d="M29.5215 37.0406C30.2162 36.9349 32.5434 36.8796 33.1638 37.1768L33.01 37.1607L32.8908 37.2928C32.5771 37.3847 31.952 37.3708 31.6017 37.3769C31.6592 38.3736 31.6365 39.4885 31.637 40.4951C31.6257 40.8637 31.6034 41.1994 31.5735 41.5669L31.5615 41.5192C31.5309 41.6004 31.4499 41.8286 31.4123 41.89C31.1476 41.059 31.1535 38.2749 31.2413 37.3638C30.7828 37.3591 29.9909 37.3936 29.5952 37.2309L29.5215 37.0406Z" fill="white"/>
<path d="M194.932 36.8564C194.973 36.871 195.013 36.8878 195.046 36.9182C195.373 37.2146 195.214 40.8948 195.311 41.6612C195.792 41.6848 196.55 41.6808 196.93 41.9459L196.931 42.1096C196.219 42.1544 195.552 42.1535 194.838 42.154C194.767 41.2058 194.735 37.655 194.932 36.8564Z" fill="white"/>
<path d="M40.2144 36.9355L40.3352 37.0262C40.5358 37.3523 40.5028 41.0154 40.5176 41.6952C41.1487 41.6973 41.911 41.6882 42.4905 41.9328L42.5111 42.1002C42.0537 42.1317 40.5122 42.3012 40.1906 42.0758C39.9878 41.4105 40.0794 37.6862 40.2144 36.9355Z" fill="white"/>
<path d="M84.5227 36.8594C84.545 36.8742 84.5497 36.8758 84.5706 36.8986C84.8842 37.2412 84.7241 40.9617 84.7196 41.6814C85.1601 41.7036 86.0345 41.7362 86.4068 41.949L86.3449 42.0926C85.6785 42.1242 85.0124 42.1615 84.3467 42.2044C84.2828 41.2975 84.1751 37.5121 84.5227 36.8594Z" fill="white"/>
<path d="M154.365 37.0869C155.387 38.3249 156.384 39.7337 157.391 40.9004C157.546 41.0811 157.74 41.2939 157.865 41.4912L157.9 41.7277L157.76 41.8386C156.958 41.5966 155.316 38.4996 154.357 37.9705C154.183 37.6367 154.225 37.4067 154.365 37.0869Z" fill="white"/>
<path d="M46.77 36.8574C47.1334 37.4879 46.834 39.9427 46.9449 40.8288C47.1192 42.2228 48.0922 41.4193 48.7775 41.9567L48.7025 42.1038C48.3496 42.1267 46.755 42.2967 46.7054 41.9144C46.5701 40.8716 46.4453 37.7669 46.77 36.8574Z" fill="white"/>
<path d="M56.8033 19.0273C57.083 19.8129 57.2802 20.1745 57.081 21.0184C56.9384 21.6225 57.4482 22.43 57.7379 22.9549C57.1896 22.6127 55.6141 20.0893 55.882 19.476L55.973 19.4564L56.1308 19.8904C56.4044 19.8271 56.7602 19.325 56.8033 19.0273Z" fill="white"/>
<path d="M51.2865 36.8672C51.656 37.1027 51.6076 41.6614 51.3731 42.1377C50.8946 41.7157 51.0269 37.5077 51.2865 36.8672Z" fill="white"/>
<path d="M154.356 37.9705C154.439 38.4621 154.355 41.25 154.251 41.6824L154.157 41.7146C154.135 41.6729 154.115 41.6301 154.097 41.5864C153.792 40.8693 153.824 38.1423 154.086 37.2946C154.136 37.1325 154.207 37.145 154.364 37.0869C154.224 37.4067 154.182 37.6367 154.356 37.9705Z" fill="white"/>
<path d="M157.391 40.9007C157.584 40.0792 157.482 37.6484 157.645 37.3652C158.557 37.6091 157.721 40.7923 157.864 41.4916C157.74 41.2943 157.546 41.0815 157.391 40.9007Z" fill="white"/>
<path d="M2.2277 41.8407C2.14137 41.7786 2.03955 41.638 1.96921 41.5507C1.86655 40.8633 1.87751 37.8133 2.01038 37.0099C2.01955 36.9545 2.18208 36.9077 2.25883 36.876C2.33607 37.8002 2.38361 40.9587 2.2277 41.8407Z" fill="white"/>
<path d="M133.185 36.9453C133.295 36.9796 133.327 37.0491 133.397 37.1443C133.516 38.1134 133.607 41.1087 133.399 42.0321C133.315 42.0511 133.306 42.022 133.205 41.969C133.056 41.0283 133.096 37.8986 133.185 36.9453Z" fill="white"/>
<path d="M99.0087 37.8281C99.0704 37.869 99.3459 38.0445 99.3832 38.0805C99.2097 38.8348 99.6714 41.6086 98.9783 41.7319C98.7498 41.427 98.8949 38.335 99.0087 37.8281Z" fill="white"/>
<path d="M96.6987 36.9375C97.1184 37.1561 96.9254 41.1047 96.9006 41.7748L96.7608 41.7756C96.445 41.3786 96.5485 37.6207 96.6987 36.9375Z" fill="white"/>
<path d="M58.0726 21.3965C58.6059 22.2403 58.425 22.415 58.6354 23.1942C58.7287 23.5397 59.7273 24.8906 59.9734 25.2641C59.6235 24.9747 59.3073 24.7078 58.9272 24.454C58.6381 24.2609 58.2177 24.2526 58.0931 24.0376C58.1738 23.5904 58.1807 23.7474 58 23.3199C58.2808 23.585 58.216 23.802 58.6109 23.9513C58.6672 23.7883 58.5078 23.4479 58.4385 23.2838C58.0882 22.4534 58.0814 22.2765 58.0726 21.3965Z" fill="white"/>
<path d="M63.9199 9.1911C64.1232 8.87829 64.2835 8.60582 64.6921 8.51699C65.163 8.4146 66.8409 8.85296 67.0199 9.29249C66.6781 9.29013 65.4984 8.97362 65.059 8.87954C64.5053 9.01537 64.391 9.01385 64.0688 9.49875L63.9199 9.1911Z" fill="white"/>
<path d="M71.8516 14.7773C72.1572 14.8327 72.5161 15.1966 72.767 15.413C73.0091 16.0559 73.1982 16.4221 73.1267 17.1016C72.6051 17.0435 72.0703 15.2887 71.8516 14.7773Z" fill="white"/>
<path d="M185.615 35.5977C185.635 35.6047 185.676 35.693 185.69 35.7197L185.569 35.9954C185.162 36.2971 183.621 36.0924 182.865 36.1379C182.85 36.0599 182.883 35.9543 182.901 35.8733C183.712 35.3016 184.598 36.1425 185.615 35.5977Z" fill="white"/>
<path d="M69.9199 12.2129C69.9885 12.2218 70.0298 12.2299 70.0971 12.248L70.1295 12.257C70.662 12.4005 71.5775 13.7533 71.7155 14.2784C71.1128 14.1519 70.2461 12.7419 69.9199 12.2129Z" fill="white"/>
<path d="M54.0169 41.54C54.6002 41.658 54.8729 41.6435 55.4563 41.6318L55.5755 41.9519C55.1421 41.9938 53.9571 42.147 53.6016 42.0519C53.8572 42.0203 54.1668 42.0346 54.3165 41.8876L54.0169 41.54Z" fill="white"/>
<path d="M72.7906 13.0137C73.1161 13.0412 73.1769 13.1367 73.3676 13.339C73.427 13.7339 73.3917 13.6593 73.2328 14.0657L73.231 13.9994L72.9619 14.3218C72.9522 14.44 72.9412 14.4166 72.8496 14.5281L72.7197 14.4673C72.6447 14.1145 72.7604 13.9416 73.0286 13.7188L73.0497 13.7015C73.1015 13.3697 73.0106 13.3677 72.7906 13.0137Z" fill="white"/>
<path d="M71.873 41.5234C72.3287 41.6957 72.8429 41.6603 73.3317 41.6582L73.4648 41.9708L72.3629 42.0185C72.1495 41.837 72.0432 41.755 71.873 41.5234Z" fill="white"/>
<path d="M122.768 40.6133C123.359 40.622 124.268 40.6097 124.832 40.665L125.061 40.9226C124.441 40.8123 123.393 40.8221 122.729 40.8121L122.768 40.6133Z" fill="white"/>
<path d="M35.3027 40.5586C35.8336 40.6321 36.7704 40.6027 37.1463 40.7414C36.7207 40.8652 35.8695 40.8823 35.4302 40.8198L35.3027 40.5586Z" fill="white"/>
<path d="M75.1414 22.0391L75.2541 22.1409C75.4863 22.9773 74.9841 22.6776 74.8476 23.7178L74.7696 23.6801C74.487 22.9936 75.1469 22.9755 75.1414 22.0391Z" fill="white"/>
<path d="M63.9206 9.19141L64.0694 9.49905C63.7383 9.54586 63.0593 9.82686 62.7285 9.7392C63.0053 9.50837 63.5661 9.3273 63.9206 9.19141Z" fill="white"/>
<path d="M74.8054 18.8008C75.0131 19.1451 74.9006 19.8161 74.8516 20.2129C74.6449 19.76 74.6882 19.2709 74.8054 18.8008Z" fill="white"/>
<path d="M71.3891 25.0039L71.4891 25.0546C71.4491 25.3077 71.3047 25.3341 71.0482 25.5215L70.8223 25.5011L70.8242 25.3992L71.3891 25.0039Z" fill="white"/>
<path d="M65.0001 9.92364C65.2782 9.9255 65.5117 9.93969 65.6895 9.95196C66.3812 10.0201 66.4559 10.0518 67.4024 10.3162C68.3401 10.6186 68.8743 10.9114 69.5782 11.4022C70.354 11.82 72.0702 13.8743 72.3526 14.8162C72.747 15.6927 72.9466 16.7803 72.9815 17.4344C72.9838 17.4691 72.9826 17.5029 72.9844 17.535C72.9675 17.2486 72.9329 16.8994 72.8585 16.5154C72.6113 15.4766 72.6194 15.3341 71.9454 14.0555C71.1904 12.8292 70.5848 12.1474 69.169 11.2195C67.7096 10.4299 67.289 10.2199 65.0001 10.0799C64.9698 10.0796 64.9392 10.0799 64.9083 10.0799C62.5468 10.2394 62.2296 10.444 60.3028 11.74C58.3399 13.1233 57.175 16.048 57.2042 17.4666C57.1948 17.6386 57.1909 17.8141 57.1934 17.9998C57.1994 19.3364 57.6257 21.0221 58.6387 22.4578C59.7469 24.1302 62.0144 25.4705 64.1954 25.6795C64.4503 25.7101 64.72 25.7296 65.0001 25.7342C67.1264 25.8565 69.5331 24.5931 70.4327 23.6834C71.4749 22.6776 71.7045 22.3557 72.2647 21.075C72.5688 20.328 72.8486 19.252 72.9503 18.3074C72.9979 17.8323 73.0569 17.9379 73.0635 18.4246C73.0632 19.14 72.9124 19.711 72.8809 20.0828C72.8024 20.8258 72.7371 21.1691 72.2286 21.9676C71.7001 22.7461 71.5348 23.179 71.1495 23.5828C70.7076 23.9079 70.867 24.1341 68.4288 25.5008C67.0657 26.1476 65.8953 26.2806 65.0001 26.2918C64.2219 26.2959 63.6286 26.2004 63.1465 26.0945C62.0887 25.9146 60.0459 24.8722 58.9141 23.5506C57.7689 22.4901 56.6611 19.6484 56.7872 17.9998C56.7868 17.7913 56.7938 17.6075 56.8028 17.4471C56.9369 16.045 57.0306 16.0458 57.4356 14.9969C57.8952 13.9766 58.2663 13.1249 59.2667 12.158C60.3115 11.2572 60.5117 11.1513 61.9327 10.4969C63.0149 10.045 64.1956 9.91116 65.0001 9.92364ZM73.0001 17.9227C73.0005 17.9751 73 17.9998 73.0001 17.9998C73 17.9998 73 17.9617 72.9991 17.8943C72.9992 17.904 73 17.9134 73.0001 17.9227Z" fill="white"/>
<path d="M71.3967 17.4016C71.3461 17.6448 71.2927 17.8463 71.2511 17.9999C71.0711 18.5945 71.026 18.6526 70.6292 19.4351C70.2004 20.2035 69.8492 20.6198 69.2953 21.149C68.7921 21.7539 66.6946 22.895 65.8211 22.9775C64.985 23.1692 63.9982 23.1515 63.4198 23.0676C63.3883 23.0634 63.3582 23.0566 63.3292 23.0524C63.5831 23.0879 63.8958 23.1194 64.2456 23.1213C65.1975 23.0862 65.3211 23.1188 66.5573 22.7523C67.762 22.3057 68.4621 21.8922 69.5211 20.8168C70.4676 19.6791 70.7192 19.3455 71.2435 17.371C71.2491 17.3446 71.2542 17.3175 71.2596 17.2905C71.5367 15.1989 71.404 14.8852 70.6055 12.9797C69.7375 11.0281 67.3924 9.49851 66.1487 9.27732C66.0003 9.23934 65.8475 9.20555 65.685 9.17557C64.5173 8.94944 62.9744 9.03091 61.546 9.66289C59.8932 10.337 58.3378 12.085 57.7728 13.9462C57.7013 14.1627 57.636 14.3941 57.5827 14.6371C57.1017 16.4676 57.7785 18.7889 58.4118 19.7359C59.1033 20.8243 59.3435 21.0836 60.3664 21.7932C60.9671 22.1874 61.8559 22.6207 62.662 22.883C63.0684 23.012 62.9654 23.0516 62.5371 22.9746C61.9093 22.8526 61.4365 22.6179 61.113 22.5312C60.4692 22.3441 60.175 22.2288 59.5683 21.6355C58.9834 21.0291 58.6206 20.8191 58.3351 20.4077C58.1288 19.9606 57.9101 20.057 57.1334 17.6784C56.8023 16.3686 56.8901 15.3165 57.0369 14.5279C57.1695 13.8435 57.3577 13.3387 57.5352 12.9336C57.8794 12.0348 59.1603 10.4291 60.5183 9.66736C61.6504 8.84749 64.3402 8.37752 65.7647 8.77722C65.9478 8.81348 66.1083 8.8519 66.2475 8.88778C67.4551 9.25037 67.4362 9.33832 68.2827 9.88067C69.094 10.4651 69.7844 10.9318 70.4547 11.9815C71.0587 13.0576 71.1116 13.2535 71.4359 14.6129C71.6422 15.6407 71.5492 16.6993 71.3967 17.4016ZM63.3292 23.0524C63.2106 23.0359 63.1042 23.0201 63.0134 23.0032L62.9895 22.9984C63.0795 23.0155 63.1908 23.0326 63.3292 23.0524Z" fill="white"/>
<path d="M57.0272 18.0641C56.956 17.7911 56.9083 17.5589 56.8736 17.3814C56.7589 16.6854 56.7706 16.604 56.7812 15.6066C56.8314 14.6079 56.9778 14.0076 57.2738 13.1887C57.4794 12.3185 59.0417 10.0971 59.8909 9.57268C60.6465 8.95586 61.6603 8.47409 62.2923 8.26803C62.3258 8.25658 62.3595 8.24888 62.3906 8.23866C62.1143 8.33042 61.7805 8.45537 61.4236 8.6292C60.47 9.1443 60.3281 9.17407 59.2515 10.1707C58.2476 11.2328 57.7387 12.006 57.201 13.6379C56.8104 15.2758 56.7139 15.7431 57.1782 18.0237C57.1859 18.0536 57.1943 18.0839 57.2024 18.1142C57.9796 20.3873 58.262 20.6449 60.0386 22.194C61.9103 23.7558 65.0848 24.1296 66.4683 23.7286C66.6394 23.6927 66.8132 23.6499 66.9947 23.5987C68.3039 23.2419 69.8455 22.3813 70.9872 21.0104C72.3359 19.4842 73.0557 16.9085 72.687 14.7143C72.6499 14.4563 72.5984 14.1862 72.5292 13.9104C72.0897 11.7928 70.2165 9.76547 69.088 9.12328C67.8278 8.36634 67.4522 8.22582 66.0495 8.01247C65.2374 7.9103 64.1092 7.91924 63.1569 8.06871C62.6785 8.14741 62.766 8.06171 63.2415 7.92777C63.9426 7.74078 64.5414 7.73849 64.9141 7.67269C65.6631 7.55642 66.0167 7.53165 66.9329 7.81924C67.8349 8.13167 68.3015 8.18251 68.7984 8.45374C69.2329 8.80082 69.4146 8.58378 71.3933 10.6145C72.3843 11.7803 72.821 12.8922 73.0669 13.7663C73.2751 14.5278 73.3375 15.1348 73.3603 15.6349C73.4615 16.7186 72.978 18.9933 71.9802 20.4491C71.242 21.8496 68.7485 23.6817 67.0998 23.9912C66.8956 24.0462 66.7139 24.0878 66.5543 24.1211C65.1448 24.3578 65.1211 24.2659 63.9866 24.1449C62.866 23.9629 61.9343 23.8219 60.7241 23.0961C59.5669 22.3093 59.4095 22.1412 58.3952 20.9207C57.668 19.9786 57.2264 18.8559 57.0272 18.0641ZM62.3906 8.23866C62.5206 8.19548 62.6378 8.15769 62.7394 8.12904L62.7667 8.12171C62.6659 8.14976 62.5429 8.18863 62.3906 8.23866Z" fill="white"/>
</svg>
