<svg width="202" height="32" viewBox="0 0 202 32" fill="none" xmlns="http://www.w3.org/2000/svg">
<path d="M36.1361 22.148C35.1092 22.0436 32.8811 21.7303 32.533 21.6258C32.2545 21.5388 32.2197 21.2603 32.2197 19.1019V16.6824H33.8733H35.5269L35.6139 17.1698C35.8228 18.1098 35.9099 18.162 37.2153 18.1272C38.8167 18.0924 39.4608 17.779 39.7044 16.8565C39.9307 16.0384 39.8089 15.2203 39.3563 14.5937C39.1648 14.3326 38.0682 13.4623 36.8846 12.6616C32.8811 9.91136 32.0108 8.76254 31.9238 6.08196C31.8368 2.70513 33.2119 0.929681 36.5017 0.233426C37.9986 -0.0798885 41.8628 0.00714338 43.6209 0.40749C44.2823 0.546741 44.8915 0.668585 44.9612 0.668585C45.0482 0.668585 45.1004 1.76519 45.1004 3.10548V5.52496L43.499 5.47274C41.8976 5.42052 41.8802 5.42052 41.7062 4.91574C41.3929 3.9932 41.3406 3.97579 39.8611 4.04542C38.2249 4.11504 37.5983 4.44577 37.4242 5.38571C37.1631 6.62156 37.7027 7.21338 41.0621 9.44139C43.2553 10.9035 44.3171 11.9479 44.9089 13.2012C45.2919 14.0193 45.3615 14.4022 45.3615 15.8121C45.3441 17.7268 45.1526 18.5623 44.3868 19.7111C43.3076 21.3299 41.6365 22.061 38.7645 22.148C37.7027 22.1829 36.5191 22.1829 36.1361 22.148Z" fill="white"/>
<path d="M91.1051 21.9913C88.3723 21.3995 86.7013 19.5022 85.9876 16.1776C85.5177 13.9496 85.6221 7.28295 86.1443 5.31603C86.5969 3.66242 87.1713 2.67026 88.1982 1.71291C89.6256 0.407433 91.6621 -0.166976 94.2905 0.0418999C97.6151 0.285589 99.7213 1.86957 100.644 4.82865C101.34 7.12629 101.497 13.497 100.887 16.3691C100.4 18.7711 99.1817 20.5292 97.441 21.3821C95.6308 22.2524 93.3679 22.4787 91.1051 21.9913ZM94.2905 17.6397C94.743 17.4483 94.9867 17.1698 95.2826 16.5605C95.6482 15.7598 95.6656 15.4988 95.6656 11.1123C95.6656 6.76076 95.6482 6.44744 95.2826 5.68156C94.8649 4.75902 94.4471 4.48052 93.4898 4.46312C92.0973 4.44571 91.5229 5.21159 91.2269 7.50923C90.9833 9.30209 91.0877 14.611 91.401 15.9339C91.6795 17.1872 92.2887 17.7616 93.455 17.8834C93.5768 17.8834 93.9423 17.779 94.2905 17.6397Z" fill="white"/>
<path d="M151.696 21.9918C150.269 21.6785 149.398 21.2085 148.546 20.286C146.927 18.5279 146.318 15.5688 146.492 10.0684C146.631 5.15983 147.17 3.21032 148.859 1.59153C150.095 0.4253 151.905 -0.0446717 154.934 0.0423602C156.622 0.0945792 159.198 0.4253 159.442 0.61677C159.477 0.651583 159.529 1.76559 159.546 3.10588C159.599 5.99534 159.633 5.92571 157.597 5.85609L156.257 5.80387L156.1 5.15983C155.926 4.44617 155.526 4.2547 154.551 4.42876C153.593 4.62023 153.036 4.98577 152.671 5.69943C152.201 6.63937 151.957 9.09367 152.027 12.1398C152.131 16.1607 152.706 17.5358 154.359 17.7794C155.63 17.9709 155.856 17.8839 156.083 17.118C156.222 16.5784 156.361 16.4217 156.64 16.4392C156.848 16.4392 157.614 16.4566 158.328 16.474L159.633 16.5088V19.0849V21.6785L158.206 21.9048C156.117 22.2181 152.967 22.2703 151.696 21.9918Z" fill="white"/>
<path d="M192.01 22.1482C189.939 21.9045 188.564 21.6782 188.372 21.5563C188.198 21.4693 188.129 20.7905 188.111 19.0498L188.094 16.6652L189.747 16.7174L191.384 16.7696L191.575 17.4658L191.749 18.1621L193.107 18.1447C195.091 18.1099 195.666 17.6051 195.666 15.9341C195.666 14.9071 195.074 14.2457 192.55 12.5224C188.79 9.9463 187.868 8.65823 187.815 5.94284C187.781 4.21961 188.059 3.22744 188.825 2.20047C190.026 0.616489 192.15 -0.0275468 195.735 0.059485C197.58 0.111704 200.452 0.494644 200.853 0.738333C200.94 0.790552 200.975 1.86975 200.957 3.14041L200.94 5.45546L199.304 5.43805L197.685 5.42064L197.528 4.82883C197.441 4.49811 197.337 4.2022 197.302 4.16739C197.163 4.01073 196.101 3.97592 195.161 4.08035C193.455 4.27182 192.741 5.52508 193.559 6.88278C193.768 7.2135 194.726 7.96197 195.962 8.78007C200.644 11.8436 201.601 13.3057 201.218 16.8044C200.94 19.4328 199.704 21.0167 197.319 21.8174C196.466 22.0959 193.316 22.3048 192.01 22.1482Z" fill="white"/>
<path d="M0.0522191 19.9894C0.104438 18.2313 0.121845 18.1791 0.539597 18.0747L0.95735 17.9702L0.939944 11.1121L0.905131 4.23663L0.452565 4.18441L0.0174064 4.13219V2.26971V0.407227H3.75977H7.50214L7.57177 0.842386C7.60658 1.08607 7.62399 1.52123 7.58917 1.79974C7.55436 2.09564 7.51955 2.72227 7.51955 3.22706C7.50214 4.07997 7.46733 4.13219 7.03217 4.18441L6.54479 4.23663V10.851V17.4655L7.72842 17.5177C8.96428 17.5699 8.94687 17.5873 9.13834 16.6822C9.22537 16.247 9.26018 16.247 10.8442 16.2644L12.463 16.2818L12.5152 19.0494L12.55 21.8171H6.2837H0L0.0522191 19.9894Z" fill="white"/>
<path d="M13.5073 21.7301C13.4725 21.6779 13.4551 20.8946 13.4551 19.9895C13.4725 18.2837 13.5595 18.0748 14.221 18.0748C14.5691 18.0748 14.6387 17.8485 15.1609 15.1679C15.4742 13.5491 16.066 10.4856 16.4838 8.34463C16.9015 6.18624 17.2497 4.37598 17.2497 4.28895C17.2497 4.21932 17.006 4.1497 16.7275 4.1497H16.1879L16.2401 2.28722L16.2923 0.407328L21.375 0.372516C24.1774 0.355109 26.5099 0.389922 26.5447 0.476954C26.6143 0.598798 29.7822 16.3342 29.9911 17.6222C30.0259 17.8485 30.2522 18.0226 30.6178 18.1096L31.1922 18.2663L31.1399 20.0069L31.0877 21.7301L27.4324 21.7475L23.7771 21.7823L23.7248 19.9895C23.6726 18.3185 23.69 18.214 24.0381 18.127C24.3515 18.04 24.3863 17.9355 24.2818 17.483C24.2296 17.1871 24.16 16.926 24.1426 16.9086C24.1252 16.8912 20.9224 16.8215 20.6265 16.8389C20.4002 16.8563 20.2087 18.0574 20.4176 18.0922C20.4872 18.1096 20.6613 18.127 20.7658 18.1444C20.9224 18.1618 20.992 18.6318 20.992 19.7806C21.0094 20.6683 20.9572 21.4516 20.905 21.5387C20.8006 21.7127 13.6117 21.8868 13.5073 21.7301ZM23.1852 9.14532C22.5586 5.36814 22.5064 5.05483 22.489 4.51523C22.4542 3.59269 22.2627 4.32376 22.0364 6.23846C21.9668 6.76065 21.7057 8.43166 21.4446 9.92861L20.9746 12.6614L22.2975 12.7136C23.2549 12.7484 23.6204 12.7136 23.6552 12.5396C23.69 12.4177 23.4811 10.886 23.1852 9.14532Z" fill="white"/>
<path d="M52.3231 21.5389C52.2535 21.33 52.2883 19.7634 52.3928 18.1968C52.4102 18.1098 52.4624 18.0924 52.5494 18.1272C52.619 18.1794 52.8453 18.1446 53.0716 18.0576L53.4545 17.9183L53.4197 11.0776L53.3675 4.23694L52.8975 4.18472C52.4972 4.1325 52.4102 4.02806 52.3928 3.66253C52.3753 3.40143 52.3405 2.60074 52.3057 1.86967C52.2361 0.599007 52.2535 0.529381 52.619 0.424943C52.8453 0.355318 54.9863 0.268286 57.371 0.233473C60.8 0.181254 61.9837 0.216067 62.9236 0.424943C65.2038 0.929728 66.5789 1.86967 67.3274 3.48846C67.8844 4.65469 68.1455 6.93492 67.9192 8.71037C67.4493 12.6094 65.4301 14.2804 60.8522 14.5241C59.8949 14.5763 59.0246 14.6459 58.9027 14.6808C58.6765 14.7504 58.6242 17.8487 58.8505 17.988C58.9201 18.0228 59.216 18.0924 59.5294 18.1098L60.069 18.1446V20.0245V21.9218L56.2396 21.8696C52.9324 21.8174 52.3928 21.7825 52.3231 21.5389ZM61.6355 9.98104C62.3144 9.63291 62.5929 8.81481 62.5755 7.19602C62.5581 5.15947 62.1403 4.60247 60.4519 4.39359C58.6765 4.18472 58.7461 4.06287 58.7461 7.35268C58.7461 9.78957 58.7983 10.2421 59.0246 10.3118C59.4771 10.4336 61.1482 10.2247 61.6355 9.98104Z" fill="white"/>
<path d="M68.6497 21.6256C68.6149 21.5211 68.6149 20.703 68.6323 19.7979L68.6846 18.1617L69.1719 18.1095L69.6419 18.0573V11.1121V4.16699L69.1719 4.11477L68.6846 4.06255L68.6323 2.20007C68.5975 0.511654 68.6149 0.33759 68.8934 0.33759C69.0675 0.33759 70.8603 0.285371 72.8621 0.215745C78.6062 0.0242755 80.7298 0.459435 82.4356 2.13045C83.6192 3.29667 84.0718 4.4803 84.1588 6.6561C84.2807 9.37149 83.8107 11.0251 82.5574 12.3828L81.7741 13.2183L82.7315 15.603L83.6888 17.9876L84.4199 18.1269L85.1336 18.2661V20.0068V21.73L84.0544 21.7474C81.0257 21.817 79.8594 21.817 79.755 21.73C79.6854 21.6778 79.3372 20.8945 78.9891 19.9894C78.641 19.0842 78.0144 17.4306 77.5792 16.334L76.8133 14.3323L75.9256 14.2801L75.0379 14.2279V16.1252V18.0399L75.5601 18.1443L76.0823 18.2487V20.0764V21.9215L72.4095 21.8693C69.99 21.8344 68.702 21.7474 68.6497 21.6256ZM77.7533 10.0503C78.5191 9.6674 78.7802 8.97115 78.7802 7.26532C78.7802 4.96768 78.4147 4.54993 76.2215 4.37587L75.0379 4.28883V7.33495V10.3985L76.1519 10.3462C76.7611 10.3114 77.4748 10.1722 77.7533 10.0503Z" fill="white"/>
<path d="M105.83 21.4696C105.743 21.2781 105.413 19.6419 105.064 17.8142C104.037 12.3486 102.889 6.39565 102.662 5.28164C102.471 4.32429 102.401 4.23726 101.931 4.15023L101.409 4.0632L101.357 2.21812L101.305 0.373047L105.151 0.390453L108.998 0.40786L108.946 2.23553C108.894 4.0632 108.894 4.0632 108.441 4.11541L107.989 4.16763L108.389 6.55231C109.259 11.9135 109.695 14.7681 109.886 16.4217L110.095 18.1623L110.391 15.9866C110.634 14.1067 111.209 10.3991 112.01 5.50792L112.236 4.16763L111.783 4.11541C111.331 4.0632 111.331 4.0632 111.366 2.49662C111.366 1.62631 111.4 0.808206 111.4 0.668955C111.418 0.442672 111.957 0.40786 115.125 0.40786H118.815L118.868 2.27034L118.92 4.13282L118.363 4.18504C117.823 4.23726 117.789 4.27207 117.58 5.36867C116.988 8.41479 115.717 15.0466 115.125 18.1623C114.777 20.077 114.446 21.6784 114.412 21.7307C114.377 21.7829 112.462 21.8177 110.165 21.8177C106.144 21.8177 105.97 21.8003 105.83 21.4696Z" fill="white"/>
<path d="M119.946 21.4688C119.929 21.2773 119.912 20.4766 119.894 19.6933L119.859 18.266L120.382 18.1267L120.904 17.9701V11.112V4.23645L120.434 4.18424C119.894 4.11461 119.912 4.21905 119.877 2.02585C119.859 0.633338 119.894 0.511493 120.208 0.441868C120.399 0.407055 122.122 0.389648 124.037 0.389648L127.518 0.407055V2.11288C127.518 3.07023 127.483 3.90573 127.431 3.97536C127.379 4.04498 127.153 4.14942 126.909 4.16683L126.474 4.23645V11.0946V17.9701L126.996 18.1093L127.536 18.2312L127.518 19.9022C127.501 20.8073 127.449 21.5906 127.414 21.6428C127.362 21.6776 125.673 21.7473 123.637 21.7647C120.051 21.8169 119.946 21.7995 119.946 21.4688Z" fill="white"/>
<path d="M128.615 21.6955C128.545 21.5041 128.563 18.632 128.632 18.1968C128.632 18.1098 128.702 18.0924 128.789 18.1272C128.859 18.1794 129.085 18.1446 129.294 18.0576L129.677 17.9183L129.642 11.0776L129.607 4.23695L129.137 4.18473C128.598 4.1151 128.528 3.90623 128.545 1.9219L128.563 0.477172L131.748 0.459766C133.506 0.459766 134.968 0.494578 134.986 0.529391C135.125 0.668642 139.198 10.3118 139.616 11.4432L140.086 12.7313L140.068 8.4841L140.051 4.23695L139.581 4.18473C139.111 4.13251 139.094 4.0977 139.076 2.91406C139.059 1.39971 139.059 0.894925 139.076 0.633829C139.094 0.459766 139.929 0.407547 142.557 0.39014C146.578 0.372734 146.23 0.181264 146.23 2.40928C146.23 3.87141 146.143 4.0977 145.551 4.16732L145.134 4.23695L145.099 13.0272L145.064 21.8174H142.296H139.546L138.867 20.1638C138.502 19.2586 137.684 17.2569 137.057 15.7251C136.43 14.1934 135.63 12.2091 135.282 11.3387C134.55 9.51107 134.359 9.23257 134.463 10.0855C134.498 10.4162 134.533 12.3309 134.55 14.35L134.568 18.0402L135.09 18.1446L135.612 18.2491V19.9897V21.7303H132.531C130.826 21.7303 129.259 21.7826 129.067 21.8348C128.841 21.887 128.667 21.8348 128.615 21.6955Z" fill="white"/>
<path d="M160.747 21.7481C160.625 21.6089 160.678 18.0754 160.817 18.0928C160.886 18.1102 161.113 18.1102 161.339 18.0928L161.722 18.0754V11.1128V4.15028H161.2H160.66L160.712 2.32261L160.765 0.477539H164.385C166.369 0.477539 168.075 0.494945 168.162 0.494945C168.267 0.494945 168.336 1.22601 168.336 2.32261V4.15028H167.814H167.292V11.0954V18.0406L167.814 18.145L168.354 18.2494L168.302 20.0075L168.249 21.7655L164.542 21.7829C162.488 21.8003 160.782 21.7829 160.747 21.7481Z" fill="white"/>
<path d="M169.381 19.9199C169.381 18.8755 169.433 18.0574 169.485 18.1096C169.659 18.2837 170.477 17.9704 170.53 17.7267C170.547 17.5874 170.93 15.5857 171.365 13.2881C171.818 10.9904 172.375 8.10096 172.618 6.8477C172.845 5.59444 173.071 4.48043 173.123 4.376C173.175 4.21934 173.001 4.14971 172.601 4.14971H171.992V2.23501V0.320312H177.109C180.869 0.337719 182.279 0.389938 182.401 0.546595C182.488 0.66844 182.697 1.45173 182.853 2.32204C183.01 3.19236 183.776 7.03917 184.542 10.9034C185.29 14.7502 185.917 17.9356 185.917 17.9878C185.917 18.04 186.091 18.0748 186.317 18.0748C187.014 18.0748 187.083 18.2663 187.066 20.0417L187.048 21.7301L183.323 21.765L179.616 21.7824L179.581 19.9895C179.546 18.3881 179.581 18.1966 179.859 18.1096C180.086 18.0574 180.173 17.8659 180.173 17.4482C180.173 17.1175 180.121 16.8564 180.051 16.8564C179.215 16.8041 176.5 16.8215 176.448 16.8738C176.413 16.9086 176.326 17.1871 176.274 17.483C176.169 17.9356 176.204 18.04 176.5 18.127C176.848 18.2141 176.866 18.3533 176.866 20.0417V21.852L173.123 21.8346L169.381 21.8172V19.9199ZM178.606 12.6788H179.598L179.128 9.91122C178.85 8.39686 178.589 6.62142 178.519 5.95997C178.45 5.29853 178.328 4.60228 178.241 4.41081C178.119 4.09749 178.101 4.09749 178.084 4.49784C178.067 4.74153 178.032 5.08966 177.997 5.28113C177.962 5.4726 177.84 6.25588 177.736 7.02176C177.631 7.78764 177.388 9.33681 177.196 10.4682C176.848 12.557 176.866 12.9573 177.336 12.7833C177.475 12.731 178.049 12.6788 178.606 12.6788Z" fill="white"/>
<path d="M0.365234 30.6083V29.2158H100.974H201.583V30.6083V32.0008H100.974H0.365234V30.6083Z" fill="white"/>
</svg>
