<svg width="125" height="50" viewBox="0 0 125 50" fill="none" xmlns="http://www.w3.org/2000/svg">
<g clip-path="url(#clip0_728_2440)">
<path d="M66.4741 24.3803C66.378 24.3041 66.3203 21.7722 66.3203 18.7453V13.2627H68.8962C72.2603 13.2627 73.1254 13.5292 74.6248 14.9951C75.9127 16.2515 76.4125 17.5841 76.278 19.2784C76.105 21.3534 74.471 23.4475 72.5102 24.0947C71.7028 24.3803 66.6856 24.6087 66.4741 24.3803ZM72.2411 21.6961C73.6444 20.9727 74.3172 18.7644 73.5675 17.3366C72.8947 16.0421 71.9143 15.5471 70.0496 15.5471H68.8193V18.7453C68.8193 20.5158 68.8578 22.0006 68.8962 22.0387C69.1461 22.2672 71.5875 22.0197 72.2411 21.6961Z" fill="white"/>
<path d="M82.0644 24.3797C81.1994 24.2275 79.5462 23.1043 78.8733 22.2476C78.0275 21.1435 77.5854 19.5824 77.7392 18.2689C77.9122 16.8411 78.2582 16.0796 79.2963 14.9945C81.6031 12.5578 85.2555 12.5578 87.5623 14.9945C88.7541 16.251 89.0617 17.0505 89.0809 18.7829C89.1001 21.1054 88.0044 22.8758 85.8706 23.9419C85.0632 24.3607 83.1794 24.5701 82.0644 24.3797ZM85.044 21.7717C86.7164 20.8389 87.2163 18.326 86.0436 16.784C84.1405 14.3092 80.4112 15.4514 80.1998 18.5544C80.0075 21.3148 82.718 23.1043 85.044 21.7717Z" fill="white"/>
<path d="M43.8292 18.8401L45.7131 13.3574H47.597H49.4616L51.2686 18.6878C52.249 21.6194 53.0564 24.0752 53.0564 24.1514C53.0564 24.2465 52.5181 24.3037 51.8453 24.3037H50.6342L50.2882 23.2566L49.9614 22.2096H47.5777H45.194L44.8673 23.2566L44.5212 24.3037H43.2333H41.9453L43.8292 18.8401ZM48.5005 17.793C48.1352 16.6127 47.7507 15.5276 47.6738 15.3753C47.5393 15.1279 47.4047 15.4896 46.2321 19.1256L45.963 19.9252H47.5777H49.1733L48.5005 17.793Z" fill="white"/>
<path d="M54.3051 24.0561C54.2474 23.9229 54.2282 21.4671 54.2474 18.5925L54.3051 13.3574L56.2467 13.3003L58.1882 13.2432L59.9952 17.4694L61.8022 21.6765L61.8599 17.4694L61.8983 13.2622H63.1478H64.3973V18.5545C64.3973 21.4481 64.3204 23.9419 64.2435 24.0752C64.1282 24.2465 63.59 24.3036 62.2636 24.2655L60.4566 24.2084L58.688 20.0393C57.7076 17.7549 56.8618 15.8322 56.8041 15.7751C56.7465 15.718 56.708 17.6217 56.708 19.9822V24.3036H55.5546C54.7857 24.3036 54.3628 24.2275 54.3051 24.0561Z" fill="white"/>
<path d="M90.7344 18.7639V13.2432L93.887 13.3003L97.0396 13.3574L97.8854 13.9285C99.4617 15.0326 100.058 17.0696 99.2887 18.6687C98.9812 19.3159 98.1161 20.1916 97.6355 20.3439C97.501 20.382 97.8662 21.1435 98.5198 22.2096C99.1349 23.1995 99.654 24.0752 99.7116 24.1704C99.7501 24.2465 99.2118 24.3036 98.4814 24.3036H97.1742L96.0977 22.5522L95.0404 20.7818L94.1369 20.7247L93.2334 20.6676V22.4761V24.3036H91.9839H90.7344V18.7639ZM96.7897 18.1166C97.4241 17.5074 97.4433 16.5366 96.8089 15.9464C96.4437 15.6037 96.1169 15.5276 94.7905 15.4895L93.2334 15.4514V17.0315V18.5925H94.7713C96.1746 18.5925 96.3668 18.5354 96.7897 18.1166Z" fill="white"/>
<path d="M101.5 18.7639V13.2432L104.537 13.3003C107.152 13.3574 107.651 13.4145 108.324 13.7572C109.997 14.6138 110.766 16.7079 110.054 18.4974C109.785 19.2208 109.247 19.7919 108.247 20.4201C108.209 20.4582 108.709 21.3339 109.362 22.3809L110.516 24.3036H109.209H107.882L106.786 22.4761L105.691 20.6676L104.806 20.7247L103.903 20.7818L103.961 22.1524C104.057 24.2084 103.999 24.3036 102.634 24.3036H101.5V18.7639ZM107.44 18.2689C107.671 18.0785 107.901 17.6217 107.959 17.2409C108.055 16.6888 107.978 16.4604 107.594 16.0035C107.132 15.4705 107.036 15.4514 105.518 15.4514H103.941L103.961 16.9744C103.98 17.812 103.98 18.5164 103.999 18.5545C103.999 18.5735 104.691 18.5925 105.518 18.5925C106.671 18.5925 107.132 18.5164 107.44 18.2689Z" fill="white"/>
<path d="M111.341 24.0747C111.399 23.9414 112.245 21.4476 113.244 18.554L115.051 13.2617H116.916H118.762L120.549 18.554C121.51 21.4476 122.356 23.9414 122.414 24.0747C122.472 24.2651 122.203 24.3031 121.184 24.2651L119.857 24.208L119.588 23.199L119.319 22.19L116.916 22.2472L114.513 22.3043L114.186 23.2561L113.86 24.208L112.552 24.2651C111.553 24.3031 111.284 24.2651 111.341 24.0747ZM118.416 19.8104C118.416 19.3916 116.974 15.1844 116.858 15.2987C116.724 15.451 115.34 19.5249 115.34 19.7914C115.34 19.8675 116.032 19.9246 116.878 19.9246C117.723 19.9246 118.416 19.8675 118.416 19.8104Z" fill="white"/>
<path d="M5.95989 38.9048L2.21135 36.7536L2.15368 32.2799L2.11523 27.8253L5.86377 25.6741C7.92066 24.5129 9.65076 23.542 9.70843 23.542C9.7661 23.542 9.80455 25.5028 9.80455 27.9014V32.2609L13.5531 34.393C15.61 35.5543 17.3016 36.5823 17.3016 36.6584C17.3016 36.7536 9.93911 41.056 9.7661 41.056C9.72765 41.056 8.01678 40.0851 5.95989 38.9048Z" fill="white"/>
<path d="M42.0996 32.3184V27.9209H44.5025C47.2322 27.9209 47.8474 28.1113 48.3664 29.1012C48.7701 29.8627 48.6163 31.043 48.0396 31.6521L47.6167 32.09L48.1934 32.623C49.2891 33.632 49.193 35.3072 48.0012 36.1449C47.4437 36.5446 47.1169 36.5827 44.7524 36.6398L42.0996 36.716V32.3184ZM46.5017 35.3643C46.7516 35.3072 47.1361 35.0217 47.3476 34.7361C47.6936 34.2983 47.6936 34.165 47.4821 33.651C47.213 32.9657 46.4248 32.6801 44.8485 32.6801C43.3107 32.6801 43.253 32.7372 43.253 34.0889C43.253 34.7552 43.3107 35.3453 43.3876 35.4024C43.5414 35.5737 45.8866 35.5357 46.5017 35.3643ZM46.7901 31.3285C47.1553 31.043 47.2899 30.7574 47.2899 30.3005C47.2899 29.3296 46.7709 29.0631 44.8485 29.0631H43.253V30.3957V31.7283H44.7716C46.0019 31.7283 46.3672 31.6521 46.7901 31.3285Z" fill="white"/>
<path d="M52.3848 36.3352C51.6159 35.8403 51.02 35.174 50.77 34.5267C50.6547 34.2221 50.5586 32.6421 50.5586 30.9478V27.9209H51.193H51.8081L51.7504 29.9578C51.6543 32.8515 51.8081 33.8985 52.5001 34.66C53.2306 35.4976 54.1533 35.688 55.1337 35.212C56.3064 34.6409 56.5178 33.9937 56.5178 30.7384V27.9209H57.2098H57.9019L57.825 31.1191C57.7481 34.679 57.6328 35.1169 56.3832 36.0497C55.4605 36.754 53.2883 36.9063 52.3848 36.3352Z" fill="white"/>
<path d="M61.5146 36.5448C61.3608 36.4877 60.861 36.2783 60.4189 36.0689C59.65 35.7262 59.5923 35.631 59.5923 34.9457V34.1842L60.4189 34.6792C61.5146 35.3074 63.1678 35.631 63.8599 35.3645C64.5903 35.098 65.0517 34.3365 64.8018 33.8606C64.5903 33.4608 63.1486 32.7755 62.0721 32.5851C60.8802 32.3757 59.8999 31.6904 59.65 30.9289C58.8234 28.4541 61.9567 26.9121 65.0709 28.2828C65.8591 28.6255 65.936 28.7206 65.936 29.3489C65.936 29.7296 65.8783 30.0151 65.8014 29.9771C65.0133 29.5773 63.9944 29.1775 63.4369 29.0443C62.5334 28.8349 61.3993 29.1585 61.0148 29.7296C60.7265 30.1674 60.7265 30.2436 60.9956 30.6624C61.2263 30.986 61.7068 31.2145 62.8987 31.5381C64.8402 32.0521 65.6092 32.49 65.9936 33.3085C66.5703 34.5079 65.9936 35.8405 64.648 36.4116C64.0521 36.6781 62.1105 36.7542 61.5146 36.5448Z" fill="white"/>
<path d="M68.0508 32.2994V27.9209H68.7236H69.3964V32.2994V36.6779H68.7236H68.0508V32.2994Z" fill="white"/>
<path d="M71.5117 32.2994V27.9209H72.6651H73.8377L75.7024 31.6902L77.5671 35.4405L77.6247 31.6902L77.6632 27.9209H78.336H79.0088V32.2994V36.6969L77.817 36.6398C76.8173 36.5827 76.5867 36.5066 76.4137 36.1829C74.4144 32.09 72.9535 29.2535 72.8189 29.2535C72.742 29.2535 72.6651 30.9287 72.6651 32.9657V36.6779H72.0884H71.5117V32.2994Z" fill="white"/>
<path d="M80.9297 32.2984V27.9199H84.1015H87.2734V28.491V29.0621H84.7743H82.2561L82.3138 30.3566L82.3714 31.6321L84.5437 31.6892L86.6967 31.7463V32.2984V32.8695H84.486H82.2753V34.1069V35.3443H84.7743H87.2734V36.0106V36.6769H84.1015H80.9297V32.2984Z" fill="white"/>
<path d="M89.9459 36.1635C88.9847 35.6685 88.9078 35.5733 88.8501 34.888C88.8117 34.4882 88.8501 34.2027 88.9463 34.2407C91.0224 35.2497 91.503 35.421 92.3872 35.421C93.5022 35.4401 94.1942 35.0022 94.1942 34.2978C94.1942 33.6696 93.6175 33.2698 92.0412 32.7939C90.2919 32.2609 89.5037 31.8421 89.1193 31.309C88.4465 30.3762 88.9847 28.8152 90.1958 28.1679C91.1185 27.673 93.2523 27.7111 94.4441 28.2441C95.2707 28.6248 95.3476 28.72 95.3476 29.3292C95.3476 29.7099 95.3092 30.0145 95.2515 30.0145C95.1938 30.0145 94.8094 29.8432 94.3864 29.6338C93.9828 29.4244 93.2523 29.1769 92.7717 29.0627C91.0416 28.6819 89.523 29.8432 90.4841 30.795C90.6956 31.0045 91.4645 31.3281 92.195 31.5184C94.6556 32.1467 95.5398 32.8891 95.5398 34.2978C95.5398 35.8398 94.3672 36.6775 92.2142 36.6775C91.2723 36.6775 90.7725 36.5632 89.9459 36.1635Z" fill="white"/>
<path d="M99.0005 36.5438C98.8467 36.4867 98.3469 36.2582 97.9047 36.0488C97.155 35.6871 97.0781 35.592 97.0781 34.9257V34.2023L98.1931 34.7543C99.6348 35.4777 100.673 35.6491 101.557 35.2874C102.365 34.9447 102.614 34.3546 102.192 33.7263C101.961 33.3837 101.384 33.1172 100 32.6983C97.7125 31.994 97.0781 31.4609 97.0781 30.2426C97.0781 27.9962 100.481 26.9873 102.96 28.4721C103.46 28.7767 103.537 28.929 103.46 29.405L103.383 29.9761L102.326 29.5001C100.327 28.5864 98.3276 28.9861 98.4622 30.2616C98.5199 30.9089 98.9043 31.1183 101.384 31.8226C103.364 32.3938 104.229 33.7644 103.518 35.2493C103.037 36.2011 102.038 36.6771 100.5 36.658C99.8271 36.658 99.1542 36.6009 99.0005 36.5438Z" fill="white"/>
<path d="M2.11523 17.6022L2.13446 13.1666L5.32552 11.3581C7.07484 10.3682 8.80494 9.39728 9.13173 9.18787L9.7661 8.82617L13.5531 10.9964C15.6484 12.1767 17.3785 13.2427 17.417 13.357C17.4746 13.4712 17.4746 15.4701 17.4554 17.7926L17.3977 22.0188L13.5723 19.8486L9.7661 17.6783L7.03639 19.2394C5.5562 20.096 3.82611 21.086 3.23018 21.4286L2.11523 22.0378V17.6022Z" fill="white"/>
<path d="M18.6836 31.5757C16.7612 30.4525 15.1657 29.4626 15.1465 29.3483C15.1465 29.2532 16.7805 28.2252 18.7989 27.0639L22.4706 24.9699L22.5282 20.5533L22.5859 16.1367L26.3344 18.3069L30.083 20.4581L30.1406 24.9318L30.1791 29.4055L26.4882 31.5186C24.4506 32.6798 22.6628 33.6317 22.4898 33.6126C22.336 33.6126 20.6251 32.6798 18.6836 31.5757Z" fill="white"/>
</g>
<defs>
<clipPath id="clip0_728_2440">
<rect width="124.374" height="49.7496" fill="white"/>
</clipPath>
</defs>
</svg>
