<svg width="125" height="50" viewBox="0 0 125 50" fill="none" xmlns="http://www.w3.org/2000/svg">
<g clip-path="url(#clip0_728_2511)">
<path d="M73.2117 49.3349C72.6054 49.1435 71.68 48.5371 71.1375 47.9947C69.8292 46.782 59.5858 29.0076 59.1071 27.1887C58.2774 24.0614 60.3197 20.4555 63.5427 19.3067C65.1702 18.7323 66.1594 18.7004 67.8188 19.179C69.893 19.7534 71.2333 21.3171 74.1372 26.5186C77.1687 32.0073 78.477 33.6347 80.6789 34.8473C82.3383 35.7089 85.4017 36.4748 86.6143 36.3152C87.0292 36.2514 87.3164 36.3791 87.2845 36.5705C87.2207 36.9854 83.2637 43.8462 81.6681 46.3991C80.2641 48.6329 78.3175 49.7817 76.0518 49.7498C75.0626 49.7498 73.7861 49.5583 73.2117 49.3349Z" fill="white"/>
<path d="M83.5496 31.7514C80.0394 30.5069 78.2524 26.1989 79.816 22.8164C81.3158 19.5934 85.209 17.9978 88.4001 19.3381C92.6442 21.0932 93.9526 26.4542 90.953 29.8687C89.0064 32.0706 86.3578 32.7407 83.5496 31.7514Z" fill="white"/>
<path d="M32.2058 29.1666C32.0782 29.039 31.9824 22.4334 31.9824 14.4557V0H39.4496C47.4912 0 48.1613 0.0957329 50.1398 1.78701C53.3628 4.49945 53.9691 9.92431 51.2886 12.4453L50.5227 13.1792L51.9268 14.7429C53.3947 16.3703 54.3201 18.636 54.3201 20.5826C54.3201 23.5184 52.4054 26.6776 49.5973 28.3369L48.0975 29.1985L40.2793 29.2943C35.9713 29.3581 32.3334 29.2943 32.2058 29.1666ZM47.1401 22.9121C48.8314 21.4123 48.7038 18.3488 46.8848 17.2C45.9913 16.6575 45.385 16.5937 42.1939 16.6575L38.5242 16.7533L38.4284 19.7529C38.3965 21.4123 38.3965 22.944 38.4923 23.1993C38.6199 23.5184 39.6091 23.6141 42.4811 23.6141C45.9913 23.6141 46.3743 23.5503 47.1401 22.9121ZM46.821 10.052C47.9379 8.96698 47.906 7.30761 46.7891 6.4141C46.0232 5.8078 45.5127 5.74397 42.162 5.74397H38.3646V8.29685V10.8497H42.1939C45.8637 10.8497 46.0871 10.8178 46.821 10.052Z" fill="white"/>
</g>
<defs>
<clipPath id="clip0_728_2511">
<rect width="124.374" height="49.7496" fill="white"/>
</clipPath>
</defs>
</svg>
