<svg width="125" height="50" viewBox="0 0 125 50" fill="none" xmlns="http://www.w3.org/2000/svg">
<g clip-path="url(#clip0_728_2485)">
<path d="M39.8959 49.2201C39.0366 48.8896 38.1081 48.0496 37.6507 47.1546C37.429 46.7277 37.3181 46.2458 37.2765 45.4471C37.2211 44.4419 37.2627 44.2353 37.5814 43.5193C38.8842 40.6827 42.3627 39.9666 44.6217 42.0459C45.481 42.8583 45.869 43.6845 45.9799 44.9376L46.0631 45.9428H42.4875C40.076 45.9428 38.9119 45.9841 38.9119 46.0805C38.9119 46.7277 39.882 47.6365 40.866 47.9257C41.8915 48.2287 43.0003 47.9257 43.7348 47.1408L44.0535 46.7966L44.6772 47.1408C45.0098 47.3336 45.287 47.5402 45.287 47.609C45.287 47.8982 44.3584 48.7244 43.5962 49.1099C42.8617 49.468 42.5983 49.523 41.6975 49.5093C40.9769 49.5093 40.4086 49.4129 39.8959 49.2201ZM44.3168 44.2629C44.3168 44.1665 44.1505 43.8498 43.9427 43.5468C43.4853 42.9134 42.432 42.3626 41.6421 42.3626C40.7413 42.3626 39.6741 42.941 39.1613 43.7121C38.6901 44.4281 38.704 44.4281 41.6144 44.4281C43.6239 44.4281 44.3168 44.3868 44.3168 44.2629Z" fill="white"/>
<path d="M47.5045 49.4269C47.4907 49.3718 47.4907 48.105 47.5045 46.6316V43.9464L47.9342 43.0927C48.8211 41.2613 50.8445 40.4351 52.8541 41.0685C53.9628 41.4127 54.9745 42.3904 55.3902 43.5058C55.6674 44.2494 55.6813 44.5385 55.6536 46.8794L55.612 49.4544L54.8913 49.4957L54.1568 49.5371V47.1548C54.1568 45.8467 54.0875 44.5385 54.0182 44.2631C53.7272 43.2304 52.6046 42.3766 51.5375 42.3629C50.8168 42.3629 49.9021 42.8724 49.4725 43.5058C49.1122 44.0566 49.0983 44.1117 49.029 46.7555L48.9597 49.4544L48.2391 49.4957C47.8371 49.5233 47.5045 49.482 47.5045 49.4269Z" fill="white"/>
<path d="M59.9091 49.3447C57.9273 48.5735 56.7493 46.7284 56.9849 44.7592C57.1651 43.2583 58.1906 41.84 59.5349 41.2203C60.4496 40.7935 62.279 40.7935 63.1798 41.2066C63.9559 41.5646 64.9676 42.4459 64.9676 42.7626C64.9676 42.8865 64.7182 43.1206 64.3994 43.2996L63.845 43.6163L63.3045 43.1344C61.5999 41.6059 59.036 42.5009 58.5232 44.8005C58.3708 45.5441 58.7727 46.6595 59.4241 47.2378C60.1309 47.8713 60.4912 48.009 61.392 48.009C62.1958 48.009 63.2214 47.5821 63.457 47.169C63.5263 47.0313 63.7203 46.9074 63.8728 46.9074C64.2054 46.9074 64.9676 47.4444 64.9676 47.6785C64.9676 47.9814 63.5956 49.083 62.9304 49.3034C62.182 49.565 60.5189 49.5788 59.9091 49.3447Z" fill="white"/>
<path d="M69.3889 49.3443C68.1001 48.8623 66.9359 47.7194 66.6172 46.604C66.146 44.9929 66.5894 43.2166 67.7536 42.1012C68.7098 41.1924 69.4028 40.917 70.7887 40.917C71.8004 40.917 72.0776 40.9721 72.7566 41.3026C74.1425 41.9773 75.0711 43.2992 75.1958 44.7864C75.2928 45.9844 75.0295 46.907 74.3227 47.8571C73.4912 48.9725 72.5349 49.4407 70.9966 49.4957C70.3175 49.5095 69.6938 49.4544 69.3889 49.3443ZM72.4379 47.5542C73.5327 46.8381 73.9762 45.2683 73.4357 44.0841C72.5072 42.0324 69.7354 41.7983 68.4742 43.6572C68.0862 44.2218 68.0169 44.4421 68.0169 45.1444C68.0169 46.3562 68.5297 47.1961 69.6107 47.7882C70.2759 48.1463 71.7172 48.0361 72.4379 47.5542Z" fill="white"/>
<path d="M76.5409 49.3995C76.4993 49.3169 76.4855 47.8573 76.5271 46.1498C76.5964 43.4096 76.6379 42.9965 76.8735 42.5145C77.7051 40.9034 79.9363 40.3526 81.4331 41.3991C81.7519 41.6195 82.0429 41.8122 82.0845 41.8122C82.1122 41.8122 82.3062 41.6608 82.5141 41.468C83.2486 40.7795 84.7731 40.6693 85.8402 41.2201C86.1451 41.3716 86.5886 41.7572 86.8381 42.0739L87.2816 42.666V46.0947V49.5235H86.5886H85.8957V46.4527C85.8957 43.1066 85.8679 42.9827 85.0641 42.5696C84.1217 42.0876 83.0962 42.5834 82.8329 43.6712C82.7636 43.9741 82.722 45.4062 82.7358 46.8383L82.7497 49.4546H82.0013H81.2529L81.1836 46.3288L81.1143 43.1892L80.7263 42.8174C80.4075 42.5007 80.2274 42.4319 79.6592 42.4319C79.091 42.4319 78.9108 42.5007 78.592 42.8174L78.204 43.1892L78.1347 46.3288L78.0654 49.4546L77.3447 49.4959C76.9567 49.5235 76.5964 49.4684 76.5409 49.3995Z" fill="white"/>
<path d="M50.3178 31.4157C48.9458 31.1679 47.6569 30.7272 46.1879 30.0112C41.2541 27.5876 38.122 23.0435 37.5122 17.4253C37.1658 14.3133 38.0112 10.6367 39.6881 7.93778C42.6955 3.07696 47.5876 0.364258 53.3252 0.364258C57.9264 0.364258 60.8506 1.74126 66.4773 6.51947L66.8376 6.83618L62.1672 11.4491L57.4967 16.0621H53.5331C51.3573 16.0483 49.4724 16.007 49.3616 15.9657C49.1953 15.9106 50.2901 14.7402 53.4084 11.6419C55.7505 9.30102 57.6353 7.35944 57.5938 7.31813C57.3997 7.12535 55.5288 6.56078 54.5725 6.40931C50.2347 5.74835 45.786 8.33712 44.1506 12.4819C43.43 14.2995 43.3052 16.6818 43.818 18.5958C44.5387 21.2259 46.4374 23.4704 48.9597 24.6684C50.6227 25.4533 51.4127 25.6323 53.3252 25.6185C55.5426 25.6185 57.3443 25.0402 59.0074 23.8284C59.3538 23.5806 61.2802 21.7354 63.3036 19.7249L66.9762 16.0621H71.2725H75.5687L69.748 21.8593C66.5466 25.0402 63.4283 28.0145 62.8186 28.4827C60.9337 29.8872 58.453 30.9888 56.2356 31.4019C54.8497 31.6636 51.7453 31.6773 50.3178 31.4157Z" fill="white"/>
<path d="M68.5015 31.4165C67.2126 31.1686 66.3118 30.8932 66.2564 30.7142C66.2287 30.6454 67.3235 29.4887 68.6817 28.1667L71.1624 25.7432L72.2296 25.6468C75.8744 25.3163 79.0343 23.0581 80.4202 19.7808C82.8177 14.1075 79.3253 7.64938 73.2274 6.49269L72.2711 6.31368L69.6241 3.6836C68.1828 2.25152 67.0325 1.02598 67.074 0.970904C67.573 0.475183 72.0632 0.199782 74.0451 0.544033C77.3573 1.12237 80.2123 2.582 82.5683 4.90914C85.9083 8.18641 87.5159 12.5928 87.1417 17.3573C86.5735 24.3938 81.2378 30.1772 74.1837 31.4302C72.8116 31.6643 69.8042 31.6643 68.5015 31.4165Z" fill="white"/>
</g>
<defs>
<clipPath id="clip0_728_2485">
<rect width="124.374" height="49.7496" fill="white"/>
</clipPath>
</defs>
</svg>
