<svg width="125" height="50" viewBox="0 0 125 50" fill="none" xmlns="http://www.w3.org/2000/svg">
<g clip-path="url(#clip0_728_2471)">
<path d="M4.27972 21.7482C3.8884 21.8926 3.47251 21.9581 3.05585 21.9413C2.63919 21.9244 2.22993 21.8254 1.8515 21.65C1.47307 21.4745 1.13288 21.226 0.850405 20.9187C0.567928 20.6115 0.348703 20.2514 0.205271 19.8592C0.0618398 19.4669 -0.00298241 19.0502 0.0145116 18.6328C0.0320056 18.2155 0.131473 17.8057 0.307224 17.4268C0.482975 17.048 0.73156 16.7076 1.03876 16.4251C1.34596 16.1427 1.70574 15.9236 2.09752 15.7806L19.4842 9.41822C19.8755 9.2687 20.2927 9.1992 20.7113 9.21382C21.1299 9.22845 21.5413 9.32689 21.9212 9.50336C22.3012 9.67982 22.642 9.93073 22.9237 10.2413C23.2053 10.5518 23.4219 10.9157 23.5609 11.3115C23.7054 11.6963 23.771 12.1063 23.7538 12.517C23.7366 12.9277 23.6369 13.3308 23.4607 13.702C23.2845 14.0733 23.0354 14.4052 22.7282 14.6778C22.4211 14.9505 22.0623 15.1583 21.6732 15.2889L4.27972 21.7482Z" fill="white"/>
<path d="M4.27917 31.1913C3.88794 31.3352 3.47223 31.4005 3.05581 31.3834C2.63939 31.3663 2.23041 31.2671 1.85225 31.0916C1.4741 30.9161 1.13418 30.6676 0.851914 30.3605C0.569652 30.0533 0.350584 29.6934 0.207228 29.3014C0.0638725 28.9093 -0.000959919 28.4929 0.0164366 28.0757C0.0338331 27.6586 0.133118 27.249 0.308615 26.8703C0.484113 26.4916 0.732383 26.1513 1.03924 25.8687C1.34609 25.5862 1.70552 25.367 2.09697 25.2237L19.4836 18.8686C19.8744 18.7174 20.2915 18.6464 20.7102 18.6598C21.1289 18.6732 21.5406 18.7709 21.9209 18.9468C22.3012 19.1228 22.6423 19.3736 22.924 19.6843C23.2056 19.9949 23.422 20.3591 23.5603 20.7552C23.7053 21.1398 23.7713 21.5497 23.7543 21.9604C23.7373 22.3711 23.6377 22.7741 23.4614 23.1453C23.2851 23.5164 23.0358 23.8481 22.7284 24.1204C22.421 24.3927 22.0619 24.6 21.6726 24.7299L4.27917 31.1913Z" fill="white"/>
<path d="M4.27862 40.6314C3.8872 40.7762 3.47112 40.8422 3.05421 40.8257C2.63729 40.8091 2.22773 40.7103 1.84898 40.5349C1.47024 40.3596 1.12975 40.1111 0.847029 39.8037C0.564305 39.4963 0.344899 39.136 0.201376 38.7436C0.0578537 38.3511 -0.00696404 37.9341 0.0106358 37.5165C0.0282356 37.0989 0.127907 36.6889 0.303941 36.3099C0.479975 35.931 0.728913 35.5906 1.03649 35.3081C1.34408 35.0257 1.70426 34.8068 2.09641 34.6641L19.4831 28.3097C19.8737 28.1582 20.2907 28.087 20.7094 28.1002C21.128 28.1134 21.5398 28.2108 21.9201 28.3866C22.3004 28.5625 22.6415 28.8131 22.9232 29.1236C23.2049 29.4342 23.4214 29.7983 23.5598 30.1943C23.7048 30.5789 23.7707 30.9889 23.7537 31.3997C23.7367 31.8104 23.6371 32.2135 23.4608 32.5848C23.2846 32.956 23.0353 33.2878 22.7279 33.5602C22.4205 33.8326 22.0614 34.04 21.6721 34.17L4.27862 40.6314Z" fill="white"/>
<path d="M34.6426 17.0059H44.2839V19.6625H37.9754V21.8237H44.1172V24.6446H37.9754V26.9714H44.4478V29.8063H34.6426V17.0059Z" fill="white"/>
<path d="M63.0704 17.0059H59.5723V29.8066H63.0704V17.0059Z" fill="white"/>
<path d="M75.6977 17.3367L75.532 19.9931C72.7088 18.5068 68.3847 19.0019 68.3847 23.1592C68.2189 27.481 72.7088 28.1417 75.6978 26.6413L75.8628 29.4632C70.7119 30.9634 64.7207 29.4632 64.7207 23.1592C64.7206 17.1716 70.8769 15.5058 75.6977 17.3367Z" fill="white"/>
<path d="M85.9998 17.1714L85.8348 19.8279C84.0027 18.8367 80.6837 18.8367 80.6837 20.3236C80.6837 22.6495 86.6608 20.9977 86.6608 25.8154C86.6608 30.4677 81.0145 30.6329 77.3506 29.463L77.5298 26.6412C79.8436 27.646 83.1767 27.9763 83.1767 26.1458C83.1767 23.9846 77.1855 25.1547 77.1855 20.6535C77.1855 16.8408 81.8406 15.8361 85.9998 17.1714Z" fill="white"/>
<path d="M96.4665 17.1714L96.3042 19.8279C94.4739 18.8367 91.1493 18.8367 91.1493 20.3236C91.1493 22.6495 97.127 20.9977 97.127 25.8154C97.127 30.4677 91.4851 30.6329 87.833 29.463L87.9981 26.6412C90.3259 27.646 93.6455 27.9763 93.6455 26.1458C93.6455 23.9846 87.668 25.1547 87.668 20.6535C87.668 16.8408 92.3078 15.8361 96.4665 17.1714Z" fill="white"/>
<path d="M112.598 17.0059H116.907L121.065 25.154V17.0059H124.384V29.8063H120.237L115.748 21.3283V29.8063H112.598V17.0059Z" fill="white"/>
<path d="M101.782 23.3241C101.782 25.3199 102.622 27.4808 104.441 27.4808C106.439 27.4808 107.262 25.3199 107.262 23.3241C107.262 21.6588 106.439 19.1674 104.441 19.1674C102.622 19.1674 101.782 21.3282 101.782 23.3241ZM104.441 16.6758C108.107 16.6758 110.928 18.6717 110.928 23.3241C110.928 27.8112 108.107 29.9722 104.441 29.9722C100.954 29.9722 98.1328 27.8112 98.1328 23.3241C98.1327 18.6717 100.954 16.6758 104.441 16.6758Z" fill="white"/>
<path d="M46.9414 17.0059H53.0977C54.9156 17.0059 57.2429 17.6664 57.2429 20.3231C57.2875 21.0404 57.0788 21.7506 56.6533 22.3294C56.2278 22.9081 55.6127 23.3184 54.9156 23.4886C55.1884 23.5742 55.4369 23.7238 55.6404 23.9249C55.8439 24.126 55.9967 24.3728 56.086 24.6449C56.086 24.81 57.9179 29.6413 57.9179 29.8066H54.2546L52.9321 25.8149C52.8444 25.573 52.6856 25.3633 52.4768 25.2134C52.2679 25.0636 52.0186 24.9805 51.7617 24.9752C51.1006 24.9752 50.2741 24.81 50.2741 24.9752V29.8066H46.9414V17.0059ZM50.2741 22.3189H52.0919C52.3005 22.3388 52.5109 22.3154 52.7099 22.2501C52.909 22.1848 53.0926 22.0791 53.249 21.9396C53.4055 21.8 53.5315 21.6297 53.6192 21.4391C53.7069 21.2485 53.7544 21.0419 53.7588 20.8321C53.7588 19.9924 53.0978 19.4968 52.092 19.4968H50.274L50.2741 22.3189Z" fill="white"/>
</g>
<defs>
<clipPath id="clip0_728_2471">
<rect width="124.374" height="49.7496" fill="white"/>
</clipPath>
</defs>
</svg>
