<svg width="125" height="50" viewBox="0 0 125 50" fill="none" xmlns="http://www.w3.org/2000/svg">
<g clip-path="url(#clip0_728_2496)">
<path d="M14.6172 34.6468H-0.00195312V17.4518C-0.0016079 17.0262 0.0844045 16.6049 0.251173 16.2119C0.417942 15.8189 0.6622 15.4618 0.970003 15.1612C1.27781 14.8605 1.64313 14.6221 2.0451 14.4596C2.44708 14.297 2.87784 14.2135 3.3128 14.2139H17.9325V18.3004H4.18119V30.5604H13.7488V26.4708H8.3817V22.3843H17.932V31.4089C17.9316 31.8345 17.8456 32.2558 17.6789 32.6488C17.5121 33.0418 17.2678 33.3989 16.96 33.6995C16.6522 34.0002 16.2869 34.2386 15.8849 34.4012C15.483 34.5637 15.0522 34.6472 14.6172 34.6468ZM30.5067 22.3853V26.4708H35.8733V30.5604H26.3056V22.3853H22.1225V34.6468H36.7422C37.1772 34.6472 37.6079 34.5637 38.0099 34.4012C38.4119 34.2386 38.7772 34.0002 39.085 33.6995C39.3928 33.3989 39.6371 33.0418 39.8038 32.6488C39.9706 32.2558 40.0566 31.8345 40.057 31.4089V22.3853H30.5067ZM26.3056 18.3004H40.057V14.2139H25.4367C24.5584 14.2133 23.7158 14.5541 23.0943 15.1613C22.4727 15.7685 22.1232 16.5924 22.1225 17.4518V18.3004H26.3056ZM51.1342 18.3004H62.1814V14.2139H44.2475V18.3004H51.1342ZM55.3173 22.3853H51.1337V34.6252H55.3173V22.3853ZM70.5661 18.3004H82.2251V14.2139H66.3824V18.3004H70.5661ZM70.5661 26.4661H77.2135V22.3853H66.3824V34.6129H82.2251V30.5264H70.5661V26.4661ZM90.6092 18.3004H102.269V14.2139H89.7403C89.3054 14.2135 88.8747 14.297 88.4727 14.4596C88.0708 14.6221 87.7055 14.8605 87.3977 15.1612C87.09 15.4619 86.8457 15.8189 86.679 16.2119C86.5123 16.6049 86.4264 17.0262 86.4261 17.4518V18.3004H90.6092ZM90.6092 22.3853H86.4261V34.6252H102.269V30.5387H90.6092V22.3853ZM110.622 14.2139H106.438V18.3004H110.622V14.2139ZM120.189 14.2139V22.3766H115.063V22.3853H106.438V34.6252H110.622V26.4625H120.189V34.6252H124.373V18.3004C124.374 16.0433 122.5 14.2139 120.189 14.2139Z" fill="white"/>
</g>
<defs>
<clipPath id="clip0_728_2496">
<rect width="124.374" height="49.7496" fill="white"/>
</clipPath>
</defs>
</svg>
