<svg width="125" height="50" viewBox="0 0 125 50" fill="none" xmlns="http://www.w3.org/2000/svg">
<path d="M29.5251 10.6074H23.9844V16.1482H29.5251V10.6074Z" fill="white"/>
<path d="M29.38 39.4194V19.5018H24.1309V39.4194H29.38ZM64.1701 39.6235V34.7535C63.4119 34.7535 62.7412 34.7243 62.2746 34.6368C61.7205 34.5494 61.3122 34.3744 61.0206 34.0828C60.7581 33.8203 60.554 33.412 60.4665 32.9163C60.379 32.4205 60.3499 31.779 60.3499 30.9916V24.0219H64.1409V19.5018H60.3499V11.7156H55.1007V30.9916C55.1007 32.6247 55.2466 33.9953 55.509 35.1034C55.7715 36.1824 56.2672 37.0573 56.9088 37.728C57.5503 38.3987 58.4252 38.8653 59.475 39.1569C60.5249 39.4485 61.8663 39.5944 63.4702 39.5944H64.1701V39.6235ZM94.236 39.4194V10.1992H88.9868V39.4194H94.236ZM50.0557 21.4557C48.5977 19.8809 46.5563 19.0936 43.9609 19.0936C42.707 19.0936 41.5696 19.356 40.5198 19.8518C39.4992 20.3767 38.6243 21.0766 37.9244 21.9806L37.6328 22.3597V22.0389V19.5018H32.442V39.4194H37.662V28.8336V29.5627C37.662 29.446 37.662 29.3294 37.662 29.2127C37.7203 27.3464 38.1869 25.9758 39.0326 25.0718C39.9657 24.1386 41.0739 23.6428 42.357 23.6428C43.8734 23.6428 45.0399 24.1094 45.7981 25.0134C46.5563 25.9175 46.9354 27.2006 46.9354 28.8336V28.8628V39.3902H52.2429V28.1046C52.272 25.2759 51.5138 23.0304 50.0557 21.4557ZM86.2748 29.4169C86.2748 27.9879 86.0123 26.6465 85.5166 25.3925C84.9916 24.1386 84.2918 23.0596 83.4169 22.0972C82.5129 21.1641 81.4339 20.435 80.1799 19.881C78.926 19.356 77.5262 19.0936 76.0098 19.0936C74.5809 19.0936 73.2103 19.356 71.9563 19.9101C70.7023 20.4642 69.5942 21.1932 68.661 22.1264C67.7278 23.0596 66.9988 24.1677 66.4447 25.4217C65.8906 26.6757 65.6282 28.0463 65.6282 29.4752C65.6282 30.9041 65.8906 32.2747 66.3864 33.5287C66.9113 34.7827 67.6403 35.8908 68.5444 36.824C69.4484 37.7572 70.5857 38.4862 71.8688 39.0403C73.1811 39.5944 74.61 39.8568 76.1264 39.8568C80.5882 39.8568 83.3294 37.8155 84.9916 35.9491L81.2006 33.0621C80.4132 33.9953 78.5177 35.2784 76.1556 35.2784C74.6683 35.2784 73.4727 34.9576 72.5395 34.2577C71.6064 33.587 70.994 32.6538 70.644 31.4874L70.5857 31.3124H86.2456L86.2748 29.4169ZM70.6732 27.6088C70.6732 26.1507 72.3354 23.6137 75.9515 23.5845C79.5675 23.5845 81.2589 26.1216 81.2589 27.5797L70.6732 27.6088Z" fill="white"/>
<path d="M100.243 36.8237C100.155 36.5904 100.009 36.3863 99.8344 36.2113C99.6594 36.0363 99.4553 35.8905 99.222 35.803C98.9887 35.7156 98.7262 35.6572 98.4637 35.6572C98.2013 35.6572 97.9388 35.7156 97.7055 35.803C97.4722 35.8905 97.2681 36.0363 97.0931 36.2113C96.9182 36.3863 96.7724 36.5904 96.6849 36.8237C96.5974 37.057 96.5391 37.3195 96.5391 37.5819C96.5391 37.8444 96.5974 38.1068 96.6849 38.3401C96.7724 38.5734 96.9182 38.7775 97.0931 38.9525C97.2681 39.1275 97.4722 39.2733 97.7055 39.3608C97.9388 39.4483 98.2013 39.5066 98.4637 39.5066C98.7262 39.5066 98.9887 39.4483 99.222 39.3608C99.4553 39.2733 99.6594 39.1275 99.8344 38.9525C100.009 38.7775 100.155 38.5734 100.243 38.3401C100.33 38.1068 100.388 37.8444 100.388 37.5819C100.388 37.3195 100.33 37.057 100.243 36.8237ZM99.9218 38.1943C99.8344 38.3984 99.7177 38.5734 99.6011 38.7192C99.4844 38.865 99.2803 38.9817 99.0761 39.04C98.872 39.0983 98.697 39.1566 98.4346 39.1566C98.2304 39.1566 97.9972 39.1275 97.793 39.04C97.5889 38.9525 97.4139 38.8359 97.2681 38.7192C97.1223 38.6026 97.0057 38.3984 96.9473 38.1943C96.8598 37.9902 96.8307 37.8152 96.8307 37.5527C96.8307 37.3486 96.8598 37.1153 96.9473 36.9112C97.0348 36.7071 97.1515 36.5321 97.2681 36.3863C97.4139 36.2405 97.5889 36.1238 97.793 36.0655C97.9972 36.0072 98.1721 35.9488 98.4346 35.9488C98.6387 35.9488 98.872 35.978 99.0761 36.0655C99.2803 36.153 99.4552 36.2696 99.6011 36.3863C99.7469 36.5029 99.8635 36.7071 99.9218 36.9112C100.009 37.1153 100.038 37.2903 100.038 37.5527C100.038 37.8152 99.9802 38.0193 99.9218 38.1943ZM98.8137 37.7277C98.9595 37.6986 99.0761 37.6402 99.1928 37.5527C99.3094 37.4653 99.3386 37.3195 99.3386 37.1153C99.3386 36.9112 99.2803 36.7362 99.1345 36.6196C99.0178 36.5029 98.8137 36.4446 98.5512 36.4446H97.6764V38.6609H98.0846V37.7569H98.3763L98.9303 38.6609H99.3678L98.8137 37.7277ZM98.6096 37.4069C98.5512 37.4069 98.4929 37.4069 98.4054 37.4069H98.1138V36.7654H98.4054C98.4638 36.7654 98.5221 36.7654 98.6096 36.7654C98.6679 36.7654 98.7262 36.7945 98.7845 36.7945C98.8429 36.8237 98.872 36.8529 98.9012 36.882C98.9303 36.9112 98.9303 36.9695 98.9303 37.057C98.9303 37.1445 98.9012 37.2028 98.9012 37.232C98.872 37.2611 98.8137 37.3195 98.7845 37.3195C98.7262 37.4069 98.6679 37.4069 98.6096 37.4069Z" fill="white"/>
</svg>
