<svg width="114" height="35" viewBox="0 0 114 35" fill="none" xmlns="http://www.w3.org/2000/svg">
<path d="M90.377 2.33964C94.1271 -1.51277 101.662 -0.421798 103.707 4.24882C104.252 5.44185 104.423 6.6012 104.457 9.05546L104.49 12.3279L101.968 12.4305C100.161 12.4986 99.3423 12.3965 99.1719 12.0896C99.0015 11.8505 98.8652 10.4528 98.8652 9.02128C98.8652 5.95319 98.4564 5.33972 96.4453 5.33964C94.434 5.33964 93.752 6.19155 93.752 8.85038C93.752 11.9869 94.4337 13.0098 97.877 14.9871C101.422 17.0326 102.377 17.9533 103.57 20.3396C104.389 22.0442 104.491 22.556 104.457 25.7947C104.423 29.7834 104.013 31.1809 102.309 32.8514C100.706 34.4536 99.2406 34.9998 96.4111 34.9998C94.7406 34.9998 93.479 34.7946 92.5244 34.3514C90.7858 33.5673 89.1493 31.5905 88.6719 29.6814C88.4673 28.8974 88.2969 26.9881 88.2969 25.4881V22.7264H93.6836L93.8203 25.7947C93.8544 27.465 94.0923 28.999 94.2969 29.2039C94.9787 29.8857 97.0921 30.0215 98.0127 29.408C98.8309 28.8625 98.8652 28.6924 98.8652 25.8289C98.8652 23.0679 98.7973 22.6923 97.9795 21.7381C97.5022 21.1585 96.2062 20.2034 95.1152 19.6238C90.4448 17.1352 88.638 14.5102 88.3652 9.908C88.1948 6.4306 88.8428 3.90788 90.377 2.33964ZM7.70508 10.1121C7.71435 10.1315 11.6943 18.4646 11.9326 18.4646C12.1752 18.4547 16.45 9.53383 16.4668 9.49882L20.5049 0.3621L23.8643 0.566202V34.659H18.4102L18.3418 27.6014C18.2736 23.2719 18.103 20.5451 17.8984 20.5789C17.728 20.5789 16.7737 22.4196 15.751 24.6355C14.7623 26.8515 13.7387 28.7951 13.5342 28.9314C13.0221 29.272 10.8422 29.272 10.3643 28.9314C10.1256 28.7951 9.13697 26.8856 8.11426 24.6697C7.12559 22.4196 6.13628 20.5789 5.96582 20.5789C5.76136 20.5467 5.59062 23.3073 5.52246 27.6014L5.45508 34.659H0L0.0683594 17.5447L0.170898 0.39628L3.55664 0.293741L7.70508 10.1121ZM85.2295 34.659H68.8652V29.5447H85.2295V34.659ZM113.186 34.659H107.73V9.08964H113.186V34.659ZM42.3418 16.7605C44.148 25.7577 45.6474 33.4601 45.6484 33.908C45.6825 34.6239 45.5461 34.658 42.9893 34.658H40.2959L39.8867 32.2039C39.6482 30.8407 39.3072 29.5118 39.1367 29.3064C38.8981 29.0337 37.8755 28.8631 36.2734 28.8631C33.4097 28.8631 33.3066 28.965 32.9316 31.7605C32.5225 34.7947 32.6592 34.658 29.625 34.658C28.1591 34.658 26.9316 34.5561 26.9316 34.4197C26.9321 33.3948 33.8525 0.634561 33.8525 0.634561L39.0342 0.39628L42.3418 16.7605ZM54.5469 12.3279L60.2744 0.668741L65.457 0.566202L59.4902 17.6805C59.4902 17.6805 61.0932 21.9766 62.7637 26.2381C64.4341 30.5335 65.7291 34.1809 65.5928 34.3514C65.4905 34.5218 64.2295 34.658 62.7295 34.658H60.0703L58.4678 30.2947C56.6269 25.2153 56.4224 24.8059 55.9111 25.3172C55.0929 26.1354 54.2061 29.5786 54.2061 32.1014V34.658H51.7178C50.32 34.658 48.9902 34.4197 48.9902 34.4197C48.9903 34.3628 49.0474 5.35288 49.1611 0.634561L53.6611 0.43046L54.5469 12.3279ZM85.2627 0.600382L85.1602 10.7254C85.0579 21.6344 85.024 21.8737 83.0469 24.0213C81.4445 25.7941 77.7965 26.7834 75.001 26.1697C72.5465 25.6583 70.9099 24.3628 69.6826 22.0447C69.1031 20.9879 68.9918 15.2802 68.9326 10.9305C68.8777 6.8941 69.3076 0.600382 69.3076 0.600382L74.1484 0.39628L74.3535 10.1121C74.4556 15.4532 74.5575 19.8438 74.5918 19.8963C74.6259 19.9304 74.8992 20.2036 75.2061 20.4764C75.5131 20.783 76.2971 21.0213 77.0469 21.0213C77.7968 21.0212 78.5809 20.7831 78.8877 20.4764C79.1945 20.2036 79.4669 19.9304 79.501 19.8963C79.5351 19.8584 79.638 15.4623 79.7402 10.1121L79.9443 0.39628L85.2627 0.600382ZM36.4775 12.7029C36.3071 12.5327 36.1022 12.7375 36 13.2146C35.5909 14.9535 34.7734 20.5446 34.7734 21.6355C34.7734 22.6921 34.8076 22.7264 36.2734 22.7264C37.1253 22.7263 37.875 22.5901 38.0117 22.4197C38.2504 22.0106 36.8526 13.112 36.4775 12.7029ZM113.226 6.03495H107.769V0.577921H113.226V6.03495Z" fill="white"/>
</svg>
