<svg width="125" height="50" viewBox="0 0 125 50" fill="none" xmlns="http://www.w3.org/2000/svg">
<g clip-path="url(#clip0_728_2504)">
<path d="M51.8711 16.8698V32.8306H49.1002V20.3058H49.0632L44.1124 32.8306H42.2651L37.2034 20.3058H37.1665V32.8306H34.6172V16.8698H38.6074L43.1887 28.6926H43.2626L48.1026 16.8698H51.8711ZM54.1618 18.089C54.1618 17.6457 54.3096 17.2762 54.6421 16.9806C54.9746 16.6851 55.3441 16.5373 55.7875 16.5373C56.2678 16.5373 56.6742 16.6851 56.9697 16.9806C57.2653 17.2762 57.45 17.6457 57.45 18.089C57.45 18.5324 57.3023 18.9018 56.9697 19.1974C56.6372 19.493 56.2678 19.6408 55.7875 19.6408C55.3072 19.6408 54.9377 19.493 54.6421 19.1974C54.3465 18.8649 54.1618 18.4954 54.1618 18.089ZM57.1545 21.3772V32.8306H54.4574V21.3772H57.1545ZM65.3196 30.8725C65.726 30.8725 66.1694 30.7986 66.6497 30.5769C67.13 30.3922 67.5733 30.1335 67.9798 29.838V32.3503C67.5364 32.6089 67.0561 32.7937 66.5019 32.9045C65.9477 33.0153 65.3566 33.0892 64.6915 33.0892C62.992 33.0892 61.625 32.572 60.5905 31.5005C59.519 30.4291 59.0018 29.0621 59.0018 27.4364C59.0018 25.5891 59.556 24.0743 60.6274 22.892C61.6989 21.7098 63.2137 21.1186 65.2088 21.1186C65.726 21.1186 66.2433 21.1925 66.7236 21.3033C67.2408 21.4142 67.6472 21.5989 67.9428 21.7467V24.3329C67.5364 24.0374 67.093 23.7788 66.6866 23.631C66.2433 23.4832 65.7999 23.3723 65.3566 23.3723C64.2851 23.3723 63.4353 23.7049 62.7703 24.4068C62.1053 25.1088 61.8097 26.0325 61.8097 27.2148C61.8097 28.3601 62.1422 29.2838 62.7703 29.9118C63.3984 30.5399 64.2482 30.8725 65.3196 30.8725ZM75.6276 21.1925C75.8493 21.1925 76.0341 21.1925 76.2188 21.2295C76.4035 21.2664 76.5513 21.3033 76.6621 21.3403V24.0743C76.5144 23.9635 76.3296 23.8526 76.0341 23.7788C75.7385 23.7049 75.4429 23.631 75.0365 23.631C74.3715 23.631 73.8173 23.9265 73.3739 24.4807C72.9306 25.0349 72.6719 25.8847 72.6719 27.067V32.8306H69.9749V21.3772H72.6719V23.1876H72.7089C72.9675 22.5595 73.337 22.0792 73.8173 21.7098C74.3345 21.3772 74.9257 21.1925 75.6276 21.1925ZM76.8099 27.2887C76.8099 25.4044 77.3641 23.8896 78.3986 22.7812C79.4701 21.6728 80.9479 21.1186 82.8322 21.1186C84.6056 21.1186 86.0096 21.6359 87.0071 22.7073C88.0047 23.7788 88.5219 25.2197 88.5219 27.03C88.5219 28.8774 87.9677 30.3552 86.9332 31.4636C85.8618 32.572 84.4209 33.1262 82.5736 33.1262C80.8001 33.1262 79.3962 32.6089 78.3617 31.5744C77.3272 30.503 76.8099 29.0621 76.8099 27.2887ZM79.6179 27.1778C79.6179 28.3601 79.8765 29.2838 80.4307 29.9118C80.9849 30.5399 81.7607 30.8725 82.7583 30.8725C83.7189 30.8725 84.4948 30.5769 85.012 29.9118C85.5293 29.2838 85.7879 28.3601 85.7879 27.1039C85.7879 25.8847 85.5293 24.961 85.012 24.296C84.4948 23.6679 83.7189 23.3354 82.7952 23.3354C81.7977 23.3354 81.0588 23.6679 80.5046 24.3329C79.8765 25.0349 79.6179 25.9586 79.6179 27.1778ZM92.5491 24.4068C92.5491 24.7763 92.6599 25.1088 92.9185 25.3305C93.1772 25.5522 93.6944 25.8108 94.5442 26.1433C95.6156 26.5867 96.3915 27.067 96.7979 27.5842C97.2413 28.1384 97.4629 28.7665 97.4629 29.5424C97.4629 30.6138 97.0565 31.4636 96.2068 32.1286C95.394 32.7937 94.2486 33.0892 92.8447 33.0892C92.3644 33.0892 91.8471 33.0153 91.256 32.9045C90.6648 32.7937 90.1845 32.6459 89.7781 32.4611V29.801C90.2584 30.1335 90.8126 30.4291 91.3668 30.6138C91.921 30.7986 92.4382 30.9094 92.9185 30.9094C93.5097 30.9094 93.99 30.8355 94.2486 30.6508C94.5442 30.466 94.692 30.2074 94.692 29.801C94.692 29.4315 94.5442 29.136 94.2486 28.8404C93.953 28.5818 93.3619 28.2862 92.5491 27.9537C91.5515 27.5473 90.8496 27.067 90.4431 26.5497C90.0367 26.0325 89.8151 25.3674 89.8151 24.5546C89.8151 23.5201 90.2215 22.6704 91.0343 22.0053C91.8471 21.3403 92.9185 21.0078 94.2117 21.0078C94.6181 21.0078 95.0614 21.0447 95.5417 21.1556C96.022 21.2664 96.4654 21.3772 96.7979 21.4881V24.1113C96.4285 23.8896 96.022 23.6679 95.5417 23.4832C95.0614 23.2984 94.5811 23.2246 94.1378 23.2246C93.6205 23.2246 93.2141 23.3354 92.9555 23.5201C92.6969 23.7788 92.5491 24.0374 92.5491 24.4068ZM98.6083 27.2887C98.6083 25.4044 99.1625 23.8896 100.197 22.7812C101.268 21.6728 102.746 21.1186 104.631 21.1186C106.404 21.1186 107.808 21.6359 108.805 22.7073C109.803 23.7788 110.32 25.2197 110.32 27.03C110.32 28.8774 109.766 30.3552 108.732 31.4636C107.66 32.572 106.219 33.1262 104.372 33.1262C102.598 33.1262 101.195 32.6089 100.16 31.5744C99.1625 30.503 98.6083 29.0621 98.6083 27.2887ZM101.416 27.1778C101.416 28.3601 101.675 29.2838 102.229 29.9118C102.783 30.5399 103.559 30.8725 104.557 30.8725C105.517 30.8725 106.293 30.5769 106.81 29.9118C107.328 29.2838 107.586 28.3601 107.586 27.1039C107.586 25.8847 107.328 24.961 106.81 24.296C106.293 23.6679 105.517 23.3354 104.594 23.3354C103.596 23.3354 102.857 23.6679 102.303 24.3329C101.712 25.0349 101.416 25.9586 101.416 27.1778ZM119.298 23.594H115.271V32.8306H112.537V23.594H110.616V21.3772H112.537V19.7885C112.537 18.6063 112.943 17.6087 113.719 16.8328C114.495 16.057 115.493 15.6875 116.712 15.6875C117.045 15.6875 117.34 15.7244 117.599 15.7244C117.857 15.7244 118.079 15.7983 118.264 15.8722V18.1999C118.19 18.1629 118.005 18.089 117.783 18.0151C117.562 17.9412 117.303 17.9043 117.008 17.9043C116.453 17.9043 116.01 18.089 115.714 18.4215C115.419 18.754 115.271 19.3082 115.271 19.9733V21.3403H119.298V18.754L121.995 17.9412V21.3403H124.729V23.5571H121.995V28.9143C121.995 29.6163 122.143 30.0966 122.365 30.3922C122.623 30.6877 123.03 30.8355 123.584 30.8355C123.732 30.8355 123.917 30.7986 124.138 30.7247C124.36 30.6508 124.545 30.5769 124.692 30.466V32.6828C124.508 32.7937 124.249 32.8676 123.843 32.9415C123.436 33.0153 123.067 33.0523 122.66 33.0523C121.515 33.0523 120.665 32.7567 120.111 32.1656C119.557 31.5744 119.261 30.6508 119.261 29.4315L119.298 23.594Z" fill="white"/>
<path d="M12.6337 11.5488H-0.00195312V24.1845H12.6337V11.5488Z" fill="white"/>
<path d="M26.6005 11.5488H13.9648V24.1845H26.6005V11.5488Z" fill="white"/>
<path d="M12.6337 25.5146H-0.00195312V38.1503H12.6337V25.5146Z" fill="white"/>
<path d="M26.6005 25.5146H13.9648V38.1503H26.6005V25.5146Z" fill="white"/>
</g>
<defs>
<clipPath id="clip0_728_2504">
<rect width="124.374" height="49.7496" fill="white"/>
</clipPath>
</defs>
</svg>
