<svg width="125" height="50" viewBox="0 0 125 50" fill="none" xmlns="http://www.w3.org/2000/svg">
<g clip-path="url(#clip0_728_2468)">
<path d="M44.3097 36.1048C39.7999 36.1048 35.6209 34.7615 32.8349 32.2566C31.8387 31.3615 31.0449 30.264 30.5065 29.0377C29.9682 27.8113 29.6977 26.4841 29.7131 25.1449C29.71 23.8112 29.9862 22.4916 30.5238 21.271C31.0615 20.0504 31.8487 18.956 32.8349 18.058C35.4219 15.7073 39.9989 14.2148 44.3097 14.2148C49.0782 14.2148 52.8965 15.4163 55.8144 18.063C56.7966 18.9606 57.5786 20.0553 58.1092 21.2756C58.6399 22.4959 58.9072 23.8143 58.8939 25.1449C58.8872 26.4768 58.6109 27.7936 58.0817 29.0158C57.5524 30.2381 56.7812 31.3405 55.8144 32.2566C53.0955 34.7765 48.827 36.1048 44.3097 36.1048V33.2243C46.7002 33.2243 48.919 32.3984 50.4687 30.8562C52.0184 29.3139 52.7224 27.4433 52.7224 25.1349C52.7224 22.931 51.9488 20.8714 50.4687 19.4137C48.9389 17.9088 46.6679 17.0605 44.3097 17.0605C41.9516 17.0605 39.6705 17.9013 38.1407 19.4137C36.6656 20.8739 35.902 22.941 35.902 25.1349C35.8799 26.189 36.0662 27.2371 36.4504 28.219C36.8346 29.2008 37.4091 30.097 38.1407 30.8562C39.6705 32.381 41.9366 33.2243 44.3097 33.2243V36.1048ZM11.3803 14.2148C8.96991 14.2148 6.23118 14.6676 3.91781 15.7073C1.75867 16.6725 1.53278e-05 18.2222 1.53278e-05 20.7918C-0.00322858 22.1374 0.50853 23.4333 1.43032 24.4136C2.05468 24.9907 3.06212 25.9707 5.69388 26.5478C6.87047 26.7966 9.38532 27.1971 11.8902 27.4607C14.3951 27.7244 16.8229 27.9582 17.8179 28.2244C18.6089 28.4259 19.9398 28.6995 19.9398 30.192C19.9398 31.6845 18.5393 32.1323 18.2955 32.2293C18.0517 32.3263 16.3702 33.0974 13.3504 33.0974C11.3496 33.0419 9.36694 32.7009 7.46249 32.085C6.33566 31.682 5.1541 31.1522 4.05214 29.8064C3.60743 29.1727 3.36071 28.4213 3.3432 27.6473H0.606963V35.3088H3.64668V34.2715C3.6462 34.1946 3.66624 34.1189 3.70473 34.0523C3.74322 33.9856 3.79878 33.9305 3.86567 33.8925C3.93257 33.8545 4.00839 33.835 4.08533 33.836C4.16226 33.837 4.23753 33.8586 4.30338 33.8984C5.73548 34.5215 7.22512 35.0031 8.75101 35.3361C10.348 35.6695 11.3803 35.9108 13.3653 35.9108C15.4599 35.9506 17.5475 35.6558 19.5492 35.0376C20.8784 34.6733 22.1256 34.0578 23.2232 33.2243C23.8406 32.75 24.3396 32.1391 24.681 31.4394C25.0224 30.7398 25.1969 29.9705 25.1908 29.192C25.2012 27.7131 24.6304 26.2892 23.6013 25.227C23.0291 24.6716 22.3662 24.2182 21.6412 23.8862C20.8618 23.5341 20.0527 23.2519 19.2234 23.043C17.6463 22.6574 14.1041 22.1748 12.4101 22.0057C10.634 21.8216 7.55204 21.5654 6.32073 21.1848C5.94761 21.0679 5.18644 20.7072 5.18644 19.8241C5.18644 19.1948 5.53468 18.6625 6.22123 18.2321C7.31324 17.5481 9.51716 17.1227 11.8156 17.1227C14.0404 17.0959 16.2469 17.5268 18.298 18.3889C18.8491 18.6289 19.3673 18.9382 19.8403 19.3092C20.6112 19.9677 21.1451 20.8607 21.3601 21.8514H23.8153V15.1825H21.079V15.9561C21.079 16.2048 20.8303 16.5332 20.3328 16.262C19.099 15.6203 15.6314 14.2323 11.3803 14.2148ZM71.4507 15.4387L84.8235 27.5055L84.6867 19.3814C84.6718 18.3142 84.4777 17.869 83.3235 17.869H80.8112V15.4387H92.2536V17.869H89.7985C88.6244 17.869 88.5547 18.2471 88.5348 19.3814L88.7413 34.9058H84.8235L69.4184 21.1599V30.9134C69.4309 31.9755 69.4806 32.4755 70.5726 32.4755H73.3089V34.9058H62.0928V32.4755H64.7196C65.6996 32.4755 65.6599 31.5402 65.6599 30.8587V19.4734C65.6599 18.7272 65.5554 17.8715 64.0181 17.8715H61.8888V15.4387H71.4507ZM105.308 32.4706C105.534 32.4706 105.76 32.4564 105.985 32.4283C106.101 32.3933 106.209 32.3333 106.3 32.2526C106.391 32.1718 106.463 32.0722 106.512 31.9606C106.546 31.7878 106.564 31.612 106.564 31.4358V27.5926C106.564 27.4632 106.564 27.4607 106.4 27.2568C106.236 27.0528 99.3952 19.2968 99.0843 18.9485C98.6962 18.5257 98.0147 17.8715 96.9774 17.8715H94.6018V15.4387H108.009V17.8665H106.393C106.019 17.8665 105.771 18.2222 106.089 18.6127C106.089 18.6127 110.601 24.0106 110.644 24.0678C110.686 24.125 110.723 24.1375 110.78 24.0852C110.838 24.033 115.405 18.6625 115.44 18.6127C115.494 18.5419 115.526 18.457 115.533 18.3682C115.54 18.2795 115.522 18.1905 115.48 18.1119C115.438 18.0333 115.374 17.9684 115.297 17.9249C115.219 17.8814 115.13 17.8611 115.042 17.8665H113.382V15.4387H124.375V17.8715H121.919C121.029 17.8715 120.676 18.0356 119.997 18.7918L112.596 27.2344C112.524 27.3389 112.492 27.4663 112.507 27.5926V31.4333C112.508 31.6096 112.526 31.7853 112.562 31.9581C112.609 32.0698 112.681 32.1696 112.772 32.2504C112.863 32.3312 112.97 32.3911 113.086 32.4258C113.309 32.4552 113.533 32.4693 113.758 32.4681H116.268V34.9008H102.93V32.4681L105.308 32.4706Z" fill="white"/>
</g>
<defs>
<clipPath id="clip0_728_2468">
<rect width="124.374" height="49.7496" fill="white"/>
</clipPath>
</defs>
</svg>
