<?xml version="1.0" encoding="utf-8"?>
<svg xmlns="http://www.w3.org/2000/svg" fill="none" height="100%" overflow="visible" preserveAspectRatio="none" style="display: block;" viewBox="0 0 43.6625 38.9784" width="100%">
<g id="Check">
<path d="M21.8333 6.33333C29.013 6.33333 34.8333 12.1536 34.8333 19.3333C34.8333 26.513 29.013 32.3333 21.8333 32.3333C14.6536 32.3333 8.83333 26.513 8.83333 19.3333C8.83333 12.1536 14.6536 6.33333 21.8333 6.33333Z" stroke="var(--stroke-0, #8731FF)" stroke-width="2"/>
<g filter="url(#filter0_d_0_12199)" id="Vector">
<path d="M30.1812 14.8972L19.5812 25.4971C19.4874 25.5918 19.3596 25.645 19.2262 25.645C19.0929 25.645 18.9651 25.5918 18.8712 25.4971L13.4812 20.1071C13.3866 20.0133 13.3333 19.8855 13.3333 19.7521C13.3333 19.6188 13.3866 19.491 13.4812 19.3971L14.1812 18.6971C14.2751 18.6025 14.4029 18.5492 14.5362 18.5492C14.6696 18.5492 14.7974 18.6025 14.8912 18.6971L19.2212 23.0271L28.7712 13.4772C28.969 13.2854 29.2834 13.2854 29.4812 13.4772L30.1812 14.1872C30.2759 14.2811 30.3291 14.4089 30.3291 14.5422C30.3291 14.6755 30.2759 14.8033 30.1812 14.8972Z" fill="var(--fill-0, #8731FF)"/>
</g>
</g>
<defs>
<filter color-interpolation-filters="sRGB" filterUnits="userSpaceOnUse" height="38.9784" id="filter0_d_0_12199" width="43.6625" x="0" y="0">
<feFlood flood-opacity="0" result="BackgroundImageFix"/>
<feColorMatrix in="SourceAlpha" result="hardAlpha" type="matrix" values="0 0 0 0 0 0 0 0 0 0 0 0 0 0 0 0 0 0 127 0"/>
<feOffset/>
<feGaussianBlur stdDeviation="6.66667"/>
<feComposite in2="hardAlpha" operator="out"/>
<feColorMatrix type="matrix" values="0 0 0 0 0.529412 0 0 0 0 0.192157 0 0 0 0 1 0 0 0 1 0"/>
<feBlend in2="BackgroundImageFix" mode="normal" result="effect1_dropShadow_0_12199"/>
<feBlend in="SourceGraphic" in2="effect1_dropShadow_0_12199" mode="normal" result="shape"/>
</filter>
</defs>
</svg>