<?xml version="1.0" encoding="utf-8"?>
<svg xmlns="http://www.w3.org/2000/svg" fill="none" height="100%" overflow="visible" preserveAspectRatio="none" style="display: block;" viewBox="0 0 640 102.429" width="100%">
<g id="Group 1410103786">
<path d="M40.8867 24.074C40.8867 20.7603 43.573 18.074 46.8867 18.074H245.887C249.2 18.074 251.887 20.7603 251.887 24.074V24.074H40.8867V24.074Z" fill="var(--fill-0, white)" id="Rectangle 3470817"/>
<g filter="url(#filter0_i_0_12209)" id="Rectangle 3470818">
<path d="M640 102.429V35.874C640 31.3936 640 29.1534 639.128 27.4421C638.361 25.9368 637.137 24.7129 635.632 23.9459C633.921 23.074 631.68 23.074 627.2 23.074L619.901 23.074C617.339 23.074 616.058 23.074 614.9 22.7148C613.876 22.397 612.925 21.8762 612.106 21.1834C611.18 20.4008 610.491 19.3213 609.112 17.1622L601.929 5.912C600.551 3.7529 599.861 2.67335 598.936 1.89075C598.116 1.19803 597.166 0.677239 596.141 0.359358C594.983 0.000228882 593.702 0.000228882 591.141 0.000228882H325.149C322.249 0.000228882 320.799 0.000228882 319.521 0.444861C318.392 0.838022 317.365 1.47943 316.516 2.32188C315.556 3.27462 314.92 4.5777 313.647 7.18387L309.396 15.8903C308.123 18.4965 307.487 19.7996 306.527 20.7523C305.678 21.5948 304.651 22.2362 303.521 22.6294C302.244 23.074 300.794 23.074 297.894 23.074H12.8C8.31958 23.074 6.07937 23.074 4.36808 23.9459C2.86278 24.7129 1.63893 25.9368 0.871948 27.4421C1.17367e-10 29.1534 1.13695e-10 31.3936 1.06353e-10 35.874L0 100.772L640 102.429Z" fill="url(#paint0_linear_0_12209)" fill-opacity="0.8"/>
</g>
</g>
<defs>
<filter color-interpolation-filters="sRGB" filterUnits="userSpaceOnUse" height="106.429" id="filter0_i_0_12209" width="640" x="0" y="0.000228882">
<feFlood flood-opacity="0" result="BackgroundImageFix"/>
<feBlend in="SourceGraphic" in2="BackgroundImageFix" mode="normal" result="shape"/>
<feColorMatrix in="SourceAlpha" result="hardAlpha" type="matrix" values="0 0 0 0 0 0 0 0 0 0 0 0 0 0 0 0 0 0 127 0"/>
<feOffset dy="4"/>
<feGaussianBlur stdDeviation="2.5"/>
<feComposite in2="hardAlpha" k2="-1" k3="1" operator="arithmetic"/>
<feColorMatrix type="matrix" values="0 0 0 0 1 0 0 0 0 0.803137 0 0 0 0 0.0156863 0 0 0 0.2 0"/>
<feBlend in2="shape" mode="normal" result="effect1_innerShadow_0_12209"/>
</filter>
<linearGradient gradientUnits="userSpaceOnUse" id="paint0_linear_0_12209" x1="393.387" x2="393.387" y1="-17.926" y2="89.074">
<stop stop-color="#FF8D04"/>
<stop offset="1" stop-color="#8D1500" stop-opacity="0"/>
</linearGradient>
</defs>
</svg>