<?xml version="1.0" encoding="utf-8"?>
<svg xmlns="http://www.w3.org/2000/svg" fill="none" height="100%" overflow="visible" preserveAspectRatio="none" style="display: block;" viewBox="0 0 124.374 49.7496" width="100%">
<g clip-path="url(#clip0_0_11423)" id="Logo / Relume">
<path d="M14.6172 34.6473H-0.00195312V17.4522C-0.0016079 17.0267 0.0844045 16.6053 0.251173 16.2123C0.417942 15.8193 0.6622 15.4623 0.970003 15.1616C1.27781 14.8609 1.64313 14.6225 2.0451 14.46C2.44708 14.2974 2.87784 14.214 3.3128 14.2143H17.9325V18.3008H4.18119V30.5608H13.7488V26.4712H8.3817V22.3847H17.932V31.4094C17.9316 31.8349 17.8456 32.2562 17.6789 32.6492C17.5121 33.0423 17.2678 33.3993 16.96 33.7C16.6522 34.0006 16.2869 34.239 15.8849 34.4016C15.483 34.5641 15.0522 34.6476 14.6172 34.6473ZM30.5067 22.3857V26.4712H35.8733V30.5608H26.3056V22.3857H22.1225V34.6473H36.7422C37.1772 34.6476 37.6079 34.5641 38.0099 34.4016C38.4119 34.239 38.7772 34.0006 39.085 33.7C39.3928 33.3993 39.6371 33.0423 39.8038 32.6492C39.9706 32.2562 40.0566 31.8349 40.057 31.4094V22.3857H30.5067ZM26.3056 18.3008H40.057V14.2143H25.4367C24.5584 14.2137 23.7158 14.5546 23.0943 15.1618C22.4727 15.769 22.1232 16.5929 22.1225 17.4522V18.3008H26.3056ZM51.1342 18.3008H62.1814V14.2143H44.2475V18.3008H51.1342ZM55.3173 22.3857H51.1337V34.6257H55.3173V22.3857ZM70.5661 18.3008H82.2251V14.2143H66.3824V18.3008H70.5661ZM70.5661 26.4666H77.2135V22.3857H66.3824V34.6133H82.2251V30.5268H70.5661V26.4666ZM90.6092 18.3008H102.269V14.2143H89.7403C89.3054 14.214 88.8747 14.2974 88.4727 14.46C88.0708 14.6225 87.7055 14.8609 87.3977 15.1616C87.09 15.4623 86.8457 15.8193 86.679 16.2124C86.5123 16.6054 86.4264 17.0267 86.4261 17.4522V18.3008H90.6092ZM90.6092 22.3857H86.4261V34.6257H102.269V30.5392H90.6092V22.3857ZM110.622 14.2143H106.438V18.3008H110.622V14.2143ZM120.189 14.2143V22.377H115.063V22.3857H106.438V34.6257H110.622V26.463H120.189V34.6257H124.373V18.3008C124.374 16.0437 122.5 14.2143 120.189 14.2143Z" fill="var(--fill-0, white)" id="Vector"/>
</g>
<defs>
<clipPath id="clip0_0_11423">
<rect fill="white" height="49.7496" width="124.374"/>
</clipPath>
</defs>
</svg>