<?xml version="1.0" encoding="utf-8"?>
<svg xmlns="http://www.w3.org/2000/svg" fill="none" height="100%" overflow="visible" preserveAspectRatio="none" style="display: block;" viewBox="0 0 124.374 49.7496" width="100%">
<g clip-path="url(#clip0_0_12473)" id="Logo / Relume">
<g id="Group 58">
<g id="Group 57">
<path d="M4.27972 21.7482C3.8884 21.8926 3.47251 21.9581 3.05585 21.9413C2.63919 21.9244 2.22993 21.8254 1.8515 21.65C1.47307 21.4745 1.13288 21.226 0.850405 20.9187C0.567928 20.6115 0.348703 20.2514 0.205271 19.8592C0.0618398 19.4669 -0.00298241 19.0502 0.0145116 18.6328C0.0320056 18.2155 0.131473 17.8057 0.307224 17.4268C0.482975 17.048 0.73156 16.7076 1.03876 16.4251C1.34596 16.1427 1.70574 15.9236 2.09752 15.7806L19.4842 9.41822C19.8755 9.2687 20.2927 9.1992 20.7113 9.21382C21.1299 9.22845 21.5413 9.32689 21.9212 9.50336C22.3012 9.67982 22.642 9.93073 22.9237 10.2413C23.2053 10.5518 23.4219 10.9157 23.5609 11.3115C23.7054 11.6963 23.771 12.1063 23.7538 12.517C23.7366 12.9277 23.6369 13.3308 23.4607 13.702C23.2845 14.0733 23.0354 14.4052 22.7282 14.6778C22.4211 14.9505 22.0623 15.1583 21.6732 15.2889L4.27972 21.7482Z" fill="var(--fill-0, white)" id="Vector"/>
<path d="M4.27917 31.1908C3.88794 31.3347 3.47223 31.4 3.05581 31.3829C2.63939 31.3658 2.23041 31.2666 1.85225 31.0911C1.4741 30.9156 1.13418 30.6671 0.851914 30.36C0.569652 30.0528 0.350584 29.6929 0.207228 29.3009C0.0638725 28.9088 -0.000959919 28.4924 0.0164366 28.0752C0.0338331 27.6581 0.133118 27.2485 0.308615 26.8698C0.484113 26.4911 0.732383 26.1508 1.03924 25.8682C1.34609 25.5857 1.70552 25.3665 2.09697 25.2232L19.4836 18.8682C19.8744 18.7169 20.2915 18.6459 20.7102 18.6593C21.1289 18.6728 21.5406 18.7704 21.9209 18.9464C22.3012 19.1223 22.6423 19.3731 22.924 19.6838C23.2056 19.9944 23.422 20.3586 23.5603 20.7548C23.7053 21.1393 23.7713 21.5492 23.7543 21.9599C23.7373 22.3706 23.6377 22.7736 23.4614 23.1448C23.2851 23.5159 23.0358 23.8476 22.7284 24.1199C22.421 24.3922 22.0619 24.5996 21.6726 24.7294L4.27917 31.1908Z" fill="var(--fill-0, white)" id="Vector_2"/>
<path d="M4.27862 40.6318C3.88721 40.7766 3.47113 40.8426 3.05421 40.826C2.63729 40.8095 2.22773 40.7107 1.84899 40.5353C1.47025 40.36 1.12976 40.1115 0.847036 39.8041C0.564311 39.4967 0.344905 39.1364 0.201383 38.744C0.0578601 38.3515 -0.00695767 37.9345 0.0106422 37.5169C0.028242 37.0993 0.127913 36.6893 0.303947 36.3103C0.479981 35.9314 0.728919 35.5909 1.0365 35.3085C1.34408 35.0261 1.70427 34.8072 2.09642 34.6645L19.4831 28.3101C19.8737 28.1586 20.2907 28.0873 20.7094 28.1006C21.128 28.1138 21.5398 28.2112 21.9201 28.387C22.3004 28.5628 22.6415 28.8135 22.9232 29.124C23.2049 29.4346 23.4214 29.7987 23.5598 30.1947C23.7048 30.5793 23.7708 30.9893 23.7537 31.4C23.7367 31.8108 23.6371 32.2139 23.4608 32.5852C23.2846 32.9564 23.0353 33.2882 22.7279 33.5606C22.4205 33.833 22.0614 34.0404 21.6721 34.1704L4.27862 40.6318Z" fill="var(--fill-0, white)" id="Vector_3"/>
</g>
<path d="M34.6426 17.0059H44.2839V19.6625H37.9754V21.8237H44.1172V24.6446H37.9754V26.9714H44.4478V29.8063H34.6426V17.0059Z" fill="var(--fill-0, white)" id="Vector_4"/>
<path d="M63.0704 17.0062H59.5723V29.8069H63.0704V17.0062Z" fill="var(--fill-0, white)" id="Vector_5"/>
<path d="M75.6977 17.3367L75.532 19.9931C72.7088 18.5068 68.3847 19.0019 68.3847 23.1592C68.2189 27.481 72.7088 28.1417 75.6978 26.6413L75.8628 29.4632C70.7119 30.9634 64.7207 29.4632 64.7207 23.1592C64.7206 17.1716 70.8769 15.5058 75.6977 17.3367Z" fill="var(--fill-0, white)" id="Vector_6"/>
<path d="M85.9998 17.1714L85.8348 19.8279C84.0027 18.8367 80.6837 18.8367 80.6837 20.3236C80.6837 22.6495 86.6608 20.9977 86.6608 25.8154C86.6608 30.4677 81.0145 30.6329 77.3506 29.463L77.5298 26.6412C79.8436 27.646 83.1767 27.9763 83.1767 26.1458C83.1767 23.9846 77.1855 25.1547 77.1855 20.6535C77.1855 16.8408 81.8406 15.8361 85.9998 17.1714Z" fill="var(--fill-0, white)" id="Vector_7"/>
<path d="M96.4665 17.1714L96.3042 19.8279C94.4739 18.8367 91.1493 18.8367 91.1493 20.3236C91.1493 22.6495 97.127 20.9977 97.127 25.8154C97.127 30.4677 91.4851 30.6329 87.833 29.463L87.9981 26.6412C90.3259 27.646 93.6455 27.9763 93.6455 26.1458C93.6455 23.9846 87.668 25.1547 87.668 20.6535C87.668 16.8408 92.3078 15.8361 96.4665 17.1714Z" fill="var(--fill-0, white)" id="Vector_8"/>
<path d="M112.598 17.0059H116.907L121.065 25.154V17.0059H124.384V29.8063H120.237L115.748 21.3283V29.8063H112.598V17.0059Z" fill="var(--fill-0, white)" id="Vector_9"/>
<path d="M101.782 23.324C101.782 25.3198 102.622 27.4807 104.441 27.4807C106.439 27.4807 107.262 25.3198 107.262 23.324C107.262 21.6587 106.439 19.1673 104.441 19.1673C102.621 19.1673 101.782 21.3281 101.782 23.324ZM104.441 16.6757C108.107 16.6757 110.928 18.6716 110.928 23.324C110.928 27.8111 108.107 29.972 104.441 29.972C100.954 29.972 98.1328 27.8111 98.1328 23.324C98.1327 18.6716 100.954 16.6757 104.441 16.6757Z" fill="var(--fill-0, white)" id="Vector_10"/>
<path d="M46.9416 17.0062H53.098C54.9159 17.0062 57.2431 17.6668 57.2431 20.3234C57.2877 21.0408 57.079 21.751 56.6536 22.3297C56.2281 22.9084 55.613 23.3188 54.9159 23.4889C55.1886 23.5746 55.4371 23.7242 55.6406 23.9252C55.8442 24.1263 55.9969 24.3731 56.0862 24.6452C56.0862 24.8103 57.9181 29.6417 57.9181 29.8069H54.2548L52.9323 25.8152C52.8446 25.5733 52.6859 25.3636 52.477 25.2138C52.2681 25.0639 52.0188 24.9809 51.762 24.9756C51.1008 24.9756 50.2743 24.8104 50.2743 24.9756V29.8069H46.9416V17.0062ZM50.2743 22.3192H52.0922C52.3007 22.3391 52.5111 22.3157 52.7102 22.2504C52.9093 22.1852 53.0928 22.0795 53.2492 21.9399C53.4057 21.8004 53.5317 21.63 53.6194 21.4394C53.7071 21.2489 53.7547 21.0422 53.759 20.8324C53.759 19.9927 53.098 19.4971 52.0922 19.4971H50.2743L50.2743 22.3192Z" fill="var(--fill-0, white)" id="Vector_11"/>
</g>
</g>
<defs>
<clipPath id="clip0_0_12473">
<rect fill="white" height="49.7496" width="124.374"/>
</clipPath>
</defs>
</svg>