<?xml version="1.0" encoding="utf-8"?>
<svg xmlns="http://www.w3.org/2000/svg" fill="none" height="100%" overflow="visible" preserveAspectRatio="none" style="display: block;" viewBox="0 0 124.374 49.7496" width="100%">
<g clip-path="url(#clip0_0_12495)" id="Logo / Relume">
<g id="Group 55">
<path d="M51.8711 16.8693V32.8301H49.1002V20.3053H49.0632L44.1124 32.8301H42.2651L37.2034 20.3053H37.1665V32.8301H34.6172V16.8693H38.6074L43.1887 28.6921H43.2626L48.1026 16.8693H51.8711ZM54.1618 18.0885C54.1618 17.6452 54.3096 17.2757 54.6421 16.9801C54.9746 16.6846 55.3441 16.5368 55.7875 16.5368C56.2678 16.5368 56.6742 16.6846 56.9697 16.9801C57.2653 17.2757 57.45 17.6452 57.45 18.0885C57.45 18.5319 57.3023 18.9013 56.9697 19.1969C56.6372 19.4925 56.2678 19.6403 55.7875 19.6403C55.3072 19.6403 54.9377 19.4925 54.6421 19.1969C54.3465 18.8644 54.1618 18.4949 54.1618 18.0885ZM57.1545 21.3768V32.8301H54.4574V21.3768H57.1545ZM65.3196 30.872C65.726 30.872 66.1694 30.7981 66.6497 30.5764C67.13 30.3917 67.5733 30.133 67.9798 29.8375V32.3498C67.5364 32.6084 67.0561 32.7932 66.5019 32.904C65.9477 33.0149 65.3566 33.0887 64.6915 33.0887C62.992 33.0887 61.625 32.5715 60.5905 31.5001C59.519 30.4286 59.0018 29.0616 59.0018 27.436C59.0018 25.5886 59.556 24.0738 60.6274 22.8916C61.6989 21.7093 63.2137 21.1181 65.2088 21.1181C65.726 21.1181 66.2433 21.192 66.7236 21.3029C67.2408 21.4137 67.6472 21.5984 67.9428 21.7462V24.3325C67.5364 24.0369 67.093 23.7783 66.6866 23.6305C66.2433 23.4827 65.7999 23.3719 65.3566 23.3719C64.2851 23.3719 63.4353 23.7044 62.7703 24.4064C62.1053 25.1083 61.8097 26.032 61.8097 27.2143C61.8097 28.3596 62.1422 29.2833 62.7703 29.9114C63.3984 30.5394 64.2482 30.872 65.3196 30.872ZM75.6276 21.192C75.8493 21.192 76.0341 21.192 76.2188 21.229C76.4035 21.2659 76.5513 21.3029 76.6621 21.3398V24.0738C76.5144 23.963 76.3296 23.8522 76.0341 23.7783C75.7385 23.7044 75.4429 23.6305 75.0365 23.6305C74.3715 23.6305 73.8173 23.926 73.3739 24.4802C72.9306 25.0344 72.6719 25.8842 72.6719 27.0665V32.8301H69.9749V21.3768H72.6719V23.1871H72.7089C72.9675 22.559 73.337 22.0787 73.8173 21.7093C74.3345 21.3768 74.9257 21.192 75.6276 21.192ZM76.8099 27.2882C76.8099 25.4039 77.3641 23.8891 78.3986 22.7807C79.4701 21.6723 80.9479 21.1181 82.8322 21.1181C84.6056 21.1181 86.0096 21.6354 87.0071 22.7068C88.0047 23.7783 88.5219 25.2192 88.5219 27.0295C88.5219 28.8769 87.9677 30.3547 86.9332 31.4631C85.8618 32.5715 84.4209 33.1257 82.5736 33.1257C80.8001 33.1257 79.3962 32.6084 78.3617 31.5739C77.3272 30.5025 76.8099 29.0616 76.8099 27.2882ZM79.6179 27.1773C79.6179 28.3596 79.8765 29.2833 80.4307 29.9114C80.9849 30.5394 81.7607 30.872 82.7583 30.872C83.7189 30.872 84.4948 30.5764 85.012 29.9114C85.5293 29.2833 85.7879 28.3596 85.7879 27.1034C85.7879 25.8842 85.5293 24.9605 85.012 24.2955C84.4948 23.6674 83.7189 23.3349 82.7952 23.3349C81.7977 23.3349 81.0588 23.6674 80.5046 24.3325C79.8765 25.0344 79.6179 25.9581 79.6179 27.1773ZM92.5491 24.4064C92.5491 24.7758 92.6599 25.1083 92.9185 25.33C93.1772 25.5517 93.6944 25.8103 94.5442 26.1428C95.6156 26.5862 96.3915 27.0665 96.7979 27.5837C97.2413 28.1379 97.4629 28.766 97.4629 29.5419C97.4629 30.6133 97.0565 31.4631 96.2068 32.1281C95.394 32.7932 94.2486 33.0887 92.8447 33.0887C92.3644 33.0887 91.8471 33.0149 91.256 32.904C90.6648 32.7932 90.1845 32.6454 89.7781 32.4607V29.8005C90.2584 30.133 90.8126 30.4286 91.3668 30.6133C91.921 30.7981 92.4382 30.9089 92.9185 30.9089C93.5097 30.9089 93.99 30.835 94.2486 30.6503C94.5442 30.4656 94.692 30.2069 94.692 29.8005C94.692 29.4311 94.5442 29.1355 94.2486 28.8399C93.953 28.5813 93.3619 28.2857 92.5491 27.9532C91.5515 27.5468 90.8496 27.0665 90.4431 26.5492C90.0367 26.032 89.8151 25.367 89.8151 24.5541C89.8151 23.5196 90.2215 22.6699 91.0343 22.0048C91.8471 21.3398 92.9185 21.0073 94.2117 21.0073C94.6181 21.0073 95.0614 21.0442 95.5417 21.1551C96.022 21.2659 96.4654 21.3768 96.7979 21.4876V24.1108C96.4285 23.8891 96.022 23.6674 95.5417 23.4827C95.0614 23.298 94.5811 23.2241 94.1378 23.2241C93.6205 23.2241 93.2141 23.3349 92.9555 23.5196C92.6969 23.7783 92.5491 24.0369 92.5491 24.4064ZM98.6083 27.2882C98.6083 25.4039 99.1625 23.8891 100.197 22.7807C101.268 21.6723 102.746 21.1181 104.631 21.1181C106.404 21.1181 107.808 21.6354 108.805 22.7068C109.803 23.7783 110.32 25.2192 110.32 27.0295C110.32 28.8769 109.766 30.3547 108.732 31.4631C107.66 32.5715 106.219 33.1257 104.372 33.1257C102.598 33.1257 101.195 32.6084 100.16 31.5739C99.1625 30.5025 98.6083 29.0616 98.6083 27.2882ZM101.416 27.1773C101.416 28.3596 101.675 29.2833 102.229 29.9114C102.783 30.5394 103.559 30.872 104.557 30.872C105.517 30.872 106.293 30.5764 106.81 29.9114C107.328 29.2833 107.586 28.3596 107.586 27.1034C107.586 25.8842 107.328 24.9605 106.81 24.2955C106.293 23.6674 105.517 23.3349 104.594 23.3349C103.596 23.3349 102.857 23.6674 102.303 24.3325C101.712 25.0344 101.416 25.9581 101.416 27.1773ZM119.298 23.5935H115.271V32.8301H112.537V23.5935H110.616V21.3768H112.537V19.7881C112.537 18.6058 112.943 17.6082 113.719 16.8323C114.495 16.0565 115.493 15.687 116.712 15.687C117.045 15.687 117.34 15.724 117.599 15.724C117.857 15.724 118.079 15.7979 118.264 15.8717V18.1994C118.19 18.1624 118.005 18.0885 117.783 18.0146C117.562 17.9407 117.303 17.9038 117.008 17.9038C116.453 17.9038 116.01 18.0885 115.714 18.421C115.419 18.7536 115.271 19.3078 115.271 19.9728V21.3398H119.298V18.7536L121.995 17.9407V21.3398H124.729V23.5566H121.995V28.9138C121.995 29.6158 122.143 30.0961 122.365 30.3917C122.623 30.6872 123.03 30.835 123.584 30.835C123.732 30.835 123.917 30.7981 124.138 30.7242C124.36 30.6503 124.545 30.5764 124.692 30.4656V32.6823C124.508 32.7932 124.249 32.8671 123.843 32.941C123.436 33.0149 123.067 33.0518 122.66 33.0518C121.515 33.0518 120.665 32.7562 120.111 32.1651C119.557 31.5739 119.261 30.6503 119.261 29.4311L119.298 23.5935Z" fill="var(--fill-0, white)" id="Vector"/>
<path d="M12.6337 11.5488H-0.00195312V24.1845H12.6337V11.5488Z" fill="var(--fill-0, white)" id="Vector_2"/>
<path d="M26.6007 11.5489H13.965V24.1845H26.6007V11.5489Z" fill="var(--fill-0, white)" id="Vector_3"/>
<path d="M12.6337 25.5146H-0.00195312V38.1503H12.6337V25.5146Z" fill="var(--fill-0, white)" id="Vector_4"/>
<path d="M26.6007 25.5146H13.965V38.1503H26.6007V25.5146Z" fill="var(--fill-0, white)" id="Vector_5"/>
</g>
</g>
<defs>
<clipPath id="clip0_0_12495">
<rect fill="white" height="49.7496" width="124.374"/>
</clipPath>
</defs>
</svg>