<?xml version="1.0" encoding="utf-8"?>
<svg xmlns="http://www.w3.org/2000/svg" fill="none" height="100%" overflow="visible" preserveAspectRatio="none" style="display: block;" viewBox="0 0 124.374 49.7496" width="100%">
<g clip-path="url(#clip0_0_12063)" id="Logo / Relume">
<g id="outputsvg">
<g id="l1Ee9ZiHBMe8IXGeJwKJlKL">
<g id="Group">
<path d="M66.4741 24.3799C66.378 24.3038 66.3203 21.7719 66.3203 18.745V13.2624H68.8962C72.2603 13.2624 73.1253 13.5289 74.6248 14.9947C75.9127 16.2512 76.4125 17.5837 76.278 19.278C76.1049 21.3531 74.471 23.4471 72.5102 24.0944C71.7028 24.3799 66.6855 24.6084 66.4741 24.3799ZM72.2411 21.6957C73.6444 20.9723 74.3172 18.764 73.5675 17.3363C72.8947 16.0418 71.9143 15.5468 70.0496 15.5468H68.8193V18.745C68.8193 20.5154 68.8578 22.0003 68.8962 22.0384C69.1461 22.2668 71.5875 22.0193 72.2411 21.6957Z" fill="var(--fill-0, white)" id="pPMdf4gKL"/>
<path d="M82.064 24.3799C81.199 24.2276 79.5458 23.1044 78.873 22.2477C78.0272 21.1436 77.585 19.5826 77.7388 18.269C77.9118 16.8413 78.2578 16.0798 79.2959 14.9947C81.6027 12.5579 85.2551 12.5579 87.5619 14.9947C88.7538 16.2511 89.0613 17.0507 89.0805 18.783C89.0998 21.1055 88.004 22.876 85.8703 23.942C85.0629 24.3608 83.179 24.5703 82.064 24.3799ZM85.0437 21.7718C86.7161 20.839 87.2159 18.3261 86.0433 16.7841C84.1402 14.3093 80.4108 15.4516 80.1994 18.5546C80.0072 21.3149 82.7176 23.1044 85.0437 21.7718Z" fill="var(--fill-0, white)" id="pRjyQ9csb"/>
<path d="M43.8289 18.8401L45.7128 13.3575H47.5967H49.4613L51.2683 18.6878C52.2487 21.6195 53.0561 24.0753 53.0561 24.1514C53.0561 24.2466 52.5178 24.3037 51.845 24.3037H50.6339L50.2879 23.2567L49.9611 22.2096H47.5774H45.1937L44.867 23.2567L44.5209 24.3037H43.233H41.945L43.8289 18.8401ZM48.5002 17.7931C48.1349 16.6128 47.7504 15.5277 47.6736 15.3754C47.539 15.1279 47.4044 15.4896 46.2318 19.1257L45.9627 19.9252H47.5774H49.173L48.5002 17.7931Z" fill="var(--fill-0, white)" id="pI7Z5mIYb"/>
<path d="M54.3049 24.0562C54.2472 23.923 54.228 21.4672 54.2472 18.5926L54.3049 13.3575L56.2464 13.3004L58.188 13.2432L59.995 17.4694L61.802 21.6766L61.8596 17.4694L61.8981 13.2623H63.1476H64.3971V18.5545C64.3971 21.4482 64.3202 23.942 64.2433 24.0753C64.128 24.2466 63.5897 24.3037 62.2633 24.2656L60.4563 24.2085L58.6878 20.0394C57.7074 17.755 56.8616 15.8323 56.8039 15.7752C56.7462 15.718 56.7078 17.6217 56.7078 19.9823V24.3037H55.5544C54.7855 24.3037 54.3626 24.2276 54.3049 24.0562Z" fill="var(--fill-0, white)" id="p1HjrwqbEv"/>
<path d="M90.7341 18.764V13.2433L93.8868 13.3004L97.0394 13.3575L97.8852 13.9286C99.4615 15.0328 100.057 17.0697 99.2885 18.6688C98.9809 19.3161 98.1159 20.1918 97.6353 20.3441C97.5007 20.3822 97.866 21.1436 98.5196 22.2097C99.1347 23.1996 99.6537 24.0753 99.7114 24.1705C99.7499 24.2467 99.2116 24.3038 98.4811 24.3038H97.1739L96.0974 22.5524L95.0402 20.7819L94.1367 20.7248L93.2332 20.6677V22.4762V24.3038H91.9837H90.7341V18.764ZM96.7895 18.1168C97.4238 17.5076 97.4431 16.5367 96.8087 15.9465C96.4435 15.6039 96.1167 15.5277 94.7903 15.4897L93.2332 15.4516V17.0317V18.5927H94.771C96.1743 18.5927 96.3666 18.5356 96.7895 18.1168Z" fill="var(--fill-0, white)" id="p1HP4rbG3Q"/>
<path d="M101.5 18.764V13.2433L104.537 13.3004C107.151 13.3575 107.651 13.4146 108.324 13.7573C109.996 14.614 110.765 16.708 110.054 18.4975C109.785 19.2209 109.247 19.792 108.247 20.4202C108.209 20.4583 108.709 21.334 109.362 22.381L110.515 24.3038H109.208H107.882L106.786 22.4762L105.69 20.6677L104.806 20.7248L103.903 20.7819L103.96 22.1526C104.056 24.2086 103.999 24.3038 102.634 24.3038H101.5V18.764ZM107.44 18.2691C107.67 18.0787 107.901 17.6218 107.959 17.2411C108.055 16.689 107.978 16.4605 107.594 16.0037C107.132 15.4706 107.036 15.4516 105.517 15.4516H103.941L103.96 16.9745C103.98 17.8122 103.98 18.5165 103.999 18.5546C103.999 18.5736 104.691 18.5927 105.517 18.5927C106.671 18.5927 107.132 18.5165 107.44 18.2691Z" fill="var(--fill-0, white)" id="pxp597bUE"/>
<path d="M111.341 24.0753C111.399 23.9421 112.245 21.4482 113.244 18.5546L115.051 13.2623H116.916H118.761L120.549 18.5546C121.51 21.4482 122.356 23.9421 122.414 24.0753C122.471 24.2657 122.202 24.3038 121.183 24.2657L119.857 24.2086L119.588 23.1996L119.319 22.1907L116.916 22.2478L114.513 22.3049L114.186 23.2567L113.859 24.2086L112.552 24.2657C111.553 24.3038 111.283 24.2657 111.341 24.0753ZM118.415 19.8111C118.415 19.3922 116.974 15.1851 116.858 15.2993C116.724 15.4516 115.34 19.5255 115.34 19.792C115.34 19.8682 116.032 19.9253 116.877 19.9253C117.723 19.9253 118.415 19.8682 118.415 19.8111Z" fill="var(--fill-0, white)" id="pspHX7I3s"/>
</g>
</g>
<g id="l5Oje6TEDq1HZoQnBjubDsp">
<g id="Group_2">
<path d="M5.95973 38.9048L2.21119 36.7536L2.15352 32.2799L2.11507 27.8253L5.86361 25.6741C7.9205 24.5128 9.6506 23.542 9.70827 23.542C9.76594 23.542 9.80438 25.5028 9.80438 27.9014V32.2609L13.5529 34.393C15.6098 35.5543 17.3015 36.5822 17.3015 36.6584C17.3015 36.7536 9.93895 41.0559 9.76594 41.0559C9.72749 41.0559 8.01662 40.085 5.95973 38.9048Z" fill="var(--fill-0, white)" id="pdCVd5zJH"/>
<path d="M42.0994 32.3179V27.9204H44.5024C47.2321 27.9204 47.8472 28.1108 48.3662 29.1007C48.7699 29.8622 48.6161 31.0425 48.0394 31.6516L47.6165 32.0895L48.1932 32.6225C49.289 33.6315 49.1928 35.3067 48.001 36.1444C47.4435 36.5441 47.1167 36.5822 44.7523 36.6393L42.0994 36.7155V32.3179ZM46.5016 35.3638C46.7515 35.3067 47.1359 35.0212 47.3474 34.7356C47.6934 34.2978 47.6934 34.1645 47.482 33.6505C47.2128 32.9652 46.4247 32.6796 44.8484 32.6796C43.3105 32.6796 43.2528 32.7367 43.2528 34.0884C43.2528 34.7547 43.3105 35.3448 43.3874 35.4019C43.5412 35.5732 45.8864 35.5352 46.5016 35.3638ZM46.7899 31.328C47.1552 31.0425 47.2897 30.7569 47.2897 30.3C47.2897 29.3291 46.7707 29.0626 44.8484 29.0626H43.2528V30.3952V31.7278H44.7715C46.0018 31.7278 46.367 31.6516 46.7899 31.328Z" fill="var(--fill-0, white)" id="p1AprtUNoA"/>
<path d="M52.3846 36.3347C51.6157 35.8398 51.0198 35.1735 50.7699 34.5262C50.6545 34.2216 50.5584 32.6416 50.5584 30.9473V27.9204H51.1928H51.8079L51.7503 29.9574C51.6542 32.851 51.8079 33.898 52.5 34.6595C53.2305 35.4971 54.1532 35.6875 55.1336 35.2115C56.3062 34.6404 56.5177 33.9932 56.5177 30.7379V27.9204H57.2097H57.9017L57.8248 31.1186C57.7479 34.6785 57.6326 35.1164 56.3831 36.0492C55.4604 36.7535 53.2881 36.9058 52.3846 36.3347Z" fill="var(--fill-0, white)" id="pGymmWV9i"/>
<path d="M61.5145 36.5443C61.3607 36.4872 60.8609 36.2778 60.4187 36.0684C59.6498 35.7257 59.5921 35.6305 59.5921 34.9452V34.1837L60.4187 34.6787C61.5145 35.3069 63.1677 35.6305 63.8597 35.364C64.5902 35.0975 65.0515 34.336 64.8016 33.8601C64.5902 33.4603 63.1484 32.775 62.0719 32.5846C60.8801 32.3752 59.8997 31.6899 59.6498 30.9284C58.8232 28.4536 61.9566 26.9116 65.0708 28.2823C65.8589 28.6249 65.9358 28.7201 65.9358 29.3483C65.9358 29.7291 65.8781 30.0146 65.8012 29.9765C65.0131 29.5768 63.9943 29.177 63.4368 29.0437C62.5333 28.8343 61.3991 29.158 61.0146 29.7291C60.7263 30.1669 60.7263 30.2431 60.9954 30.6619C61.2261 30.9855 61.7067 31.2139 62.8985 31.5376C64.8401 32.0516 65.609 32.4894 65.9935 33.308C66.5702 34.5073 65.9935 35.8399 64.6478 36.411C64.0519 36.6775 62.1104 36.7537 61.5145 36.5443Z" fill="var(--fill-0, white)" id="p7O5Cmb06"/>
<path d="M68.0506 32.2989V27.9204H68.7234H69.3963V32.2989V36.6774H68.7234H68.0506V32.2989Z" fill="var(--fill-0, white)" id="pifX5vSHX"/>
<path d="M71.5113 32.2989V27.9204H72.6647H73.8373L75.702 31.6897L77.5667 35.44L77.6243 31.6897L77.6628 27.9204H78.3356H79.0084V32.2989V36.6964L77.8166 36.6393C76.817 36.5822 76.5863 36.5061 76.4133 36.1824C74.414 32.0895 72.9531 29.253 72.8185 29.253C72.7416 29.253 72.6647 30.9282 72.6647 32.9652V36.6774H72.088H71.5113V32.2989Z" fill="var(--fill-0, white)" id="p17mktDSRx"/>
<path d="M80.9295 32.2989V27.9204H84.1014H87.2732V28.4915V29.0626H84.7742H82.2559L82.3136 30.3571L82.3713 31.6326L84.5435 31.6897L86.6965 31.7468V32.2989V32.87H84.4858H82.2752V34.1074V35.3448H84.7742H87.2732V36.0111V36.6774H84.1014H80.9295V32.2989Z" fill="var(--fill-0, white)" id="p17P5YFkIn"/>
<path d="M89.9457 36.1635C88.9845 35.6685 88.9077 35.5733 88.85 34.888C88.8115 34.4882 88.85 34.2027 88.9461 34.2407C91.0222 35.2497 91.5028 35.421 92.3871 35.421C93.502 35.4401 94.1941 35.0022 94.1941 34.2979C94.1941 33.6696 93.6174 33.2699 92.041 32.7939C90.2917 32.2609 89.5036 31.8421 89.1191 31.3091C88.4463 30.3763 88.9845 28.8152 90.1956 28.168C91.1183 27.673 93.2521 27.7111 94.444 28.2441C95.2706 28.6249 95.3475 28.72 95.3475 29.3292C95.3475 29.71 95.309 30.0146 95.2513 30.0146C95.1937 30.0146 94.8092 29.8432 94.3863 29.6338C93.9826 29.4244 93.2521 29.1769 92.7715 29.0627C91.0414 28.682 89.5228 29.8432 90.484 30.7951C90.6954 31.0045 91.4644 31.3281 92.1948 31.5185C94.6554 32.1467 95.5397 32.8891 95.5397 34.2979C95.5397 35.8399 94.3671 36.6775 92.2141 36.6775C91.2721 36.6775 90.7723 36.5633 89.9457 36.1635Z" fill="var(--fill-0, white)" id="p3BZ3Ugn8"/>
<path d="M99.0003 36.5442C98.8465 36.4871 98.3467 36.2587 97.9046 36.0493C97.1549 35.6876 97.078 35.5924 97.078 34.9261V34.2027L98.1929 34.7548C99.6347 35.4782 100.673 35.6495 101.557 35.2878C102.364 34.9451 102.614 34.355 102.191 33.7268C101.961 33.3841 101.384 33.1176 99.9999 32.6988C97.7123 31.9944 97.078 31.4614 97.078 30.243C97.078 27.9967 100.48 26.9877 102.96 28.4726C103.46 28.7772 103.537 28.9295 103.46 29.4054L103.383 29.9765L102.326 29.5006C100.327 28.5868 98.3275 28.9866 98.462 30.2621C98.5197 30.9093 98.9042 31.1187 101.384 31.8231C103.364 32.3942 104.229 33.7649 103.518 35.2497C103.037 36.2016 102.038 36.6775 100.5 36.6585C99.8269 36.6585 99.1541 36.6014 99.0003 36.5442Z" fill="var(--fill-0, white)" id="p1GMVOKvqX"/>
</g>
</g>
<g id="l6toSiRROgD6ZZheECt5qAs">
<g id="Group_3">
<path d="M2.11507 17.6026L2.1343 13.167L5.32536 11.3585C7.07468 10.3686 8.80477 9.39773 9.13157 9.18832L9.76594 8.82662L13.5529 10.9968C15.6483 12.1771 17.3784 13.2432 17.4168 13.3574C17.4745 13.4716 17.4745 15.4705 17.4552 17.793L17.3976 22.0192L13.5721 19.849L9.76594 17.6788L7.03623 19.2398C5.55604 20.0965 3.82594 21.0864 3.23002 21.4291L2.11507 22.0382V17.6026Z" fill="var(--fill-0, white)" id="pXzVR7go6"/>
</g>
</g>
<g id="l7PSp77iez2PKpJsUTFP5tQ">
<g id="Group_4">
<path d="M18.6834 31.5761C16.7611 30.4529 15.1655 29.463 15.1463 29.3488C15.1463 29.2536 16.7803 28.2256 18.7987 27.0644L22.4704 24.9703L22.5281 20.5537L22.5857 16.1372L26.3343 18.3074L30.0828 20.4585L30.1405 24.9322L30.1789 29.4059L26.4881 31.519C24.4504 32.6803 22.6626 33.6321 22.4896 33.6131C22.3358 33.6131 20.625 32.6803 18.6834 31.5761Z" fill="var(--fill-0, white)" id="p3yESs2Ta"/>
</g>
</g>
</g>
</g>
<defs>
<clipPath id="clip0_0_12063">
<rect fill="white" height="49.7496" width="124.374"/>
</clipPath>
</defs>
</svg>