<?xml version="1.0" encoding="utf-8"?>
<svg xmlns="http://www.w3.org/2000/svg" fill="none" height="100%" overflow="visible" preserveAspectRatio="none" style="display: block;" viewBox="0 0 124.374 49.7496" width="100%">
<g clip-path="url(#clip0_0_11950)" id="Logo / Relume">
<g id="l3rMovIvc8zMu4ulITVehFA">
<g id="Group">
<path d="M73.2118 49.3345C72.6055 49.143 71.68 48.5367 71.1375 47.9942C69.8292 46.7816 59.5858 29.0072 59.1071 27.1883C58.2774 24.061 60.3197 20.455 63.5427 19.3062C65.1702 18.7318 66.1594 18.6999 67.8188 19.1786C69.893 19.753 71.2333 21.3166 74.1372 26.5181C77.1687 32.0068 78.4771 33.6343 80.6789 34.8469C82.3383 35.7085 85.4017 36.4744 86.6144 36.3148C87.0292 36.251 87.3164 36.3786 87.2845 36.5701C87.2207 36.9849 83.2637 43.8458 81.6682 46.3987C80.2641 48.6324 78.3175 49.7812 76.0518 49.7493C75.0626 49.7493 73.7862 49.5578 73.2118 49.3345Z" fill="var(--fill-0, white)" id="pKpFyHPg7"/>
<path d="M83.5496 31.7515C80.0394 30.507 78.2524 26.199 79.8161 22.8164C81.3159 19.5934 85.209 17.9979 88.4001 19.3381C92.6443 21.0932 93.9526 26.4543 90.953 29.8687C89.0064 32.0706 86.3578 32.7407 83.5496 31.7515Z" fill="var(--fill-0, white)" id="plKm4dRLh"/>
<path d="M32.2058 29.1667C32.0782 29.0391 31.9825 22.4335 31.9825 14.4558V8.90265e-05H39.4496C47.4912 8.90265e-05 48.1613 0.0958219 50.1398 1.7871C53.3628 4.49954 53.9691 9.9244 51.2886 12.4454L50.5227 13.1793L51.9268 14.743C53.3947 16.3704 54.3201 18.6361 54.3201 20.5827C54.3201 23.5185 52.4055 26.6777 49.5973 28.337L48.0975 29.1986L40.2793 29.2944C35.9713 29.3582 32.3335 29.2944 32.2058 29.1667ZM47.1402 22.9122C48.8315 21.4123 48.7038 18.3489 46.8849 17.2001C45.9914 16.6576 45.3851 16.5938 42.194 16.6576L38.5242 16.7533L38.4285 19.753C38.3966 21.4123 38.3966 22.9441 38.4923 23.1994C38.6199 23.5185 39.6092 23.6142 42.4812 23.6142C45.9914 23.6142 46.3743 23.5504 47.1402 22.9122ZM46.8211 10.052C47.9379 8.96707 47.906 7.3077 46.7892 6.41419C46.0233 5.80789 45.5127 5.74406 42.1621 5.74406H38.3647V8.29694V10.8498H42.194C45.8637 10.8498 46.0871 10.8179 46.8211 10.052Z" fill="var(--fill-0, white)" id="pfkQbueVQ"/>
</g>
</g>
</g>
<defs>
<clipPath id="clip0_0_11950">
<rect fill="white" height="49.7496" width="124.374"/>
</clipPath>
</defs>
</svg>