<?xml version="1.0" encoding="utf-8"?>
<svg xmlns="http://www.w3.org/2000/svg" fill="none" height="100%" overflow="visible" preserveAspectRatio="none" style="display: block;" viewBox="0 0 124.374 49.7496" width="100%">
<g clip-path="url(#clip0_0_5331)" id="Logo / Relume">
<g id="g4">
<path d="M44.3097 36.1043C39.7999 36.1043 35.6209 34.7611 32.8349 32.2562C31.8387 31.361 31.0449 30.2636 30.5065 29.0372C29.9682 27.8108 29.6977 26.4837 29.7131 25.1445C29.71 23.8107 29.9862 22.4911 30.5238 21.2706C31.0615 20.05 31.8487 18.9555 32.8349 18.0576C35.4219 15.7069 39.9989 14.2144 44.3097 14.2144C49.0782 14.2144 52.8965 15.4159 55.8144 18.0626C56.7966 18.9602 57.5786 20.0549 58.1092 21.2752C58.6399 22.4954 58.9072 23.8139 58.8939 25.1445C58.8872 26.4764 58.611 27.7931 58.0817 29.0154C57.5524 30.2376 56.7812 31.3401 55.8144 32.2562C53.0955 34.776 48.827 36.1043 44.3097 36.1043V33.2238C46.7002 33.2238 48.919 32.398 50.4687 30.8557C52.0185 29.3135 52.7224 27.4429 52.7224 25.1345C52.7224 22.9306 51.9488 20.8709 50.4687 19.4133C48.9389 17.9083 46.6679 17.0601 44.3097 17.0601C41.9516 17.0601 39.6705 17.9009 38.1407 19.4133C36.6657 20.8734 35.902 22.9405 35.902 25.1345C35.8799 26.1886 36.0662 27.2367 36.4504 28.2185C36.8346 29.2004 37.4091 30.0966 38.1407 30.8557C39.6705 32.3806 41.9367 33.2238 44.3097 33.2238V36.1043ZM11.3803 14.2144C8.96992 14.2144 6.23119 14.6671 3.91782 15.7069C1.75868 16.6721 2.45066e-05 18.2218 2.45066e-05 20.7913C-0.0032194 22.137 0.508539 23.4328 1.43033 24.4131C2.05469 24.9902 3.06213 25.9703 5.69389 26.5474C6.87048 26.7962 9.38533 27.1966 11.8902 27.4603C14.3951 27.724 16.8229 27.9578 17.8179 28.224C18.609 28.4255 19.9398 28.6991 19.9398 30.1916C19.9398 31.6841 18.5393 32.1318 18.2955 32.2288C18.0518 32.3258 16.3702 33.097 13.3504 33.097C11.3496 33.0414 9.36695 32.7005 7.4625 32.0846C6.33567 31.6816 5.15411 31.1518 4.05215 29.806C3.60743 29.1723 3.36072 28.4209 3.34321 27.6469H0.606973V35.3083H3.64669V34.2711C3.64621 34.1941 3.66625 34.1184 3.70474 34.0518C3.74323 33.9852 3.79879 33.9301 3.86568 33.892C3.93258 33.854 4.0084 33.8345 4.08534 33.8356C4.16227 33.8366 4.23754 33.8581 4.30339 33.8979C5.73549 34.5211 7.22513 35.0027 8.75102 35.3357C10.348 35.669 11.3803 35.9103 13.3653 35.9103C15.4599 35.9501 17.5475 35.6554 19.5492 35.0372C20.8784 34.6729 22.1256 34.0573 23.2232 33.2238C23.8406 32.7496 24.3396 32.1387 24.681 31.439C25.0225 30.7394 25.197 29.9701 25.1909 29.1916C25.2012 27.7127 24.6304 26.2888 23.6013 25.2265C23.0291 24.6712 22.3662 24.2178 21.6412 23.8858C20.8618 23.5337 20.0527 23.2515 19.2234 23.0425C17.6463 22.657 14.1041 22.1744 12.4101 22.0052C10.6341 21.8212 7.55205 21.565 6.32074 21.1844C5.94762 21.0675 5.18645 20.7068 5.18645 19.8237C5.18645 19.1944 5.53469 18.6621 6.22124 18.2317C7.31325 17.5477 9.51717 17.1223 11.8156 17.1223C14.0404 17.0954 16.2469 17.5264 18.298 18.3884C18.8491 18.6285 19.3673 18.9378 19.8403 19.3088C20.6112 19.9673 21.1451 20.8602 21.3601 21.851H23.8153V15.1821H21.079V15.9557C21.079 16.2044 20.8303 16.5328 20.3328 16.2616C19.099 15.6198 15.6314 14.2318 11.3803 14.2144ZM71.4507 15.4383L84.8235 27.5051L84.6867 19.3809C84.6718 18.3138 84.4777 17.8685 83.3235 17.8685H80.8112V15.4383H92.2536V17.8685H89.7985C88.6244 17.8685 88.5547 18.2466 88.5348 19.3809L88.7413 34.9054H84.8235L69.4185 21.1595V30.913C69.4309 31.9751 69.4806 32.4751 70.5727 32.4751H73.3089V34.9054H62.0928V32.4751H64.7196C65.6997 32.4751 65.6599 31.5398 65.6599 30.8582V19.473C65.6599 18.7267 65.5554 17.871 64.0181 17.871H61.8888V15.4383H71.4507ZM105.308 32.4701C105.534 32.4701 105.76 32.456 105.985 32.4278C106.101 32.3928 106.209 32.3329 106.3 32.2521C106.391 32.1714 106.463 32.0717 106.512 31.9602C106.546 31.7873 106.564 31.6116 106.564 31.4353V27.5921C106.564 27.4628 106.564 27.4603 106.4 27.2563C106.236 27.0524 99.3952 19.2964 99.0843 18.9481C98.6962 18.5252 98.0147 17.871 96.9774 17.871H94.6018V15.4383H108.009V17.8661H106.393C106.019 17.8661 105.771 18.2218 106.089 18.6123C106.089 18.6123 110.601 24.0102 110.644 24.0674C110.686 24.1246 110.723 24.137 110.78 24.0848C110.838 24.0325 115.405 18.6621 115.44 18.6123C115.494 18.5415 115.526 18.4566 115.533 18.3678C115.54 18.279 115.522 18.1901 115.48 18.1115C115.438 18.0329 115.374 17.968 115.297 17.9245C115.219 17.881 115.13 17.8607 115.042 17.8661H113.382V15.4383H124.375V17.871H121.919C121.029 17.871 120.676 18.0352 119.997 18.7914L112.596 27.234C112.524 27.3385 112.492 27.4658 112.507 27.5921V31.4328C112.508 31.6091 112.526 31.7849 112.562 31.9577C112.609 32.0694 112.681 32.1691 112.772 32.25C112.863 32.3308 112.97 32.3907 113.086 32.4253C113.309 32.4548 113.533 32.4689 113.758 32.4676H116.268V34.9004H102.93V32.4676L105.308 32.4701Z" fill="var(--fill-0, white)" id="path1"/>
</g>
</g>
<defs>
<clipPath id="clip0_0_5331">
<rect fill="white" height="49.7496" width="124.374"/>
</clipPath>
</defs>
</svg>