<?xml version="1.0" encoding="utf-8"?>
<svg xmlns="http://www.w3.org/2000/svg" fill="none" height="100%" overflow="visible" preserveAspectRatio="none" style="display: block;" viewBox="0 0 124.374 49.7496" width="100%">
<g id="Logo / Relume">
<g id="Group">
<path d="M29.5251 10.6069H23.9843V16.1477H29.5251V10.6069Z" fill="var(--fill-0, white)" id="Vector"/>
<g id="Group_2">
<path d="M29.38 39.4189V19.5014H24.1309V39.4189H29.38ZM64.1701 39.623V34.753C63.4119 34.753 62.7412 34.7238 62.2746 34.6364C61.7205 34.5489 61.3122 34.3739 61.0206 34.0823C60.7581 33.8198 60.554 33.4116 60.4665 32.9158C60.379 32.4201 60.3499 31.7785 60.3499 30.9911V24.0214H64.1409V19.5014H60.3499V11.7151H55.1007V30.9911C55.1007 32.6242 55.2466 33.9948 55.509 35.1029C55.7715 36.1819 56.2672 37.0568 56.9088 37.7275C57.5503 38.3982 58.4252 38.8648 59.475 39.1564C60.5249 39.4481 61.8663 39.5939 63.4702 39.5939H64.1701V39.623ZM94.236 39.4189V10.1987H88.9868V39.4189H94.236ZM50.0557 21.4552C48.5977 19.8805 46.5563 19.0931 43.9609 19.0931C42.707 19.0931 41.5696 19.3555 40.5198 19.8513C39.4992 20.3762 38.6243 21.0761 37.9244 21.9801L37.6328 22.3592V22.0384V19.5014H32.442V39.4189H37.662V28.8331V29.5622C37.662 29.4455 37.662 29.3289 37.662 29.2123C37.7203 27.3459 38.1869 25.9753 39.0326 25.0713C39.9657 24.1381 41.0739 23.6423 42.357 23.6423C43.8734 23.6423 45.0399 24.1089 45.7981 25.0129C46.5563 25.917 46.9354 27.2001 46.9354 28.8331V28.8623V39.3897H52.2429V28.1041C52.272 25.2754 51.5138 23.0299 50.0557 21.4552ZM86.2748 29.4164C86.2748 27.9875 86.0123 26.646 85.5166 25.392C84.9916 24.1381 84.2918 23.0591 83.4169 22.0968C82.5129 21.1636 81.4339 20.4345 80.1799 19.8805C78.926 19.3555 77.5262 19.0931 76.0098 19.0931C74.5809 19.0931 73.2103 19.3555 71.9563 19.9096C70.7023 20.4637 69.5942 21.1927 68.661 22.1259C67.7278 23.0591 66.9988 24.1673 66.4447 25.4212C65.8906 26.6752 65.6282 28.0458 65.6282 29.4747C65.6282 30.9036 65.8906 32.2742 66.3864 33.5282C66.9113 34.7822 67.6403 35.8903 68.5444 36.8235C69.4484 37.7567 70.5857 38.4857 71.8688 39.0398C73.1811 39.5939 74.61 39.8563 76.1264 39.8563C80.5882 39.8563 83.3294 37.815 84.9916 35.9486L81.2006 33.0616C80.4132 33.9948 78.5177 35.2779 76.1556 35.2779C74.6683 35.2779 73.4727 34.9571 72.5395 34.2573C71.6064 33.5865 70.994 32.6534 70.644 31.4869L70.5857 31.3119H86.2456L86.2748 29.4164ZM70.6732 27.6084C70.6732 26.1503 72.3354 23.6132 75.9515 23.584C79.5675 23.584 81.2589 26.1211 81.2589 27.5792L70.6732 27.6084Z" fill="var(--fill-0, white)" id="Vector_2"/>
<path d="M100.243 36.8232C100.155 36.5899 100.009 36.3858 99.8344 36.2108C99.6594 36.0358 99.4553 35.89 99.222 35.8025C98.9887 35.7151 98.7262 35.6567 98.4637 35.6567C98.2013 35.6567 97.9388 35.7151 97.7055 35.8025C97.4722 35.89 97.2681 36.0358 97.0931 36.2108C96.9182 36.3858 96.7724 36.5899 96.6849 36.8232C96.5974 37.0565 96.5391 37.319 96.5391 37.5814C96.5391 37.8439 96.5974 38.1063 96.6849 38.3396C96.7724 38.5729 96.9182 38.7771 97.0931 38.952C97.2681 39.127 97.4722 39.2728 97.7055 39.3603C97.9388 39.4478 98.2013 39.5061 98.4637 39.5061C98.7262 39.5061 98.9887 39.4478 99.222 39.3603C99.4553 39.2728 99.6594 39.127 99.8344 38.952C100.009 38.7771 100.155 38.5729 100.243 38.3396C100.33 38.1063 100.388 37.8439 100.388 37.5814C100.388 37.319 100.33 37.0565 100.243 36.8232ZM99.9218 38.1938C99.8344 38.398 99.7177 38.5729 99.6011 38.7187C99.4844 38.8645 99.2803 38.9812 99.0761 39.0395C98.872 39.0978 98.697 39.1562 98.4346 39.1562C98.2304 39.1562 97.9972 39.127 97.793 39.0395C97.5889 38.952 97.4139 38.8354 97.2681 38.7187C97.1223 38.6021 97.0057 38.398 96.9473 38.1938C96.8598 37.9897 96.8307 37.8147 96.8307 37.5523C96.8307 37.3481 96.8598 37.1148 96.9473 36.9107C97.0348 36.7066 97.1515 36.5316 97.2681 36.3858C97.4139 36.24 97.5889 36.1233 97.793 36.065C97.9972 36.0067 98.1721 35.9484 98.4346 35.9484C98.6387 35.9484 98.872 35.9775 99.0761 36.065C99.2803 36.1525 99.4552 36.2691 99.6011 36.3858C99.7469 36.5024 99.8635 36.7066 99.9218 36.9107C100.009 37.1148 100.038 37.2898 100.038 37.5523C100.038 37.8147 99.9802 38.0189 99.9218 38.1938ZM98.8137 37.7272C98.9595 37.6981 99.0761 37.6397 99.1928 37.5523C99.3094 37.4648 99.3386 37.319 99.3386 37.1148C99.3386 36.9107 99.2803 36.7357 99.1345 36.6191C99.0178 36.5024 98.8137 36.4441 98.5512 36.4441H97.6764V38.6604H98.0846V37.7564H98.3763L98.9303 38.6604H99.3678L98.8137 37.7272ZM98.6096 37.4064C98.5512 37.4064 98.4929 37.4064 98.4054 37.4064H98.1138V36.7649H98.4054C98.4638 36.7649 98.5221 36.7649 98.6096 36.7649C98.6679 36.7649 98.7262 36.7941 98.7845 36.7941C98.8429 36.8232 98.872 36.8524 98.9012 36.8815C98.9303 36.9107 98.9303 36.969 98.9303 37.0565C98.9303 37.144 98.9012 37.2023 98.9012 37.2315C98.872 37.2606 98.8137 37.319 98.7845 37.319C98.7262 37.4065 98.6679 37.4064 98.6096 37.4064Z" fill="var(--fill-0, white)" id="Vector_3"/>
</g>
</g>
</g>
</svg>