<?xml version="1.0" encoding="utf-8"?>
<svg xmlns="http://www.w3.org/2000/svg" fill="none" height="100%" overflow="visible" preserveAspectRatio="none" style="display: block;" viewBox="0 0 124.374 49.7496" width="100%">
<g clip-path="url(#clip0_0_11951)" id="Logo / Relume">
<g id="outputsvg">
<g id="l61MMYnuj4GhVTgp6JaCZl5">
<g id="Group">
<path d="M39.8958 49.2202C39.0366 48.8897 38.108 48.0498 37.6507 47.1547C37.429 46.7278 37.3181 46.2459 37.2765 45.4472C37.2211 44.442 37.2627 44.2355 37.5814 43.5194C38.8841 40.6828 42.3627 39.9667 44.6217 42.046C45.481 42.8585 45.869 43.6847 45.9799 44.9377L46.063 45.9429H42.4875C40.076 45.9429 38.9119 45.9843 38.9119 46.0806C38.9119 46.7278 39.882 47.6367 40.866 47.9258C41.8915 48.2288 43.0002 47.9258 43.7348 47.1409L44.0535 46.7967L44.6772 47.1409C45.0098 47.3337 45.287 47.5403 45.287 47.6091C45.287 47.8983 44.3584 48.7245 43.5962 49.1101C42.8616 49.4681 42.5983 49.5232 41.6975 49.5094C40.9768 49.5094 40.4086 49.413 39.8958 49.2202ZM44.3168 44.263C44.3168 44.1666 44.1505 43.8499 43.9426 43.547C43.4853 42.9135 42.432 42.3627 41.6421 42.3627C40.7412 42.3627 39.6741 42.9411 39.1613 43.7122C38.6901 44.4282 38.704 44.4282 41.6143 44.4282C43.6239 44.4282 44.3168 44.3869 44.3168 44.263Z" fill="var(--fill-0, white)" id="pjwjklKSo"/>
<path d="M47.5044 49.4267C47.4906 49.3716 47.4906 48.1047 47.5044 46.6313V43.9462L47.934 43.0924C48.821 41.261 50.8444 40.4348 52.8539 41.0682C53.9626 41.4125 54.9743 42.3902 55.3901 43.5055C55.6673 44.2491 55.6812 44.5383 55.6534 46.8792L55.6119 49.4542L54.8912 49.4955L54.1567 49.5368V47.1546C54.1567 45.8465 54.0874 44.5383 54.0181 44.2629C53.727 43.2301 52.6045 42.3764 51.5373 42.3626C50.8167 42.3626 49.902 42.8721 49.4724 43.5055C49.112 44.0563 49.0982 44.1114 49.0289 46.7553L48.9596 49.4542L48.2389 49.4955C47.837 49.5231 47.5044 49.4817 47.5044 49.4267Z" fill="var(--fill-0, white)" id="pZV9OmyO6"/>
<path d="M59.909 49.3444C57.9272 48.5733 56.7492 46.7281 56.9848 44.759C57.1649 43.2581 58.1905 41.8398 59.5348 41.2201C60.4495 40.7932 62.2789 40.7932 63.1797 41.2063C63.9558 41.5644 64.9675 42.4456 64.9675 42.7623C64.9675 42.8863 64.718 43.1204 64.3993 43.2994L63.8449 43.6161L63.3044 43.1341C61.5998 41.6057 59.0359 42.5007 58.5231 44.8003C58.3707 45.5439 58.7726 46.6593 59.4239 47.2376C60.1307 47.871 60.4911 48.0087 61.3919 48.0087C62.1957 48.0087 63.2213 47.5819 63.4569 47.1688C63.5262 47.0311 63.7202 46.9071 63.8726 46.9071C64.2052 46.9071 64.9675 47.4442 64.9675 47.6783C64.9675 47.9812 63.5955 49.0828 62.9302 49.3031C62.1818 49.5648 60.5188 49.5785 59.909 49.3444Z" fill="var(--fill-0, white)" id="p5mZeB9kx"/>
<path d="M69.3888 49.344C68.0999 48.8621 66.9358 47.7192 66.617 46.6038C66.1458 44.9927 66.5893 43.2164 67.7535 42.101C68.7097 41.1922 69.4027 40.9168 70.7886 40.9168C71.8003 40.9168 72.0774 40.9718 72.7565 41.3023C74.1424 41.9771 75.071 43.299 75.1957 44.7861C75.2927 45.9841 75.0294 46.9067 74.3226 47.8569C73.491 48.9722 72.5348 49.4404 70.9964 49.4955C70.3174 49.5093 69.6937 49.4542 69.3888 49.344ZM72.4378 47.5539C73.5326 46.8379 73.9761 45.2681 73.4356 44.0839C72.5071 42.0321 69.7353 41.798 68.4741 43.657C68.0861 44.2216 68.0168 44.4419 68.0168 45.1442C68.0168 46.3559 68.5296 47.1959 69.6106 47.788C70.2758 48.146 71.7171 48.0359 72.4378 47.5539Z" fill="var(--fill-0, white)" id="p152Q9wLjd"/>
<path d="M76.5408 49.3993C76.4992 49.3167 76.4854 47.8571 76.5269 46.1496C76.5962 43.4093 76.6378 42.9962 76.8734 42.5143C77.7049 40.9032 79.9362 40.3524 81.433 41.3989C81.7517 41.6192 82.0428 41.812 82.0843 41.812C82.1121 41.812 82.3061 41.6605 82.514 41.4678C83.2485 40.7793 84.773 40.6691 85.8401 41.2199C86.145 41.3714 86.5885 41.7569 86.8379 42.0736L87.2814 42.6657V46.0945V49.5232H86.5885H85.8955V46.4525C85.8955 43.1064 85.8678 42.9825 85.064 42.5694C84.1216 42.0874 83.096 42.5831 82.8327 43.671C82.7634 43.9739 82.7219 45.406 82.7357 46.8381L82.7496 49.4544H82.0012H81.2528L81.1835 46.3286L81.1142 43.189L80.7262 42.8172C80.4074 42.5005 80.2273 42.4317 79.659 42.4317C79.0908 42.4317 78.9107 42.5005 78.5919 42.8172L78.2039 43.189L78.1346 46.3286L78.0653 49.4544L77.3446 49.4957C76.9566 49.5232 76.5962 49.4682 76.5408 49.3993Z" fill="var(--fill-0, white)" id="pVmnQgDQz"/>
<path d="M50.3177 31.4155C48.9457 31.1677 47.6568 30.727 46.1878 30.011C41.254 27.5875 38.1219 23.0434 37.5121 17.4252C37.1656 14.3131 38.011 10.6365 39.6879 7.93762C42.6953 3.07679 47.5875 0.36409 53.3251 0.36409C57.9262 0.36409 60.8505 1.74109 66.4772 6.5193L66.8375 6.83601L62.1671 11.449L57.4966 16.0619H53.533C51.3571 16.0482 49.4723 16.0069 49.3615 15.9656C49.1951 15.9105 50.29 14.74 53.4082 11.6418C55.7504 9.30085 57.6352 7.35927 57.5936 7.31796C57.3996 7.12518 55.5287 6.56061 54.5724 6.40914C50.2346 5.74818 45.7859 8.33695 44.1505 12.4817C43.4298 14.2994 43.3051 16.6816 43.8179 18.5956C44.5386 21.2257 46.4372 23.4702 48.9595 24.6682C50.6226 25.4531 51.4126 25.6321 53.3251 25.6184C55.5425 25.6184 57.3442 25.04 59.0072 23.8283C59.3537 23.5804 61.2801 21.7352 63.3035 19.7248L66.9761 16.0619H71.2724H75.5686L69.7479 21.8591C66.5465 25.04 63.4282 28.0143 62.8184 28.4825C60.9336 29.8871 58.4529 30.9887 56.2355 31.4018C54.8496 31.6634 51.7452 31.6772 50.3177 31.4155Z" fill="var(--fill-0, white)" id="p18hne742H"/>
<path d="M68.5014 31.4158C67.2125 31.1679 66.3117 30.8925 66.2563 30.7135C66.2285 30.6446 67.3234 29.488 68.6816 28.166L71.1623 25.7425L72.2294 25.6461C75.8743 25.3156 79.0341 23.0573 80.42 19.7801C82.8176 14.1068 79.3252 7.64866 73.2273 6.49198L72.271 6.31297L69.624 3.68289C68.1826 2.2508 67.0323 1.02527 67.0739 0.970187C67.5728 0.474466 72.0631 0.199065 74.0449 0.543316C77.3572 1.12166 80.2121 2.58128 82.5682 4.90842C85.9081 8.18569 87.5158 12.5921 87.1416 17.3565C86.5734 24.393 81.2377 30.1765 74.1835 31.4295C72.8115 31.6636 69.8041 31.6636 68.5014 31.4158Z" fill="var(--fill-0, white)" id="p1Cc1xZbb5"/>
</g>
</g>
</g>
</g>
<defs>
<clipPath id="clip0_0_11951">
<rect fill="white" height="49.7496" width="124.374"/>
</clipPath>
</defs>
</svg>