<svg width="735" height="292" viewBox="0 0 735 292" fill="none" xmlns="http://www.w3.org/2000/svg">
<path d="M647.389 0C669.222 7.2532e-05 688.047 15.3485 692.445 36.7344L733.526 236.495C739.394 265.028 717.599 291.761 688.469 291.761H107.621C102.353 291.761 97.1774 290.373 92.6156 287.738L14.9948 242.903C5.7157 237.544 0 227.642 0 216.926V74.8352C0 64.1193 5.7158 54.2171 14.995 48.8573L92.6176 4.02211C97.1794 1.38721 102.355 0 107.623 0H647.389Z" fill="white"/>
<path d="M129.863 39.9618C138.612 34.9079 142.987 32.381 147.791 32.381C152.595 32.381 156.97 34.9079 165.719 39.9618L228.004 75.9385C236.748 80.989 241.119 83.5142 243.52 87.6725C245.92 91.8307 245.92 96.8794 245.92 106.977V178.959C245.92 189.057 245.92 194.105 243.52 198.264C241.119 202.422 236.748 204.947 228.004 209.997L165.719 245.974C156.97 251.028 152.595 253.555 147.791 253.555C142.987 253.555 138.612 251.028 129.863 245.974L67.5781 209.997C58.8345 204.947 54.4627 202.422 52.0625 198.264C49.6623 194.105 49.6623 189.057 49.6623 178.959V106.977C49.6623 96.8794 49.6623 91.8307 52.0625 87.6725C54.4627 83.5142 58.8345 80.989 67.5781 75.9385L129.863 39.9618Z" fill="black"/>
<path d="M106.056 159.095C106.056 160.785 106.056 161.63 106.458 162.326C106.86 163.022 107.592 163.445 109.055 164.29L130.166 176.483C133.774 178.568 135.579 179.61 136.983 178.974C137.162 178.893 137.332 178.795 137.492 178.68C138.745 177.783 138.745 175.699 138.745 171.531C138.745 159.668 138.745 153.736 140.848 153.077C141.098 152.998 141.358 152.953 141.62 152.942C143.822 152.851 145.83 158.432 149.845 169.596L163.713 208.153C164.524 210.409 164.93 211.536 164.556 212.559C164.181 213.581 163.144 214.18 161.068 215.379L153.932 219.501C152.468 220.347 151.735 220.77 150.931 220.77C150.127 220.77 149.395 220.347 147.93 219.501L84.3892 182.798C82.9256 181.953 82.1938 181.53 81.792 180.834C81.3903 180.138 81.3903 179.293 81.3903 177.602V103.584C81.3903 101.893 81.3903 101.048 81.792 100.352C82.1938 99.6562 82.9256 99.2335 84.3893 98.3881L97.0553 91.0722C101.056 88.7617 103.056 87.6064 104.556 88.4724C106.056 89.3383 106.056 91.6482 106.056 96.2678V159.095Z" fill="white"/>
<path d="M189.526 126.842C189.526 125.151 189.526 124.306 189.124 123.61C188.722 122.914 187.991 122.491 186.527 121.646L165.417 109.453C161.808 107.368 160.004 106.326 158.6 106.962C158.421 107.043 158.25 107.141 158.09 107.256C156.838 108.153 156.838 110.237 156.838 114.405C156.838 126.268 156.838 132.2 154.735 132.859C154.484 132.938 154.225 132.983 153.962 132.994C151.76 133.086 149.753 127.504 145.738 116.34L131.87 77.7829C131.058 75.5273 130.653 74.3996 131.027 73.3774C131.401 72.3552 132.439 71.7557 134.514 70.5567L141.65 66.435C143.115 65.5889 143.847 65.1659 144.651 65.1659C145.455 65.1659 146.188 65.5889 147.652 66.4349L211.193 103.138C212.657 103.984 213.389 104.406 213.79 105.102C214.192 105.798 214.192 106.643 214.192 108.334V182.352C214.192 184.043 214.192 184.888 213.79 185.584C213.389 186.28 212.657 186.703 211.193 187.548L198.527 194.864C194.527 197.174 192.527 198.33 191.026 197.464C189.526 196.598 189.526 194.288 189.526 189.668V126.842Z" fill="white"/>
<path d="M531.444 89.2054C531.444 84.8508 532.242 80.7414 533.836 76.8774C535.431 73.0134 537.639 69.6708 540.46 66.8494C543.343 63.9668 546.716 61.6974 550.58 60.0414C554.506 58.3854 558.799 57.5574 563.46 57.5574C568.122 57.5574 572.384 58.3854 576.248 60.0414C580.174 61.6974 583.547 63.9668 586.368 66.8494C589.251 69.6708 591.459 73.0134 592.992 76.8774C594.587 80.7414 595.384 84.8508 595.384 89.2054C595.384 93.4988 594.587 97.5774 592.992 101.441C591.459 105.244 589.251 108.587 586.368 111.469C583.547 114.291 580.174 116.529 576.248 118.185C572.384 119.841 568.122 120.669 563.46 120.669C558.799 120.669 554.506 119.841 550.58 118.185C546.716 116.529 543.343 114.291 540.46 111.469C537.639 108.587 535.431 105.244 533.836 101.441C532.242 97.5774 531.444 93.4988 531.444 89.2054ZM545.336 89.1134C545.336 91.7508 545.766 94.2041 546.624 96.4734C547.544 98.6814 548.802 100.613 550.396 102.269C552.052 103.925 553.984 105.213 556.192 106.133C558.4 107.053 560.823 107.513 563.46 107.513C566.098 107.513 568.52 107.053 570.728 106.133C572.936 105.213 574.838 103.925 576.432 102.269C578.027 100.613 579.254 98.6814 580.112 96.4734C581.032 94.2041 581.492 91.7508 581.492 89.1134C581.492 86.4761 581.032 84.0534 580.112 81.8454C579.254 79.5761 578.027 77.6134 576.432 75.9574C574.838 74.3014 572.936 73.0134 570.728 72.0934C568.52 71.1734 566.098 70.7134 563.46 70.7134C560.823 70.7134 558.4 71.1734 556.192 72.0934C553.984 73.0134 552.052 74.3014 550.396 75.9574C548.802 77.6134 547.544 79.5761 546.624 81.8454C545.766 84.0534 545.336 86.4761 545.336 89.1134Z" fill="black"/>
<path d="M476.698 119.381V58.8454H504.758C508.438 58.8454 511.658 59.3668 514.418 60.4094C517.239 61.3908 519.57 62.7708 521.41 64.5494C523.311 66.3281 524.722 68.4441 525.642 70.8974C526.623 73.2894 527.114 75.8654 527.114 78.6254C527.114 82.4281 525.979 85.8014 523.71 88.7454C521.502 91.6894 518.619 93.9281 515.062 95.4614L528.862 119.381H513.59L501.63 97.6694H490.59V119.381H476.698ZM504.758 71.9094H490.59V85.5254H504.758C505.985 85.5254 507.119 85.4028 508.162 85.1574C509.205 84.9121 510.094 84.5134 510.83 83.9614C511.566 83.4094 512.149 82.7041 512.578 81.8454C513.007 80.9868 513.222 79.9441 513.222 78.7174C513.222 77.4908 513.007 76.4788 512.578 75.6814C512.149 74.8228 511.566 74.1174 510.83 73.5654C510.094 72.9521 509.205 72.5228 508.162 72.2774C507.119 72.0321 505.985 71.9094 504.758 71.9094Z" fill="black"/>
<path d="M414.241 94.6334V58.8454H428.133V94.2654C428.133 95.7374 428.317 97.2708 428.685 98.8654C429.115 100.399 429.82 101.809 430.801 103.097C431.844 104.385 433.193 105.459 434.849 106.317C436.567 107.115 438.652 107.513 441.105 107.513C443.62 107.513 445.705 107.115 447.361 106.317C449.079 105.459 450.428 104.385 451.409 103.097C452.391 101.809 453.096 100.399 453.525 98.8654C453.955 97.2708 454.169 95.7374 454.169 94.2654V58.8454H468.061V94.6334C468.061 98.8041 467.325 102.515 465.853 105.765C464.381 109.016 462.388 111.745 459.873 113.953C457.42 116.161 454.568 117.848 451.317 119.013C448.067 120.117 444.663 120.669 441.105 120.669C437.548 120.669 434.144 120.117 430.893 119.013C427.643 117.848 424.791 116.161 422.337 113.953C419.884 111.745 417.921 109.016 416.449 105.765C414.977 102.515 414.241 98.8041 414.241 94.6334Z" fill="black"/>
<path d="M407.24 119.381H361.608V58.8454H406.78V71.6334H375.5V82.6734H405.584V95.0014H375.5V106.593H407.24V119.381Z" fill="black"/>
<path d="M296.921 58.8454H312.009L338.229 96.1054V58.8454H352.213V119.381H337.953L310.905 80.0054V119.381H296.921V58.8454Z" fill="black"/>
<path d="M646.411 163.413C646.289 167.829 645.491 171.847 644.019 175.465C642.609 179.023 640.554 182.089 637.855 184.665C635.218 187.18 631.998 189.143 628.195 190.553C624.454 191.903 620.191 192.577 615.407 192.577C610.746 192.577 606.453 191.78 602.527 190.185C598.663 188.529 595.29 186.291 592.407 183.469C589.586 180.648 587.378 177.336 585.783 173.533C584.189 169.669 583.391 165.529 583.391 161.113C583.391 156.697 584.189 152.557 585.783 148.693C587.378 144.829 589.617 141.487 592.499 138.665C595.382 135.783 598.786 133.544 602.711 131.949C606.698 130.293 611.022 129.465 615.683 129.465C621.387 129.465 626.601 130.784 631.323 133.421C636.046 136.059 639.787 139.585 642.547 144.001L630.863 151.269C630.189 149.981 629.299 148.816 628.195 147.773C627.153 146.669 625.987 145.749 624.699 145.013C623.411 144.277 621.97 143.695 620.375 143.265C618.842 142.836 617.186 142.621 615.407 142.621C612.893 142.621 610.531 143.081 608.323 144.001C606.115 144.921 604.183 146.209 602.527 147.865C600.933 149.46 599.645 151.392 598.663 153.661C597.743 155.869 597.283 158.323 597.283 161.021C597.283 163.72 597.743 166.204 598.663 168.473C599.645 170.681 600.933 172.613 602.527 174.269C604.183 175.864 606.115 177.121 608.323 178.041C610.531 178.961 612.893 179.421 615.407 179.421C618.106 179.421 620.375 179.145 622.215 178.593C624.117 178.041 625.65 177.305 626.815 176.385C628.042 175.465 628.962 174.392 629.575 173.165C630.25 171.939 630.71 170.712 630.955 169.485H615.775V157.893H646.411V163.413Z" fill="black"/>
<path d="M521.37 130.845H536.458L562.678 168.105V130.845H576.662V191.381H562.402L535.354 152.005V191.381H521.37V130.845Z" fill="black"/>
<path d="M511.992 191.381H498.1V130.845H511.992V191.381Z" fill="black"/>
<path d="M422.476 130.845H437.656L453.02 170.773H453.204L468.568 130.845H483.84L489.36 191.381H475.284L473.444 170.773L472.708 152.005L472.524 151.269L459.552 189.633H446.764L433.792 151.913L433.608 151.177L432.872 170.773L430.94 191.381H416.956L422.476 130.845Z" fill="black"/>
<path d="M373.754 169.301H388.658L381.298 147.129H381.114L373.754 169.301ZM373.294 130.845H389.118L412.118 191.381H396.938L392.89 180.893H369.43L365.474 191.381H350.294L373.294 130.845Z" fill="black"/>
<path d="M351.365 163.413C351.242 167.829 350.445 171.847 348.973 175.465C347.562 179.023 345.507 182.089 342.809 184.665C340.171 187.18 336.951 189.143 333.149 190.553C329.407 191.903 325.145 192.577 320.361 192.577C315.699 192.577 311.406 191.78 307.481 190.185C303.617 188.529 300.243 186.291 297.361 183.469C294.539 180.648 292.331 177.336 290.737 173.533C289.142 169.669 288.345 165.529 288.345 161.113C288.345 156.697 289.142 152.557 290.737 148.693C292.331 144.829 294.57 141.487 297.453 138.665C300.335 135.783 303.739 133.544 307.665 131.949C311.651 130.293 315.975 129.465 320.637 129.465C326.341 129.465 331.554 130.784 336.277 133.421C340.999 136.059 344.741 139.585 347.501 144.001L335.817 151.269C335.142 149.981 334.253 148.816 333.149 147.773C332.106 146.669 330.941 145.749 329.653 145.013C328.365 144.277 326.923 143.695 325.329 143.265C323.795 142.836 322.139 142.621 320.361 142.621C317.846 142.621 315.485 143.081 313.277 144.001C311.069 144.921 309.137 146.209 307.481 147.865C305.886 149.46 304.598 151.392 303.617 153.661C302.697 155.869 302.237 158.323 302.237 161.021C302.237 163.72 302.697 166.204 303.617 168.473C304.598 170.681 305.886 172.613 307.481 174.269C309.137 175.864 311.069 177.121 313.277 178.041C315.485 178.961 317.846 179.421 320.361 179.421C323.059 179.421 325.329 179.145 327.169 178.593C329.07 178.041 330.603 177.305 331.769 176.385C332.995 175.465 333.915 174.392 334.529 173.165C335.203 171.939 335.663 170.712 335.909 169.485H320.729V157.893H351.365V163.413Z" fill="black"/>
<path d="M565.807 225.853C565.487 225.501 565.071 225.165 564.559 224.845C564.047 224.493 563.471 224.189 562.831 223.933C562.223 223.677 561.567 223.469 560.863 223.309C560.159 223.149 559.439 223.069 558.703 223.069C557.071 223.069 555.807 223.421 554.911 224.125C554.015 224.797 553.567 225.725 553.567 226.909C553.567 228.125 554.047 229.069 555.007 229.741C555.967 230.381 557.135 230.925 558.511 231.373C559.727 231.789 561.023 232.221 562.399 232.669C563.807 233.085 565.103 233.661 566.287 234.397C567.503 235.101 568.495 236.013 569.263 237.133C570.063 238.221 570.463 239.661 570.463 241.453C570.463 242.893 570.175 244.205 569.599 245.389C569.055 246.541 568.271 247.533 567.247 248.365C566.223 249.165 564.991 249.789 563.551 250.237C562.111 250.685 560.511 250.909 558.751 250.909C557.375 250.909 556.063 250.765 554.815 250.477C553.567 250.221 552.415 249.885 551.359 249.469C550.335 249.021 549.407 248.541 548.575 248.029C547.775 247.517 547.135 247.005 546.655 246.493L549.919 242.605C550.239 242.925 550.687 243.277 551.263 243.661C551.871 244.045 552.559 244.397 553.327 244.717C554.095 245.037 554.943 245.309 555.871 245.533C556.799 245.757 557.759 245.869 558.751 245.869C560.639 245.869 562.111 245.501 563.167 244.765C564.255 244.029 564.799 243.005 564.799 241.693C564.799 240.989 564.623 240.397 564.271 239.917C563.951 239.405 563.503 238.957 562.927 238.573C562.351 238.189 561.679 237.853 560.911 237.565C560.175 237.277 559.375 237.005 558.511 236.749C557.327 236.397 556.111 235.997 554.863 235.549C553.615 235.101 552.463 234.541 551.407 233.869C550.383 233.165 549.535 232.285 548.863 231.229C548.223 230.173 547.903 228.845 547.903 227.245C547.903 225.837 548.159 224.573 548.671 223.453C549.183 222.301 549.903 221.325 550.831 220.525C551.791 219.725 552.927 219.117 554.239 218.701C555.583 218.253 557.087 218.029 558.751 218.029C559.871 218.029 560.943 218.125 561.967 218.317C563.023 218.509 563.999 218.797 564.895 219.181C565.823 219.533 566.639 219.949 567.343 220.429C568.079 220.909 568.687 221.437 569.167 222.013L565.807 225.853Z" fill="black"/>
<path d="M545.021 223.933H535.229V250.381H529.805V223.933H519.965V218.797H545.021V223.933Z" fill="black"/>
<path d="M488.706 218.797H494.562L510.402 241.453V218.797H515.874V250.381H510.21L494.13 227.149V250.381H488.706V218.797Z" fill="black"/>
<path d="M483.986 250.381H461.378V218.797H483.746V223.837H466.802V231.853H483.314V236.749H466.802V245.341H483.986V250.381Z" fill="black"/>
<path d="M429.299 218.797H435.155L443.603 243.037H443.699L452.147 218.797H457.955L446.531 250.381H440.771L429.299 218.797Z" fill="black"/>
<path d="M427.079 250.381H404.471V218.797H426.839V223.837H409.895V231.853H426.407V236.749H409.895V245.341H427.079V250.381Z" fill="black"/>
<path d="M363.174 250.381V218.797H376.902C378.63 218.797 380.166 219.037 381.51 219.517C382.854 219.997 383.99 220.669 384.918 221.533C385.878 222.397 386.598 223.437 387.078 224.653C387.558 225.837 387.798 227.149 387.798 228.589C387.798 230.701 387.19 232.525 385.974 234.061C384.79 235.565 383.206 236.653 381.222 237.325L388.758 250.381H382.758L375.846 238.141H368.598V250.381H363.174ZM368.598 223.933V233.245H376.902C378.598 233.245 379.926 232.877 380.886 232.141C381.878 231.373 382.374 230.205 382.374 228.637C382.374 227.069 381.878 225.901 380.886 225.133C379.926 224.333 378.598 223.933 376.902 223.933H368.598Z" fill="black"/>
<path d="M325.637 234.637C325.637 232.365 326.053 230.221 326.885 228.205C327.749 226.189 328.917 224.445 330.389 222.973C331.893 221.469 333.653 220.285 335.669 219.421C337.717 218.557 339.909 218.125 342.245 218.125C344.581 218.125 346.757 218.557 348.773 219.421C350.821 220.285 352.581 221.469 354.053 222.973C355.557 224.445 356.725 226.189 357.557 228.205C358.421 230.221 358.853 232.365 358.853 234.637C358.853 236.877 358.421 239.005 357.557 241.021C356.725 243.005 355.557 244.749 354.053 246.253C352.581 247.725 350.821 248.893 348.773 249.757C346.757 250.621 344.581 251.053 342.245 251.053C339.909 251.053 337.717 250.621 335.669 249.757C333.653 248.893 331.893 247.725 330.389 246.253C328.917 244.749 327.749 243.005 326.885 241.021C326.053 239.005 325.637 236.877 325.637 234.637ZM331.061 234.637C331.061 236.205 331.349 237.677 331.925 239.053C332.501 240.397 333.285 241.581 334.277 242.605C335.301 243.597 336.485 244.381 337.829 244.957C339.205 245.533 340.677 245.821 342.245 245.821C343.813 245.821 345.269 245.533 346.613 244.957C347.989 244.381 349.173 243.597 350.165 242.605C351.157 241.581 351.941 240.397 352.517 239.053C353.093 237.677 353.381 236.205 353.381 234.637C353.381 233.037 353.093 231.565 352.517 230.221C351.941 228.845 351.157 227.645 350.165 226.621C349.173 225.597 347.989 224.797 346.613 224.221C345.269 223.645 343.813 223.357 342.245 223.357C340.677 223.357 339.205 223.645 337.829 224.221C336.485 224.797 335.301 225.597 334.277 226.621C333.285 227.645 332.501 228.845 331.925 230.221C331.349 231.565 331.061 233.037 331.061 234.637Z" fill="black"/>
<path d="M306.677 250.381H301.253V218.797H323.093V223.837H306.677V231.853H322.661V236.749H306.677V250.381Z" fill="black"/>
</svg>
