<svg width="735" height="292" viewBox="0 0 735 292" fill="none" xmlns="http://www.w3.org/2000/svg">
<path d="M647.389 0C669.222 7.25335e-05 688.047 15.3476 692.445 36.7334L733.526 236.494C739.394 265.027 717.599 291.76 688.469 291.76H107.621C102.353 291.76 97.1774 290.372 92.6156 287.738L14.9948 242.902C5.7157 237.543 0 227.641 0 216.925V74.8343C0 64.1183 5.71579 54.2161 14.995 48.8564L92.6157 4.02213C97.1774 1.38722 102.353 0 107.621 0H647.389Z" fill="white"/>
<path d="M129.863 39.9608C138.612 34.9069 142.987 32.38 147.791 32.38C152.595 32.38 156.97 34.9069 165.719 39.9608L228.004 75.9375C236.748 80.988 241.12 83.5133 243.52 87.6715C245.92 91.8297 245.92 96.8784 245.92 106.976V178.958C245.92 189.056 245.92 194.104 243.52 198.263C241.12 202.421 236.748 204.946 228.004 209.997L165.719 245.973C156.97 251.027 152.595 253.554 147.791 253.554C142.987 253.554 138.612 251.027 129.863 245.973L67.5782 209.997C58.8345 204.946 54.4627 202.421 52.0625 198.263C49.6623 194.104 49.6623 189.056 49.6623 178.958V106.976C49.6623 96.8784 49.6623 91.8297 52.0625 87.6715C54.4627 83.5133 58.8345 80.988 67.5782 75.9375L129.863 39.9608Z" fill="black"/>
<path d="M106.056 159.094C106.056 160.784 106.056 161.629 106.458 162.325C106.86 163.021 107.592 163.444 109.055 164.289L130.166 176.482C133.774 178.567 135.579 179.609 136.983 178.973C137.162 178.892 137.332 178.794 137.492 178.679C138.745 177.782 138.745 175.698 138.745 171.53C138.745 159.667 138.745 153.735 140.848 153.076C141.098 152.997 141.358 152.952 141.62 152.941C143.822 152.85 145.829 158.431 149.845 169.595L163.713 208.152C164.524 210.408 164.93 211.536 164.556 212.558C164.181 213.58 163.144 214.179 161.068 215.378L153.932 219.5C152.468 220.346 151.735 220.769 150.931 220.769C150.127 220.769 149.395 220.346 147.93 219.5L84.3891 182.797C82.9256 181.952 82.1938 181.529 81.792 180.833C81.3902 180.137 81.3902 179.292 81.3902 177.601V103.583C81.3902 101.892 81.3902 101.047 81.792 100.351C82.1938 99.6552 82.9256 99.2325 84.3893 98.3871L97.0553 91.0713C101.056 88.7607 103.056 87.6054 104.556 88.4714C106.056 89.3374 106.056 91.6472 106.056 96.2669V159.094Z" fill="white"/>
<path d="M189.526 126.841C189.526 125.15 189.526 124.305 189.124 123.609C188.722 122.913 187.991 122.49 186.527 121.645L165.417 109.452C161.808 107.367 160.004 106.325 158.6 106.961C158.421 107.042 158.25 107.14 158.09 107.255C156.838 108.153 156.838 110.236 156.838 114.404C156.838 126.267 156.838 132.199 154.735 132.858C154.484 132.937 154.224 132.982 153.962 132.993C151.76 133.085 149.753 127.503 145.738 116.339L131.87 77.7819C131.058 75.5264 130.653 74.3986 131.027 73.3764C131.401 72.3542 132.439 71.7547 134.514 70.5557L141.65 66.434C143.115 65.588 143.847 65.165 144.651 65.165C145.455 65.165 146.188 65.588 147.652 66.434L211.193 103.137C212.657 103.983 213.389 104.405 213.79 105.101C214.192 105.797 214.192 106.642 214.192 108.333V182.351C214.192 184.042 214.192 184.887 213.79 185.583C213.388 186.279 212.657 186.702 211.193 187.547L198.527 194.863C194.527 197.173 192.527 198.329 191.026 197.463C189.526 196.597 189.526 194.287 189.526 189.667V126.841Z" fill="white"/>
<path d="M531.444 89.2045C531.444 84.8498 532.242 80.7405 533.836 76.8765C535.431 73.0125 537.639 69.6698 540.46 66.8485C543.343 63.9658 546.716 61.6965 550.58 60.0405C554.506 58.3845 558.799 57.5565 563.46 57.5565C568.122 57.5565 572.384 58.3845 576.248 60.0405C580.174 61.6965 583.547 63.9658 586.368 66.8485C589.251 69.6698 591.459 73.0125 592.992 76.8765C594.587 80.7405 595.384 84.8498 595.384 89.2045C595.384 93.4978 594.587 97.5765 592.992 101.44C591.459 105.243 589.251 108.586 586.368 111.468C583.547 114.29 580.174 116.528 576.248 118.184C572.384 119.84 568.122 120.668 563.46 120.668C558.799 120.668 554.506 119.84 550.58 118.184C546.716 116.528 543.343 114.29 540.46 111.468C537.639 108.586 535.431 105.243 533.836 101.44C532.242 97.5765 531.444 93.4978 531.444 89.2045ZM545.336 89.1125C545.336 91.7498 545.766 94.2031 546.624 96.4725C547.544 98.6805 548.802 100.612 550.396 102.268C552.052 103.924 553.984 105.212 556.192 106.132C558.4 107.052 560.823 107.512 563.46 107.512C566.098 107.512 568.52 107.052 570.728 106.132C572.936 105.212 574.838 103.924 576.432 102.268C578.027 100.612 579.254 98.6805 580.112 96.4725C581.032 94.2031 581.492 91.7498 581.492 89.1125C581.492 86.4751 581.032 84.0525 580.112 81.8445C579.254 79.5751 578.027 77.6125 576.432 75.9565C574.838 74.3005 572.936 73.0125 570.728 72.0925C568.52 71.1725 566.098 70.7125 563.46 70.7125C560.823 70.7125 558.4 71.1725 556.192 72.0925C553.984 73.0125 552.052 74.3005 550.396 75.9565C548.802 77.6125 547.544 79.5751 546.624 81.8445C545.766 84.0525 545.336 86.4751 545.336 89.1125Z" fill="black"/>
<path d="M476.698 119.38V58.8445H504.758C508.438 58.8445 511.658 59.3658 514.418 60.4085C517.239 61.3898 519.57 62.7698 521.41 64.5485C523.311 66.3271 524.722 68.4431 525.642 70.8965C526.623 73.2885 527.114 75.8645 527.114 78.6245C527.114 82.4271 525.979 85.8005 523.71 88.7445C521.502 91.6885 518.619 93.9271 515.062 95.4605L528.862 119.38H513.59L501.63 97.6685H490.59V119.38H476.698ZM504.758 71.9085H490.59V85.5245H504.758C505.984 85.5245 507.119 85.4018 508.162 85.1565C509.204 84.9111 510.094 84.5125 510.83 83.9605C511.566 83.4085 512.148 82.7031 512.578 81.8445C513.007 80.9858 513.222 79.9431 513.222 78.7165C513.222 77.4898 513.007 76.4778 512.578 75.6805C512.148 74.8218 511.566 74.1165 510.83 73.5645C510.094 72.9511 509.204 72.5218 508.162 72.2765C507.119 72.0311 505.984 71.9085 504.758 71.9085Z" fill="black"/>
<path d="M414.241 94.6325V58.8445H428.133V94.2645C428.133 95.7365 428.317 97.2698 428.685 98.8645C429.115 100.398 429.82 101.808 430.801 103.096C431.844 104.384 433.193 105.458 434.849 106.316C436.567 107.114 438.652 107.512 441.105 107.512C443.62 107.512 445.705 107.114 447.361 106.316C449.079 105.458 450.428 104.384 451.409 103.096C452.391 101.808 453.096 100.398 453.525 98.8645C453.955 97.2698 454.169 95.7365 454.169 94.2645V58.8445H468.061V94.6325C468.061 98.8031 467.325 102.514 465.853 105.764C464.381 109.015 462.388 111.744 459.873 113.952C457.42 116.16 454.568 117.847 451.317 119.012C448.067 120.116 444.663 120.668 441.105 120.668C437.548 120.668 434.144 120.116 430.893 119.012C427.643 117.847 424.791 116.16 422.337 113.952C419.884 111.744 417.921 109.015 416.449 105.764C414.977 102.514 414.241 98.8031 414.241 94.6325Z" fill="black"/>
<path d="M407.24 119.38H361.608V58.8445H406.78V71.6325H375.5V82.6725H405.584V95.0005H375.5V106.592H407.24V119.38Z" fill="black"/>
<path d="M296.92 58.8445H312.008L338.228 96.1045V58.8445H352.212V119.38H337.952L310.904 80.0045V119.38H296.92V58.8445Z" fill="black"/>
<path d="M646.411 163.412C646.289 167.828 645.491 171.846 644.019 175.464C642.609 179.022 640.554 182.088 637.855 184.664C635.218 187.179 631.998 189.142 628.195 190.552C624.454 191.902 620.191 192.576 615.407 192.576C610.746 192.576 606.453 191.779 602.527 190.184C598.663 188.528 595.29 186.29 592.407 183.468C589.586 180.647 587.378 177.335 585.783 173.532C584.189 169.668 583.391 165.528 583.391 161.112C583.391 156.696 584.189 152.556 585.783 148.692C587.378 144.828 589.617 141.486 592.499 138.664C595.382 135.782 598.786 133.543 602.711 131.948C606.698 130.292 611.022 129.464 615.683 129.464C621.387 129.464 626.601 130.783 631.323 133.42C636.046 136.058 639.787 139.584 642.547 144L630.863 151.268C630.189 149.98 629.299 148.815 628.195 147.772C627.153 146.668 625.987 145.748 624.699 145.012C623.411 144.276 621.97 143.694 620.375 143.264C618.842 142.835 617.186 142.62 615.407 142.62C612.893 142.62 610.531 143.08 608.323 144C606.115 144.92 604.183 146.208 602.527 147.864C600.933 149.459 599.645 151.391 598.663 153.66C597.743 155.868 597.283 158.322 597.283 161.02C597.283 163.719 597.743 166.203 598.663 168.472C599.645 170.68 600.933 172.612 602.527 174.268C604.183 175.863 606.115 177.12 608.323 178.04C610.531 178.96 612.893 179.42 615.407 179.42C618.106 179.42 620.375 179.144 622.215 178.592C624.117 178.04 625.65 177.304 626.815 176.384C628.042 175.464 628.962 174.391 629.575 173.164C630.25 171.938 630.71 170.711 630.955 169.484H615.775V157.892H646.411V163.412Z" fill="black"/>
<path d="M521.37 130.844H536.458L562.678 168.104V130.844H576.662V191.38H562.402L535.354 152.004V191.38H521.37V130.844Z" fill="black"/>
<path d="M511.992 191.38H498.1V130.844H511.992V191.38Z" fill="black"/>
<path d="M422.476 130.844H437.656L453.02 170.772H453.204L468.568 130.844H483.84L489.36 191.38H475.284L473.444 170.772L472.708 152.004L472.524 151.268L459.552 189.632H446.764L433.792 151.912L433.608 151.176L432.872 170.772L430.94 191.38H416.956L422.476 130.844Z" fill="black"/>
<path d="M373.754 169.3H388.658L381.298 147.128H381.114L373.754 169.3ZM373.294 130.844H389.118L412.118 191.38H396.938L392.89 180.892H369.43L365.474 191.38H350.294L373.294 130.844Z" fill="black"/>
<path d="M351.364 163.412C351.242 167.828 350.444 171.846 348.972 175.464C347.562 179.022 345.507 182.088 342.808 184.664C340.171 187.179 336.951 189.142 333.148 190.552C329.407 191.902 325.144 192.576 320.36 192.576C315.699 192.576 311.406 191.779 307.48 190.184C303.616 188.528 300.243 186.29 297.36 183.468C294.539 180.647 292.331 177.335 290.736 173.532C289.142 169.668 288.344 165.528 288.344 161.112C288.344 156.696 289.142 152.556 290.736 148.692C292.331 144.828 294.57 141.486 297.452 138.664C300.335 135.782 303.739 133.543 307.664 131.948C311.651 130.292 315.975 129.464 320.636 129.464C326.34 129.464 331.554 130.783 336.276 133.42C340.999 136.058 344.74 139.584 347.5 144L335.816 151.268C335.142 149.98 334.252 148.815 333.148 147.772C332.106 146.668 330.94 145.748 329.652 145.012C328.364 144.276 326.923 143.694 325.328 143.264C323.795 142.835 322.139 142.62 320.36 142.62C317.846 142.62 315.484 143.08 313.276 144C311.068 144.92 309.136 146.208 307.48 147.864C305.886 149.459 304.598 151.391 303.616 153.66C302.696 155.868 302.236 158.322 302.236 161.02C302.236 163.719 302.696 166.203 303.616 168.472C304.598 170.68 305.886 172.612 307.48 174.268C309.136 175.863 311.068 177.12 313.276 178.04C315.484 178.96 317.846 179.42 320.36 179.42C323.059 179.42 325.328 179.144 327.168 178.592C329.07 178.04 330.603 177.304 331.768 176.384C332.995 175.464 333.915 174.391 334.528 173.164C335.203 171.938 335.663 170.711 335.908 169.484H320.728V157.892H351.364V163.412Z" fill="black"/>
<path d="M519.255 223.46C518.988 223.167 518.641 222.874 518.215 222.58C517.815 222.287 517.348 222.034 516.815 221.82C516.281 221.58 515.708 221.394 515.095 221.26C514.481 221.127 513.855 221.06 513.215 221.06C511.695 221.06 510.521 221.38 509.695 222.02C508.868 222.66 508.455 223.54 508.455 224.66C508.455 225.247 508.575 225.754 508.815 226.18C509.055 226.607 509.388 226.994 509.815 227.34C510.241 227.66 510.735 227.94 511.295 228.18C511.855 228.42 512.455 228.647 513.095 228.86C514.108 229.207 515.175 229.567 516.295 229.94C517.441 230.314 518.481 230.794 519.415 231.38C520.375 231.94 521.161 232.674 521.775 233.58C522.415 234.487 522.735 235.66 522.735 237.1C522.735 238.274 522.508 239.34 522.055 240.3C521.601 241.234 520.948 242.034 520.095 242.7C519.268 243.367 518.281 243.887 517.135 244.26C515.988 244.607 514.708 244.78 513.295 244.78C512.121 244.78 511.015 244.66 509.975 244.42C508.935 244.207 507.988 243.927 507.135 243.58C506.308 243.207 505.588 242.82 504.975 242.42C504.361 241.994 503.881 241.607 503.535 241.26L505.855 238.46C506.095 238.7 506.441 238.98 506.895 239.3C507.375 239.594 507.935 239.887 508.575 240.18C509.215 240.447 509.935 240.687 510.735 240.9C511.535 241.087 512.388 241.18 513.295 241.18C514.975 241.18 516.308 240.834 517.295 240.14C518.308 239.447 518.815 238.5 518.815 237.3C518.815 236.634 518.655 236.074 518.335 235.62C518.041 235.14 517.628 234.727 517.095 234.38C516.561 234.034 515.948 233.727 515.255 233.46C514.588 233.194 513.868 232.94 513.095 232.7C512.108 232.38 511.108 232.047 510.095 231.7C509.081 231.327 508.161 230.86 507.335 230.3C506.508 229.714 505.828 228.994 505.295 228.14C504.788 227.26 504.535 226.18 504.535 224.9C504.535 223.754 504.735 222.727 505.135 221.82C505.561 220.887 506.148 220.1 506.895 219.46C507.668 218.82 508.588 218.327 509.655 217.98C510.748 217.634 511.948 217.46 513.255 217.46C515.068 217.46 516.721 217.767 518.215 218.38C519.735 218.967 520.881 219.727 521.655 220.66L519.255 223.46Z" fill="black"/>
<path d="M501.888 221.62H493.568V244.38H489.808V221.62H481.408V218.06H501.888V221.62Z" fill="black"/>
<path d="M455.832 218.06H459.872L473.992 238.26V218.06H477.752V244.38H473.792L459.592 223.9V244.38H455.832V218.06Z" fill="black"/>
<path d="M451.574 244.38H433.254V218.06H451.374V221.58H437.014V229.18H451.134V232.66H437.014V240.86H451.574V244.38Z" fill="black"/>
<path d="M406.947 218.06H410.947L418.547 239.26H418.627L426.187 218.06H430.187L420.587 244.38H416.587L406.947 218.06Z" fill="black"/>
<path d="M404.933 244.38H386.613V218.06H404.733V221.58H390.373V229.18H404.493V232.66H390.373V240.86H404.933V244.38Z" fill="black"/>
<path d="M352.59 244.38V218.06H363.63C364.99 218.06 366.217 218.247 367.31 218.62C368.403 218.994 369.323 219.527 370.07 220.22C370.843 220.914 371.43 221.754 371.83 222.74C372.23 223.7 372.43 224.78 372.43 225.98C372.43 227.82 371.91 229.367 370.87 230.62C369.857 231.847 368.497 232.727 366.79 233.26L373.23 244.38H369.03L362.99 233.78H356.35V244.38H352.59ZM356.35 221.62V230.34H363.63C365.23 230.34 366.457 229.98 367.31 229.26C368.19 228.54 368.63 227.46 368.63 226.02C368.63 224.58 368.19 223.487 367.31 222.74C366.457 221.994 365.23 221.62 363.63 221.62H356.35Z" fill="black"/>
<path d="M321.072 231.26C321.072 229.367 321.432 227.58 322.152 225.9C322.872 224.22 323.845 222.767 325.072 221.54C326.325 220.287 327.792 219.3 329.472 218.58C331.152 217.86 332.952 217.5 334.872 217.5C336.792 217.5 338.592 217.86 340.272 218.58C341.952 219.3 343.405 220.287 344.632 221.54C345.885 222.767 346.872 224.22 347.592 225.9C348.312 227.58 348.672 229.367 348.672 231.26C348.672 233.127 348.312 234.9 347.592 236.58C346.872 238.234 345.885 239.687 344.632 240.94C343.405 242.167 341.952 243.14 340.272 243.86C338.592 244.58 336.792 244.94 334.872 244.94C332.952 244.94 331.152 244.58 329.472 243.86C327.792 243.14 326.325 242.167 325.072 240.94C323.845 239.687 322.872 238.234 322.152 236.58C321.432 234.9 321.072 233.127 321.072 231.26ZM324.832 231.26C324.832 232.647 325.085 233.954 325.592 235.18C326.125 236.38 326.845 237.434 327.752 238.34C328.659 239.247 329.725 239.967 330.952 240.5C332.179 241.007 333.485 241.26 334.872 241.26C336.259 241.26 337.552 241.007 338.752 240.5C339.979 239.967 341.045 239.247 341.952 238.34C342.859 237.434 343.565 236.38 344.072 235.18C344.605 233.954 344.872 232.647 344.872 231.26C344.872 229.847 344.605 228.527 344.072 227.3C343.565 226.074 342.859 225.007 341.952 224.1C341.045 223.194 339.979 222.487 338.752 221.98C337.552 221.447 336.259 221.18 334.872 221.18C333.485 221.18 332.179 221.447 330.952 221.98C329.725 222.487 328.659 223.194 327.752 224.1C326.845 225.007 326.125 226.074 325.592 227.3C325.085 228.527 324.832 229.847 324.832 231.26Z" fill="black"/>
<path d="M304.748 244.38H300.988V218.06H318.708V221.58H304.748V229.18H318.348V232.66H304.748V244.38Z" fill="black"/>
</svg>
