<svg width="735" height="292" viewBox="0 0 735 292" fill="none" xmlns="http://www.w3.org/2000/svg">
<path d="M647.389 0C669.222 7.25335e-05 688.047 15.3476 692.445 36.7334L733.526 236.494C739.394 265.027 717.599 291.76 688.469 291.76H107.621C102.353 291.76 97.1774 290.372 92.6156 287.738L14.9948 242.902C5.7157 237.543 0 227.641 0 216.925V74.8343C0 64.1183 5.71579 54.2161 14.995 48.8564L92.6157 4.02213C97.1774 1.38722 102.353 0 107.621 0H647.389Z" fill="white"/>
<path d="M129.863 39.9608C138.612 34.9069 142.987 32.38 147.791 32.38C152.595 32.38 156.97 34.9069 165.719 39.9608L228.004 75.9375C236.748 80.988 241.119 83.5133 243.52 87.6715C245.92 91.8297 245.92 96.8784 245.92 106.976V178.958C245.92 189.056 245.92 194.104 243.52 198.263C241.119 202.421 236.748 204.946 228.004 209.997L165.719 245.973C156.97 251.027 152.595 253.554 147.791 253.554C142.987 253.554 138.612 251.027 129.863 245.973L67.5781 209.997C58.8345 204.946 54.4627 202.421 52.0625 198.263C49.6623 194.104 49.6623 189.056 49.6623 178.958V106.976C49.6623 96.8784 49.6623 91.8297 52.0625 87.6715C54.4627 83.5133 58.8345 80.988 67.5781 75.9375L129.863 39.9608Z" fill="black"/>
<path d="M106.056 159.094C106.056 160.784 106.056 161.629 106.458 162.325C106.86 163.021 107.592 163.444 109.055 164.289L130.166 176.482C133.774 178.567 135.579 179.609 136.983 178.973C137.162 178.892 137.332 178.794 137.492 178.679C138.745 177.782 138.745 175.698 138.745 171.53C138.745 159.667 138.745 153.735 140.848 153.076C141.098 152.997 141.358 152.952 141.62 152.941C143.822 152.85 145.83 158.431 149.845 169.595L163.713 208.152C164.524 210.408 164.93 211.536 164.556 212.558C164.181 213.58 163.144 214.179 161.068 215.378L153.932 219.5C152.468 220.346 151.735 220.769 150.931 220.769C150.127 220.769 149.395 220.346 147.93 219.5L84.3892 182.797C82.9256 181.952 82.1938 181.529 81.792 180.833C81.3903 180.137 81.3903 179.292 81.3903 177.601V103.583C81.3903 101.892 81.3903 101.047 81.792 100.351C82.1938 99.6552 82.9256 99.2325 84.3893 98.3871L97.0553 91.0713C101.056 88.7607 103.056 87.6054 104.556 88.4714C106.056 89.3374 106.056 91.6472 106.056 96.2669V159.094Z" fill="white"/>
<path d="M189.526 126.841C189.526 125.15 189.526 124.305 189.124 123.609C188.722 122.913 187.991 122.49 186.527 121.645L165.417 109.452C161.808 107.367 160.004 106.325 158.6 106.961C158.421 107.042 158.25 107.14 158.09 107.255C156.838 108.153 156.838 110.236 156.838 114.404C156.838 126.267 156.838 132.199 154.735 132.858C154.484 132.937 154.225 132.982 153.962 132.993C151.76 133.085 149.753 127.503 145.738 116.339L131.87 77.7819C131.058 75.5264 130.653 74.3986 131.027 73.3764C131.401 72.3542 132.439 71.7547 134.514 70.5557L141.65 66.434C143.115 65.588 143.847 65.165 144.651 65.165C145.455 65.165 146.188 65.588 147.652 66.434L211.193 103.137C212.657 103.983 213.389 104.405 213.79 105.101C214.192 105.797 214.192 106.642 214.192 108.333V182.351C214.192 184.042 214.192 184.887 213.79 185.583C213.389 186.279 212.657 186.702 211.193 187.547L198.527 194.863C194.527 197.173 192.527 198.329 191.026 197.463C189.526 196.597 189.526 194.287 189.526 189.667V126.841Z" fill="white"/>
<path d="M531.444 89.2045C531.444 84.8498 532.242 80.7405 533.836 76.8765C535.431 73.0125 537.639 69.6698 540.46 66.8485C543.343 63.9658 546.716 61.6965 550.58 60.0405C554.506 58.3845 558.799 57.5565 563.46 57.5565C568.122 57.5565 572.384 58.3845 576.248 60.0405C580.174 61.6965 583.547 63.9658 586.368 66.8485C589.251 69.6698 591.459 73.0125 592.992 76.8765C594.587 80.7405 595.384 84.8498 595.384 89.2045C595.384 93.4978 594.587 97.5765 592.992 101.44C591.459 105.243 589.251 108.586 586.368 111.468C583.547 114.29 580.174 116.528 576.248 118.184C572.384 119.84 568.122 120.668 563.46 120.668C558.799 120.668 554.506 119.84 550.58 118.184C546.716 116.528 543.343 114.29 540.46 111.468C537.639 108.586 535.431 105.243 533.836 101.44C532.242 97.5765 531.444 93.4978 531.444 89.2045ZM545.336 89.1125C545.336 91.7498 545.766 94.2031 546.624 96.4725C547.544 98.6805 548.802 100.612 550.396 102.268C552.052 103.924 553.984 105.212 556.192 106.132C558.4 107.052 560.823 107.512 563.46 107.512C566.098 107.512 568.52 107.052 570.728 106.132C572.936 105.212 574.838 103.924 576.432 102.268C578.027 100.612 579.254 98.6805 580.112 96.4725C581.032 94.2031 581.492 91.7498 581.492 89.1125C581.492 86.4751 581.032 84.0525 580.112 81.8445C579.254 79.5751 578.027 77.6125 576.432 75.9565C574.838 74.3005 572.936 73.0125 570.728 72.0925C568.52 71.1725 566.098 70.7125 563.46 70.7125C560.823 70.7125 558.4 71.1725 556.192 72.0925C553.984 73.0125 552.052 74.3005 550.396 75.9565C548.802 77.6125 547.544 79.5751 546.624 81.8445C545.766 84.0525 545.336 86.4751 545.336 89.1125Z" fill="black"/>
<path d="M476.698 119.38V58.8445H504.758C508.438 58.8445 511.658 59.3658 514.418 60.4085C517.239 61.3898 519.57 62.7698 521.41 64.5485C523.311 66.3271 524.722 68.4431 525.642 70.8965C526.623 73.2885 527.114 75.8645 527.114 78.6245C527.114 82.4271 525.979 85.8005 523.71 88.7445C521.502 91.6885 518.619 93.9271 515.062 95.4605L528.862 119.38H513.59L501.63 97.6685H490.59V119.38H476.698ZM504.758 71.9085H490.59V85.5245H504.758C505.985 85.5245 507.119 85.4018 508.162 85.1565C509.205 84.9111 510.094 84.5125 510.83 83.9605C511.566 83.4085 512.149 82.7031 512.578 81.8445C513.007 80.9858 513.222 79.9431 513.222 78.7165C513.222 77.4898 513.007 76.4778 512.578 75.6805C512.149 74.8218 511.566 74.1165 510.83 73.5645C510.094 72.9511 509.205 72.5218 508.162 72.2765C507.119 72.0311 505.985 71.9085 504.758 71.9085Z" fill="black"/>
<path d="M414.241 94.6325V58.8445H428.133V94.2645C428.133 95.7365 428.317 97.2698 428.685 98.8645C429.115 100.398 429.82 101.808 430.801 103.096C431.844 104.384 433.193 105.458 434.849 106.316C436.567 107.114 438.652 107.512 441.105 107.512C443.62 107.512 445.705 107.114 447.361 106.316C449.079 105.458 450.428 104.384 451.409 103.096C452.391 101.808 453.096 100.398 453.525 98.8645C453.955 97.2698 454.169 95.7365 454.169 94.2645V58.8445H468.061V94.6325C468.061 98.8031 467.325 102.514 465.853 105.764C464.381 109.015 462.388 111.744 459.873 113.952C457.42 116.16 454.568 117.847 451.317 119.012C448.067 120.116 444.663 120.668 441.105 120.668C437.548 120.668 434.144 120.116 430.893 119.012C427.643 117.847 424.791 116.16 422.337 113.952C419.884 111.744 417.921 109.015 416.449 105.764C414.977 102.514 414.241 98.8031 414.241 94.6325Z" fill="black"/>
<path d="M407.24 119.38H361.608V58.8445H406.78V71.6325H375.5V82.6725H405.584V95.0005H375.5V106.592H407.24V119.38Z" fill="black"/>
<path d="M296.921 58.8445H312.009L338.229 96.1045V58.8445H352.213V119.38H337.953L310.905 80.0045V119.38H296.921V58.8445Z" fill="black"/>
<path d="M646.411 163.412C646.289 167.828 645.491 171.846 644.019 175.464C642.609 179.022 640.554 182.088 637.855 184.664C635.218 187.179 631.998 189.142 628.195 190.552C624.454 191.902 620.191 192.576 615.407 192.576C610.746 192.576 606.453 191.779 602.527 190.184C598.663 188.528 595.29 186.29 592.407 183.468C589.586 180.647 587.378 177.335 585.783 173.532C584.189 169.668 583.391 165.528 583.391 161.112C583.391 156.696 584.189 152.556 585.783 148.692C587.378 144.828 589.617 141.486 592.499 138.664C595.382 135.782 598.786 133.543 602.711 131.948C606.698 130.292 611.022 129.464 615.683 129.464C621.387 129.464 626.601 130.783 631.323 133.42C636.046 136.058 639.787 139.584 642.547 144L630.863 151.268C630.189 149.98 629.299 148.815 628.195 147.772C627.153 146.668 625.987 145.748 624.699 145.012C623.411 144.276 621.97 143.694 620.375 143.264C618.842 142.835 617.186 142.62 615.407 142.62C612.893 142.62 610.531 143.08 608.323 144C606.115 144.92 604.183 146.208 602.527 147.864C600.933 149.459 599.645 151.391 598.663 153.66C597.743 155.868 597.283 158.322 597.283 161.02C597.283 163.719 597.743 166.203 598.663 168.472C599.645 170.68 600.933 172.612 602.527 174.268C604.183 175.863 606.115 177.12 608.323 178.04C610.531 178.96 612.893 179.42 615.407 179.42C618.106 179.42 620.375 179.144 622.215 178.592C624.117 178.04 625.65 177.304 626.815 176.384C628.042 175.464 628.962 174.391 629.575 173.164C630.25 171.938 630.71 170.711 630.955 169.484H615.775V157.892H646.411V163.412Z" fill="black"/>
<path d="M521.37 130.844H536.458L562.678 168.104V130.844H576.662V191.38H562.402L535.354 152.004V191.38H521.37V130.844Z" fill="black"/>
<path d="M511.992 191.38H498.1V130.844H511.992V191.38Z" fill="black"/>
<path d="M422.476 130.844H437.656L453.02 170.772H453.204L468.568 130.844H483.84L489.36 191.38H475.284L473.444 170.772L472.708 152.004L472.524 151.268L459.552 189.632H446.764L433.792 151.912L433.608 151.176L432.872 170.772L430.94 191.38H416.956L422.476 130.844Z" fill="black"/>
<path d="M373.754 169.3H388.658L381.298 147.128H381.114L373.754 169.3ZM373.294 130.844H389.118L412.118 191.38H396.938L392.89 180.892H369.43L365.474 191.38H350.294L373.294 130.844Z" fill="black"/>
<path d="M351.365 163.412C351.242 167.828 350.445 171.846 348.973 175.464C347.562 179.022 345.507 182.088 342.809 184.664C340.171 187.179 336.951 189.142 333.149 190.552C329.407 191.902 325.145 192.576 320.361 192.576C315.699 192.576 311.406 191.779 307.481 190.184C303.617 188.528 300.243 186.29 297.361 183.468C294.539 180.647 292.331 177.335 290.737 173.532C289.142 169.668 288.345 165.528 288.345 161.112C288.345 156.696 289.142 152.556 290.737 148.692C292.331 144.828 294.57 141.486 297.453 138.664C300.335 135.782 303.739 133.543 307.665 131.948C311.651 130.292 315.975 129.464 320.637 129.464C326.341 129.464 331.554 130.783 336.277 133.42C340.999 136.058 344.741 139.584 347.501 144L335.817 151.268C335.142 149.98 334.253 148.815 333.149 147.772C332.106 146.668 330.941 145.748 329.653 145.012C328.365 144.276 326.923 143.694 325.329 143.264C323.795 142.835 322.139 142.62 320.361 142.62C317.846 142.62 315.485 143.08 313.277 144C311.069 144.92 309.137 146.208 307.481 147.864C305.886 149.459 304.598 151.391 303.617 153.66C302.697 155.868 302.237 158.322 302.237 161.02C302.237 163.719 302.697 166.203 303.617 168.472C304.598 170.68 305.886 172.612 307.481 174.268C309.137 175.863 311.069 177.12 313.277 178.04C315.485 178.96 317.846 179.42 320.361 179.42C323.059 179.42 325.329 179.144 327.169 178.592C329.07 178.04 330.603 177.304 331.769 176.384C332.995 175.464 333.915 174.391 334.529 173.164C335.203 171.938 335.663 170.711 335.909 169.484H320.729V157.892H351.365V163.412Z" fill="black"/>
<path d="M625.76 225.852C625.44 225.5 625.024 225.164 624.512 224.844C624 224.492 623.424 224.188 622.784 223.932C622.176 223.676 621.52 223.468 620.816 223.308C620.112 223.148 619.392 223.068 618.656 223.068C617.024 223.068 615.76 223.42 614.864 224.124C613.968 224.796 613.52 225.724 613.52 226.908C613.52 228.124 614 229.068 614.96 229.74C615.92 230.38 617.088 230.924 618.464 231.372C619.68 231.788 620.976 232.22 622.352 232.668C623.76 233.084 625.056 233.66 626.24 234.396C627.456 235.1 628.448 236.012 629.216 237.132C630.016 238.22 630.416 239.66 630.416 241.452C630.416 242.892 630.128 244.204 629.552 245.388C629.008 246.54 628.224 247.532 627.2 248.364C626.176 249.164 624.944 249.788 623.504 250.236C622.064 250.684 620.464 250.908 618.704 250.908C617.328 250.908 616.016 250.764 614.768 250.476C613.52 250.22 612.368 249.884 611.312 249.468C610.288 249.02 609.36 248.54 608.528 248.028C607.728 247.516 607.088 247.004 606.608 246.492L609.872 242.604C610.192 242.924 610.64 243.276 611.216 243.66C611.824 244.044 612.512 244.396 613.28 244.716C614.048 245.036 614.896 245.308 615.824 245.532C616.752 245.756 617.712 245.868 618.704 245.868C620.592 245.868 622.064 245.5 623.12 244.764C624.208 244.028 624.752 243.004 624.752 241.692C624.752 240.988 624.576 240.396 624.224 239.916C623.904 239.404 623.456 238.956 622.88 238.572C622.304 238.188 621.632 237.852 620.864 237.564C620.128 237.276 619.328 237.004 618.464 236.748C617.28 236.396 616.064 235.996 614.816 235.548C613.568 235.1 612.416 234.54 611.36 233.868C610.336 233.164 609.488 232.284 608.816 231.228C608.176 230.172 607.856 228.844 607.856 227.244C607.856 225.836 608.112 224.572 608.624 223.452C609.136 222.3 609.856 221.324 610.784 220.524C611.744 219.724 612.88 219.116 614.192 218.7C615.536 218.252 617.04 218.028 618.704 218.028C619.824 218.028 620.896 218.124 621.92 218.316C622.976 218.508 623.952 218.796 624.848 219.18C625.776 219.532 626.592 219.948 627.296 220.428C628.032 220.908 628.64 221.436 629.12 222.012L625.76 225.852Z" fill="black"/>
<path d="M571.215 234.636C571.215 232.364 571.631 230.22 572.463 228.204C573.327 226.188 574.495 224.444 575.967 222.972C577.471 221.468 579.231 220.284 581.247 219.42C583.295 218.556 585.487 218.124 587.823 218.124C590.159 218.124 592.335 218.556 594.351 219.42C596.399 220.284 598.159 221.468 599.631 222.972C601.135 224.444 602.303 226.188 603.135 228.204C603.999 230.22 604.431 232.364 604.431 234.636C604.431 236.876 603.999 239.004 603.135 241.02C602.303 243.004 601.135 244.748 599.631 246.252C598.159 247.724 596.399 248.892 594.351 249.756C592.335 250.62 590.159 251.052 587.823 251.052C585.487 251.052 583.295 250.62 581.247 249.756C579.231 248.892 577.471 247.724 575.967 246.252C574.495 244.748 573.327 243.004 572.463 241.02C571.631 239.004 571.215 236.876 571.215 234.636ZM576.639 234.636C576.639 236.204 576.927 237.676 577.503 239.052C578.079 240.396 578.863 241.58 579.855 242.604C580.879 243.596 582.063 244.38 583.407 244.956C584.783 245.532 586.255 245.82 587.823 245.82C589.391 245.82 590.847 245.532 592.191 244.956C593.567 244.38 594.751 243.596 595.743 242.604C596.735 241.58 597.519 240.396 598.095 239.052C598.671 237.676 598.959 236.204 598.959 234.636C598.959 233.036 598.671 231.564 598.095 230.22C597.519 228.844 596.735 227.644 595.743 226.62C594.751 225.596 593.567 224.796 592.191 224.22C590.847 223.644 589.391 223.356 587.823 223.356C586.255 223.356 584.783 223.644 583.407 224.22C582.063 224.796 580.879 225.596 579.855 226.62C578.863 227.644 578.079 228.844 577.503 230.22C576.927 231.564 576.639 233.036 576.639 234.636Z" fill="black"/>
<path d="M570.849 223.932H561.057V250.38H555.633V223.932H545.793V218.796H570.849V223.932Z" fill="black"/>
<path d="M514.534 218.796H520.39L536.23 241.452V218.796H541.702V250.38H536.038L519.958 227.148V250.38H514.534V218.796Z" fill="black"/>
<path d="M509.814 250.38H487.206V218.796H509.574V223.836H492.63V231.852H509.142V236.748H492.63V245.34H509.814V250.38Z" fill="black"/>
<path d="M455.127 218.796H460.983L469.431 243.036H469.527L477.975 218.796H483.783L472.359 250.38H466.599L455.127 218.796Z" fill="black"/>
<path d="M452.907 250.38H430.299V218.796H452.667V223.836H435.723V231.852H452.235V236.748H435.723V245.34H452.907V250.38Z" fill="black"/>
<path d="M394.053 239.292H404.613L399.429 225.42H399.333L394.053 239.292ZM396.309 218.796H402.357L414.837 250.38H408.933L406.437 244.044H392.277L389.733 250.38H383.829L396.309 218.796Z" fill="black"/>
<path d="M357.268 250.38V218.796H370.996C372.724 218.796 374.26 219.036 375.604 219.516C376.948 219.996 378.084 220.668 379.012 221.532C379.972 222.396 380.692 223.436 381.172 224.652C381.652 225.836 381.892 227.148 381.892 228.588C381.892 230.7 381.284 232.524 380.068 234.06C378.884 235.564 377.3 236.652 375.316 237.324L382.852 250.38H376.852L369.94 238.14H362.692V250.38H357.268ZM362.692 223.932V233.244H370.996C372.692 233.244 374.02 232.876 374.98 232.14C375.972 231.372 376.468 230.204 376.468 228.636C376.468 227.068 375.972 225.9 374.98 225.132C374.02 224.332 372.692 223.932 370.996 223.932H362.692Z" fill="black"/>
<path d="M333.022 239.292H343.582L338.398 225.42H338.302L333.022 239.292ZM335.278 218.796H341.326L353.806 250.38H347.902L345.406 244.044H331.246L328.702 250.38H322.798L335.278 218.796Z" fill="black"/>
<path d="M306.677 223.932V234.012H313.781C315.477 234.012 316.837 233.564 317.861 232.668C318.885 231.772 319.397 230.54 319.397 228.972C319.397 227.404 318.885 226.172 317.861 225.276C316.837 224.38 315.477 223.932 313.781 223.932H306.677ZM306.677 238.956V250.38H301.253V218.796H313.781C315.509 218.796 317.045 219.068 318.389 219.612C319.765 220.124 320.933 220.844 321.893 221.772C322.853 222.668 323.573 223.74 324.053 224.988C324.565 226.204 324.821 227.532 324.821 228.972C324.821 230.412 324.565 231.74 324.053 232.956C323.573 234.172 322.853 235.228 321.893 236.124C320.933 236.988 319.765 237.676 318.389 238.188C317.045 238.7 315.509 238.956 313.781 238.956H306.677Z" fill="black"/>
</svg>
