<svg width="597" height="222" viewBox="0 0 597 222" fill="none" xmlns="http://www.w3.org/2000/svg">
<path fill-rule="evenodd" clip-rule="evenodd" d="M98.1289 0C102.933 6.41126e-05 107.308 2.52645 116.057 7.58008L178.342 43.5566C187.085 48.6071 191.457 51.1328 193.857 55.291C196.258 59.4492 196.258 64.4983 196.258 74.5957V146.578C196.258 156.675 196.257 161.724 193.857 165.882C191.457 170.04 187.085 172.566 178.342 177.616L116.057 213.593C107.307 218.646 102.933 221.174 98.1289 221.174C93.3248 221.174 88.9496 218.647 80.2002 213.593L17.916 177.616C9.1724 172.566 4.80059 170.04 2.40039 165.882C0.000271797 161.724 3.96388e-10 156.675 0 146.578V74.5957C0 64.4983 0.00019002 59.4492 2.40039 55.291C4.80061 51.1329 9.17249 48.6071 17.916 43.5566L80.2002 7.58008C88.9496 2.52624 93.3248 8.08871e-08 98.1289 0ZM54.8936 56.0908C53.3933 55.225 51.3927 56.3809 47.3926 58.6914L34.7266 66.0068C33.2633 66.852 32.5317 67.275 32.1299 67.9707C31.7281 68.6667 31.7275 69.5122 31.7275 71.2021V145.222C31.7275 146.912 31.7281 147.757 32.1299 148.453C32.5317 149.149 33.2633 149.572 34.7266 150.417L98.2676 187.12C99.732 187.966 100.464 188.389 101.269 188.389C102.073 188.389 102.805 187.966 104.27 187.12L111.405 182.998C113.481 181.799 114.519 181.2 114.894 180.178C115.268 179.156 114.862 178.028 114.051 175.772L100.183 137.215C96.1676 126.052 94.1596 120.47 91.958 120.561C91.6959 120.571 91.4359 120.617 91.1855 120.695C89.0827 121.354 89.082 127.287 89.082 139.15C89.082 143.318 89.0819 145.401 87.8291 146.299C87.6695 146.413 87.4992 146.512 87.3203 146.593C85.9165 147.229 84.1116 146.187 80.5029 144.103L59.3926 131.909C57.9294 131.064 57.1977 130.641 56.7959 129.945C56.3942 129.249 56.3936 128.404 56.3936 126.714V63.8867C56.3936 59.2671 56.3938 56.9568 54.8936 56.0908ZM94.9883 32.7852C94.1842 32.7853 93.4517 33.2078 91.9873 34.0537L84.8516 38.1758C82.7762 39.3746 81.7384 39.974 81.3643 40.9961C80.9902 42.0182 81.3959 43.1461 82.207 45.4014L96.0752 83.959C100.09 95.1226 102.098 100.705 104.3 100.613C104.562 100.602 104.822 100.557 105.072 100.479C107.175 99.8195 107.175 93.8872 107.175 82.0234C107.175 77.8563 107.175 75.7726 108.428 74.875C108.587 74.7605 108.758 74.6621 108.938 74.5811C110.341 73.9453 112.145 74.987 115.754 77.0713L136.864 89.2646C138.328 90.1099 139.06 90.5326 139.462 91.2285C139.864 91.9245 139.863 92.77 139.863 94.46V157.287C139.863 161.907 139.864 164.217 141.364 165.083C142.864 165.948 144.864 164.793 148.864 162.482L161.53 155.167C162.994 154.322 163.726 153.899 164.128 153.203C164.53 152.507 164.529 151.662 164.529 149.972V75.9521C164.529 74.2622 164.53 73.4167 164.128 72.7207C163.726 72.0248 162.994 71.6021 161.53 70.7568L97.9893 34.0537C96.5249 33.2079 95.7924 32.7852 94.9883 32.7852Z" fill="white"/>
<path d="M247.258 24.464H262.346L288.566 61.724V24.464H302.55V85H288.29L261.242 45.624V85H247.258V24.464Z" fill="white"/>
<path d="M357.578 85H311.946V24.464H357.118V37.252H325.838V48.292H355.922V60.62H325.838V72.212H357.578V85Z" fill="white"/>
<path d="M364.579 60.252V24.464H378.471V59.884C378.471 61.356 378.655 62.8893 379.023 64.484C379.452 66.0173 380.158 67.428 381.139 68.716C382.182 70.004 383.531 71.0773 385.187 71.936C386.904 72.7333 388.99 73.132 391.443 73.132C393.958 73.132 396.043 72.7333 397.699 71.936C399.416 71.0773 400.766 70.004 401.747 68.716C402.728 67.428 403.434 66.0173 403.863 64.484C404.292 62.8893 404.507 61.356 404.507 59.884V24.464H418.399V60.252C418.399 64.4227 417.663 68.1333 416.191 71.384C414.719 74.6347 412.726 77.364 410.211 79.572C407.758 81.78 404.906 83.4667 401.655 84.632C398.404 85.736 395 86.288 391.443 86.288C387.886 86.288 384.482 85.736 381.231 84.632C377.98 83.4667 375.128 81.78 372.675 79.572C370.222 77.364 368.259 74.6347 366.787 71.384C365.315 68.1333 364.579 64.4227 364.579 60.252Z" fill="white"/>
<path d="M427.035 85V24.464H455.096C458.776 24.464 461.995 24.9853 464.755 26.028C467.577 27.0093 469.907 28.3893 471.747 30.168C473.649 31.9467 475.059 34.0627 475.979 36.516C476.961 38.908 477.452 41.484 477.452 44.244C477.452 48.0467 476.317 51.42 474.048 54.364C471.84 57.308 468.957 59.5467 465.4 61.08L479.2 85H463.928L451.967 63.288H440.928V85H427.035ZM455.096 37.528H440.928V51.144H455.096C456.322 51.144 457.457 51.0213 458.5 50.776C459.542 50.5307 460.432 50.132 461.168 49.58C461.904 49.028 462.486 48.3227 462.915 47.464C463.345 46.6053 463.56 45.5627 463.56 44.336C463.56 43.1093 463.345 42.0973 462.915 41.3C462.486 40.4413 461.904 39.736 461.168 39.184C460.432 38.5707 459.542 38.1413 458.5 37.896C457.457 37.6507 456.322 37.528 455.096 37.528Z" fill="white"/>
<path d="M481.782 54.824C481.782 50.4693 482.579 46.36 484.174 42.496C485.769 38.632 487.977 35.2893 490.798 32.468C493.681 29.5853 497.054 27.316 500.918 25.66C504.843 24.004 509.137 23.176 513.798 23.176C518.459 23.176 522.722 24.004 526.586 25.66C530.511 27.316 533.885 29.5853 536.706 32.468C539.589 35.2893 541.797 38.632 543.33 42.496C544.925 46.36 545.722 50.4693 545.722 54.824C545.722 59.1173 544.925 63.196 543.33 67.06C541.797 70.8627 539.589 74.2053 536.706 77.088C533.885 79.9093 530.511 82.148 526.586 83.804C522.722 85.46 518.459 86.288 513.798 86.288C509.137 86.288 504.843 85.46 500.918 83.804C497.054 82.148 493.681 79.9093 490.798 77.088C487.977 74.2053 485.769 70.8627 484.174 67.06C482.579 63.196 481.782 59.1173 481.782 54.824ZM495.674 54.732C495.674 57.3693 496.103 59.8227 496.962 62.092C497.882 64.3 499.139 66.232 500.734 67.888C502.39 69.544 504.322 70.832 506.53 71.752C508.738 72.672 511.161 73.132 513.798 73.132C516.435 73.132 518.858 72.672 521.066 71.752C523.274 70.832 525.175 69.544 526.77 67.888C528.365 66.232 529.591 64.3 530.45 62.092C531.37 59.8227 531.83 57.3693 531.83 54.732C531.83 52.0947 531.37 49.672 530.45 47.464C529.591 45.1947 528.365 43.232 526.77 41.576C525.175 39.92 523.274 38.632 521.066 37.712C518.858 36.792 516.435 36.332 513.798 36.332C511.161 36.332 508.738 36.792 506.53 37.712C504.322 38.632 502.39 39.92 500.734 41.576C499.139 43.232 497.882 45.1947 496.962 47.464C496.103 49.672 495.674 52.0947 495.674 54.732Z" fill="white"/>
<path d="M301.702 129.032C301.579 133.448 300.782 137.465 299.31 141.084C297.9 144.641 295.845 147.708 293.146 150.284C290.509 152.799 287.289 154.761 283.486 156.172C279.745 157.521 275.482 158.196 270.698 158.196C266.037 158.196 261.744 157.399 257.818 155.804C253.954 154.148 250.581 151.909 247.698 149.088C244.877 146.267 242.669 142.955 241.074 139.152C239.479 135.288 238.682 131.148 238.682 126.732C238.682 122.316 239.479 118.176 241.074 114.312C242.669 110.448 244.907 107.105 247.79 104.284C250.673 101.401 254.077 99.1627 258.002 97.568C261.989 95.912 266.313 95.084 270.974 95.084C276.678 95.084 281.891 96.4027 286.614 99.04C291.337 101.677 295.078 105.204 297.838 109.62L286.154 116.888C285.48 115.6 284.59 114.435 283.486 113.392C282.444 112.288 281.278 111.368 279.99 110.632C278.702 109.896 277.261 109.313 275.666 108.884C274.133 108.455 272.477 108.24 270.698 108.24C268.183 108.24 265.822 108.7 263.614 109.62C261.406 110.54 259.474 111.828 257.818 113.484C256.224 115.079 254.935 117.011 253.954 119.28C253.034 121.488 252.574 123.941 252.574 126.64C252.574 129.339 253.034 131.823 253.954 134.092C254.935 136.3 256.224 138.232 257.818 139.888C259.474 141.483 261.406 142.74 263.614 143.66C265.822 144.58 268.183 145.04 270.698 145.04C273.397 145.04 275.666 144.764 277.506 144.212C279.407 143.66 280.941 142.924 282.106 142.004C283.333 141.084 284.253 140.011 284.866 138.784C285.541 137.557 286.001 136.331 286.246 135.104H271.066V123.512H301.702V129.032Z" fill="white"/>
<path d="M324.091 134.92H338.995L331.635 112.748H331.451L324.091 134.92ZM323.631 96.464H339.455L362.455 157H347.275L343.227 146.512H319.767L315.811 157H300.631L323.631 96.464Z" fill="white"/>
<path d="M372.814 96.464H387.994L403.358 136.392H403.542L418.906 96.464H434.178L439.698 157H425.622L423.782 136.392L423.046 117.624L422.862 116.888L409.89 155.252H397.102L384.13 117.532L383.946 116.796L383.21 136.392L381.278 157H367.294L372.814 96.464Z" fill="white"/>
<path d="M462.33 157H448.438V96.464H462.33V157Z" fill="white"/>
<path d="M471.707 96.464H486.795L513.015 133.724V96.464H526.999V157H512.739L485.691 117.624V157H471.707V96.464Z" fill="white"/>
<path d="M596.749 129.032C596.626 133.448 595.829 137.465 594.357 141.084C592.946 144.641 590.892 147.708 588.193 150.284C585.556 152.799 582.336 154.761 578.533 156.172C574.792 157.521 570.529 158.196 565.745 158.196C561.084 158.196 556.79 157.399 552.865 155.804C549.001 154.148 545.628 151.909 542.745 149.088C539.924 146.267 537.716 142.955 536.121 139.152C534.526 135.288 533.729 131.148 533.729 126.732C533.729 122.316 534.526 118.176 536.121 114.312C537.716 110.448 539.954 107.105 542.837 104.284C545.72 101.401 549.124 99.1627 553.049 97.568C557.036 95.912 561.36 95.084 566.021 95.084C571.725 95.084 576.938 96.4027 581.661 99.04C586.384 101.677 590.125 105.204 592.885 109.62L581.201 116.888C580.526 115.6 579.637 114.435 578.533 113.392C577.49 112.288 576.325 111.368 575.037 110.632C573.749 109.896 572.308 109.313 570.713 108.884C569.18 108.455 567.524 108.24 565.745 108.24C563.23 108.24 560.869 108.7 558.661 109.62C556.453 110.54 554.521 111.828 552.865 113.484C551.27 115.079 549.982 117.011 549.001 119.28C548.081 121.488 547.621 123.941 547.621 126.64C547.621 129.339 548.081 131.823 549.001 134.092C549.982 136.3 551.27 138.232 552.865 139.888C554.521 141.483 556.453 142.74 558.661 143.66C560.869 144.58 563.23 145.04 565.745 145.04C568.444 145.04 570.713 144.764 572.553 144.212C574.454 143.66 575.988 142.924 577.153 142.004C578.38 141.084 579.3 140.011 579.913 138.784C580.588 137.557 581.048 136.331 581.293 135.104H566.113V123.512H596.749V129.032Z" fill="white"/>
<path d="M257.014 189.552V199.632H264.118C265.814 199.632 267.174 199.184 268.198 198.288C269.222 197.392 269.734 196.16 269.734 194.592C269.734 193.024 269.222 191.792 268.198 190.896C267.174 190 265.814 189.552 264.118 189.552H257.014ZM257.014 204.576V216H251.59V184.416H264.118C265.846 184.416 267.382 184.688 268.726 185.232C270.102 185.744 271.27 186.464 272.23 187.392C273.19 188.288 273.91 189.36 274.39 190.608C274.902 191.824 275.158 193.152 275.158 194.592C275.158 196.032 274.902 197.36 274.39 198.576C273.91 199.792 273.19 200.848 272.23 201.744C271.27 202.608 270.102 203.296 268.726 203.808C267.382 204.32 265.846 204.576 264.118 204.576H257.014Z" fill="white"/>
<path d="M283.359 204.912H293.919L288.735 191.04H288.639L283.359 204.912ZM285.615 184.416H291.663L304.143 216H298.239L295.743 209.664H281.583L279.039 216H273.135L285.615 184.416Z" fill="white"/>
<path d="M307.606 216V184.416H321.334C323.062 184.416 324.598 184.656 325.942 185.136C327.286 185.616 328.422 186.288 329.35 187.152C330.31 188.016 331.03 189.056 331.51 190.272C331.99 191.456 332.23 192.768 332.23 194.208C332.23 196.32 331.622 198.144 330.406 199.68C329.222 201.184 327.638 202.272 325.654 202.944L333.19 216H327.19L320.278 203.76H313.03V216H307.606ZM313.03 189.552V198.864H321.334C323.03 198.864 324.358 198.496 325.318 197.76C326.31 196.992 326.806 195.824 326.806 194.256C326.806 192.688 326.31 191.52 325.318 190.752C324.358 189.952 323.03 189.552 321.334 189.552H313.03Z" fill="white"/>
<path d="M344.391 204.912H354.951L349.767 191.04H349.671L344.391 204.912ZM346.647 184.416H352.695L365.175 216H359.271L356.775 209.664H342.615L340.071 216H334.167L346.647 184.416Z" fill="white"/>
<path d="M403.245 216H380.637V184.416H403.005V189.456H386.061V197.472H402.573V202.368H386.061V210.96H403.245V216Z" fill="white"/>
<path d="M405.465 184.416H411.321L419.769 208.656H419.865L428.313 184.416H434.121L422.697 216H416.937L405.465 184.416Z" fill="white"/>
<path d="M460.151 216H437.543V184.416H459.911V189.456H442.967V197.472H459.479V202.368H442.967V210.96H460.151V216Z" fill="white"/>
<path d="M464.871 184.416H470.727L486.567 207.072V184.416H492.039V216H486.375L470.295 192.768V216H464.871V184.416Z" fill="white"/>
<path d="M521.187 189.552H511.395V216H505.971V189.552H496.131V184.416H521.187V189.552Z" fill="white"/>
<path d="M521.553 200.256C521.553 197.984 521.969 195.84 522.801 193.824C523.665 191.808 524.833 190.064 526.305 188.592C527.809 187.088 529.569 185.904 531.585 185.04C533.633 184.176 535.825 183.744 538.161 183.744C540.497 183.744 542.673 184.176 544.689 185.04C546.737 185.904 548.497 187.088 549.969 188.592C551.473 190.064 552.641 191.808 553.473 193.824C554.337 195.84 554.769 197.984 554.769 200.256C554.769 202.496 554.337 204.624 553.473 206.64C552.641 208.624 551.473 210.368 549.969 211.872C548.497 213.344 546.737 214.512 544.689 215.376C542.673 216.24 540.497 216.672 538.161 216.672C535.825 216.672 533.633 216.24 531.585 215.376C529.569 214.512 527.809 213.344 526.305 211.872C524.833 210.368 523.665 208.624 522.801 206.64C521.969 204.624 521.553 202.496 521.553 200.256ZM526.977 200.256C526.977 201.824 527.265 203.296 527.841 204.672C528.417 206.016 529.201 207.2 530.193 208.224C531.217 209.216 532.401 210 533.745 210.576C535.121 211.152 536.593 211.44 538.161 211.44C539.729 211.44 541.185 211.152 542.529 210.576C543.905 210 545.089 209.216 546.081 208.224C547.073 207.2 547.857 206.016 548.433 204.672C549.009 203.296 549.297 201.824 549.297 200.256C549.297 198.656 549.009 197.184 548.433 195.84C547.857 194.464 547.073 193.264 546.081 192.24C545.089 191.216 543.905 190.416 542.529 189.84C541.185 189.264 539.729 188.976 538.161 188.976C536.593 188.976 535.121 189.264 533.745 189.84C532.401 190.416 531.217 191.216 530.193 192.24C529.201 193.264 528.417 194.464 527.841 195.84C527.265 197.184 526.977 198.656 526.977 200.256Z" fill="white"/>
<path d="M576.098 191.472C575.778 191.12 575.362 190.784 574.85 190.464C574.338 190.112 573.762 189.808 573.122 189.552C572.514 189.296 571.858 189.088 571.154 188.928C570.45 188.768 569.73 188.688 568.994 188.688C567.362 188.688 566.098 189.04 565.202 189.744C564.306 190.416 563.858 191.344 563.858 192.528C563.858 193.744 564.338 194.688 565.298 195.36C566.258 196 567.426 196.544 568.802 196.992C570.018 197.408 571.314 197.84 572.69 198.288C574.098 198.704 575.394 199.28 576.578 200.016C577.794 200.72 578.786 201.632 579.554 202.752C580.354 203.84 580.754 205.28 580.754 207.072C580.754 208.512 580.466 209.824 579.89 211.008C579.346 212.16 578.562 213.152 577.538 213.984C576.514 214.784 575.282 215.408 573.842 215.856C572.402 216.304 570.802 216.528 569.042 216.528C567.666 216.528 566.354 216.384 565.106 216.096C563.858 215.84 562.706 215.504 561.65 215.088C560.626 214.64 559.698 214.16 558.866 213.648C558.066 213.136 557.426 212.624 556.946 212.112L560.21 208.224C560.53 208.544 560.978 208.896 561.554 209.28C562.162 209.664 562.85 210.016 563.618 210.336C564.386 210.656 565.234 210.928 566.162 211.152C567.09 211.376 568.05 211.488 569.042 211.488C570.93 211.488 572.402 211.12 573.458 210.384C574.546 209.648 575.09 208.624 575.09 207.312C575.09 206.608 574.914 206.016 574.562 205.536C574.242 205.024 573.794 204.576 573.218 204.192C572.642 203.808 571.97 203.472 571.202 203.184C570.466 202.896 569.666 202.624 568.802 202.368C567.618 202.016 566.402 201.616 565.154 201.168C563.906 200.72 562.754 200.16 561.698 199.488C560.674 198.784 559.826 197.904 559.154 196.848C558.514 195.792 558.194 194.464 558.194 192.864C558.194 191.456 558.45 190.192 558.962 189.072C559.474 187.92 560.194 186.944 561.122 186.144C562.082 185.344 563.218 184.736 564.53 184.32C565.874 183.872 567.378 183.648 569.042 183.648C570.162 183.648 571.234 183.744 572.258 183.936C573.314 184.128 574.29 184.416 575.186 184.8C576.114 185.152 576.93 185.568 577.634 186.048C578.37 186.528 578.978 187.056 579.458 187.632L576.098 191.472Z" fill="white"/>
</svg>
