<svg width="735" height="292" viewBox="0 0 735 292" fill="none" xmlns="http://www.w3.org/2000/svg">
<path d="M647.389 0C669.222 7.2532e-05 688.047 15.3485 692.445 36.7344L733.526 236.495C739.394 265.028 717.599 291.761 688.469 291.761H107.621C102.353 291.761 97.1774 290.373 92.6156 287.738L14.9948 242.903C5.7157 237.544 0 227.642 0 216.926V74.8352C0 64.1193 5.7158 54.2171 14.995 48.8573L92.6176 4.02211C97.1794 1.38721 102.355 0 107.623 0H647.389Z" fill="white"/>
<path d="M129.863 39.9618C138.612 34.9079 142.987 32.381 147.791 32.381C152.595 32.381 156.97 34.9079 165.719 39.9618L228.004 75.9385C236.748 80.989 241.12 83.5142 243.52 87.6725C245.92 91.8307 245.92 96.8794 245.92 106.977V178.959C245.92 189.057 245.92 194.105 243.52 198.264C241.12 202.422 236.748 204.947 228.004 209.997L165.719 245.974C156.97 251.028 152.595 253.555 147.791 253.555C142.987 253.555 138.612 251.028 129.863 245.974L67.5782 209.997C58.8345 204.947 54.4627 202.422 52.0625 198.264C49.6623 194.105 49.6623 189.057 49.6623 178.959V106.977C49.6623 96.8794 49.6623 91.8307 52.0625 87.6725C54.4627 83.5142 58.8345 80.989 67.5782 75.9385L129.863 39.9618Z" fill="black"/>
<path d="M106.056 159.095C106.056 160.785 106.056 161.63 106.458 162.326C106.86 163.022 107.592 163.445 109.055 164.29L130.166 176.483C133.774 178.568 135.579 179.61 136.983 178.974C137.162 178.893 137.332 178.795 137.492 178.68C138.745 177.783 138.745 175.699 138.745 171.531C138.745 159.668 138.745 153.736 140.848 153.077C141.098 152.998 141.358 152.953 141.62 152.942C143.822 152.851 145.829 158.432 149.845 169.596L163.713 208.153C164.524 210.409 164.93 211.536 164.556 212.559C164.181 213.581 163.144 214.18 161.068 215.379L153.932 219.501C152.468 220.347 151.735 220.77 150.931 220.77C150.127 220.77 149.395 220.347 147.93 219.501L84.3891 182.798C82.9256 181.953 82.1938 181.53 81.792 180.834C81.3902 180.138 81.3902 179.293 81.3902 177.602V103.584C81.3902 101.893 81.3902 101.048 81.792 100.352C82.1938 99.6562 82.9256 99.2335 84.3893 98.3881L97.0553 91.0722C101.056 88.7617 103.056 87.6064 104.556 88.4724C106.056 89.3383 106.056 91.6482 106.056 96.2678V159.095Z" fill="white"/>
<path d="M189.526 126.842C189.526 125.151 189.526 124.306 189.124 123.61C188.722 122.914 187.991 122.491 186.527 121.646L165.417 109.453C161.808 107.368 160.004 106.326 158.6 106.962C158.421 107.043 158.25 107.141 158.09 107.256C156.838 108.153 156.838 110.237 156.838 114.405C156.838 126.268 156.838 132.2 154.735 132.859C154.484 132.938 154.224 132.983 153.962 132.994C151.76 133.086 149.753 127.504 145.738 116.34L131.87 77.7829C131.058 75.5273 130.653 74.3996 131.027 73.3774C131.401 72.3552 132.439 71.7557 134.514 70.5567L141.65 66.435C143.115 65.5889 143.847 65.1659 144.651 65.1659C145.455 65.1659 146.188 65.5889 147.652 66.4349L211.193 103.138C212.657 103.984 213.389 104.406 213.79 105.102C214.192 105.798 214.192 106.643 214.192 108.334V182.352C214.192 184.043 214.192 184.888 213.79 185.584C213.388 186.28 212.657 186.703 211.193 187.548L198.527 194.864C194.527 197.174 192.527 198.33 191.026 197.464C189.526 196.598 189.526 194.288 189.526 189.668V126.842Z" fill="white"/>
<path d="M531.444 89.2054C531.444 84.8508 532.242 80.7414 533.836 76.8774C535.431 73.0134 537.639 69.6708 540.46 66.8494C543.343 63.9668 546.716 61.6974 550.58 60.0414C554.506 58.3854 558.799 57.5574 563.46 57.5574C568.122 57.5574 572.384 58.3854 576.248 60.0414C580.174 61.6974 583.547 63.9668 586.368 66.8494C589.251 69.6708 591.459 73.0134 592.992 76.8774C594.587 80.7414 595.384 84.8508 595.384 89.2054C595.384 93.4988 594.587 97.5774 592.992 101.441C591.459 105.244 589.251 108.587 586.368 111.469C583.547 114.291 580.174 116.529 576.248 118.185C572.384 119.841 568.122 120.669 563.46 120.669C558.799 120.669 554.506 119.841 550.58 118.185C546.716 116.529 543.343 114.291 540.46 111.469C537.639 108.587 535.431 105.244 533.836 101.441C532.242 97.5774 531.444 93.4988 531.444 89.2054ZM545.336 89.1134C545.336 91.7508 545.766 94.2041 546.624 96.4734C547.544 98.6814 548.802 100.613 550.396 102.269C552.052 103.925 553.984 105.213 556.192 106.133C558.4 107.053 560.823 107.513 563.46 107.513C566.098 107.513 568.52 107.053 570.728 106.133C572.936 105.213 574.838 103.925 576.432 102.269C578.027 100.613 579.254 98.6814 580.112 96.4734C581.032 94.2041 581.492 91.7508 581.492 89.1134C581.492 86.4761 581.032 84.0534 580.112 81.8454C579.254 79.5761 578.027 77.6134 576.432 75.9574C574.838 74.3014 572.936 73.0134 570.728 72.0934C568.52 71.1734 566.098 70.7134 563.46 70.7134C560.823 70.7134 558.4 71.1734 556.192 72.0934C553.984 73.0134 552.052 74.3014 550.396 75.9574C548.802 77.6134 547.544 79.5761 546.624 81.8454C545.766 84.0534 545.336 86.4761 545.336 89.1134Z" fill="black"/>
<path d="M476.698 119.381V58.8454H504.758C508.438 58.8454 511.658 59.3668 514.418 60.4094C517.239 61.3908 519.57 62.7708 521.41 64.5494C523.311 66.3281 524.722 68.4441 525.642 70.8974C526.623 73.2894 527.114 75.8654 527.114 78.6254C527.114 82.4281 525.979 85.8014 523.71 88.7454C521.502 91.6894 518.619 93.9281 515.062 95.4614L528.862 119.381H513.59L501.63 97.6694H490.59V119.381H476.698ZM504.758 71.9094H490.59V85.5254H504.758C505.984 85.5254 507.119 85.4028 508.162 85.1574C509.204 84.9121 510.094 84.5134 510.83 83.9614C511.566 83.4094 512.148 82.7041 512.578 81.8454C513.007 80.9868 513.222 79.9441 513.222 78.7174C513.222 77.4908 513.007 76.4788 512.578 75.6814C512.148 74.8228 511.566 74.1174 510.83 73.5654C510.094 72.9521 509.204 72.5228 508.162 72.2774C507.119 72.0321 505.984 71.9094 504.758 71.9094Z" fill="black"/>
<path d="M414.241 94.6334V58.8454H428.133V94.2654C428.133 95.7374 428.317 97.2708 428.685 98.8654C429.115 100.399 429.82 101.809 430.801 103.097C431.844 104.385 433.193 105.459 434.849 106.317C436.567 107.115 438.652 107.513 441.105 107.513C443.62 107.513 445.705 107.115 447.361 106.317C449.079 105.459 450.428 104.385 451.409 103.097C452.391 101.809 453.096 100.399 453.525 98.8654C453.955 97.2708 454.169 95.7374 454.169 94.2654V58.8454H468.061V94.6334C468.061 98.8041 467.325 102.515 465.853 105.765C464.381 109.016 462.388 111.745 459.873 113.953C457.42 116.161 454.568 117.848 451.317 119.013C448.067 120.117 444.663 120.669 441.105 120.669C437.548 120.669 434.144 120.117 430.893 119.013C427.643 117.848 424.791 116.161 422.337 113.953C419.884 111.745 417.921 109.016 416.449 105.765C414.977 102.515 414.241 98.8041 414.241 94.6334Z" fill="black"/>
<path d="M407.24 119.381H361.608V58.8454H406.78V71.6334H375.5V82.6734H405.584V95.0014H375.5V106.593H407.24V119.381Z" fill="black"/>
<path d="M296.92 58.8454H312.008L338.228 96.1054V58.8454H352.212V119.381H337.952L310.904 80.0054V119.381H296.92V58.8454Z" fill="black"/>
<path d="M646.411 163.413C646.289 167.829 645.491 171.847 644.019 175.465C642.609 179.023 640.554 182.089 637.855 184.665C635.218 187.18 631.998 189.143 628.195 190.553C624.454 191.903 620.191 192.577 615.407 192.577C610.746 192.577 606.453 191.78 602.527 190.185C598.663 188.529 595.29 186.291 592.407 183.469C589.586 180.648 587.378 177.336 585.783 173.533C584.189 169.669 583.391 165.529 583.391 161.113C583.391 156.697 584.189 152.557 585.783 148.693C587.378 144.829 589.617 141.487 592.499 138.665C595.382 135.783 598.786 133.544 602.711 131.949C606.698 130.293 611.022 129.465 615.683 129.465C621.387 129.465 626.601 130.784 631.323 133.421C636.046 136.059 639.787 139.585 642.547 144.001L630.863 151.269C630.189 149.981 629.299 148.816 628.195 147.773C627.153 146.669 625.987 145.749 624.699 145.013C623.411 144.277 621.97 143.695 620.375 143.265C618.842 142.836 617.186 142.621 615.407 142.621C612.893 142.621 610.531 143.081 608.323 144.001C606.115 144.921 604.183 146.209 602.527 147.865C600.933 149.46 599.645 151.392 598.663 153.661C597.743 155.869 597.283 158.323 597.283 161.021C597.283 163.72 597.743 166.204 598.663 168.473C599.645 170.681 600.933 172.613 602.527 174.269C604.183 175.864 606.115 177.121 608.323 178.041C610.531 178.961 612.893 179.421 615.407 179.421C618.106 179.421 620.375 179.145 622.215 178.593C624.117 178.041 625.65 177.305 626.815 176.385C628.042 175.465 628.962 174.392 629.575 173.165C630.25 171.939 630.71 170.712 630.955 169.485H615.775V157.893H646.411V163.413Z" fill="black"/>
<path d="M521.37 130.845H536.458L562.678 168.105V130.845H576.662V191.381H562.402L535.354 152.005V191.381H521.37V130.845Z" fill="black"/>
<path d="M511.992 191.381H498.1V130.845H511.992V191.381Z" fill="black"/>
<path d="M422.476 130.845H437.656L453.02 170.773H453.204L468.568 130.845H483.84L489.36 191.381H475.284L473.444 170.773L472.708 152.005L472.524 151.269L459.552 189.633H446.764L433.792 151.913L433.608 151.177L432.872 170.773L430.94 191.381H416.956L422.476 130.845Z" fill="black"/>
<path d="M373.754 169.301H388.658L381.298 147.129H381.114L373.754 169.301ZM373.294 130.845H389.118L412.118 191.381H396.938L392.89 180.893H369.43L365.474 191.381H350.294L373.294 130.845Z" fill="black"/>
<path d="M351.364 163.413C351.242 167.829 350.444 171.847 348.972 175.465C347.562 179.023 345.507 182.089 342.808 184.665C340.171 187.18 336.951 189.143 333.148 190.553C329.407 191.903 325.144 192.577 320.36 192.577C315.699 192.577 311.406 191.78 307.48 190.185C303.616 188.529 300.243 186.291 297.36 183.469C294.539 180.648 292.331 177.336 290.736 173.533C289.142 169.669 288.344 165.529 288.344 161.113C288.344 156.697 289.142 152.557 290.736 148.693C292.331 144.829 294.57 141.487 297.452 138.665C300.335 135.783 303.739 133.544 307.664 131.949C311.651 130.293 315.975 129.465 320.636 129.465C326.34 129.465 331.554 130.784 336.276 133.421C340.999 136.059 344.74 139.585 347.5 144.001L335.816 151.269C335.142 149.981 334.252 148.816 333.148 147.773C332.106 146.669 330.94 145.749 329.652 145.013C328.364 144.277 326.923 143.695 325.328 143.265C323.795 142.836 322.139 142.621 320.36 142.621C317.846 142.621 315.484 143.081 313.276 144.001C311.068 144.921 309.136 146.209 307.48 147.865C305.886 149.46 304.598 151.392 303.616 153.661C302.696 155.869 302.236 158.323 302.236 161.021C302.236 163.72 302.696 166.204 303.616 168.473C304.598 170.681 305.886 172.613 307.48 174.269C309.136 175.864 311.068 177.121 313.276 178.041C315.484 178.961 317.846 179.421 320.36 179.421C323.059 179.421 325.328 179.145 327.168 178.593C329.07 178.041 330.603 177.305 331.768 176.385C332.995 175.465 333.915 174.392 334.528 173.165C335.203 171.939 335.663 170.712 335.908 169.485H320.728V157.893H351.364V163.413Z" fill="black"/>
<path d="M567.888 223.461C567.621 223.168 567.274 222.875 566.848 222.581C566.448 222.288 565.981 222.035 565.448 221.821C564.914 221.581 564.341 221.395 563.728 221.261C563.114 221.128 562.488 221.061 561.848 221.061C560.328 221.061 559.154 221.381 558.328 222.021C557.501 222.661 557.088 223.541 557.088 224.661C557.088 225.248 557.208 225.755 557.448 226.181C557.688 226.608 558.021 226.995 558.448 227.341C558.874 227.661 559.367 227.941 559.927 228.181C560.487 228.421 561.088 228.648 561.728 228.861C562.741 229.208 563.807 229.568 564.927 229.941C566.074 230.315 567.114 230.795 568.047 231.381C569.007 231.941 569.794 232.675 570.408 233.581C571.048 234.488 571.368 235.661 571.368 237.101C571.368 238.275 571.141 239.341 570.688 240.301C570.234 241.235 569.581 242.035 568.728 242.701C567.901 243.368 566.914 243.888 565.768 244.261C564.621 244.608 563.341 244.781 561.927 244.781C560.754 244.781 559.648 244.661 558.608 244.421C557.568 244.208 556.621 243.928 555.768 243.581C554.941 243.208 554.221 242.821 553.608 242.421C552.994 241.995 552.514 241.608 552.167 241.261L554.488 238.461C554.728 238.701 555.074 238.981 555.528 239.301C556.008 239.595 556.568 239.888 557.208 240.181C557.848 240.448 558.568 240.688 559.368 240.901C560.168 241.088 561.021 241.181 561.927 241.181C563.607 241.181 564.941 240.835 565.927 240.141C566.941 239.448 567.448 238.501 567.448 237.301C567.448 236.635 567.288 236.075 566.968 235.621C566.674 235.141 566.261 234.728 565.728 234.381C565.194 234.035 564.581 233.728 563.888 233.461C563.221 233.195 562.501 232.941 561.728 232.701C560.741 232.381 559.741 232.048 558.728 231.701C557.714 231.328 556.794 230.861 555.968 230.301C555.141 229.715 554.461 228.995 553.927 228.141C553.421 227.261 553.167 226.181 553.167 224.901C553.167 223.755 553.368 222.728 553.768 221.821C554.194 220.888 554.781 220.101 555.528 219.461C556.301 218.821 557.221 218.328 558.287 217.981C559.381 217.635 560.581 217.461 561.888 217.461C563.701 217.461 565.354 217.768 566.848 218.381C568.368 218.968 569.514 219.728 570.287 220.661L567.888 223.461Z" fill="black"/>
<path d="M522.478 231.261C522.478 229.368 522.838 227.581 523.558 225.901C524.278 224.221 525.251 222.768 526.478 221.541C527.731 220.288 529.198 219.301 530.878 218.581C532.558 217.861 534.358 217.501 536.278 217.501C538.198 217.501 539.998 217.861 541.678 218.581C543.358 219.301 544.811 220.288 546.038 221.541C547.291 222.768 548.278 224.221 548.998 225.901C549.718 227.581 550.078 229.368 550.078 231.261C550.078 233.128 549.718 234.901 548.998 236.581C548.278 238.235 547.291 239.688 546.038 240.941C544.811 242.168 543.358 243.141 541.678 243.861C539.998 244.581 538.198 244.941 536.278 244.941C534.358 244.941 532.558 244.581 530.878 243.861C529.198 243.141 527.731 242.168 526.478 240.941C525.251 239.688 524.278 238.235 523.558 236.581C522.838 234.901 522.478 233.128 522.478 231.261ZM526.238 231.261C526.238 232.648 526.492 233.955 526.998 235.181C527.532 236.381 528.251 237.435 529.158 238.341C530.065 239.248 531.131 239.968 532.358 240.501C533.585 241.008 534.891 241.261 536.278 241.261C537.665 241.261 538.958 241.008 540.158 240.501C541.385 239.968 542.451 239.248 543.358 238.341C544.265 237.435 544.971 236.381 545.478 235.181C546.011 233.955 546.278 232.648 546.278 231.261C546.278 229.848 546.011 228.528 545.478 227.301C544.971 226.075 544.265 225.008 543.358 224.101C542.451 223.195 541.385 222.488 540.158 221.981C538.958 221.448 537.665 221.181 536.278 221.181C534.891 221.181 533.585 221.448 532.358 221.981C531.131 222.488 530.065 223.195 529.158 224.101C528.251 225.008 527.532 226.075 526.998 227.301C526.492 228.528 526.238 229.848 526.238 231.261Z" fill="black"/>
<path d="M522.201 221.621H513.881V244.381H510.121V221.621H501.721V218.061H522.201V221.621Z" fill="black"/>
<path d="M476.145 218.061H480.185L494.305 238.261V218.061H498.065V244.381H494.105L479.905 223.901V244.381H476.145V218.061Z" fill="black"/>
<path d="M471.887 244.381H453.567V218.061H471.687V221.581H457.327V229.181H471.447V232.661H457.327V240.861H471.887V244.381Z" fill="black"/>
<path d="M427.259 218.061H431.259L438.859 239.261H438.939L446.499 218.061H450.499L440.899 244.381H436.899L427.259 218.061Z" fill="black"/>
<path d="M425.246 244.381H406.926V218.061H425.046V221.581H410.686V229.181H424.806V232.661H410.686V240.861H425.246V244.381Z" fill="black"/>
<path d="M379.03 218.061H383.19L393.79 244.381H389.71L387.47 238.741H374.83L372.51 244.381H368.43L379.03 218.061ZM376.15 235.341H386.11L381.19 222.781H381.11L376.15 235.341Z" fill="black"/>
<path d="M346.887 244.381V218.061H357.927C359.287 218.061 360.514 218.248 361.607 218.621C362.7 218.995 363.62 219.528 364.367 220.221C365.14 220.915 365.727 221.755 366.127 222.741C366.527 223.701 366.727 224.781 366.727 225.981C366.727 227.821 366.207 229.368 365.167 230.621C364.154 231.848 362.794 232.728 361.087 233.261L367.527 244.381H363.327L357.287 233.781H350.647V244.381H346.887ZM350.647 221.621V230.341H357.927C359.527 230.341 360.754 229.981 361.607 229.261C362.487 228.541 362.927 227.461 362.927 226.021C362.927 224.581 362.487 223.488 361.607 222.741C360.754 221.995 359.527 221.621 357.927 221.621H350.647Z" fill="black"/>
<path d="M328.991 218.061H333.151L343.751 244.381H339.671L337.431 238.741H324.791L322.471 244.381H318.391L328.991 218.061ZM326.111 235.341H336.071L331.151 222.781H331.071L326.111 235.341Z" fill="black"/>
<path d="M304.748 221.621V231.021H310.988C312.562 231.021 313.815 230.608 314.748 229.781C315.682 228.928 316.148 227.781 316.148 226.341C316.148 224.901 315.682 223.755 314.748 222.901C313.815 222.048 312.562 221.621 310.988 221.621H304.748ZM304.748 234.501V244.381H300.988V218.061H310.988C312.348 218.061 313.575 218.275 314.668 218.701C315.762 219.101 316.695 219.675 317.468 220.421C318.268 221.168 318.868 222.048 319.268 223.061C319.695 224.048 319.908 225.141 319.908 226.341C319.908 227.541 319.695 228.648 319.268 229.661C318.868 230.648 318.268 231.501 317.468 232.221C316.695 232.941 315.762 233.501 314.668 233.901C313.575 234.301 312.348 234.501 310.988 234.501H304.748Z" fill="black"/>
</svg>
