<svg width="597" height="222" viewBox="0 0 597 222" fill="none" xmlns="http://www.w3.org/2000/svg">
<path fill-rule="evenodd" clip-rule="evenodd" d="M98.1289 0C102.933 6.41126e-05 107.308 2.52645 116.057 7.58008L178.342 43.5566C187.085 48.6071 191.457 51.1328 193.857 55.291C196.258 59.4492 196.258 64.4983 196.258 74.5957V146.578C196.258 156.675 196.257 161.724 193.857 165.882C191.457 170.04 187.085 172.566 178.342 177.616L116.057 213.593C107.307 218.646 102.933 221.174 98.1289 221.174C93.3248 221.174 88.9496 218.647 80.2002 213.593L17.916 177.616C9.1724 172.566 4.80059 170.04 2.40039 165.882C0.000271797 161.724 3.96388e-10 156.675 0 146.578V74.5957C0 64.4983 0.00019002 59.4492 2.40039 55.291C4.80061 51.1329 9.17249 48.6071 17.916 43.5566L80.2002 7.58008C88.9496 2.52624 93.3248 8.08871e-08 98.1289 0ZM54.8936 56.0908C53.3933 55.225 51.3927 56.3809 47.3926 58.6914L34.7266 66.0068C33.2633 66.852 32.5317 67.275 32.1299 67.9707C31.7281 68.6667 31.7275 69.5122 31.7275 71.2021V145.222C31.7275 146.912 31.7281 147.757 32.1299 148.453C32.5317 149.149 33.2633 149.572 34.7266 150.417L98.2676 187.12C99.732 187.966 100.464 188.389 101.269 188.389C102.073 188.389 102.805 187.966 104.27 187.12L111.405 182.998C113.481 181.799 114.519 181.2 114.894 180.178C115.268 179.156 114.862 178.028 114.051 175.772L100.183 137.215C96.1676 126.052 94.1596 120.47 91.958 120.561C91.6959 120.571 91.4359 120.617 91.1855 120.695C89.0827 121.354 89.082 127.287 89.082 139.15C89.082 143.318 89.0819 145.401 87.8291 146.299C87.6695 146.413 87.4992 146.512 87.3203 146.593C85.9165 147.229 84.1116 146.187 80.5029 144.103L59.3926 131.909C57.9294 131.064 57.1977 130.641 56.7959 129.945C56.3942 129.249 56.3936 128.404 56.3936 126.714V63.8867C56.3936 59.2671 56.3938 56.9568 54.8936 56.0908ZM94.9883 32.7852C94.1842 32.7853 93.4517 33.2078 91.9873 34.0537L84.8516 38.1758C82.7762 39.3746 81.7384 39.974 81.3643 40.9961C80.9902 42.0182 81.3959 43.1461 82.207 45.4014L96.0752 83.959C100.09 95.1226 102.098 100.705 104.3 100.613C104.562 100.602 104.822 100.557 105.072 100.479C107.175 99.8195 107.175 93.8872 107.175 82.0234C107.175 77.8563 107.175 75.7726 108.428 74.875C108.587 74.7605 108.758 74.6621 108.938 74.5811C110.341 73.9453 112.145 74.987 115.754 77.0713L136.864 89.2646C138.328 90.1099 139.06 90.5326 139.462 91.2285C139.864 91.9245 139.863 92.77 139.863 94.46V157.287C139.863 161.907 139.864 164.217 141.364 165.083C142.864 165.948 144.864 164.793 148.864 162.482L161.53 155.167C162.994 154.322 163.726 153.899 164.128 153.203C164.53 152.507 164.529 151.662 164.529 149.972V75.9521C164.529 74.2622 164.53 73.4167 164.128 72.7207C163.726 72.0248 162.994 71.6021 161.53 70.7568L97.9893 34.0537C96.5249 33.2079 95.7924 32.7852 94.9883 32.7852Z" fill="white"/>
<path d="M247.258 24.464H262.346L288.566 61.724V24.464H302.55V85H288.29L261.242 45.624V85H247.258V24.464Z" fill="white"/>
<path d="M357.578 85H311.946V24.464H357.118V37.252H325.838V48.292H355.922V60.62H325.838V72.212H357.578V85Z" fill="white"/>
<path d="M364.579 60.252V24.464H378.471V59.884C378.471 61.356 378.655 62.8893 379.023 64.484C379.452 66.0173 380.158 67.428 381.139 68.716C382.182 70.004 383.531 71.0773 385.187 71.936C386.904 72.7333 388.99 73.132 391.443 73.132C393.958 73.132 396.043 72.7333 397.699 71.936C399.416 71.0773 400.766 70.004 401.747 68.716C402.728 67.428 403.434 66.0173 403.863 64.484C404.292 62.8893 404.507 61.356 404.507 59.884V24.464H418.399V60.252C418.399 64.4227 417.663 68.1333 416.191 71.384C414.719 74.6347 412.726 77.364 410.211 79.572C407.758 81.78 404.906 83.4667 401.655 84.632C398.404 85.736 395 86.288 391.443 86.288C387.886 86.288 384.482 85.736 381.231 84.632C377.98 83.4667 375.128 81.78 372.675 79.572C370.222 77.364 368.259 74.6347 366.787 71.384C365.315 68.1333 364.579 64.4227 364.579 60.252Z" fill="white"/>
<path d="M427.035 85V24.464H455.096C458.776 24.464 461.995 24.9853 464.755 26.028C467.577 27.0093 469.907 28.3893 471.747 30.168C473.649 31.9467 475.059 34.0627 475.979 36.516C476.961 38.908 477.452 41.484 477.452 44.244C477.452 48.0467 476.317 51.42 474.048 54.364C471.84 57.308 468.957 59.5467 465.4 61.08L479.2 85H463.928L451.967 63.288H440.928V85H427.035ZM455.096 37.528H440.928V51.144H455.096C456.322 51.144 457.457 51.0213 458.5 50.776C459.542 50.5307 460.432 50.132 461.168 49.58C461.904 49.028 462.486 48.3227 462.915 47.464C463.345 46.6053 463.56 45.5627 463.56 44.336C463.56 43.1093 463.345 42.0973 462.915 41.3C462.486 40.4413 461.904 39.736 461.168 39.184C460.432 38.5707 459.542 38.1413 458.5 37.896C457.457 37.6507 456.322 37.528 455.096 37.528Z" fill="white"/>
<path d="M481.782 54.824C481.782 50.4693 482.579 46.36 484.174 42.496C485.769 38.632 487.977 35.2893 490.798 32.468C493.681 29.5853 497.054 27.316 500.918 25.66C504.843 24.004 509.137 23.176 513.798 23.176C518.459 23.176 522.722 24.004 526.586 25.66C530.511 27.316 533.885 29.5853 536.706 32.468C539.589 35.2893 541.797 38.632 543.33 42.496C544.925 46.36 545.722 50.4693 545.722 54.824C545.722 59.1173 544.925 63.196 543.33 67.06C541.797 70.8627 539.589 74.2053 536.706 77.088C533.885 79.9093 530.511 82.148 526.586 83.804C522.722 85.46 518.459 86.288 513.798 86.288C509.137 86.288 504.843 85.46 500.918 83.804C497.054 82.148 493.681 79.9093 490.798 77.088C487.977 74.2053 485.769 70.8627 484.174 67.06C482.579 63.196 481.782 59.1173 481.782 54.824ZM495.674 54.732C495.674 57.3693 496.103 59.8227 496.962 62.092C497.882 64.3 499.139 66.232 500.734 67.888C502.39 69.544 504.322 70.832 506.53 71.752C508.738 72.672 511.161 73.132 513.798 73.132C516.435 73.132 518.858 72.672 521.066 71.752C523.274 70.832 525.175 69.544 526.77 67.888C528.365 66.232 529.591 64.3 530.45 62.092C531.37 59.8227 531.83 57.3693 531.83 54.732C531.83 52.0947 531.37 49.672 530.45 47.464C529.591 45.1947 528.365 43.232 526.77 41.576C525.175 39.92 523.274 38.632 521.066 37.712C518.858 36.792 516.435 36.332 513.798 36.332C511.161 36.332 508.738 36.792 506.53 37.712C504.322 38.632 502.39 39.92 500.734 41.576C499.139 43.232 497.882 45.1947 496.962 47.464C496.103 49.672 495.674 52.0947 495.674 54.732Z" fill="white"/>
<path d="M301.702 129.032C301.579 133.448 300.782 137.465 299.31 141.084C297.9 144.641 295.845 147.708 293.146 150.284C290.509 152.799 287.289 154.761 283.486 156.172C279.745 157.521 275.482 158.196 270.698 158.196C266.037 158.196 261.744 157.399 257.818 155.804C253.954 154.148 250.581 151.909 247.698 149.088C244.877 146.267 242.669 142.955 241.074 139.152C239.479 135.288 238.682 131.148 238.682 126.732C238.682 122.316 239.479 118.176 241.074 114.312C242.669 110.448 244.907 107.105 247.79 104.284C250.673 101.401 254.077 99.1627 258.002 97.568C261.989 95.912 266.313 95.084 270.974 95.084C276.678 95.084 281.891 96.4027 286.614 99.04C291.337 101.677 295.078 105.204 297.838 109.62L286.154 116.888C285.48 115.6 284.59 114.435 283.486 113.392C282.444 112.288 281.278 111.368 279.99 110.632C278.702 109.896 277.261 109.313 275.666 108.884C274.133 108.455 272.477 108.24 270.698 108.24C268.183 108.24 265.822 108.7 263.614 109.62C261.406 110.54 259.474 111.828 257.818 113.484C256.224 115.079 254.935 117.011 253.954 119.28C253.034 121.488 252.574 123.941 252.574 126.64C252.574 129.339 253.034 131.823 253.954 134.092C254.935 136.3 256.224 138.232 257.818 139.888C259.474 141.483 261.406 142.74 263.614 143.66C265.822 144.58 268.183 145.04 270.698 145.04C273.397 145.04 275.666 144.764 277.506 144.212C279.407 143.66 280.941 142.924 282.106 142.004C283.333 141.084 284.253 140.011 284.866 138.784C285.541 137.557 286.001 136.331 286.246 135.104H271.066V123.512H301.702V129.032Z" fill="white"/>
<path d="M324.091 134.92H338.995L331.635 112.748H331.451L324.091 134.92ZM323.631 96.464H339.455L362.455 157H347.275L343.227 146.512H319.767L315.811 157H300.631L323.631 96.464Z" fill="white"/>
<path d="M372.814 96.464H387.994L403.358 136.392H403.542L418.906 96.464H434.178L439.698 157H425.622L423.782 136.392L423.046 117.624L422.862 116.888L409.89 155.252H397.102L384.13 117.532L383.946 116.796L383.21 136.392L381.278 157H367.294L372.814 96.464Z" fill="white"/>
<path d="M462.33 157H448.438V96.464H462.33V157Z" fill="white"/>
<path d="M471.707 96.464H486.795L513.015 133.724V96.464H526.999V157H512.739L485.691 117.624V157H471.707V96.464Z" fill="white"/>
<path d="M596.749 129.032C596.626 133.448 595.829 137.465 594.357 141.084C592.946 144.641 590.892 147.708 588.193 150.284C585.556 152.799 582.336 154.761 578.533 156.172C574.792 157.521 570.529 158.196 565.745 158.196C561.084 158.196 556.79 157.399 552.865 155.804C549.001 154.148 545.628 151.909 542.745 149.088C539.924 146.267 537.716 142.955 536.121 139.152C534.526 135.288 533.729 131.148 533.729 126.732C533.729 122.316 534.526 118.176 536.121 114.312C537.716 110.448 539.954 107.105 542.837 104.284C545.72 101.401 549.124 99.1627 553.049 97.568C557.036 95.912 561.36 95.084 566.021 95.084C571.725 95.084 576.938 96.4027 581.661 99.04C586.384 101.677 590.125 105.204 592.885 109.62L581.201 116.888C580.526 115.6 579.637 114.435 578.533 113.392C577.49 112.288 576.325 111.368 575.037 110.632C573.749 109.896 572.308 109.313 570.713 108.884C569.18 108.455 567.524 108.24 565.745 108.24C563.23 108.24 560.869 108.7 558.661 109.62C556.453 110.54 554.521 111.828 552.865 113.484C551.27 115.079 549.982 117.011 549.001 119.28C548.081 121.488 547.621 123.941 547.621 126.64C547.621 129.339 548.081 131.823 549.001 134.092C549.982 136.3 551.27 138.232 552.865 139.888C554.521 141.483 556.453 142.74 558.661 143.66C560.869 144.58 563.23 145.04 565.745 145.04C568.444 145.04 570.713 144.764 572.553 144.212C574.454 143.66 575.988 142.924 577.153 142.004C578.38 141.084 579.3 140.011 579.913 138.784C580.588 137.557 581.048 136.331 581.293 135.104H566.113V123.512H596.749V129.032Z" fill="white"/>
<path d="M257.014 216H251.59V184.416H273.43V189.456H257.014V197.472H272.998V202.368H257.014V216Z" fill="white"/>
<path d="M275.975 200.256C275.975 197.984 276.391 195.84 277.223 193.824C278.087 191.808 279.255 190.064 280.727 188.592C282.231 187.088 283.991 185.904 286.007 185.04C288.055 184.176 290.247 183.744 292.583 183.744C294.919 183.744 297.095 184.176 299.111 185.04C301.159 185.904 302.919 187.088 304.391 188.592C305.895 190.064 307.063 191.808 307.895 193.824C308.759 195.84 309.191 197.984 309.191 200.256C309.191 202.496 308.759 204.624 307.895 206.64C307.063 208.624 305.895 210.368 304.391 211.872C302.919 213.344 301.159 214.512 299.111 215.376C297.095 216.24 294.919 216.672 292.583 216.672C290.247 216.672 288.055 216.24 286.007 215.376C283.991 214.512 282.231 213.344 280.727 211.872C279.255 210.368 278.087 208.624 277.223 206.64C276.391 204.624 275.975 202.496 275.975 200.256ZM281.399 200.256C281.399 201.824 281.687 203.296 282.263 204.672C282.839 206.016 283.623 207.2 284.615 208.224C285.639 209.216 286.823 210 288.167 210.576C289.543 211.152 291.015 211.44 292.583 211.44C294.151 211.44 295.607 211.152 296.951 210.576C298.327 210 299.511 209.216 300.503 208.224C301.495 207.2 302.279 206.016 302.855 204.672C303.431 203.296 303.719 201.824 303.719 200.256C303.719 198.656 303.431 197.184 302.855 195.84C302.279 194.464 301.495 193.264 300.503 192.24C299.511 191.216 298.327 190.416 296.951 189.84C295.607 189.264 294.151 188.976 292.583 188.976C291.015 188.976 289.543 189.264 288.167 189.84C286.823 190.416 285.639 191.216 284.615 192.24C283.623 193.264 282.839 194.464 282.263 195.84C281.687 197.184 281.399 198.656 281.399 200.256Z" fill="white"/>
<path d="M313.512 216V184.416H327.24C328.968 184.416 330.504 184.656 331.848 185.136C333.192 185.616 334.328 186.288 335.256 187.152C336.216 188.016 336.936 189.056 337.416 190.272C337.896 191.456 338.136 192.768 338.136 194.208C338.136 196.32 337.528 198.144 336.312 199.68C335.128 201.184 333.544 202.272 331.56 202.944L339.096 216H333.096L326.184 203.76H318.936V216H313.512ZM318.936 189.552V198.864H327.24C328.936 198.864 330.264 198.496 331.224 197.76C332.216 196.992 332.712 195.824 332.712 194.256C332.712 192.688 332.216 191.52 331.224 190.752C330.264 189.952 328.936 189.552 327.24 189.552H318.936Z" fill="white"/>
<path d="M377.417 216H354.809V184.416H377.177V189.456H360.233V197.472H376.745V202.368H360.233V210.96H377.417V216Z" fill="white"/>
<path d="M379.637 184.416H385.493L393.941 208.656H394.037L402.485 184.416H408.293L396.869 216H391.109L379.637 184.416Z" fill="white"/>
<path d="M434.323 216H411.715V184.416H434.083V189.456H417.139V197.472H433.651V202.368H417.139V210.96H434.323V216Z" fill="white"/>
<path d="M439.043 184.416H444.899L460.739 207.072V184.416H466.211V216H460.547L444.467 192.768V216H439.043V184.416Z" fill="white"/>
<path d="M495.359 189.552H485.567V216H480.143V189.552H470.303V184.416H495.359V189.552Z" fill="white"/>
<path d="M516.145 191.472C515.825 191.12 515.409 190.784 514.897 190.464C514.385 190.112 513.809 189.808 513.169 189.552C512.561 189.296 511.905 189.088 511.201 188.928C510.497 188.768 509.777 188.688 509.041 188.688C507.409 188.688 506.145 189.04 505.249 189.744C504.353 190.416 503.905 191.344 503.905 192.528C503.905 193.744 504.385 194.688 505.345 195.36C506.305 196 507.473 196.544 508.849 196.992C510.065 197.408 511.361 197.84 512.737 198.288C514.145 198.704 515.441 199.28 516.625 200.016C517.841 200.72 518.833 201.632 519.601 202.752C520.401 203.84 520.801 205.28 520.801 207.072C520.801 208.512 520.513 209.824 519.937 211.008C519.393 212.16 518.609 213.152 517.585 213.984C516.561 214.784 515.329 215.408 513.889 215.856C512.449 216.304 510.849 216.528 509.089 216.528C507.713 216.528 506.401 216.384 505.153 216.096C503.905 215.84 502.753 215.504 501.697 215.088C500.673 214.64 499.745 214.16 498.913 213.648C498.113 213.136 497.473 212.624 496.993 212.112L500.257 208.224C500.577 208.544 501.025 208.896 501.601 209.28C502.209 209.664 502.897 210.016 503.665 210.336C504.433 210.656 505.281 210.928 506.209 211.152C507.137 211.376 508.097 211.488 509.089 211.488C510.977 211.488 512.449 211.12 513.505 210.384C514.593 209.648 515.137 208.624 515.137 207.312C515.137 206.608 514.961 206.016 514.609 205.536C514.289 205.024 513.841 204.576 513.265 204.192C512.689 203.808 512.017 203.472 511.249 203.184C510.513 202.896 509.713 202.624 508.849 202.368C507.665 202.016 506.449 201.616 505.201 201.168C503.953 200.72 502.801 200.16 501.745 199.488C500.721 198.784 499.873 197.904 499.201 196.848C498.561 195.792 498.241 194.464 498.241 192.864C498.241 191.456 498.497 190.192 499.009 189.072C499.521 187.92 500.241 186.944 501.169 186.144C502.129 185.344 503.265 184.736 504.577 184.32C505.921 183.872 507.425 183.648 509.089 183.648C510.209 183.648 511.281 183.744 512.305 183.936C513.361 184.128 514.337 184.416 515.233 184.8C516.161 185.152 516.977 185.568 517.681 186.048C518.417 186.528 519.025 187.056 519.505 187.632L516.145 191.472Z" fill="white"/>
</svg>
