<svg width="205" height="65" viewBox="0 0 205 65" fill="none" xmlns="http://www.w3.org/2000/svg">
<g clip-path="url(#clip0_727_2292)">
<path fill-rule="evenodd" clip-rule="evenodd" d="M20.9517 63.991C20.9517 63.6971 21.1645 62.9758 21.457 62.4147C21.7494 61.8538 21.909 61.3462 21.8559 61.266C21.7761 61.1859 22.0153 61.1325 22.3877 61.1325H23.0523L22.2546 62.1743C20.3667 64.5252 22.0685 63.6971 25.9242 60.331C26.8282 59.5295 27.5994 58.7815 27.5994 58.6478C27.5994 58.1937 26.9878 58.3808 25.7381 59.1821C25.0733 59.6096 23.8767 60.1439 23.1056 60.331C22.3344 60.5447 21.59 60.8653 21.4835 61.0523C21.3506 61.266 21.005 61.3195 20.4465 61.2126C19.0107 60.892 19.3031 60.6248 21.4037 60.2775C23.3184 59.9836 26.2699 58.8348 26.2699 58.3808C26.2699 58.0869 24.834 57.6594 23.2119 57.4457C22.4674 57.3388 20.8454 56.8846 19.6223 56.4572C17.5747 55.7358 17.2291 55.6825 16.2186 55.9497C15.5805 56.11 14.7295 56.2703 14.2775 56.2703C13.4266 56.2703 9.7837 54.9344 9.7837 54.6138C9.7837 54.5337 10.3155 54.2131 10.9537 53.9459C12.1237 53.465 12.1237 53.4383 11.645 52.9308C11.3526 52.6369 11.0335 52.1293 10.9005 51.782C10.7941 51.4614 9.91665 50.3927 8.9594 49.3776C8.00214 48.3891 6.6992 46.9464 6.06102 46.1717C5.42285 45.3969 4.75808 44.7825 4.59855 44.7825C4.04014 44.7825 2.25858 43.0727 1.88631 42.1911C1.51403 41.2827 1.38108 38.5844 1.70017 38.2638C1.80653 38.1837 2.04585 38.2371 2.23199 38.3974C2.79038 38.8516 2.81697 38.6646 2.65743 36.6877C2.52447 35.0045 2.4447 34.7909 1.48744 33.8825C0.2111 32.6803 -0.187759 31.3713 0.0781465 29.1538C0.26428 27.5776 0.68973 26.1884 0.716321 27.1502C0.74291 27.7112 2.20538 29.1004 2.55106 28.8868C2.68402 28.8066 3.0297 28.1921 3.26902 27.5242C3.53491 26.883 3.82741 26.3487 3.93378 26.3487C4.04014 26.3487 4.35923 26.883 4.59855 27.5509C5.13035 28.9135 5.44944 29.0202 6.38011 28.0585L7.07147 27.3906L7.231 28.1921C7.60328 29.8484 6.67261 32.0658 4.86444 33.8024C3.77423 34.8709 3.64129 35.7259 4.439 37.222C5.07717 38.4241 5.74194 39.3058 5.87488 39.1455C5.92808 39.0653 6.24715 38.6112 6.53965 38.1035L7.09806 37.1953L7.62987 38.3707C8.37441 40.0271 8.32123 41.2027 7.36396 43.1261L6.53965 44.7825L7.60328 46.0381C9.33167 48.1219 10.2091 48.8166 11.6184 49.2975L12.9746 49.7515V48.6295C12.9746 47.9883 13.0543 47.4006 13.1873 47.3471C13.5861 47.0801 17.2291 51.1141 17.2025 51.8354C17.2025 51.9957 16.9632 51.7018 16.644 51.1942C16.0059 50.0988 14.6232 48.5761 13.9584 48.2021C13.5596 47.9883 13.5064 48.0685 13.5064 48.7898C13.5064 49.3776 13.7457 49.8584 14.3306 50.3927C15.288 51.3278 15.9527 51.4614 15.1815 50.5797C14.8891 50.2591 14.5434 49.8051 14.4104 49.5912C14.3041 49.3509 14.703 49.7248 15.288 50.3927C15.8996 51.0339 16.6973 52.2094 17.096 52.9574C17.7343 54.2131 17.947 54.4001 19.4892 55.0413C20.4465 55.4153 21.5102 55.7358 21.8824 55.7358C22.5472 55.7358 22.5472 55.7092 22.1218 54.881C21.6696 54.0261 21.7494 53.2513 22.361 52.3965C22.6801 51.9423 22.7067 51.969 22.6003 52.6902C22.494 53.3849 22.6003 53.4917 23.4512 53.8123C23.983 53.9994 24.9137 54.6405 25.5253 55.2016C26.1103 55.7894 26.7219 56.2703 26.8282 56.2703C27.3867 56.2703 26.9612 55.1482 25.9242 53.9726C25.3126 53.2513 25.0468 52.8505 25.3924 53.091C26.0838 53.5719 26.8282 54.4802 27.3867 55.5756L27.7855 56.3503L28.8757 54.8276C29.833 53.5185 31.8273 51.969 32.5186 51.9957C32.6516 51.9957 32.173 52.343 31.455 52.7438C30.0989 53.5452 29.1416 54.5871 28.796 55.6558C28.5301 56.5373 29.0884 56.4037 30.3115 55.3085C31.4018 54.2932 33.3961 53.2513 33.7685 53.4917C34.0609 53.6788 34.0077 54.1596 33.5557 55.0146C33.343 55.4419 33.21 55.8694 33.2898 55.9228C33.4759 56.11 35.5499 55.5489 36.9592 54.9077C37.9166 54.507 38.2356 54.2131 38.2356 53.7856C38.2356 53.4383 38.4217 52.8238 38.6345 52.3965L39.0067 51.595L38.8471 52.3965C38.7143 53.1177 38.7674 53.091 39.4854 51.9957C40.2565 50.7935 41.6923 49.2975 41.6923 49.6715C41.6923 49.7782 41.3733 50.179 40.9744 50.5263C40.5755 50.9003 40.3363 51.2477 40.416 51.3545C40.682 51.595 42.0913 50.3393 42.5965 49.4578C42.9422 48.7631 42.9953 48.7364 42.8889 49.2707C42.7826 49.8051 42.8624 49.8851 43.3676 49.7248C43.6866 49.6181 44.2451 49.4578 44.6173 49.3776C45.2556 49.244 47.5423 47.267 47.5423 46.8395C47.5423 46.7328 45.7341 46.6525 43.5272 46.6525H39.5119L39.9374 46.0381C40.2298 45.6107 40.3629 44.7825 40.3629 42.8323C40.3629 41.3896 40.3096 40.2409 40.2565 40.2409C40.2033 40.2409 37.4113 42.9926 34.0344 46.3855L27.8918 52.5299L24.1958 48.7898C22.1749 46.7328 20.3934 45.0496 20.2071 45.0496C20.0477 45.0496 19.6488 45.3969 19.3564 45.8511L18.7713 46.6525H14.3839H9.99643L10.4219 46.0381C10.7676 45.5305 10.8473 44.2481 10.8473 37.409C10.8473 29.6614 10.8207 29.3141 10.2889 28.6463L9.73052 27.9517H12.9214H16.1122L15.74 28.8599C15.3943 29.7149 15.155 34.6306 15.4741 34.6306C15.6337 34.6306 26.3762 23.7039 26.456 23.4367C26.4826 23.3298 25.5519 23.0628 24.3819 22.7956C23.1854 22.555 21.4835 21.9941 20.5528 21.5666L18.8777 20.7919L16.9897 16.8646C15.9527 14.7274 15.1018 12.9108 15.1018 12.8573C15.1018 12.4833 16.4845 12.5902 17.6811 13.0711C18.7713 13.4985 19.1968 13.8191 19.4095 14.3801C19.6223 14.9946 19.8084 15.1282 20.5528 15.1282C21.5633 15.1282 21.6431 14.9679 21.0847 14.2198C20.5795 13.552 21.2709 11.388 22.0153 11.388C22.6801 11.388 24.1691 12.9909 23.983 13.5252C23.9032 13.739 23.7969 14.0328 23.7704 14.1931C23.6906 14.5938 25.286 14.6473 25.8444 14.2198C26.2964 13.8993 26.323 13.739 26.0305 12.6703C25.7114 11.6017 25.7647 11.388 26.4028 9.91863C27.4665 7.48751 26.8815 6.79291 23.6108 6.65933C22.7864 6.63261 21.457 6.52576 20.6326 6.41889C19.569 6.28531 18.7448 6.36546 17.8406 6.65933C17.1227 6.87305 15.9261 7.06007 15.1815 7.06007C14.2243 7.03335 13.4798 7.22036 12.7618 7.64781C9.99643 9.1706 11.8046 6.79291 15.022 4.60223C16.9366 3.31988 20.3934 1.85052 20.6593 2.25126C21.2443 3.13287 26.2699 3.77405 26.2699 2.97259C26.2699 2.75885 26.1369 2.51842 26.004 2.43827C25.5253 2.14439 25.7114 1.34293 26.3497 0.728471C27.1208 0.0071502 27.2537 0.00715026 27.36 0.755187C27.4665 1.50322 28.3173 1.71695 28.5301 1.04906C28.6364 0.781902 28.7694 0.381169 28.8225 0.167444C28.9288 -0.153144 29.1416 -0.0195653 29.7267 0.621609C30.4978 1.4765 30.4978 1.52995 30.0989 2.33141C29.8595 2.78557 29.7532 3.21302 29.8595 3.31988C30.4711 3.93434 35.3106 2.89244 35.3106 2.14439C35.3106 1.93067 35.4171 1.77037 35.5499 1.77037C36.1084 1.77037 39.7513 3.5069 41.1606 4.44194C42.623 5.45713 44.8832 7.56766 44.8832 7.94168C44.8832 8.42256 44.3249 8.12869 43.3942 7.1135C42.1976 5.83115 40.682 5.35026 39.8044 5.96472C39.2461 6.36546 39.1663 6.31204 38.0229 5.00297C36.587 3.31988 35.8956 3.23974 34.6192 4.52208C33.4759 5.67085 33.4759 6.01817 34.5661 6.07159C35.4171 6.0983 35.4171 6.0983 34.38 6.31203C33.795 6.44561 32.6782 6.55246 31.9071 6.55246C30.3648 6.57918 29.4341 6.89977 28.9821 7.59438C28.7694 7.9684 28.8492 8.36914 29.3543 9.38432C30.0723 10.827 30.2319 12.4833 29.7267 13.0978C29.3012 13.6054 29.5139 13.8993 30.4978 14.3001C31.5879 14.7541 32.1995 14.487 32.0134 13.6588C31.8805 13.2047 32.0401 12.7772 32.5186 12.1895C33.4228 11.1476 34.0874 11.1476 34.6192 12.2162C35.1245 13.2848 35.1512 13.8993 34.6459 14.3001C34.0874 14.7809 34.38 15.1282 35.3106 15.1282C35.8425 15.1282 36.1615 14.9679 36.2678 14.6473C36.5339 13.7122 36.8263 13.3649 37.3581 13.2848C37.6772 13.2581 38.0495 13.0444 38.2356 12.8306C38.6876 12.2963 40.6288 12.323 40.6288 12.8573C40.6288 13.3382 37.1454 20.2308 36.7731 20.5247C35.9754 21.0857 32.3591 22.3947 30.9498 22.6353C30.0723 22.7689 29.2745 22.9558 29.1949 23.0092C29.0619 23.1428 39.6183 33.5352 40.2831 33.9093C40.8947 34.2833 40.6553 28.7265 40.0172 28.0051C39.7513 27.7379 39.5652 27.4173 39.5652 27.3105C39.5652 27.2303 41.0542 27.1502 42.8889 27.1502C44.6971 27.1502 46.2128 27.2303 46.2128 27.3639C46.2128 27.4975 46.0266 27.7647 45.8139 27.9517C45.4682 28.2188 45.415 29.421 45.415 35.7259V43.1796H47.0105C48.4995 43.1796 48.6059 43.1261 48.34 42.6452C47.9412 41.8972 48.021 38.344 48.4463 37.5693L48.8187 36.9014L49.2707 37.8898C49.5366 38.451 49.829 38.905 49.9355 38.905C50.0418 38.905 50.4938 38.3173 50.9458 37.5959C51.5309 36.7144 51.7968 35.9663 51.7968 35.245C51.7968 34.31 51.6372 34.0696 50.7597 33.3482C49.4037 32.2528 48.6059 30.5698 48.6059 28.7799C48.6059 28.0318 48.6591 27.4173 48.7123 27.4173C48.792 27.4173 49.1377 27.7112 49.51 28.0853C49.8557 28.4326 50.2545 28.7532 50.3875 28.7532C50.5204 28.7532 50.8661 28.1921 51.1852 27.5509C51.5043 26.883 51.8765 26.3487 51.9829 26.3487C52.1159 26.3487 52.3552 26.7494 52.5413 27.2571C52.7275 27.7379 53.0466 28.299 53.2859 28.5127C53.6316 28.8066 53.8443 28.7265 54.5889 27.8715L55.4929 26.9097L55.679 27.8982C55.7853 28.4326 55.8918 29.6882 55.8918 30.6767L55.9183 32.4933L54.642 33.6955L53.3923 34.8709V36.7945C53.3923 38.2907 53.4454 38.6646 53.7112 38.4241C53.8708 38.2371 54.1102 38.1035 54.2432 38.1035C54.6154 38.1035 54.4558 41.5499 54.0569 42.3514C53.6049 43.233 52.1691 44.5153 51.6372 44.5153C51.4511 44.5153 50.7597 45.1298 50.1482 45.8778C49.51 46.6259 48.2071 48.0952 47.2764 49.1104C46.3192 50.1257 45.3352 51.3545 45.0693 51.8621C44.8301 52.343 44.4844 52.8238 44.3514 52.9041C43.9525 53.1444 44.0058 53.5719 44.4047 53.5986C44.5908 53.5986 45.0693 53.8123 45.4948 54.1062L46.2659 54.5871L44.9895 55.1749C44.2716 55.4955 43.3942 55.7894 43.022 55.8694C42.6496 55.9497 42.9687 55.7358 43.7399 55.3886C45.3619 54.694 45.548 54.2665 44.1388 54.4803L43.1548 54.6673L43.9525 54.2665L44.7503 53.8925H43.8196C43.2878 53.8925 42.4104 54.1329 41.8254 54.4001L40.7616 54.9344L41.8254 54.8008L42.8889 54.6673L41.8254 55.068C41.2403 55.2817 40.7085 55.6022 40.6022 55.7358C40.4957 55.9228 40.1235 55.9497 39.5119 55.7894C38.794 55.6022 38.1825 55.7092 36.2413 56.4037C34.9118 56.8846 33.2365 57.3388 32.5186 57.4457C30.7637 57.6861 29.4075 58.1136 29.5671 58.3808C29.9128 58.9417 32.1197 59.7966 34.1407 60.1707C35.3638 60.4111 36.2945 60.6783 36.2413 60.7851C36.0552 61.1057 34.7788 61.2928 34.6192 61.0523C34.5395 60.9187 33.8481 60.705 33.077 60.5447C32.2793 60.3844 31.0029 59.8233 30.2052 59.3157C28.6099 58.3006 28.3971 58.2205 28.3971 58.7815C28.3971 59.3959 33.795 63.991 34.1407 63.6437C34.3268 63.4567 33.7685 62.4147 33.1037 61.6668L32.5452 61.079H33.2632C33.6354 61.079 33.9811 61.1859 33.9811 61.3462C33.9811 61.4798 33.8481 61.6132 33.7152 61.6132C33.5557 61.6132 33.7418 62.0407 34.1141 62.575C34.4598 63.1094 34.7788 63.7773 34.7788 64.0712C34.7788 64.5788 34.7523 64.5788 34.0344 64.1246C32.8378 63.3498 29.0884 60.3577 28.5301 59.7699C28.2642 59.4493 27.9185 59.209 27.7855 59.209C27.6526 59.209 26.7751 59.9302 25.8444 60.8119C24.8872 61.6935 23.4247 62.8956 22.5472 63.4834C21.1113 64.4185 20.9517 64.4719 20.9517 63.991ZM27.1739 57.606C26.9346 57.1518 27.36 56.6709 27.6259 57.0984C27.7324 57.2854 27.8387 57.5525 27.8387 57.6594C27.8653 57.9533 27.3335 57.8999 27.1739 57.606ZM27.9716 57.3121C27.7855 56.6709 27.945 56.377 28.3705 56.6442C28.7162 56.8579 28.7427 57.8731 28.3971 57.8731C28.2375 57.8731 28.0514 57.606 27.9716 57.3121ZM13.5596 55.7625C12.4162 55.4955 10.741 54.6673 10.9271 54.4535C11.1398 54.2665 14.7561 55.4153 14.9423 55.7358C15.1285 56.0564 14.8359 56.0564 13.5596 55.7625ZM11.3791 53.8658H12.1237C12.5491 53.8658 13.3468 54.0528 13.9318 54.2932C14.4902 54.5337 14.8093 54.7741 14.6232 54.8543C14.4371 54.9077 13.6393 54.7741 12.8416 54.5337C12.0173 54.2932 11.3791 54.0528 11.3791 53.9726V53.8658ZM13.6925 53.5185C12.1503 52.8505 11.1132 51.5683 11.1132 50.3393C11.1132 49.4043 11.2994 49.4043 12.8948 50.2324C14.0382 50.7935 15.1284 51.782 16.1388 53.1177C16.8301 54.0528 15.6868 53.6253 14.251 52.3965C13.4798 51.7286 12.7618 51.1942 12.6289 51.1942C12.4959 51.1942 13.1075 51.8087 14.0116 52.5568C14.8891 53.3047 15.6337 53.9726 15.6337 54.0261C15.6337 54.2398 14.9954 54.0795 13.6925 53.5185ZM40.549 53.8925C40.6553 53.7589 41.3201 53.1444 42.038 52.5568C43.7664 51.0606 43.2346 51.1408 41.4264 52.6635C40.6022 53.3047 39.8576 53.8658 39.7513 53.8658C38.8206 53.8658 41.2138 51.2744 43.022 50.366L44.5375 49.5912L44.6706 50.2324C44.9099 51.5148 44.2982 52.6102 42.9422 53.2513C41.5595 53.9192 40.2298 54.2665 40.549 53.8925ZM26.9346 50.4194L26.2699 49.6715V37.1419V24.6122L27.0941 23.7039L27.9185 22.8222L28.6896 23.5703L29.4608 24.2916V37.035V49.7515L28.6629 50.4729C28.2109 50.8469 27.7855 51.1942 27.7324 51.1942C27.6526 51.1942 27.2802 50.8469 26.9346 50.4194ZM21.3506 44.8359L19.8881 43.2864V37.1419V31.024L21.4835 29.2874L23.079 27.5776V36.9816C23.079 42.1376 22.9992 46.3855 22.946 46.3855C22.8662 46.3855 22.1483 45.6641 21.3506 44.8359ZM32.6516 37.1686C32.6516 32.0925 32.7314 27.9517 32.8643 27.9517C32.9973 27.9517 33.7152 28.6196 34.4598 29.4477L35.8425 30.9438V37.1953V43.4466L34.247 44.916L32.6516 46.3855V37.1686ZM4.7315 38.1035V38.2371C4.7315 38.2907 4.78467 38.3707 4.86444 38.3707H4.9974L5.26331 38.7715L5.52921 39.1722L5.68876 39.7333C5.76853 40.0538 5.84829 40.6149 5.87488 41.0155C5.87488 41.3896 5.87488 42.1376 5.82171 42.6987C5.79512 43.2597 5.66217 43.7139 5.52921 43.7139C5.42285 43.7139 5.18353 43.3132 4.9974 42.859C4.83785 42.4048 4.70491 41.4163 4.67832 40.6682C4.62514 39.4127 4.59855 39.4661 4.46559 41.1758L4.30605 43.046L3.854 42.0041C3.58811 41.4163 3.40197 40.6682 3.40197 40.321C3.40197 39.9737 3.56152 39.2524 3.77423 38.718C3.98696 38.2104 4.30605 37.8632 4.439 37.9432L4.7315 38.1035ZM7.92236 39.4394L7.62987 41.0155C7.47032 41.8972 7.12464 42.8857 6.85874 43.2063C6.59284 43.5536 6.30034 43.7672 6.22056 43.6872C6.14079 43.6069 6.30034 43.0994 6.59284 42.5384C6.88533 42.0041 7.12465 41.443 7.12465 41.3094C7.12465 41.1758 6.93852 41.1224 6.75238 41.1758C6.48647 41.2827 6.32693 41.0424 6.24715 40.4546C6.16738 39.8668 6.27375 39.3592 6.53965 38.9585C6.77897 38.6379 7.04488 38.3707 7.12465 38.3707C7.231 38.3707 7.44373 38.6112 7.60328 38.905L7.92236 39.4394ZM48.9516 43.0193C48.4995 42.3246 48.2337 38.718 48.6059 38.4776C48.925 38.2907 49.8557 39.7867 49.7227 40.2409C49.6429 40.4546 49.4037 40.8285 49.2174 41.0691C48.8718 41.443 48.8718 41.63 49.2441 42.4582C49.7494 43.6338 49.5631 43.9811 48.9516 43.0193ZM50.0684 42.859C49.7759 41.1224 49.9355 40.321 50.7597 39.0653C51.3447 38.1837 51.6639 37.8632 51.8765 38.0768C52.3552 38.5577 52.4083 41.3361 51.9563 42.3781L51.5574 43.3132L51.5043 41.3094C51.4778 39.8668 51.398 39.4928 51.265 39.9737C51.1321 40.321 51.0256 41.1224 50.9991 41.7369C50.9991 42.3514 50.9193 43.046 50.8661 43.2864C50.6268 43.9811 50.2014 43.7672 50.0684 42.859ZM52.3285 43.5536C52.3285 43.4735 52.5679 42.9124 52.8605 42.3246C53.2061 41.6567 53.3923 40.8821 53.339 40.2676C53.2592 39.5195 53.339 39.2791 53.7112 39.2256C54.0836 39.1455 54.1899 39.3058 54.1899 39.9203C54.1899 40.9621 53.791 41.8972 52.9934 42.9124C52.6211 43.3399 52.3285 43.6338 52.3285 43.5536ZM2.60425 42.3246C2.04585 41.5499 1.80653 40.9088 1.80653 40.2141C1.80653 38.531 2.60425 38.6379 2.97652 40.3743C3.16265 41.1224 3.13606 41.1491 2.7372 40.6416C2.07244 39.8134 2.23199 40.7218 3.00311 42.0308C3.88059 43.5269 3.58811 43.7405 2.60425 42.3246ZM15.5007 43.2597C15.288 42.9926 15.3146 40.3477 15.5272 40.134C15.7133 39.947 18.8244 42.859 18.8244 43.233C18.8244 43.4735 15.6868 43.5002 15.5007 43.2597ZM15.0752 38.531L13.7191 37.0884L15.1018 35.6992C15.8464 34.9511 16.5377 34.3902 16.5909 34.4703C16.644 34.5505 16.6175 35.8327 16.5643 37.302L16.4314 39.9737L15.0752 38.531ZM39.0333 37.035C39.0333 35.5656 39.113 34.3634 39.2195 34.3634C39.3258 34.3634 40.0172 34.9511 40.7351 35.6992L42.038 37.035L40.7883 38.3707C40.1235 39.0921 39.4322 39.7065 39.2993 39.7065C39.1397 39.7065 39.0333 38.6379 39.0333 37.035ZM2.28517 33.2413C1.83312 32.3597 2.20538 30.3293 3.0297 28.9402C3.45515 28.2456 3.88059 27.6845 3.98696 27.6845C4.439 27.6578 4.75809 29.2074 4.65173 30.7568C4.41241 33.7757 3.18924 35.0045 3.34879 32.0658C3.45515 30.169 3.21583 30.3026 2.87015 32.3597C2.63084 33.6688 2.55106 33.749 2.28517 33.2413ZM51.7702 33.1078C51.2117 31.6652 51.0256 30.1958 51.2384 29.1805C51.6106 27.5509 51.9031 27.4708 52.8072 28.7265C53.7379 30.0355 54.1102 31.9591 53.6316 33.1612L53.2859 33.9627L53.0731 32.6001C52.9668 31.8522 52.754 30.9438 52.5946 30.5965C52.3818 30.0622 52.3552 30.1958 52.4881 31.1576C52.7275 32.6536 52.6477 33.5085 52.3285 33.6955C52.1691 33.749 51.9298 33.5085 51.7702 33.1078ZM5.10376 32.1461C5.34308 31.8255 5.71535 31.1843 5.95467 30.7568L6.38011 29.9553L5.82171 30.4629C5.26331 30.9438 5.26331 30.9438 5.26331 30.3828C5.26331 30.0355 5.58239 29.4477 5.98126 29.0738L6.72579 28.3524L6.80556 29.0738C6.88533 29.9286 5.71535 32.4131 5.13035 32.6269C4.75809 32.7337 4.75809 32.6803 5.10376 32.1461ZM50.2279 32.1461C49.4568 31.211 49.1377 30.4629 49.1377 29.5546C49.1377 28.6196 49.1909 28.5929 50.0684 29.1805C50.4673 29.4477 50.7332 29.8484 50.7332 30.2759C50.7332 30.837 50.6534 30.8904 50.3077 30.5965C49.6429 30.0355 49.6429 30.4629 50.3343 31.5049C51.0789 32.6001 50.9991 33.081 50.2279 32.1461ZM0.74291 31.9591C0.423824 31.398 0.423824 28.5127 0.716321 28.3524C0.822683 28.2723 1.16836 28.486 1.48744 28.8332C1.93949 29.3141 1.99267 29.5813 1.80653 30.2225L1.56722 31.024L1.51403 30.2225L1.46085 29.421L1.24813 30.3561C1.11518 30.8637 1.062 31.5583 1.14177 31.8789C1.30131 32.6269 1.08859 32.6536 0.74291 31.9591ZM54.4293 31.024C54.1367 29.4744 54.3495 28.6729 55.094 28.379C55.4396 28.2456 55.4929 28.486 55.4929 29.7416C55.4929 32.7604 54.9078 33.4818 54.4293 31.024ZM19.1701 20.0172C19.0638 19.8035 19.1701 19.4829 19.3829 19.3493C19.6488 19.1355 19.6488 19.1088 19.2766 19.2157C18.9309 19.3226 18.7181 19.189 18.532 18.7081C18.2926 18.0402 18.4522 17.1585 18.7713 17.3724C18.8777 17.4257 19.3297 17.3188 19.7551 17.1318C22.9992 15.6625 31.4018 15.5823 35.8691 16.9982C37.5709 17.5325 37.624 17.586 37.4379 18.2806C37.2252 19.0554 36.3743 19.4294 36.3743 18.7348C36.3743 18.5211 36.5604 18.3073 36.8263 18.3073C37.2518 18.3073 37.2518 18.2539 36.7731 17.9066C36.0817 17.399 35.8158 17.4257 35.6563 18.0402C35.4702 18.7348 33.9811 18.9485 31.0029 18.7081C28.1844 18.4943 21.1378 18.8149 21.3506 19.1623C21.4304 19.2958 21.2176 19.4027 20.8454 19.4027C20.2071 19.4027 19.4892 19.9636 19.7551 20.2842C19.8084 20.3911 19.7551 20.4713 19.6223 20.4713C19.4627 20.4713 19.2766 20.2575 19.1701 20.0172ZM19.4892 18.7081C19.2499 18.6279 19.0905 18.3875 19.0905 18.1737C19.0905 17.7196 19.4892 17.6661 19.7551 18.0669C19.8615 18.2272 20.154 18.4676 20.4465 18.6012C20.9252 18.8417 20.9252 18.8684 20.4199 18.8684C20.1275 18.8684 19.702 18.7882 19.4892 18.7081ZM22.1483 18.4409C21.3239 18.2539 21.0315 17.5058 21.6431 17.0518C22.627 16.3304 23.8767 16.9715 22.9195 17.7196C22.4674 18.0669 22.6801 18.0936 24.8074 17.9066C26.1103 17.8264 27.2271 17.6928 27.2802 17.6394C27.36 17.586 27.2271 17.3455 27.041 17.1051C26.7484 16.7579 26.7484 16.6243 27.0676 16.4373C27.9185 15.8762 29.248 16.3838 28.6896 17.0518C28.2907 17.5593 28.5566 17.7997 29.5139 17.7997C30.1521 17.7997 30.2585 17.6928 30.1254 17.2654C29.9659 16.7846 30.0723 16.7312 30.7637 16.7312C31.6677 16.7312 31.8805 17.2121 31.0561 17.4524C30.7637 17.5058 30.5243 17.6661 30.5243 17.773C30.5243 17.8799 28.9555 18.0669 27.0676 18.147C25.1531 18.2539 23.4247 18.3875 23.2119 18.4676C22.9727 18.5211 22.5205 18.5211 22.1483 18.4409ZM31.5879 18.4409C30.2585 18.2005 30.6572 17.773 32.0401 17.96C33.077 18.0936 33.2365 18.0669 32.9706 17.773C32.2262 16.9715 32.8909 16.4106 34.0874 16.8915C34.5395 17.0518 34.6459 17.9333 34.247 18.1737C33.7418 18.4409 32.3858 18.6012 31.5879 18.4409ZM24.6744 17.1318C24.6744 16.8915 24.8872 16.7312 25.2062 16.7312C25.8177 16.7312 25.7114 17.1585 25.0733 17.399C24.834 17.4524 24.6744 17.3455 24.6744 17.1318ZM35.9754 19.8035C35.8956 19.563 35.4968 19.376 34.9649 19.3493C34.3002 19.3226 34.247 19.2958 34.7257 19.189C35.6297 19.0287 36.6402 19.3493 36.6402 19.8035C36.6402 20.3111 36.135 20.3111 35.9754 19.8035ZM16.4314 12.7238L17.3621 13.1245L18.2926 13.5252L18.7713 14.3534C19.0372 14.8877 19.5425 15.3152 20.021 15.422C20.4465 15.5556 20.9517 15.5823 21.1378 15.5289C21.3239 15.4488 21.4835 15.3419 21.4835 15.2617V15.1282H21.5633C21.6431 15.1282 21.7494 14.9412 21.8292 14.7274C21.909 14.5404 21.8026 14.1397 21.6165 13.8993C21.3506 13.5252 21.3506 13.2047 21.5367 12.6703C21.6696 12.2429 21.9357 11.9223 22.1218 11.9223C22.3079 11.9223 22.6536 12.136 22.8929 12.4032C23.1321 12.6703 23.3449 13.0978 23.3449 13.3649C23.3449 13.8191 23.2917 13.8458 22.8397 13.4184C22.5738 13.1779 22.2813 12.9909 22.1749 12.9909C22.0951 12.9909 22.0153 13.0978 22.0153 13.2314C22.0153 13.3917 22.3079 13.6588 22.6536 13.8458C22.9992 14.0328 23.3184 14.3001 23.3184 14.4604C23.3184 14.5938 23.8235 14.7541 24.4085 14.8076C25.0998 14.861 25.7381 14.7274 26.1634 14.4335C26.7219 14.0596 26.8017 13.8725 26.6687 13.1512C26.5623 12.6971 26.456 11.9223 26.3762 11.4414L26.2699 10.5865H26.3762C26.456 10.5865 26.7484 10.1056 27.0676 9.5179C27.36 8.93016 27.7057 8.44928 27.8387 8.44928C27.9983 8.44928 28.3971 9.09045 28.7694 9.86521C29.1416 10.64 29.4608 11.4948 29.4608 11.7086C29.4608 11.949 29.3278 12.2162 29.1949 12.323C29.0353 12.4032 28.9288 12.8306 28.9288 13.2581C28.9288 13.7657 29.1151 14.1664 29.5406 14.4335C29.8595 14.6473 30.5243 14.9144 30.9764 15.0213C31.5081 15.1014 31.9868 15.048 32.2262 14.861C32.4654 14.6473 32.5719 14.2732 32.4654 13.7924C32.3591 13.2314 32.4654 12.9108 32.9175 12.4833C33.2632 12.1628 33.6089 11.9223 33.7152 11.9223C33.8216 11.9223 33.9811 12.2696 34.0609 12.7238C34.1672 13.1779 34.0874 13.7657 33.9013 14.0596C33.662 14.4335 33.662 14.7007 33.8748 15.048C34.0609 15.3686 34.5129 15.5289 35.3106 15.5289C36.3211 15.5289 36.5339 15.422 36.8263 14.7809C37.039 14.3267 37.6772 13.8191 38.3951 13.4985C39.0599 13.1779 39.6715 13.0176 39.7513 13.0978C39.8311 13.1512 39.5385 13.8993 39.113 14.7007C38.6876 15.5289 38.1558 16.4373 37.9166 16.7579C37.5709 17.2121 37.3847 17.2921 37.1188 17.0785C36.9326 16.9182 35.683 16.5174 34.38 16.1701C32.758 15.7694 30.87 15.5289 28.6629 15.4488C26.2432 15.3686 24.6478 15.4488 22.946 15.7694C21.6165 16.0098 19.9679 16.3837 19.2499 16.6243C18.5585 16.8646 17.947 16.9982 17.9204 16.9449C17.8672 16.8915 17.3886 16.0365 16.8568 15.048C16.2984 14.0596 15.9261 13.1245 16.0325 12.9642C16.1122 12.8306 16.2453 12.7238 16.2984 12.7238H16.4314ZM17.495 15.0747C17.3354 14.8877 17.2291 14.5137 17.2291 14.2198C17.2291 13.7122 17.2556 13.7122 17.8939 14.3267C18.2395 14.6473 18.5585 15.048 18.5585 15.1549C18.5585 15.5022 17.7874 15.422 17.495 15.0747ZM37.4379 15.235C37.4379 14.8076 38.0229 14.0596 38.3686 14.0596C38.8206 14.0596 38.8471 14.1664 38.5015 14.861C38.2623 15.3152 37.4379 15.6091 37.4379 15.235ZM26.8017 11.949C26.5623 11.4414 26.6687 11.1208 27.0676 11.1208C27.4133 11.1208 27.5994 11.8956 27.3335 12.1895C27.1474 12.3498 26.9612 12.2696 26.8017 11.949ZM28.2109 12.0292C27.9983 11.4948 28.2375 11.2811 28.7694 11.4948C29.1416 11.6284 29.1416 11.6819 28.796 12.0559C28.4237 12.4032 28.3705 12.4032 28.2109 12.0292ZM27.5994 10.1858C27.5994 9.43775 27.9716 9.27747 28.2109 9.91863C28.3971 10.4262 28.2375 10.8537 27.8653 10.8537C27.7057 10.8537 27.5994 10.5331 27.5994 10.1858ZM12.1769 7.1135H12.3098C12.363 7.1135 12.4428 7.03335 12.4428 6.97992V6.84635H12.5757C12.6289 6.84635 12.7087 6.79291 12.7087 6.73948C12.7087 6.68605 12.7618 6.57918 12.8416 6.47233L12.9746 6.31203H13.1075C13.1607 6.31203 13.2405 6.23189 13.2405 6.17845V6.04487L14.251 5.751C14.8359 5.61743 15.4741 5.56399 15.7133 5.64413C15.9261 5.72428 16.192 5.99144 16.2718 6.23189C16.4047 6.55246 16.2718 6.6059 15.607 6.47233C15.1018 6.36546 14.3041 6.49904 13.4798 6.81963C12.7618 7.08678 12.1769 7.27379 12.1769 7.22036V7.1135ZM26.0571 6.57918C25.9508 6.44561 25.3126 6.31203 24.6744 6.25859C22.9195 6.17845 22.8662 6.04487 24.3022 5.18997C26.004 4.20149 26.5358 4.20149 26.5358 5.21669C26.5358 5.64413 26.5889 6.17845 26.6687 6.41889C26.8017 6.87305 26.3762 6.97992 26.0571 6.57918ZM29.0353 6.23189C29.1151 5.9113 29.1682 5.35026 29.1682 5.02969C29.1682 4.60223 29.3278 4.44194 29.7532 4.44194C30.285 4.44194 32.625 5.751 32.625 6.04487C32.625 6.12502 32.2262 6.15174 31.7209 6.0983C31.1892 6.07159 30.3648 6.20517 29.8595 6.44561C28.9288 6.81963 28.9288 6.81963 29.0353 6.23189ZM17.5215 5.21669C19.3564 2.81229 20.5263 2.91915 22.0951 5.69758C22.2281 5.93802 21.7761 6.01817 20.2869 6.01817C19.1701 6.01817 17.9204 6.0983 17.495 6.17845L16.6973 6.31203L17.5215 5.21669Z" fill="white"/>
<path d="M68.267 27.4019H65.4473L70.5813 12.7393H73.8425L78.9835 27.4019H76.1638L72.2689 15.7462H72.1549L68.267 27.4019ZM68.3597 21.6528H76.0499V23.7864H68.3597V21.6528ZM86.6577 12.7393H89.2781V23.0489C89.2733 23.9939 89.074 24.8078 88.6799 25.4903C88.2859 26.1681 87.7352 26.6907 87.0279 27.0583C86.3254 27.4209 85.5066 27.6024 84.5713 27.6024C83.7169 27.6024 82.9479 27.4496 82.2643 27.1442C81.5855 26.834 81.0466 26.3757 80.648 25.7695C80.2492 25.1633 80.0499 24.4092 80.0499 23.5071H82.6773C82.6821 23.9032 82.7675 24.2445 82.9336 24.5309C83.1046 24.8173 83.3396 25.0369 83.6387 25.1896C83.9376 25.3423 84.2819 25.4187 84.671 25.4187C85.0935 25.4187 85.4519 25.3304 85.7463 25.1538C86.0406 24.9725 86.2637 24.7051 86.4156 24.3519C86.5722 23.9988 86.653 23.5645 86.6577 23.0489V12.7393ZM101.337 12.7393H103.979V22.3186C103.979 23.3687 103.732 24.2922 103.238 25.0893C102.749 25.8864 102.061 26.5094 101.173 26.9581C100.285 27.4019 99.2481 27.6238 98.0613 27.6238C96.8698 27.6238 95.8303 27.4019 94.9425 26.9581C94.0549 26.5094 93.3665 25.8864 92.8775 25.0893C92.3886 24.2922 92.1442 23.3687 92.1442 22.3186V12.7393H94.7859V22.0967C94.7859 22.7076 94.9188 23.2518 95.1847 23.729C95.4552 24.2063 95.8349 24.581 96.3239 24.8531C96.8128 25.1204 97.392 25.254 98.0613 25.254C98.7307 25.254 99.3098 25.1204 99.7988 24.8531C100.292 24.581 100.672 24.2063 100.938 23.729C101.204 23.2518 101.337 22.7076 101.337 22.0967V12.7393ZM118.834 12.7393V27.4019H116.484L109.613 17.4145H109.492V27.4019H106.85V12.7393H109.214L116.078 22.7339H116.206V12.7393H118.834ZM121.071 14.9659V12.7393H132.706V14.9659H128.199V27.4019H125.579V14.9659H121.071ZM135.06 27.4019H132.24L137.374 12.7393H140.635L145.776 27.4019H142.956L139.061 15.7462H138.948L135.06 27.4019ZM135.152 21.6528H142.842V23.7864H135.152V21.6528ZM147.697 12.7393H150.93L155.258 23.364H155.429L159.759 12.7393H162.992V27.4019H160.458V17.3284H160.322L156.292 27.3589H154.397L150.367 17.307H150.231V27.4019H147.697V12.7393ZM165.869 27.4019V12.7393H175.354V14.9659H168.511V18.9466H174.862V21.1731H168.511V25.1752H175.41V27.4019H165.869ZM190.032 12.7393V27.4019H187.683L180.811 17.4145H180.69V27.4019H178.048V12.7393H180.412L187.277 22.7339H187.404V12.7393H190.032ZM192.27 14.9659V12.7393H203.905V14.9659H199.397V27.4019H196.778V14.9659H192.27ZM71.3361 51.8224H66.3943V37.1597H71.4358C72.8836 37.1597 74.1273 37.4533 75.1669 38.0404C76.2113 38.6227 77.0135 39.4604 77.5736 40.5533C78.1338 41.6464 78.4138 42.9542 78.4138 44.4768C78.4138 46.0041 78.1314 47.3167 77.5666 48.4145C77.0064 49.5122 76.197 50.3548 75.1384 50.9418C74.0845 51.5289 72.817 51.8224 71.3361 51.8224ZM69.0361 49.5242H71.2078C72.2237 49.5242 73.0711 49.338 73.7499 48.9658C74.4288 48.5887 74.939 48.0279 75.2808 47.2833C75.6226 46.5339 75.7936 45.5984 75.7936 44.4768C75.7936 43.3552 75.6226 42.4243 75.2808 41.6846C74.939 40.9399 74.4335 40.3839 73.7641 40.0164C73.0996 39.6441 72.2735 39.458 71.2862 39.458H69.0361V49.5242ZM80.9239 51.8224V37.1597H90.4084V39.3864H83.5656V43.3671H89.9172V45.5936H83.5656V49.5957H90.4655V51.8224H80.9239ZM100.028 37.1597L103.824 48.7008H103.973L107.761 37.1597H110.667L105.525 51.8224H102.264L97.1302 37.1597H100.028ZM112.756 51.8224H109.937L115.071 37.1597H118.332L123.473 51.8224H120.653L116.758 40.1667H116.644L112.756 51.8224ZM112.849 46.0734H120.539V48.2069H112.849V46.0734ZM125.394 51.8224V37.1597H128.035V49.5957H134.458V51.8224H125.394ZM136.751 51.8224V37.1597H146.235V39.3864H139.393V43.3671H145.744V45.5936H139.393V49.5957H146.293V51.8224H136.751ZM140.553 35.7135L138.367 32.4416H140.895L142.483 35.7135H140.553ZM160.915 37.1597V51.8224H158.564L151.693 41.835H151.573V51.8224H148.931V37.1597H151.295L158.159 47.1544H158.287V37.1597H160.915ZM176.276 42.107H173.613C173.536 41.6679 173.397 41.2788 173.192 40.9399C172.989 40.5963 172.734 40.3051 172.431 40.0665C172.127 39.8278 171.78 39.6489 171.39 39.5295C171.006 39.4054 170.591 39.3434 170.145 39.3434C169.352 39.3434 168.649 39.5439 168.036 39.9448C167.425 40.3409 166.945 40.9233 166.599 41.6917C166.251 42.4554 166.079 43.3885 166.079 44.4911C166.079 45.6128 166.251 46.5578 166.599 47.3262C166.95 48.0899 167.429 48.6675 168.036 49.0589C168.649 49.4455 169.35 49.6388 170.138 49.6388C170.574 49.6388 170.982 49.5815 171.362 49.467C171.747 49.3476 172.09 49.1733 172.394 48.9443C172.703 48.7152 172.962 48.4336 173.171 48.0994C173.384 47.7653 173.532 47.3835 173.613 46.9539L176.276 46.9683C176.176 47.6651 175.96 48.319 175.628 48.93C175.3 49.5409 174.871 50.0803 174.338 50.548C173.808 51.011 173.185 51.3737 172.473 51.6363C171.761 51.894 170.971 52.0229 170.102 52.0229C168.82 52.0229 167.676 51.7246 166.669 51.128C165.664 50.5312 164.87 49.6698 164.292 48.5434C163.713 47.4169 163.423 46.0661 163.423 44.4911C163.423 42.9112 163.715 41.5605 164.299 40.4387C164.883 39.3124 165.678 38.4509 166.684 37.8543C167.69 37.2576 168.83 36.9593 170.102 36.9593C170.914 36.9593 171.668 37.0738 172.366 37.303C173.063 37.532 173.686 37.8685 174.231 38.3125C174.778 38.7516 175.227 39.2908 175.578 39.9305C175.934 40.5653 176.166 41.2908 176.276 42.107ZM181.337 37.1597V51.8224H178.695V37.1597H181.337ZM186.07 51.8224H183.25L188.384 37.1597H191.645L196.786 51.8224H193.966L190.072 40.1667H189.957L186.07 51.8224ZM186.162 46.0734H193.852V48.2069H186.162V46.0734Z" fill="white"/>
</g>
<defs>
<clipPath id="clip0_727_2292">
<rect width="204.751" height="64.4588" fill="white"/>
</clipPath>
</defs>
</svg>
