<svg width="175" height="69" viewBox="0 0 175 69" fill="none" xmlns="http://www.w3.org/2000/svg">
<path d="M15.9005 62.0407C15.875 61.9986 15.4151 60.878 14.8785 59.5298C14.078 57.5244 10.6714 49.0731 7.0093 39.9815C6.63457 39.0547 6.34501 38.271 6.36204 38.2373L6.39611 38.1699H8.01424H9.63238L9.76864 38.4901C9.83677 38.6586 10.9354 41.4561 12.1958 44.7001C15.0489 52.0222 15.3044 52.6626 16.2241 55.064C16.6415 56.1341 17.0077 57.0357 17.0417 57.0778L17.1184 57.1621L17.161 57.1115C17.2121 57.0694 17.5953 56.0751 20.7805 47.8598C24.1189 39.2316 24.4596 38.3806 24.5448 38.2795L24.6299 38.1699H26.197H27.7555L27.7981 38.2373L27.8321 38.3047L27.5937 38.8861C27.4574 39.2147 26.8187 40.782 26.1799 42.3829C25.5412 43.9839 24.2467 47.2279 23.2928 49.5871C22.3475 51.9548 20.8316 55.7297 19.9203 57.9963L18.2766 62.0997H17.1099H15.9346L15.9005 62.0407Z" fill="white"/>
<path d="M33.7246 58.0134V53.9268H35.2576H36.7905V56.5809V59.2351L42.1815 59.252L47.5639 59.2773V60.6675V62.0578L40.6485 62.0831L33.7246 62.1V58.0134Z" fill="white"/>
<path d="M61.8887 61.9984C61.0711 61.9226 60.0235 61.7035 59.2741 61.4591L58.6439 61.2485L57.8263 60.8356L57.0172 60.4228L56.3274 59.8666C55.1691 58.9566 54.3005 57.8865 53.6106 56.5299L53.2359 55.8053L52.9463 54.9711L52.6568 54.137L52.4694 53.2101C52.1202 51.4238 52.0351 49.7892 52.2139 47.9439L52.3076 46.9749L52.4694 46.1828C52.5546 45.7447 52.7675 45.0032 52.9208 44.5313L53.2189 43.6635L53.5936 42.922C53.8065 42.5091 54.1812 41.8856 54.4282 41.5401L54.8711 40.9082L55.5694 40.2341L56.2592 39.5516L56.8554 39.164C58.201 38.2877 59.7084 37.7231 61.3181 37.4956L61.9568 37.403H63.2343L64.5203 37.3945L65.2271 37.4956L65.934 37.5883L66.6664 37.799C67.0667 37.9169 67.6714 38.1192 68.0035 38.2624L68.6082 38.5068L69.3832 39.0039L70.1667 39.5095L70.8821 40.1835L71.589 40.8576L72.0659 41.5148C72.3299 41.8772 72.6961 42.4417 72.8835 42.7619L73.2326 43.3517L73.437 43.9837C73.5563 44.3291 73.6755 44.7167 73.701 44.8515L73.7521 45.079H72.2277H70.6947L70.337 44.3881C70.1497 44.0005 69.809 43.4444 69.5961 43.1411L69.2043 42.5934L68.7104 42.1215L68.2164 41.6412L67.6203 41.2873L67.0156 40.925L66.445 40.7228C65.7466 40.47 64.929 40.3099 63.9071 40.2341L63.1406 40.1751L62.2889 40.2762L61.4458 40.3689L60.8241 40.5374C59.1974 40.9671 57.9029 41.8519 56.9235 43.1916L56.5573 43.6972L56.2167 44.4134L55.876 45.1212L55.6631 45.8542L55.4502 46.5873L55.3139 47.4973L55.1777 48.4073L55.1691 49.6712V50.9351L55.3139 51.9462L55.4587 52.9573L55.7142 53.7578L55.9697 54.5583L56.3614 55.3166L56.7532 56.0665L57.2386 56.6395C58.3117 57.9034 59.504 58.6027 61.2584 58.9988L62.042 59.1757H63.2768H64.5117L65.0653 59.0746C65.8573 58.9314 66.6409 58.6701 67.3137 58.3247L67.9013 58.0213L68.5997 57.3641L69.298 56.7069L69.6302 56.235C69.8175 55.9823 70.1326 55.443 70.3455 55.0385L70.7288 54.3139L72.2107 54.3308C73.0197 54.3308 73.701 54.356 73.7181 54.3729C73.7692 54.4234 73.42 55.5862 73.1986 56.0749C73.0879 56.3361 72.7387 56.926 72.4406 57.381L71.8955 58.2067L71.2738 58.8555C70.2178 59.9509 69.1021 60.7261 67.8076 61.2485L67.1859 61.5013L66.3087 61.7119L65.44 61.931L64.3925 62.0153C63.345 62.1079 62.9532 62.1079 61.8887 61.9984Z" fill="white"/>
<path d="M88.9905 54.8361C87.3809 50.8337 86.0523 47.497 86.0353 47.4212L86.0098 47.2695H87.2702H88.5306L89.0076 48.5166C90.6087 52.7043 92.7889 58.2233 92.8315 58.2233C92.8655 58.2233 93.121 57.6251 93.4021 56.9004C93.6831 56.1674 94.6285 53.6986 95.5142 51.4235L97.1153 47.2695H98.3842H99.6447V47.3369C99.6447 47.3706 98.5716 50.067 97.2515 53.3362C95.94 56.6055 94.6114 59.9085 94.3048 60.6921L93.7427 62.0993H92.84H91.9287L88.9905 54.8361Z" fill="white"/>
<path d="M103.219 61.9652C102.964 61.8978 102.547 61.7377 102.3 61.6197L101.848 61.3922L101.508 61.0215L101.158 60.6591L100.937 60.1789L100.707 59.6986V58.7296V57.7606L100.954 57.314L101.21 56.8675L101.508 56.6062L101.806 56.345L102.249 56.1428L102.691 55.9406L103.279 55.8226L103.858 55.6962H105.791H107.725L107.776 55.5277L107.827 55.3676L107.742 54.9042C107.597 54.1374 107.282 53.6993 106.626 53.3791L106.328 53.2274L105.766 53.1853L105.195 53.1432L104.608 53.3201L104.028 53.4971L103.577 53.8341C103.322 54.0195 102.998 54.306 102.845 54.4829L102.564 54.8031L101.789 54.1459L101.005 53.4971V53.4128C101.005 53.2696 101.874 52.4691 102.368 52.1489L102.836 51.8456L103.39 51.6265L103.943 51.4158L104.446 51.3232L104.957 51.2305H105.638H106.328L106.89 51.3484L107.452 51.4664L107.955 51.7192L108.457 51.972L108.815 52.2921L109.181 52.6208L109.471 53.1095L109.769 53.6066L109.896 54.1796L110.033 54.761V58.342V61.9315H109.011H107.997L107.955 61.6618C107.929 61.5102 107.886 61.1984 107.861 60.9709L107.801 60.558L107.367 60.9878L106.924 61.4091L106.481 61.6281C106.234 61.7461 105.817 61.9062 105.544 61.9736L105.059 62.1L104.369 62.0916H103.688L103.219 61.9652ZM106.115 59.9429L106.635 59.7154L107.052 59.2689L107.461 58.8139L107.597 58.4178C107.716 58.0387 107.767 57.7353 107.742 57.4826L107.733 57.3646L105.928 57.3983L104.114 57.4236L103.688 57.6342L103.262 57.8449L103.075 58.1314L102.879 58.4178V58.7464V59.0751L102.998 59.3531L103.117 59.6312L103.39 59.825C103.535 59.9261 103.824 60.0693 104.011 60.1283L104.369 60.2463L104.982 60.2126L105.596 60.1789L106.115 59.9429Z" fill="white"/>
<path d="M114.419 61.9987C114.283 61.9482 114.002 61.7965 113.806 61.6701L113.456 61.4257L113.209 60.9455L112.971 60.4568L112.945 53.7834L112.92 47.1016H114.036H115.143V53.3705V59.631L115.313 59.8501L115.492 60.0692L115.781 60.1281L116.063 60.1787L116.454 60.0944L116.846 60.0102V60.9286V61.8386L116.531 61.9313L116.207 62.024L115.441 62.0661L114.674 62.0998L114.419 61.9987Z" fill="white"/>
<path d="M121.701 61.9652L121.147 61.8472L120.551 61.5607L119.955 61.2658L119.538 60.8614L119.12 60.4569L118.805 59.9766L118.49 59.4964L118.243 58.7549L117.996 58.0134L118.005 56.6652V55.3171L118.235 54.643L118.456 53.9689L118.763 53.4634L119.069 52.9578L119.512 52.5112L119.955 52.0646L120.636 51.7276L121.318 51.399L121.829 51.3147C122.11 51.2642 122.595 51.2305 122.902 51.2305H123.455L123.966 51.3232L124.469 51.4074L125.158 51.736L125.857 52.0731L126.317 52.5786L126.785 53.0842L127.049 53.615C127.185 53.9099 127.373 54.3734 127.458 54.6514L127.611 55.1486L127.62 56.2439V57.3393L123.958 57.3646L120.304 57.3814L120.227 57.4573L120.151 57.5331L120.287 58.0471L120.415 58.5611L120.628 58.8728C120.738 59.0498 120.943 59.2941 121.071 59.4205L121.318 59.648L121.743 59.8418L122.169 60.0356H123.106H124.043L124.52 59.8165L124.997 59.589L125.337 59.2857C125.525 59.1172 125.729 58.9824 125.789 58.9824H125.891L126.547 59.5553C126.904 59.8671 127.219 60.162 127.262 60.2041L127.322 60.2884L126.921 60.6507C126.359 61.1731 125.916 61.4512 125.278 61.704L124.724 61.9146L124.222 62.0073L123.711 62.1L122.987 62.0916L122.254 62.0831L121.701 61.9652ZM125.474 55.3171C125.465 55.1823 125.414 54.9042 125.354 54.702L125.252 54.3397L124.886 53.9352L124.52 53.5308L124.068 53.3285L123.617 53.1263L122.85 53.1347H122.084L121.65 53.3538L121.215 53.5813L120.934 53.8931L120.653 54.2133L120.457 54.6346L120.253 55.0643V55.2834C120.253 55.4013 120.279 55.5277 120.313 55.553L120.372 55.612L122.927 55.5951L125.491 55.5699L125.474 55.3171Z" fill="white"/>
<path d="M130.217 56.8334V51.5588L131.307 51.5841L132.389 51.6093L132.414 52.1739L132.44 52.7384L132.925 52.3508L133.41 51.9632L133.76 51.8116C133.947 51.7273 134.373 51.5925 134.696 51.5167L135.284 51.3818L135.965 51.424L136.647 51.4661L137.141 51.6346L137.643 51.8116L138.009 52.0896L138.384 52.3677L138.682 52.8227L138.989 53.2777L139.125 53.7074L139.253 54.1371L139.338 54.9376L139.423 55.7381L139.398 58.8978L139.372 62.0576L138.248 62.0828L137.115 62.1081V58.704V55.3083L136.987 54.8112L136.851 54.3141L136.638 54.036L136.425 53.758L136.068 53.5726L135.71 53.3872L135.114 53.3788H134.518L134.117 53.5305L133.717 53.6821L133.342 54.095L132.968 54.4995L132.78 55.0724L132.593 55.637L132.516 56.2352L132.44 56.8334L132.431 59.4708V62.0997H131.324H130.217V56.8334Z" fill="white"/>
<path d="M145.137 61.9315L144.515 61.7714L144.073 61.5355L143.63 61.2995L143.076 60.7518L142.523 60.2041L142.199 59.5722L141.884 58.9402L141.705 58.224L141.518 57.5163L141.569 56.4546L141.611 55.4013L141.756 54.8958L141.892 54.3902L142.207 53.7667L142.523 53.1347L143.076 52.5871L143.63 52.0309L144.073 51.795L144.515 51.5675L145.171 51.399L145.827 51.2305H146.474H147.121L147.718 51.3569L148.314 51.4832L148.833 51.736L149.344 51.9972L149.821 52.4438L150.29 52.8904L150.656 53.4971L151.013 54.1037L150.971 54.2133L150.928 54.3144L150 54.6683C149.489 54.8621 149.029 55.0222 148.978 55.0222H148.893L148.731 54.6683L148.569 54.306L148.237 53.9436L147.896 53.5729L147.547 53.4044L147.207 53.2274L146.653 53.1937L146.099 53.1516L145.614 53.337L145.129 53.5139L144.72 53.9605L144.311 54.3986L144.115 54.9463L143.928 55.4856L143.851 56.0923L143.774 56.7074L143.851 57.3393L143.936 57.9797L144.107 58.4431L144.285 58.9065L144.558 59.2604L144.83 59.6143L145.333 59.8671L145.835 60.1199H146.517L147.207 60.1115L147.556 59.9345C147.752 59.8334 148.033 59.6228 148.195 59.4711L148.467 59.193L148.671 58.7549C148.791 58.5105 148.91 58.3083 148.935 58.3083C149.046 58.3083 150.784 58.9908 150.86 59.0666L150.928 59.134L150.605 59.7576L150.273 60.3727L149.787 60.8529L149.302 61.3332L148.68 61.6197L148.058 61.9146L147.607 62.0073L147.156 62.1L146.457 62.0916H145.759L145.137 61.9315Z" fill="white"/>
<path d="M153.144 56.8585L153.17 51.6091L154.226 51.5839L155.282 51.5586L155.35 51.6681L155.418 51.7777L155.384 56.8754C155.367 59.6812 155.35 61.9984 155.341 62.0405V62.0995H154.234H153.127L153.144 56.8585Z" fill="white"/>
<path d="M160.307 61.9735C159.693 61.805 159.361 61.6533 158.944 61.35L158.578 61.0888L158.322 60.7433L158.075 60.3978L157.888 59.9175L157.709 59.4457L157.718 58.7716V58.0891L157.888 57.6341L158.067 57.1707L158.331 56.8505L158.603 56.5303L158.918 56.3281L159.233 56.1343L159.821 55.9405L160.409 55.7551L162.623 55.7046L164.837 55.654L164.863 55.3759L164.888 55.1063L164.752 54.6429L164.616 54.1795L164.352 53.8761L164.088 53.5812L163.739 53.4043L163.389 53.2273L162.827 53.1852L162.274 53.1515L161.763 53.2947C161.116 53.4801 160.783 53.6823 160.136 54.289L159.617 54.7861L158.85 54.1626L158.075 53.5475V53.4464L158.067 53.3369L158.518 52.8987L158.969 52.4521L159.472 52.1235L159.974 51.7865L160.698 51.5421L161.422 51.2978L162.282 51.2472L163.143 51.2051L163.739 51.3062L164.326 51.4073L165.016 51.7359L165.714 52.073L166.072 52.469L166.43 52.8734L166.634 53.2694L166.839 53.6739L166.966 54.1963L167.094 54.7271V58.3335V61.9314H166.081H165.067L165.016 61.746C164.991 61.6364 164.965 61.4174 164.965 61.2573C164.965 61.0972 164.939 60.8781 164.914 60.777L164.863 60.5832L164.369 61.0298L163.883 61.4848L163.483 61.6702C163.262 61.7713 162.87 61.9061 162.606 61.9735L162.121 62.0999L161.431 62.0915H160.749L160.307 61.9735ZM162.708 60.1198L163.219 59.985L163.662 59.69L164.105 59.3867L164.36 58.9991L164.607 58.6031L164.752 58.1144L164.897 57.6257L164.846 57.4909L164.795 57.3645L162.981 57.3982L161.175 57.4235L160.749 57.6341L160.324 57.8448L160.136 58.1312L159.94 58.4177V58.7463V59.0834L160.077 59.3614C160.145 59.5131 160.281 59.7069 160.375 59.7912L160.536 59.9344L160.979 60.0861L161.431 60.2377L161.814 60.2462H162.206L162.708 60.1198Z" fill="white"/>
<path d="M153.101 49.5698L153.041 49.5193V48.3902V47.2695H154.233H155.426V48.4492V49.6288H154.293H153.152L153.101 49.5698Z" fill="white"/>
<path d="M33.7842 49.4858L33.7246 49.4352V37.563V25.6992H35.2576H36.7905V36.1896V46.6799L42.1815 46.6968L47.5639 46.7221L47.5895 48.0197L47.615 49.3088L47.5128 49.4268L47.4191 49.5448H40.623H33.8353L33.7842 49.4858Z" fill="white"/>
<path d="M119.402 40.6467C119.147 40.5793 118.695 40.4108 118.397 40.276L117.861 40.0232L117.315 39.5092L116.779 38.9952L116.472 38.4307L116.174 37.8661L115.978 37.2005L115.791 36.5264V35.431V34.3356L115.944 33.7458L116.098 33.156L116.43 32.4651L116.77 31.7826L117.273 31.2686L117.784 30.7546L118.363 30.4681L118.951 30.1732L119.666 30.03L120.373 29.8867L121.063 29.9457L121.753 29.9963L122.212 30.1311C122.468 30.2069 122.868 30.367 123.107 30.4765L123.524 30.6956L124.052 31.2096L124.572 31.7236L124.878 32.3555L125.193 32.9875L125.312 33.5773C125.457 34.2682 125.474 34.5294 125.457 35.4057L125.449 36.063L121.77 36.0798L118.082 36.1051L118.056 36.3663L118.031 36.6275L118.218 37.1162L118.406 37.6133L118.84 38.0431L119.274 38.4728L119.768 38.6245L120.254 38.7761L121.088 38.7424L121.914 38.7172L122.391 38.4981L122.868 38.2706L123.209 37.9672C123.396 37.7987 123.575 37.6639 123.609 37.6639C123.643 37.6639 123.992 37.942 124.384 38.279L125.108 38.8857V38.9784V39.0795L124.58 39.5092L124.044 39.9473L123.447 40.2338L122.851 40.5287L122.34 40.6551L121.838 40.7815L120.85 40.7731H119.87L119.402 40.6467ZM123.32 34.0997C123.32 33.9902 123.26 33.7037 123.183 33.4593L123.047 33.0128L122.672 32.6083L122.289 32.2039L121.846 32.0101L121.403 31.8163H120.679H119.956L119.521 32.0353L119.078 32.2628L118.814 32.5325L118.542 32.7937L118.337 33.1981L118.133 33.6026L118.073 33.948L118.014 34.2935H120.671H123.32V34.0997Z" fill="white"/>
<path d="M129.749 40.6214L129.238 40.4782L128.71 40.2001L128.19 39.9221L127.73 39.4671L127.279 39.0205L127.049 38.5823C126.913 38.338 126.811 38.0936 126.811 38.0262V37.9083L127.517 37.5881C127.901 37.4111 128.292 37.2426 128.386 37.2089L128.556 37.1583L128.761 37.5375L128.965 37.9167L129.365 38.2874L129.774 38.6666L130.268 38.8098L130.762 38.9447L131.333 38.911L131.912 38.8688L132.295 38.6413L132.687 38.4138L132.857 38.0852L133.028 37.7566V37.5796C133.028 37.487 132.976 37.2763 132.908 37.1246L132.789 36.8382L132.414 36.6191L132.04 36.4084L130.984 36.1135C129.485 35.7006 129.468 35.6922 128.897 35.4057L128.386 35.153L128.071 34.8243L127.756 34.5042L127.56 34.0829L127.373 33.6616V32.9454V32.2291L127.603 31.7573L127.833 31.277L128.207 30.94L128.582 30.5945L129.008 30.3839L129.425 30.1732L130.132 30.03L130.847 29.8867L131.554 29.9457L132.253 29.9963L132.823 30.1985L133.394 30.4007L133.862 30.7293L134.339 31.0495L134.705 31.5466C134.91 31.8163 135.072 32.0775 135.072 32.1365V32.2291L134.22 32.6757L133.377 33.1139L133.121 32.7431L132.866 32.3808L132.414 32.0943L131.963 31.8078H131.094H130.226L129.987 31.9848L129.749 32.1533L129.587 32.4819L129.425 32.8021L129.587 33.1054L129.749 33.4088L130.123 33.611L130.498 33.8132L131.656 34.1418L132.815 34.4705L133.428 34.7569L134.05 35.0434L134.458 35.4479L134.876 35.8607L135.02 36.2736C135.097 36.5011 135.182 36.8803 135.208 37.1162L135.259 37.5459L135.157 38.0431L135.055 38.5486L134.842 38.9615L134.637 39.366L134.254 39.7283L133.871 40.099L133.419 40.3181C133.164 40.4361 132.755 40.5961 132.508 40.6551L132.048 40.7815L131.154 40.7731H130.26L129.749 40.6214Z" fill="white"/>
<path d="M139.97 40.6722C139.782 40.6048 139.51 40.4953 139.365 40.4194L139.092 40.2846L138.752 39.897L138.411 39.5094L138.258 39.1134L138.104 38.7174L138.07 35.3301L138.045 31.9429L137.219 31.9176L136.393 31.8923V31.0076V30.1229L137.219 30.0976L138.045 30.0723L138.07 28.9601L138.096 27.8479L139.118 27.0727C139.68 26.6514 140.165 26.2975 140.208 26.2975L140.268 26.2891V28.1849V30.0723L141.571 30.0976L142.865 30.1229L142.891 31.0245L142.916 31.926L141.613 31.9513L140.31 31.9766V35.01V38.0433L140.48 38.3382L140.659 38.6331L140.949 38.7848L141.247 38.9365L141.801 38.8943C142.107 38.8691 142.482 38.8185 142.635 38.7932L142.908 38.7427V39.6274V40.5206L142.593 40.6217L142.269 40.7144L141.29 40.7481L140.31 40.7818L139.97 40.6722Z" fill="white"/>
<path d="M87.7207 33.1981V25.7832H88.8704H90.0202V33.1981V40.6129H88.8704H87.7207V33.1981Z" fill="white"/>
<path d="M93.7846 35.3721L93.8102 30.1228H94.8747H95.9393L95.9648 30.5862C95.9734 30.839 95.9989 31.0917 96.0245 31.1507L96.0585 31.2434L96.4162 30.9148L96.7824 30.5862L97.2168 30.3755L97.6426 30.1649L98.2387 30.0385L98.8349 29.9121H99.3033H99.7717L100.325 30.0469L100.879 30.1733L101.305 30.4261L101.731 30.6873L102.088 31.1086L102.437 31.5299L102.684 32.2545L102.923 32.9876V36.7793V40.571H101.816H100.709L100.666 36.9478L100.623 33.3246L100.462 32.9623L100.308 32.6084L99.9676 32.3219L99.6354 32.0355L99.2607 31.9428C99.0563 31.8922 98.7582 31.8501 98.5964 31.8501H98.3154L97.8896 31.9765L97.4637 32.1029L97.106 32.4062L96.7398 32.7095L96.5354 33.1224C96.4162 33.3499 96.2629 33.7712 96.1863 34.0577L96.05 34.5885L96.0074 37.605L95.9648 40.6131H94.8662H93.7676L93.7846 35.3721Z" fill="white"/>
<path d="M106.568 35.4143L104.422 30.2071L104.49 30.1397L104.558 30.0723L105.699 30.0975L106.841 30.1228L107.275 31.2772C107.522 31.9091 107.871 32.8528 108.058 33.3837C108.246 33.9061 108.672 35.0604 108.995 35.9368L109.583 37.5377L109.66 37.5208L109.728 37.5124L110.026 36.7204C110.188 36.2906 110.801 34.6307 111.397 33.0298L112.478 30.1228L113.611 30.0975L114.744 30.0723L114.821 30.1481L114.889 30.2155L114.182 31.9428C113.79 32.8865 112.819 35.229 112.027 37.1417L110.596 40.6132H109.651H108.714L106.568 35.4143Z" fill="white"/>
<path d="M150.742 35.3469V30.0723L151.832 30.0975L152.914 30.1228L152.939 35.3722L152.956 40.6132H151.849H150.742V35.3469Z" fill="white"/>
<path d="M156.294 35.3724L156.32 30.123H157.384H158.449L158.475 30.6538C158.492 30.9403 158.517 31.1763 158.534 31.1763C158.551 31.1763 158.815 30.9909 159.122 30.755L159.684 30.3421L160.255 30.1651L160.834 29.9882L161.515 29.9376L162.196 29.8955L162.792 30.0303L163.389 30.1736L163.738 30.3758L164.087 30.578L164.513 31.0414L164.939 31.4964L165.186 32.2464L165.433 32.9878V36.7795V40.5712H164.325H163.218L163.176 36.9481L163.133 33.3249L162.971 32.9626L162.818 32.6087L162.477 32.3222L162.145 32.0357L161.77 31.943C161.566 31.8925 161.268 31.8503 161.106 31.8503H160.825L160.391 31.9767L159.965 32.1031L159.582 32.4317L159.199 32.7688L158.977 33.2659C158.849 33.544 158.705 33.9568 158.653 34.1843L158.56 34.5888L158.517 37.6053L158.475 40.6134H157.376H156.277L156.294 35.3724Z" fill="white"/>
<path d="M52.5895 33.7969L52.5469 33.7126L52.6235 33.3503C52.8961 32.1791 53.6711 30.4686 54.429 29.4069L54.8804 28.775L55.5702 28.1009L56.2601 27.4268L56.8477 27.0392C57.6312 26.5253 58.2955 26.1966 59.2238 25.8765L59.9733 25.6152L60.9697 25.4299L61.9576 25.2529H63.3202H64.6829L65.6453 25.4383L66.5991 25.6237L67.3486 25.8765L68.0895 26.1377L68.6431 26.4326C68.9497 26.6011 69.4266 26.8876 69.7076 27.0814L70.2186 27.4184L71.0362 28.2189L71.8623 29.0278L72.3903 29.8282C73.0035 30.7551 73.3527 31.4882 73.5911 32.3139L73.753 32.8953L73.6848 32.9627L73.6167 33.0301L72.1689 33.0133L70.7296 32.988L70.2612 32.1201L69.7928 31.2438L69.3244 30.6624L68.856 30.0726L68.2683 29.6092L67.6892 29.1457L66.9909 28.8171L66.301 28.4969L65.4494 28.3116L64.5977 28.1262L63.4054 28.1178L62.2131 28.1093L61.4466 28.261L60.6801 28.4042L60.0244 28.657L59.3686 28.9098L58.7469 29.3143L58.1252 29.7187L57.6057 30.258C56.7966 31.109 56.1749 32.137 55.8257 33.1986C55.7406 33.4514 55.6384 33.7126 55.5873 33.7716L55.5106 33.8727H54.0713H52.6406L52.5895 33.7969Z" fill="white"/>
<path d="M9.56478 33.6869C9.47962 33.5774 6.49032 26.1541 6.41368 25.8592L6.37109 25.6991H6.43923C6.48181 25.6991 7.22274 25.6907 8.08291 25.6907L9.64995 25.6738L9.70956 25.7918C9.75214 25.8592 10.1269 26.8029 10.5442 27.8899C10.97 28.9768 11.6428 30.7126 12.0431 31.749C12.4434 32.7854 12.7755 33.6701 12.7755 33.7122V33.7881H11.2085H9.64143L9.56478 33.6869Z" fill="white"/>
<path d="M21.4629 33.6624C21.4629 33.5529 21.9824 32.1878 24.1626 26.5846C24.3244 26.1717 24.4862 25.7925 24.5203 25.7588L24.5884 25.6914H26.1895C27.0667 25.6914 27.7992 25.6998 27.8077 25.7167C27.8162 25.7335 27.5948 26.3318 27.2967 27.048C27.0071 27.7642 26.2832 29.5758 25.6871 31.0756L24.597 33.7888H23.0299H21.4629V33.6624Z" fill="white"/>
<path d="M150.658 26.9628V25.7832H151.851H153.051L153.026 26.946L153 28.1003L151.833 28.1256L150.658 28.1509V26.9628Z" fill="white"/>
<path d="M16.7089 26.7358C16.3768 25.9521 15.6955 24.3343 14.137 20.6016C13.7452 19.6748 13.0043 17.8969 12.4762 16.6414C11.9482 15.3944 10.9177 12.9256 10.1768 11.1645C9.44438 9.4035 8.63531 7.47395 8.37981 6.8757C8.12432 6.27746 7.91992 5.75505 7.91992 5.72134V5.64551H17.1177H26.3156V5.70449C26.3156 5.73819 26.1452 6.16792 25.9408 6.65663C25.7364 7.14533 24.6548 9.69841 23.5477 12.3442C22.432 14.9899 20.5754 19.4051 19.4172 22.1604C18.259 24.9157 17.2881 27.2582 17.254 27.3677C17.2199 27.4688 17.1603 27.5531 17.1263 27.5531H17.0581L16.7089 26.7358Z" fill="white"/>
</svg>
