<svg width="139" height="68" viewBox="0 0 139 68" fill="none" xmlns="http://www.w3.org/2000/svg">
<g clip-path="url(#clip0_727_2258)">
<g clip-path="url(#clip1_727_2258)">
<path d="M36.4518 60.6125L9.10867 60.5948L8.7941 58.8597L9.12939 58.7564C9.36964 58.6853 9.58879 58.5575 9.76794 58.3841C9.82867 58.3244 9.88471 58.2603 9.93559 58.1923C10.4517 57.5044 10.2596 56.4665 10.0185 55.4631C9.90828 55.0051 1.54202 20.1843 1.45726 19.8343L1.37626 19.4964C1.28653 19.1255 1.15247 18.7665 0.976929 18.4269L0.941138 18.3589C0.913825 18.3096 0.886515 18.2658 0.857318 18.2137C0.828122 18.1616 0.796097 18.115 0.763134 18.0657C0.73017 18.0164 0.709451 17.9829 0.681196 17.9438C0.640698 17.887 0.599257 17.8311 0.556875 17.7772L0.528618 17.739C0.514491 17.7204 0.500365 17.7018 0.485296 17.6831C0.415601 17.5984 0.344019 17.5156 0.267731 17.4346C-0.0355122 17.0914 -0.420334 16.8282 -0.852101 16.6685L-1.21094 16.5578L-0.834205 15.0684L7.88429 8.60561L26.8762 8.58792C27.3188 8.58559 27.7488 8.73285 28.095 9.00527C28.4412 9.27768 28.6828 9.65888 28.7797 10.0856L29.6028 13.6666L28.8258 13.8416L28.0017 10.2606C27.9444 10.0075 27.8008 9.78148 27.5951 9.62035C27.3894 9.45923 27.134 9.37276 26.8715 9.37541L8.14423 9.3931L-0.135369 15.5301L-0.268169 16.0551C0.150559 16.2655 0.527125 16.5494 0.843188 16.8929C0.937371 16.9859 1.01837 17.0855 1.10031 17.1861C1.12197 17.2121 1.14269 17.2382 1.16247 17.2661L1.18602 17.2978C1.23593 17.3611 1.28491 17.4272 1.332 17.4942C1.36496 17.5417 1.39699 17.5873 1.42618 17.6375C1.45538 17.6878 1.49964 17.752 1.53449 17.8107C1.56934 17.8693 1.60136 17.9233 1.62867 17.9801C1.64374 18.008 1.65976 18.0378 1.67482 18.0676C1.87894 18.4627 2.0345 18.8805 2.1382 19.3121L2.2192 19.65C2.30302 19.9963 10.6702 54.8208 10.7804 55.2788C10.9904 56.1538 11.3455 57.6189 10.5628 58.6587C10.4872 58.7578 10.4041 58.8512 10.3142 58.9379C10.1306 59.1175 9.91754 59.2651 9.68412 59.3745L9.76135 59.8036L36.4386 59.8213C36.7027 59.8213 36.9588 59.732 37.1644 59.5683C37.37 59.4045 37.5127 59.1762 37.5688 58.9212C38.9571 52.4481 45.0837 23.7131 46.5162 16.9403C46.5517 16.775 46.549 16.6038 46.5084 16.4396C46.4678 16.2754 46.3903 16.1224 46.2817 15.9918C46.1715 15.8606 46.0335 15.7551 45.8774 15.6827C45.7213 15.6103 45.5509 15.5728 45.3784 15.5729L27.6796 15.6912L27.6853 14.8999L45.3841 14.7817C45.6748 14.7792 45.9625 14.841 46.2259 14.9627C46.4893 15.0844 46.7217 15.2629 46.9062 15.485C47.0907 15.7072 47.2224 15.9673 47.2918 16.2464C47.3613 16.5254 47.3665 16.8163 47.3073 17.0976C45.8729 23.8751 39.7454 52.6119 38.3599 59.085C38.2657 59.5164 38.0251 59.9031 37.6781 60.1809C37.331 60.4587 36.8984 60.611 36.4518 60.6125Z" fill="white"/>
<path d="M37.7535 60.1068L37.276 59.4766L45.5754 53.3471C45.7031 53.2663 45.8132 53.1613 45.8994 53.0381C45.9856 52.9149 46.0461 52.7759 46.0774 52.6294C47.4657 46.1563 53.5922 17.4213 55.0248 10.6486C55.0595 10.4829 55.0564 10.3117 55.0157 10.1473C54.975 9.98299 54.8977 9.82972 54.7894 9.69869C54.6811 9.56766 54.5445 9.46218 54.3897 9.38995C54.2349 9.31771 54.0658 9.28055 53.8946 9.28116H53.887L36.1637 9.39938L27.8973 15.5196L27.8031 16.0446C27.9085 16.0956 28.0095 16.1548 28.1055 16.2215C28.2984 16.3579 28.4685 16.5234 28.6093 16.712C28.6878 16.8175 28.7551 16.9308 28.8099 17.0499C28.9832 17.4586 29.0701 17.898 29.0652 18.341C29.0652 18.3922 29.0652 18.4453 29.0652 18.4983C29.0594 18.8581 29.019 19.2165 28.9446 19.5688L25.1246 36.3881C25.0982 36.5073 25.0313 36.6139 24.935 36.6902C24.8386 36.7664 24.7187 36.8077 24.5953 36.807C24.4717 36.8077 24.3517 36.7665 24.2552 36.6903C24.1586 36.614 24.0915 36.5074 24.065 36.3881L19.5028 16.5612C19.4454 16.3081 19.3019 16.0821 19.0962 15.921C18.8905 15.7598 18.6351 15.6734 18.3726 15.676L-0.201172 15.6937V14.9062L18.3726 14.8885C18.815 14.8862 19.2449 15.0335 19.591 15.306C19.937 15.5784 20.1784 15.9596 20.2751 16.3863L24.5887 35.1352L28.161 19.404C28.2247 19.1029 28.2594 18.7966 28.2646 18.489C28.2646 18.4443 28.2646 18.3959 28.2646 18.355C28.2704 18.0204 28.2083 17.6881 28.0819 17.3776C28.0499 17.3084 28.0108 17.2425 27.9651 17.1812C27.8745 17.059 27.7648 16.9519 27.6402 16.8638C27.5805 16.8214 27.5175 16.7837 27.4518 16.7511C27.3816 16.7172 27.3088 16.6886 27.2343 16.6655L26.898 16.5622L27.1683 15.0728L35.8972 8.60258L53.8861 8.48344C54.1777 8.48158 54.466 8.54412 54.73 8.66652C54.994 8.78892 55.2269 8.96807 55.4119 9.19087C55.5957 9.41246 55.7269 9.67204 55.7957 9.95044C55.8645 10.2288 55.8691 10.519 55.8093 10.7994C54.3749 17.5768 48.2474 46.3136 46.8619 52.7867C46.81 53.033 46.7093 53.2667 46.5656 53.4744C46.4219 53.682 46.238 53.8596 46.0247 53.9968L37.7535 60.1068Z" fill="white"/>
<path d="M68.1355 23.6053L64.8203 12.7676H66.1869L69.1885 22.8206H69.3919L72.3935 12.7676H73.7601L70.4459 23.6053H68.1355Z" fill="white"/>
<path d="M76.6799 23.8188C76.1788 23.825 75.6817 23.73 75.2191 23.5395C74.8043 23.3723 74.4453 23.0933 74.1831 22.7343C73.9236 22.3558 73.7917 21.9059 73.8064 21.4489C73.7879 20.994 73.9201 20.5455 74.1831 20.1717C74.4482 19.8264 74.8077 19.5631 75.2191 19.4131C75.6908 19.2369 76.1918 19.1501 76.6959 19.1571H79.2878V18.5986C79.3004 18.3658 79.2643 18.1329 79.1819 17.9145C79.0994 17.696 78.9723 17.4967 78.8085 17.329C78.614 17.1627 78.3883 17.036 78.1443 16.9562C77.9003 16.8763 77.6427 16.8448 77.3863 16.8635C76.8662 16.8324 76.3524 16.9892 75.9406 17.3048C75.5849 17.6165 75.3377 18.0312 75.2342 18.4897L74.0711 18.1174C74.1943 17.699 74.397 17.3076 74.6682 16.9641C74.9595 16.6027 75.3341 16.3155 75.7607 16.1263C76.2776 15.9026 76.8382 15.7942 77.4023 15.8089C78.2362 15.7577 79.0578 16.0268 79.6957 16.5601C79.9762 16.8347 80.1943 17.1653 80.3352 17.5299C80.4762 17.8944 80.5369 18.2845 80.5132 18.674V22.0958C80.5132 22.4048 80.6591 22.5612 80.953 22.5612H81.6594V23.5991H80.5753C80.2707 23.6134 79.9724 23.5107 79.7427 23.3124C79.6378 23.2145 79.5555 23.0954 79.5014 22.9632C79.4473 22.831 79.4226 22.6888 79.4291 22.5463V22.4691H79.2407C79.1081 22.6882 78.9528 22.8931 78.7774 23.0806C78.5552 23.3114 78.2845 23.4912 77.9844 23.6075C77.5677 23.7614 77.1245 23.8332 76.6799 23.8188ZM76.8212 22.766C77.4781 22.7939 78.1194 22.5629 78.6041 22.1237C78.8395 21.8871 79.022 21.6043 79.1398 21.2935C79.2576 20.9827 79.308 20.651 79.2878 20.3197V20.1485H76.7449C76.3159 20.1315 75.8916 20.2425 75.5271 20.4668C75.37 20.5704 75.2431 20.7127 75.159 20.8798C75.0749 21.0469 75.0366 21.2328 75.0477 21.4191C75.0399 21.6118 75.0811 21.8035 75.1674 21.9765C75.2538 22.1495 75.3827 22.2983 75.5422 22.4095C75.9189 22.6588 76.3665 22.7821 76.8193 22.7613L76.8212 22.766Z" fill="white"/>
<path d="M82.9004 23.6052V12.7637H84.1417V23.6052H82.9004Z" fill="white"/>
<path d="M89.7236 23.8183C89.0114 23.8335 88.3074 23.6654 87.6808 23.3305C87.1015 23.013 86.6271 22.5373 86.3142 21.9603C85.9788 21.3296 85.8112 20.6249 85.8273 19.9125V19.7263C85.8107 19.0103 85.9783 18.3019 86.3142 17.6673C86.6247 17.0936 87.0933 16.6185 87.6657 16.2971C88.2647 15.9823 88.9317 15.8151 89.6101 15.8098C90.2885 15.8044 90.9581 15.9611 91.5621 16.2664C92.115 16.5691 92.5676 17.0233 92.8656 17.5742C93.1914 18.1898 93.3535 18.8772 93.3365 19.5718V20.1303H87.0677C87.0578 20.4792 87.121 20.8264 87.2532 21.1501C87.3855 21.4737 87.584 21.7669 87.8363 22.0111C88.0886 22.2554 88.3892 22.4455 88.7193 22.5696C89.0494 22.6936 89.4019 22.7489 89.7547 22.732C90.3007 22.7669 90.8413 22.6074 91.2786 22.2824C91.6284 21.9909 91.9077 21.6258 92.0961 21.2138L93.1641 21.7248C92.9894 22.071 92.7704 22.3936 92.5124 22.6845C92.2103 23.023 91.8414 23.297 91.4283 23.4897C90.8928 23.7261 90.3098 23.8385 89.7236 23.8183ZM87.0865 19.1268H92.0829C92.0799 18.8186 92.0135 18.5143 91.8879 18.2322C91.7622 17.9501 91.58 17.6961 91.352 17.4858C90.8795 17.0837 90.2704 16.8735 89.6473 16.8975C89.017 16.8726 88.4002 17.0825 87.9191 17.4858C87.4487 17.9146 87.1521 18.4979 87.0846 19.1268H87.0865ZM89.2706 14.8841L87.7637 12.7627H89.2706L90.4648 14.8841H89.2706Z" fill="white"/>
<path d="M94.9785 23.6017V16.0312H96.1878V17.3158H96.4073C96.6032 16.9214 96.8979 16.583 97.2634 16.3328C97.7958 16.0038 98.4198 15.8494 99.0463 15.8916C99.5842 15.8828 100.116 16.0052 100.595 16.2481C101.053 16.4882 101.432 16.8537 101.686 17.3009C101.974 17.8278 102.115 18.4208 102.095 19.0192V23.6017H100.854V19.1123C100.881 18.8142 100.844 18.5137 100.745 18.2308C100.646 17.9479 100.488 17.689 100.28 17.4712C99.848 17.1133 99.2947 16.9306 98.7317 16.9602C98.3958 16.9475 98.061 17.0042 97.7486 17.1269C97.4362 17.2495 97.1532 17.4353 96.9177 17.6723C96.4109 18.2607 96.1597 19.0231 96.2189 19.7937V23.6017H94.9785Z" fill="white"/>
<path d="M107.577 23.8193C106.88 23.8304 106.191 23.6681 105.574 23.3474C104.986 23.0371 104.501 22.5667 104.175 21.9921C103.821 21.3522 103.645 20.6313 103.664 19.9024V19.7311C103.643 18.9993 103.82 18.2752 104.175 17.633C104.503 17.062 104.988 16.5949 105.574 16.286C106.191 15.9653 106.88 15.803 107.577 15.8141C108.227 15.7958 108.871 15.9338 109.455 16.2162C109.948 16.4637 110.37 16.8315 110.679 17.2848C110.971 17.7135 111.167 18.1992 111.252 18.709L110.043 18.9566C109.994 18.5935 109.868 18.2446 109.674 17.9327C109.475 17.6181 109.196 17.3611 108.865 17.188C108.471 16.9912 108.033 16.8952 107.592 16.9088C107.111 16.9007 106.637 17.0183 106.217 17.2495C105.811 17.4794 105.48 17.8174 105.259 18.225C105.013 18.6928 104.891 19.215 104.906 19.7422V19.8809C104.891 20.4085 105.013 20.9311 105.259 21.3991C105.479 21.8069 105.811 22.145 106.217 22.3747C106.637 22.6065 107.111 22.7243 107.592 22.7163C107.909 22.7379 108.227 22.697 108.528 22.596C108.829 22.495 109.106 22.3359 109.344 22.128C109.747 21.7363 110.009 21.225 110.091 20.6722L111.315 20.9356C111.196 21.4399 110.983 21.9179 110.687 22.3449C110.373 22.7973 109.949 23.1644 109.454 23.4125C108.871 23.6967 108.227 23.8363 107.577 23.8193Z" fill="white"/>
<path d="M113.485 14.8547C113.359 14.8584 113.233 14.837 113.116 14.7919C112.999 14.7469 112.891 14.6789 112.801 14.5922C112.711 14.5062 112.64 14.4025 112.592 14.2877C112.545 14.1729 112.522 14.0496 112.526 13.9257C112.521 13.7995 112.543 13.6736 112.591 13.5563C112.638 13.4389 112.71 13.3327 112.801 13.2443C112.891 13.1574 112.998 13.0894 113.116 13.0441C113.233 12.9989 113.359 12.9774 113.485 12.9809C113.61 12.977 113.734 12.9984 113.85 13.0437C113.967 13.089 114.072 13.1573 114.161 13.2443C114.25 13.334 114.32 13.4406 114.366 13.5578C114.411 13.675 114.432 13.8002 114.428 13.9257C114.432 14.0491 114.411 14.1721 114.365 14.2869C114.319 14.4018 114.25 14.5062 114.161 14.5935C114.073 14.6808 113.967 14.7492 113.851 14.7944C113.735 14.8397 113.611 14.8608 113.486 14.8566L113.485 14.8547ZM112.857 23.6046V16.0313H114.095V23.6018L112.857 23.6046Z" fill="white"/>
<path d="M118.505 23.8188C118.004 23.8251 117.506 23.7301 117.043 23.5395C116.628 23.3726 116.269 23.0936 116.007 22.7344C115.748 22.3558 115.616 21.9059 115.631 21.4489C115.612 20.994 115.744 20.5456 116.007 20.1718C116.272 19.8262 116.632 19.5629 117.043 19.4131C117.515 19.237 118.016 19.1502 118.52 19.1571H121.112V18.5986C121.124 18.3658 121.088 18.133 121.006 17.9146C120.923 17.6962 120.796 17.4968 120.633 17.329C120.438 17.1628 120.212 17.0362 119.968 16.9563C119.724 16.8764 119.467 16.8449 119.21 16.8636C118.691 16.8325 118.177 16.9894 117.766 17.3048C117.41 17.6164 117.162 18.031 117.058 18.4897L115.896 18.1174C116.019 17.6989 116.222 17.3075 116.493 16.9641C116.784 16.6028 117.159 16.3155 117.585 16.1263C118.102 15.9026 118.662 15.7942 119.226 15.8089C120.061 15.7577 120.883 16.0268 121.521 16.5601C121.801 16.8348 122.019 17.1654 122.16 17.5299C122.301 17.8945 122.362 18.2845 122.338 18.674V22.0958C122.338 22.4061 122.485 22.5612 122.778 22.5612H123.485V23.5991H122.401C122.097 23.6134 121.798 23.5107 121.569 23.3124C121.464 23.2146 121.381 23.0956 121.327 22.9634C121.272 22.8311 121.248 22.6889 121.254 22.5463V22.4691H121.066C120.933 22.6883 120.778 22.8933 120.603 23.0806C120.38 23.3116 120.11 23.4915 119.81 23.6075C119.393 23.7615 118.95 23.8332 118.505 23.8188ZM118.646 22.766C119.304 22.7941 119.945 22.5631 120.43 22.1237C120.666 21.8871 120.848 21.6043 120.966 21.2935C121.084 20.9827 121.134 20.651 121.114 20.3198V20.1485H118.571C118.142 20.1314 117.718 20.2424 117.353 20.4668C117.196 20.5704 117.069 20.7128 116.985 20.8799C116.901 21.0469 116.863 21.2328 116.874 21.4191C116.866 21.6119 116.908 21.8036 116.994 21.9766C117.081 22.1496 117.21 22.2984 117.369 22.4095C117.746 22.6586 118.193 22.782 118.645 22.7613L118.646 22.766Z" fill="white"/>
<path d="M65.6836 39.0116V28.1738H67.0021V39.0116H65.6836Z" fill="white"/>
<path d="M68.9551 39.0118V31.4403H70.1653V32.7258H70.3848C70.5808 32.3312 70.8755 31.9926 71.2409 31.7419C71.7734 31.4131 72.3973 31.2587 73.0238 31.3007C73.5614 31.2919 74.0929 31.4143 74.5712 31.6572C75.03 31.8973 75.4093 32.2627 75.6637 32.71C75.9516 33.2369 76.0926 33.8299 76.0725 34.4283V39.0108H74.8311V34.5205C74.8589 34.2224 74.8222 33.922 74.7235 33.6391C74.6247 33.3561 74.4662 33.0972 74.2585 32.8794C73.8265 32.5215 73.2731 32.3388 72.7101 32.3684C72.3743 32.3558 72.0395 32.4126 71.7271 32.5352C71.4148 32.6578 71.1318 32.8436 70.8962 33.0805C70.3893 33.6689 70.1378 34.4312 70.1964 35.2019V39.0099L68.9551 39.0118Z" fill="white"/>
<path d="M78.043 39.0108V31.4394H79.2532V32.7248H79.4727C79.6687 32.3302 79.9634 31.9916 80.3288 31.7409C80.8613 31.4121 81.4852 31.2577 82.1117 31.2997C82.6493 31.2909 83.1808 31.4134 83.6591 31.6562C84.1179 31.8963 84.4972 32.2617 84.7516 32.709C85.0395 33.2359 85.1805 33.8289 85.1604 34.4274V39.0099H83.919V34.5195C83.9468 34.2215 83.9101 33.921 83.8114 33.6381C83.7126 33.3551 83.5541 33.0962 83.3464 32.8784C82.9144 32.5205 82.361 32.3379 81.798 32.3674C81.4622 32.3548 81.1274 32.4116 80.815 32.5343C80.5027 32.6569 80.2196 32.8426 79.9841 33.0795C79.4774 33.668 79.2263 34.4304 79.2852 35.2009V39.0089L78.043 39.0108Z" fill="white"/>
<path d="M90.6555 39.229C89.9419 39.2435 89.2363 39.0783 88.6051 38.7487C88.0238 38.4371 87.5452 37.967 87.2263 37.3944C86.8836 36.759 86.7132 36.0467 86.7318 35.327V35.1259C86.7152 34.4087 86.8854 33.6993 87.2263 33.066C87.5445 32.4894 88.0246 32.0161 88.6089 31.7032C89.2453 31.3878 89.9474 31.2236 90.6593 31.2236C91.3712 31.2236 92.0732 31.3878 92.7096 31.7032C93.2938 32.0163 93.7739 32.4895 94.0922 33.066C94.4331 33.6993 94.6034 34.4087 94.5867 35.1259V35.327C94.6053 36.0467 94.4349 36.759 94.0922 37.3944C93.7721 37.9674 93.2923 38.4375 92.7096 38.7487C92.0773 39.0787 91.3704 39.244 90.6555 39.229ZM90.6555 38.1297C91.0179 38.1463 91.3797 38.0866 91.7169 37.9545C92.0542 37.8224 92.3591 37.621 92.6117 37.3636C93.1201 36.7958 93.3825 36.0534 93.3425 35.2963V35.1576C93.3824 34.4007 93.1199 33.6586 92.6117 33.0911C92.0838 32.5988 91.3855 32.3247 90.6597 32.3247C89.934 32.3247 89.2357 32.5988 88.7078 33.0911C88.1949 33.6564 87.9295 34.3993 87.9694 35.1576V35.2963C87.9294 36.0547 88.1949 36.798 88.7078 37.3636C88.9597 37.6195 89.2633 37.8199 89.599 37.9518C89.9346 38.0836 90.2946 38.1449 90.6555 38.1297Z" fill="white"/>
<path d="M97.9582 39.0126L95.209 31.4365H96.5275L98.8369 38.0948H99.0573L101.367 31.4365H102.685L99.936 39.008L97.9582 39.0126Z" fill="white"/>
<path d="M106.124 39.2289C105.623 39.2353 105.125 39.1402 104.663 38.9497C104.248 38.7828 103.888 38.5037 103.627 38.1445C103.367 37.766 103.235 37.316 103.25 36.859C103.231 36.4041 103.363 35.9557 103.627 35.5819C103.891 35.2362 104.251 34.9727 104.663 34.8223C105.134 34.6469 105.635 34.5603 106.139 34.5673H108.731V34.0088C108.744 33.776 108.707 33.5431 108.625 33.3247C108.543 33.1063 108.416 32.907 108.252 32.7391C108.057 32.573 107.832 32.4463 107.588 32.3665C107.344 32.2866 107.086 32.2551 106.83 32.2737C106.31 32.2426 105.796 32.3994 105.385 32.7149C105.029 33.0263 104.781 33.441 104.678 33.8999L103.515 33.5276C103.638 33.1091 103.841 32.7177 104.112 32.3742C104.404 32.0129 104.778 31.7257 105.204 31.5365C105.721 31.3127 106.282 31.2044 106.846 31.2191C107.68 31.1678 108.502 31.4369 109.14 31.9703C109.42 32.2449 109.639 32.5755 109.779 32.9401C109.92 33.3046 109.981 33.6946 109.957 34.0842V37.506C109.957 37.8162 110.104 37.9714 110.397 37.9714H111.104V39.0148H110.021C109.716 39.0292 109.418 38.9264 109.188 38.7281C109.083 38.6304 109 38.5113 108.946 38.3791C108.892 38.2468 108.867 38.1046 108.873 37.9621V37.8848H108.685C108.553 38.104 108.397 38.309 108.222 38.4964C108 38.7273 107.729 38.9068 107.429 39.0223C107.012 39.175 106.569 39.2453 106.124 39.2289ZM106.265 38.1762C106.922 38.204 107.564 37.973 108.048 37.5339C108.284 37.2973 108.466 37.0144 108.584 36.7037C108.702 36.3929 108.752 36.0612 108.732 35.7299V35.5586H106.189C105.761 35.5418 105.337 35.6524 104.972 35.8761C104.815 35.9797 104.689 36.1221 104.604 36.2891C104.52 36.4562 104.482 36.642 104.493 36.8283C104.485 37.0211 104.527 37.2128 104.613 37.3858C104.7 37.5588 104.829 37.7076 104.988 37.8187C105.364 38.0704 105.812 38.195 106.265 38.1762Z" fill="white"/>
<path d="M114.896 39.0124C114.713 39.0317 114.529 39.0108 114.355 38.9511C114.182 38.8913 114.024 38.7942 113.893 38.6669C113.763 38.5395 113.662 38.385 113.599 38.2145C113.536 38.0441 113.512 37.8619 113.529 37.6813V32.5095H111.223V31.4409H113.532V28.7471H114.773V31.4409H117.287V32.5095H114.773V37.4951C114.763 37.5571 114.768 37.6207 114.787 37.6806C114.806 37.7405 114.839 37.7952 114.884 37.8404C114.928 37.8856 114.982 37.9199 115.042 37.9408C115.102 37.9616 115.166 37.9684 115.229 37.9605H116.941V39.0133L114.896 39.0124Z" fill="white"/>
<path d="M119.303 30.2649C119.177 30.2684 119.052 30.2469 118.934 30.2017C118.817 30.1564 118.71 30.0883 118.619 30.0014C118.529 29.9157 118.458 29.8121 118.411 29.6975C118.363 29.5828 118.341 29.4597 118.344 29.3359C118.34 29.2096 118.362 29.0838 118.409 28.9665C118.456 28.8491 118.528 28.7429 118.619 28.6545C118.71 28.5676 118.817 28.4995 118.934 28.4543C119.052 28.409 119.177 28.3875 119.303 28.3911C119.428 28.3871 119.553 28.4085 119.669 28.4538C119.785 28.4991 119.891 28.5674 119.979 28.6545C120.069 28.7441 120.138 28.8507 120.184 28.9679C120.23 29.0851 120.251 29.2103 120.246 29.3359C120.25 29.4592 120.229 29.5821 120.183 29.697C120.137 29.8118 120.068 29.916 119.979 30.0033C119.891 30.0906 119.786 30.159 119.669 30.2043C119.553 30.2496 119.429 30.2709 119.304 30.2667L119.303 30.2649ZM118.675 39.0147V31.4424H119.916V39.0138L118.675 39.0147Z" fill="white"/>
<path d="M125.482 39.2293C124.769 39.2437 124.063 39.0784 123.432 38.749C122.849 38.4381 122.369 37.9679 122.049 37.3946C121.706 36.7593 121.536 36.047 121.554 35.3272V35.1261C121.538 34.4088 121.708 33.6995 122.049 33.0662C122.368 32.4895 122.848 32.0162 123.432 31.7034C124.068 31.3879 124.771 31.2236 125.482 31.2236C126.194 31.2236 126.896 31.3879 127.533 31.7034C128.117 32.0162 128.597 32.4895 128.915 33.0662C129.257 33.6995 129.427 34.4088 129.411 35.1261V35.3272C129.429 36.047 129.258 36.7593 128.915 37.3946C128.596 37.9679 128.116 38.4381 127.533 38.749C126.902 39.0784 126.196 39.2437 125.482 39.2293ZM125.482 38.1299C125.845 38.1465 126.207 38.0868 126.544 37.9547C126.881 37.8227 127.186 37.6212 127.439 37.3639C127.947 36.7959 128.209 36.0535 128.169 35.2965V35.1578C128.209 34.4009 127.947 33.6587 127.439 33.0913C126.911 32.5991 126.212 32.3249 125.487 32.3249C124.761 32.3249 124.063 32.5991 123.535 33.0913C123.021 33.6563 122.756 34.3994 122.795 35.1578V35.2965C122.755 36.0551 123.021 36.7985 123.535 37.3639C123.787 37.6198 124.09 37.8202 124.426 37.9521C124.762 38.0839 125.122 38.1451 125.482 38.1299Z" fill="white"/>
<path d="M131.078 39.0118V31.4403H132.287V32.7258H132.508C132.704 32.331 132.998 31.9923 133.364 31.7419C133.896 31.4131 134.52 31.2588 135.147 31.3007C135.685 31.2919 136.217 31.4143 136.695 31.6572C137.154 31.8973 137.533 32.2628 137.787 32.71C138.075 33.2369 138.216 33.8299 138.196 34.4283V39.0108H136.954V34.5205C136.982 34.2224 136.945 33.9218 136.846 33.6389C136.747 33.3559 136.589 33.097 136.381 32.8794C135.949 32.5216 135.396 32.339 134.833 32.3684C134.497 32.3557 134.162 32.4125 133.85 32.5351C133.537 32.6577 133.254 32.8435 133.018 33.0805C132.512 33.6691 132.261 34.4314 132.319 35.2018V39.0099L131.078 39.0118Z" fill="white"/>
<path d="M69.6594 54.6393C69.0888 54.6678 68.5182 54.5832 67.9812 54.3904C67.4442 54.1976 66.9517 53.9005 66.5326 53.5167C66.1231 53.0781 65.8088 52.5613 65.6089 51.9981C65.409 51.435 65.3278 50.8373 65.3704 50.242V47.7641C65.3278 47.1688 65.409 46.5712 65.6089 46.008C65.8088 45.4449 66.1231 44.9281 66.5326 44.4894C66.9517 44.1056 67.4442 43.8086 67.9812 43.6158C68.5182 43.423 69.0888 43.3384 69.6594 43.3669C70.2057 43.3313 70.7535 43.4079 71.2685 43.5916C71.7834 43.7753 72.2543 44.0623 72.6516 44.4345C73.0128 44.8299 73.2911 45.2921 73.4706 45.7944C73.65 46.2968 73.727 46.8292 73.6971 47.3611V47.4383H72.3936V47.3145C72.424 46.5881 72.1867 45.8753 71.7258 45.3086C71.4626 45.0336 71.1403 44.8206 70.7826 44.6853C70.425 44.55 70.0411 44.4958 69.6594 44.5267C69.2554 44.5043 68.8512 44.5681 68.4744 44.7138C68.0975 44.8594 67.7568 45.0836 67.4753 45.371C66.9174 46.0298 66.6362 46.875 66.6899 47.7325V50.2718C66.6357 51.1294 66.9169 51.9748 67.4753 52.6333C67.7567 52.9209 68.0974 53.1451 68.4743 53.2908C68.8512 53.4365 69.2554 53.5002 69.6594 53.4776C70.0411 53.5087 70.425 53.4545 70.7827 53.3192C71.1404 53.1838 71.4627 52.9708 71.7258 52.6957C72.1866 52.1293 72.4239 51.4169 72.3936 50.6907V50.4422H73.6971V50.6432C73.727 51.1751 73.6501 51.7076 73.4706 52.2099C73.2912 52.7122 73.0128 53.1744 72.6516 53.5698C72.2545 53.9424 71.7837 54.2298 71.2687 54.4139C70.7538 54.5979 70.2059 54.6747 69.6594 54.6393Z" fill="white"/>
<path d="M77.7347 54.6391C77.2336 54.6453 76.7365 54.5503 76.2739 54.3599C75.8588 54.1931 75.4998 53.914 75.2379 53.5547C74.978 53.1763 74.8461 52.7263 74.8612 52.2692C74.8422 51.814 74.9745 51.3651 75.2379 50.9912C75.5027 50.6456 75.8623 50.3823 76.2739 50.2325C76.7456 50.0567 77.2466 49.9702 77.7507 49.9775H80.3426V49.419C80.3552 49.1861 80.3192 48.9532 80.2367 48.7348C80.1542 48.5163 80.0271 48.317 79.8632 48.1493C79.6689 47.983 79.4432 47.8562 79.1991 47.7764C78.9551 47.6965 78.6974 47.6651 78.441 47.6839C77.9209 47.6526 77.407 47.8094 76.9953 48.1251C76.6392 48.4364 76.3919 48.8513 76.289 49.3101L75.1258 48.9377C75.2491 48.5194 75.4518 48.128 75.7229 47.7844C76.0146 47.4234 76.3891 47.1362 76.8154 46.9467C77.3325 46.7232 77.893 46.6152 78.4571 46.6302C79.2908 46.579 80.1123 46.8478 80.7504 47.3804C81.0309 47.6551 81.2489 47.9857 81.3899 48.3502C81.5309 48.7148 81.5916 49.1048 81.5679 49.4944V52.9171C81.5679 53.2261 81.7139 53.3825 82.0077 53.3825H82.7141V54.4204H81.6301C81.3255 54.4347 81.0271 54.332 80.7975 54.1337C80.6925 54.0356 80.6102 53.9163 80.556 53.784C80.5019 53.6516 80.4773 53.5093 80.4839 53.3667V53.2894H80.2955C80.163 53.5086 80.0077 53.7136 79.8321 53.901C79.6101 54.1319 79.3393 54.3118 79.0391 54.4278C78.6225 54.5822 78.1793 54.6539 77.7347 54.6391ZM77.876 53.5863C78.5329 53.6142 79.1741 53.3832 79.6588 52.9441C79.8941 52.7074 80.0766 52.4245 80.1944 52.1138C80.3121 51.803 80.3627 51.4713 80.3426 51.1401V50.9697H77.7997C77.3707 50.9528 76.9466 51.0634 76.5819 51.2872C76.4249 51.3908 76.298 51.5332 76.2139 51.7002C76.1298 51.8673 76.0914 52.0532 76.1025 52.2394C76.0948 52.4325 76.1362 52.6244 76.2229 52.7976C76.3096 52.9707 76.4389 53.1197 76.5988 53.2308C76.9751 53.4813 77.4227 53.606 77.876 53.5863Z" fill="white"/>
<path d="M83.957 57.5191V46.8517H85.1663V48.1018H85.3867C85.6163 47.6854 85.9487 47.3332 86.353 47.0779C86.9145 46.748 87.5629 46.5915 88.215 46.6283C88.8548 46.6207 89.4846 46.7852 90.0369 47.1043C90.5892 47.4234 91.0433 47.885 91.3504 48.4397C91.6957 49.0822 91.8661 49.8023 91.8448 50.5295V50.7305C91.8635 51.4566 91.696 52.1754 91.3579 52.8203C91.0584 53.3831 90.6034 53.8505 90.0459 54.1681C89.4878 54.4801 88.8562 54.6407 88.215 54.6335C87.7529 54.6452 87.2925 54.5743 86.856 54.4241C86.5217 54.3076 86.2146 54.1259 85.9528 53.8898C85.7412 53.6964 85.5611 53.4719 85.4187 53.2243H85.1993V57.5126L83.957 57.5191ZM87.8844 53.5556C88.2429 53.5695 88.6004 53.51 88.9345 53.3807C89.2686 53.2514 89.5719 53.0552 89.8256 52.8044C90.085 52.5214 90.2846 52.1901 90.4127 51.8298C90.5408 51.4695 90.5948 51.0875 90.5715 50.7063V50.5676C90.5948 50.1864 90.5408 49.8045 90.4127 49.4442C90.2846 49.0839 90.085 48.7525 89.8256 48.4695C89.5719 48.2188 89.2685 48.0227 88.9344 47.8934C88.6004 47.7642 88.2429 47.7045 87.8844 47.7183C87.5264 47.7067 87.1697 47.7674 86.8361 47.8965C86.5025 48.0257 86.1991 48.2206 85.9443 48.4695C85.6803 48.7501 85.4766 49.0807 85.3456 49.4414C85.2147 49.802 85.1591 50.1852 85.1823 50.5676V50.7063C85.1591 51.0888 85.2147 51.472 85.3456 51.8326C85.4766 52.1933 85.6803 52.5239 85.9443 52.8044C86.1991 53.0533 86.5025 53.2483 86.8361 53.3775C87.1697 53.5066 87.5264 53.5672 87.8844 53.5556Z" fill="white"/>
<path d="M94.105 45.675C93.9791 45.6784 93.8538 45.6569 93.7366 45.6116C93.6193 45.5664 93.5124 45.4984 93.4221 45.4116C93.3318 45.3258 93.2607 45.2222 93.2133 45.1076C93.166 44.993 93.1434 44.8698 93.1471 44.746C93.1423 44.6198 93.1643 44.4939 93.2117 44.3766C93.2591 44.2593 93.3307 44.153 93.4221 44.0647C93.5124 43.9779 93.6193 43.9099 93.7366 43.8646C93.8538 43.8194 93.9791 43.7978 94.105 43.8012C94.2299 43.7973 94.3543 43.8186 94.4706 43.8639C94.5869 43.9092 94.6926 43.9775 94.7812 44.0647C94.8704 44.1542 94.94 44.2609 94.9858 44.3781C95.0317 44.4953 95.0527 44.6205 95.0477 44.746C95.0519 44.8694 95.0304 44.9923 94.9846 45.1071C94.9387 45.2219 94.8695 45.3262 94.7812 45.4135C94.6929 45.5008 94.5874 45.5692 94.4712 45.6145C94.3551 45.6598 94.2307 45.681 94.1059 45.6769L94.105 45.675ZM93.4768 54.4249V46.8535H94.7181V54.4249H93.4768Z" fill="white"/>
<path d="M99.6662 54.4225C99.4835 54.4419 99.2988 54.421 99.1254 54.3612C98.9519 54.3014 98.7941 54.2042 98.6633 54.0767C98.5326 53.9492 98.4321 53.7946 98.3692 53.6241C98.3063 53.4535 98.2825 53.2712 98.2996 53.0905V47.9197H95.9902V46.8511H98.2996V44.1572H99.5447V46.8511H102.058V47.9197H99.5447V52.9052C99.5345 52.9673 99.5391 53.0309 99.5581 53.091C99.5772 53.151 99.6102 53.2058 99.6545 53.251C99.6987 53.2962 99.7531 53.3306 99.8132 53.3513C99.8732 53.3721 99.9374 53.3787 100.001 53.3707H101.711V54.4234L99.6662 54.4225Z" fill="white"/>
<path d="M105.806 54.6391C105.304 54.6455 104.807 54.5505 104.344 54.3599C103.929 54.1931 103.57 53.914 103.308 53.5547C103.049 53.1762 102.917 52.7263 102.931 52.2692C102.913 51.814 103.045 51.3653 103.308 50.9912C103.573 50.6456 103.933 50.3824 104.344 50.2326C104.816 50.0568 105.317 49.9703 105.821 49.9775H108.413V49.419C108.425 49.1862 108.389 48.9533 108.307 48.7349C108.224 48.5165 108.097 48.3171 107.933 48.1493C107.739 47.9831 107.513 47.8564 107.269 47.7765C107.025 47.6967 106.768 47.6652 106.511 47.6839C105.991 47.6527 105.478 47.8095 105.067 48.1251C104.71 48.4364 104.462 48.8512 104.359 49.3101L103.197 48.9378C103.32 48.5193 103.523 48.1279 103.794 47.7845C104.085 47.4233 104.46 47.1361 104.886 46.9467C105.403 46.7233 105.963 46.6152 106.527 46.6302C107.361 46.5789 108.183 46.8477 108.822 47.3805C109.102 47.6552 109.32 47.9858 109.461 48.3503C109.602 48.7148 109.663 49.1049 109.639 49.4944V52.9171C109.639 53.2274 109.786 53.3825 110.079 53.3825H110.786V54.4204H109.707C109.402 54.4347 109.104 54.332 108.874 54.1337C108.769 54.0358 108.687 53.9166 108.632 53.7842C108.578 53.6518 108.553 53.5094 108.56 53.3667V53.2894H108.371C108.239 53.5088 108.084 53.7137 107.908 53.901C107.686 54.1322 107.415 54.3121 107.115 54.4279C106.697 54.5828 106.252 54.6546 105.806 54.6391ZM105.947 53.5864C106.604 53.6143 107.245 53.3832 107.73 52.9441C107.965 52.7074 108.148 52.4246 108.266 52.1138C108.383 51.8031 108.434 51.4714 108.414 51.1401V50.9698H105.871C105.442 50.953 105.018 51.0636 104.654 51.2872C104.497 51.3908 104.37 51.5332 104.286 51.7003C104.202 51.8673 104.164 52.0532 104.175 52.2395C104.167 52.4324 104.208 52.6241 104.294 52.7973C104.381 52.9705 104.509 53.1195 104.669 53.2308C105.046 53.4816 105.494 53.6063 105.947 53.5864Z" fill="white"/>
<path d="M112.023 54.4236V43.585H113.266V54.4236H112.023Z" fill="white"/>
</g>
</g>
<defs>
<clipPath id="clip0_727_2258">
<rect width="138.197" height="67.8863" fill="white"/>
</clipPath>
<clipPath id="clip1_727_2258">
<rect width="139.409" height="52.127" fill="white" transform="translate(-1.21484 8.48535)"/>
</clipPath>
</defs>
</svg>
