<svg width="130" height="68" viewBox="0 0 130 68" fill="none" xmlns="http://www.w3.org/2000/svg">
<g clip-path="url(#clip0_727_2234)">
<path d="M51.5869 6.24219C56.07 6.24219 59.7049 9.88727 59.7051 14.3838V55.0762C59.7051 59.5728 56.0701 63.2178 51.5869 63.2178H9.47656C4.99352 63.2175 1.35938 59.5727 1.35938 55.0762V14.3838C1.35957 9.88743 4.99364 6.24244 9.47656 6.24219H51.5869ZM31.624 36.1074C31.5094 36.1074 31.4153 36.2014 31.415 36.3164V39.2559C31.415 39.3711 31.5092 39.4648 31.624 39.4648H43.5303L31.5361 51.5088C31.4554 51.5898 31.4556 51.7245 31.5361 51.8057L33.6064 53.8848C33.6872 53.9659 33.8216 53.9659 33.9023 53.8848L45.9219 41.8154V53.8252C45.922 53.9403 46.0152 54.0341 46.1299 54.0342H49.0566C49.1713 54.0342 49.2645 53.9404 49.2646 53.8252V39.6768C49.2646 39.5615 49.1714 39.4668 49.0566 39.4668V39.4648H45.9219V36.3164C45.9216 36.2016 45.8282 36.1077 45.7139 36.1074H31.624ZM17.0303 36.1123L13.4805 36.127C11.7335 36.1357 10.3203 37.5592 10.3203 39.3135V42.9893C10.3205 43.1063 10.4137 43.2002 10.5303 43.1982L13.6484 43.1826L11.2383 45.627C10.6518 46.2245 10.3203 47.0314 10.3203 47.8701V50.8369C10.3204 52.5955 11.738 54.0212 13.4893 54.0234L29.2842 54.0195C29.3988 54.0194 29.4922 53.9247 29.4922 53.8096V50.8711C29.4922 50.756 29.3988 50.6623 29.2842 50.6621H13.876C13.7613 50.6619 13.668 50.5673 13.668 50.4521V39.6846C13.6681 39.5696 13.7614 39.4758 13.876 39.4756H29.2842C29.3988 39.4754 29.4922 39.3817 29.4922 39.2666V36.3271C29.492 36.2122 29.3987 36.1183 29.2842 36.1182V36.1123H17.0303ZM45.9219 39.4648V39.4717L45.915 39.4648H45.9219ZM26.1719 15.4277C26.0891 15.4277 26.0124 15.477 25.9805 15.5557L19.9863 29.5293C19.9141 29.698 19.6738 29.698 19.6016 29.5293L16.5752 22.4756L15.8613 23.1924C14.9325 24.1251 14.6705 25.5343 15.2041 26.7402L18.0654 33.2139C18.0995 33.2905 18.1741 33.3398 18.2568 33.3398H21.3301C21.4128 33.3397 21.4875 33.2906 21.5215 33.2139L29.249 15.7227C29.3107 15.584 29.2085 15.4277 29.0576 15.4277H26.1719ZM34.5361 15.4404C32.7891 15.4468 31.3752 16.8727 31.375 18.627V22.3027C31.375 22.4201 31.469 22.5139 31.5859 22.5117L34.7041 22.4971L32.2939 24.9404C31.7052 25.5379 31.3751 26.3428 31.375 27.1836V30.1504C31.375 31.9089 32.7927 33.3346 34.5439 33.3369L47.374 33.333C49.1274 33.3328 50.5469 31.9051 50.5469 30.1465L50.543 25.9502C50.543 25.8947 50.5218 25.8411 50.4814 25.8027L47.2637 22.5654C47.2255 22.5249 47.1695 22.5029 47.1143 22.5029H42.8418C42.7272 22.5032 42.6338 22.5977 42.6338 22.7129V25.6533C42.6338 25.7684 42.7272 25.8621 42.8418 25.8623H46.9912C47.1059 25.8623 47.1992 25.9571 47.1992 26.0723V29.7598C47.1992 29.875 47.1059 29.9687 46.9912 29.9688H34.9287C34.8141 29.9686 34.7207 29.8749 34.7207 29.7598V18.9941C34.7208 18.8792 34.8142 18.7854 34.9287 18.7852H50.3369C50.4516 18.785 50.5449 18.6913 50.5449 18.5762V15.6348C50.5448 15.5197 50.4515 15.4259 50.3369 15.4258H38.085L34.5361 15.4404ZM10.5303 15.4277C10.3775 15.4279 10.2773 15.5841 10.3389 15.7227L13.2705 22.3535C13.3045 22.4303 13.379 22.4795 13.4619 22.4795L16.5771 22.4736L13.6084 15.5557C13.5743 15.479 13.4998 15.4277 13.417 15.4277H10.5303Z" fill="white"/>
<path d="M117.908 6.24219C122.391 6.24232 126.025 9.88735 126.025 14.3838V55.0762C126.025 59.5728 122.391 63.2176 117.908 63.2178H67.8203C63.3373 63.2175 59.7031 59.5727 59.7031 55.0762V14.3838C59.7033 9.88742 63.3374 6.24243 67.8203 6.24219H117.908ZM83.6777 45.7754L86.3086 52.5742L85.4189 54.7646H86.5518L90.0215 45.7754H88.877L86.8672 51.1621L84.8594 45.7754H83.6777ZM72.6543 43.8945C71.8427 43.8945 71.124 44.0735 70.499 44.4316C69.874 44.7817 69.3825 45.2868 69.0254 45.9463C68.6763 46.6057 68.502 47.3793 68.502 48.2666C68.502 49.154 68.6764 49.9275 69.0254 50.5869C69.3825 51.2464 69.874 51.756 70.499 52.1143C71.132 52.4642 71.8508 52.6387 72.6543 52.6387C73.3035 52.6386 73.8878 52.5049 74.4072 52.2363C74.9267 51.9677 75.341 51.6052 75.6494 51.1494C75.966 50.6935 76.1603 50.1802 76.2334 49.6104H75.126C75.0692 49.993 74.9265 50.3427 74.6992 50.6602C74.472 50.9695 74.1802 51.218 73.8232 51.4053C73.4742 51.5844 73.0844 51.6738 72.6543 51.6738C72.0618 51.6738 71.5339 51.5355 71.0713 51.2588C70.6167 50.982 70.2588 50.5872 69.999 50.0742C69.7475 49.5613 69.6221 48.9586 69.6221 48.2666C69.6221 47.5747 69.7474 46.9719 69.999 46.459C70.2588 45.9461 70.6167 45.5512 71.0713 45.2744C71.5258 44.9977 72.0537 44.8594 72.6543 44.8594C73.2954 44.8594 73.8352 45.0384 74.2734 45.3965C74.7199 45.7547 74.9915 46.2191 75.0889 46.7891H76.1973C76.1323 46.2354 75.9461 45.7384 75.6377 45.2988C75.3292 44.8592 74.9187 44.5177 74.4072 44.2734C73.8959 44.0211 73.3117 43.8946 72.6543 43.8945ZM80.6367 45.7754H79.6016V46.667H80.6367V50.6113C80.6367 51.0428 80.7177 51.4134 80.8799 51.7227C81.0423 52.0239 81.2694 52.2526 81.5615 52.4072C81.8538 52.5619 82.1871 52.6387 82.5605 52.6387C82.7066 52.6387 82.8484 52.6224 82.9863 52.5898C83.1324 52.5655 83.2705 52.5247 83.4004 52.4678V51.54C83.2868 51.5807 83.165 51.6133 83.0352 51.6377C82.9134 51.6622 82.7953 51.6738 82.6816 51.6738C82.3815 51.6737 82.146 51.5762 81.9756 51.3809C81.8052 51.1774 81.7198 50.8925 81.7197 50.5264V46.667H83.2783V45.7754H81.7197V44.3584H80.6367V45.7754ZM77.4648 52.541H78.5605V45.7754H77.4648V52.541ZM78.0254 43.3691C77.8144 43.3691 77.6398 43.4343 77.502 43.5645C77.3721 43.6947 77.3066 43.8619 77.3066 44.0654C77.3067 44.2689 77.3721 44.4362 77.502 44.5664C77.6398 44.6964 77.8145 44.7617 78.0254 44.7617C78.228 44.7616 78.3946 44.6965 78.5244 44.5664C78.6624 44.4362 78.7314 44.2689 78.7314 44.0654C78.7314 43.8619 78.6624 43.6947 78.5244 43.5645C78.3946 43.4342 78.2281 43.3692 78.0254 43.3691ZM72.6416 30.6641C71.8218 30.6641 71.095 30.8475 70.4619 31.2139C69.8371 31.5721 69.3545 32.0809 69.0137 32.7402C68.6727 33.3997 68.502 34.165 68.502 35.0361C68.502 35.9317 68.68 36.7096 69.0371 37.3691C69.3943 38.0286 69.8821 38.5328 70.499 38.8828C71.1159 39.2329 71.8181 39.4082 72.6055 39.4082C73.2061 39.4082 73.7503 39.2862 74.2373 39.042C74.7321 38.7898 75.0766 38.4722 75.2715 38.0898V39.3105H76.3193V34.9258H72.2764V35.8301H75.2842C75.276 36.3348 75.1625 36.7866 74.9434 37.1855C74.7242 37.5845 74.4154 37.8944 74.0176 38.1143C73.6281 38.3339 73.1736 38.4433 72.6543 38.4434C72.0536 38.4434 71.5213 38.3052 71.0586 38.0283C70.6041 37.7434 70.2506 37.3484 69.999 36.8438C69.7474 36.3308 69.6221 35.7282 69.6221 35.0361C69.6221 34.3525 69.7475 33.754 69.999 33.2412C70.2506 32.7284 70.6042 32.3335 71.0586 32.0566C71.5212 31.7717 72.0491 31.6289 72.6416 31.6289C73.3154 31.6289 73.8676 31.7997 74.2979 32.1416C74.728 32.4835 74.9915 32.9517 75.0889 33.5459H76.1973C76.1242 32.9599 75.9379 32.451 75.6377 32.0195C75.3454 31.588 74.943 31.2537 74.4316 31.0176C73.9203 30.7815 73.3234 30.6641 72.6416 30.6641ZM80.4629 32.4473C79.9435 32.4473 79.4764 32.553 79.0625 32.7646C78.6566 32.9682 78.3232 33.2537 78.0635 33.6201C77.812 33.9783 77.6538 34.3896 77.5889 34.8535H78.6602C78.7088 34.5443 78.8061 34.2794 78.9521 34.0596C79.1063 33.8398 79.3099 33.6726 79.5615 33.5586C79.8213 33.4365 80.122 33.375 80.4629 33.375C80.7954 33.375 81.0874 33.4366 81.3389 33.5586C81.5986 33.6726 81.8021 33.8434 81.9482 34.0713C82.0943 34.2911 82.167 34.5522 82.167 34.8535V35.1035L80.3896 35.293C79.7483 35.3663 79.216 35.5009 78.7939 35.6963C78.3804 35.8834 78.072 36.1314 77.8691 36.4404C77.6662 36.7417 77.5645 37.1004 77.5645 37.5156C77.5645 37.8983 77.658 38.2326 77.8447 38.5176C78.0314 38.8023 78.2996 39.0221 78.6484 39.1768C78.9975 39.3313 79.4073 39.4082 79.8779 39.4082C80.4055 39.4082 80.8806 39.2908 81.3027 39.0547C81.7249 38.8186 82.0128 38.5212 82.167 38.1631V39.3105H83.2383V34.9629C83.2382 34.4501 83.1165 34.0063 82.873 33.6318C82.6376 33.2494 82.3133 32.9564 81.8994 32.7529C81.4855 32.5495 81.0066 32.4473 80.4629 32.4473ZM99.6621 32.4473C99.0371 32.4473 98.4733 32.5983 97.9697 32.8994C97.467 33.1925 97.0731 33.6036 96.7891 34.1328C96.5134 34.6619 96.375 35.2602 96.375 35.9277C96.375 36.6034 96.5091 37.2062 96.7764 37.7354C97.0529 38.2564 97.4384 38.6675 97.9336 38.9688C98.4363 39.2618 99.0128 39.4081 99.6621 39.4082C100.223 39.4082 100.71 39.307 101.124 39.1035C101.546 38.9 101.887 38.6271 102.146 38.2852C102.415 37.9432 102.601 37.5601 102.707 37.1367H101.587C101.49 37.552 101.27 37.8781 100.929 38.1143C100.596 38.3503 100.173 38.4688 99.6621 38.4688C99.2399 38.4687 98.8629 38.362 98.5303 38.1504C98.1977 37.9387 97.9378 37.6414 97.751 37.2588C97.5825 36.9064 97.4911 36.5076 97.4746 36.0625H102.731C102.813 35.3949 102.735 34.7841 102.5 34.2305C102.265 33.677 101.899 33.2413 101.404 32.9238C100.909 32.6063 100.327 32.4473 99.6621 32.4473ZM92.7764 32.4473C92.2728 32.4473 91.8058 32.5855 91.376 32.8623C90.9453 33.131 90.6039 33.5096 90.3525 33.998C90.247 33.6645 90.0933 33.3796 89.8906 33.1436C89.6879 32.9075 89.4441 32.7321 89.1602 32.6182C88.8761 32.5041 88.5586 32.4473 88.21 32.4473C87.7392 32.4473 87.3052 32.5693 86.9072 32.8135C86.5092 33.0496 86.2087 33.3469 86.0059 33.7051V32.5449H84.9102V39.3105H86.0059V36.3916C86.0059 35.7893 86.0873 35.2642 86.249 34.8164C86.4116 34.3687 86.6392 34.0271 86.9316 33.791C87.224 33.5468 87.5723 33.4249 87.9785 33.4248C88.27 33.4248 88.53 33.4936 88.7578 33.6318C88.9848 33.762 89.1597 33.9492 89.2812 34.1934C89.4036 34.4376 89.4639 34.7231 89.4639 35.0488V39.3105H90.5479V36.3916C90.5479 35.7976 90.6286 35.2768 90.791 34.8291C90.9536 34.3731 91.1812 34.0271 91.4736 33.791C91.7736 33.5467 92.1233 33.4248 92.5205 33.4248C92.8212 33.4249 93.0812 33.4935 93.2998 33.6318C93.5275 33.762 93.7018 33.9493 93.8232 34.1934C93.9456 34.4376 94.0059 34.7231 94.0059 35.0488V39.3105H95.1016V34.8164C95.1015 34.3444 95.0005 33.9294 94.7979 33.5713C94.5942 33.213 94.314 32.9356 93.957 32.7402C93.6085 32.5449 93.2146 32.4473 92.7764 32.4473ZM82.167 36.0869C82.167 36.5998 82.0698 37.0353 81.875 37.3936C81.6883 37.7517 81.424 38.0246 81.083 38.2119C80.7503 38.3908 80.3649 38.4805 79.9268 38.4805C79.5533 38.4805 79.2492 38.3865 79.0137 38.1992C78.7783 38.012 78.6602 37.7716 78.6602 37.4785C78.6602 37.2345 78.7258 37.0273 78.8555 36.8564C78.9853 36.6773 79.1798 36.5264 79.4395 36.4043C79.6992 36.2822 80.0245 36.2044 80.4141 36.1719L82.167 35.9727V36.0869ZM99.6621 33.375C100.043 33.375 100.38 33.4492 100.673 33.5957C100.974 33.7423 101.205 33.9536 101.367 34.2305C101.538 34.5073 101.623 34.829 101.623 35.1953H97.5352C97.5796 34.9603 97.6467 34.7443 97.7383 34.5479C97.9167 34.1653 98.1689 33.8761 98.4932 33.6807C98.8258 33.4771 99.2156 33.3751 99.6621 33.375ZM78.8125 19.2168C78.293 19.2168 77.826 19.3226 77.4121 19.5342C77.0062 19.7378 76.6729 20.0232 76.4131 20.3896C76.1616 20.7478 76.0034 21.1591 75.9385 21.623H77.0098C77.0584 21.3139 77.1557 21.0489 77.3018 20.8291C77.456 20.6092 77.6595 20.4421 77.9111 20.3281C78.1709 20.206 78.4716 20.1445 78.8125 20.1445C79.145 20.1446 79.437 20.2061 79.6885 20.3281C79.9481 20.4421 80.1517 20.6129 80.2979 20.8408C80.4439 21.0606 80.5166 21.3218 80.5166 21.623V21.873L78.7393 22.0625C78.0979 22.1357 77.5657 22.2704 77.1436 22.4658C76.73 22.653 76.4216 22.9008 76.2188 23.21C76.0158 23.5112 75.9141 23.8699 75.9141 24.2852C75.9141 24.6677 76.0077 25.0012 76.1943 25.2861C76.381 25.5711 76.649 25.7916 76.998 25.9463C77.3471 26.1009 77.7569 26.1777 78.2275 26.1777C78.7552 26.1777 79.2302 26.0603 79.6523 25.8242C80.0744 25.5882 80.3624 25.2908 80.5166 24.9326V26.0801H81.5879V21.7324C81.5879 21.2196 81.4661 20.7759 81.2227 20.4014C80.9873 20.0189 80.6628 19.7259 80.249 19.5225C79.8351 19.3189 79.3562 19.2168 78.8125 19.2168ZM88.9941 19.2168C88.3691 19.2169 87.8053 19.3677 87.3018 19.6689C86.799 19.962 86.4052 20.3732 86.1211 20.9023C85.8446 21.4316 85.7071 22.0298 85.707 22.6973C85.707 23.3731 85.8403 23.9756 86.1084 24.5049C86.3849 25.0259 86.7704 25.4371 87.2656 25.7383C87.7683 26.0314 88.3448 26.1777 88.9941 26.1777C89.5539 26.1777 90.0412 26.0766 90.4561 25.873C90.8776 25.6694 91.2187 25.3966 91.4785 25.0547C91.7467 24.7128 91.9333 24.3296 92.0381 23.9062H90.9189C90.8209 24.3215 90.6018 24.6477 90.2607 24.8838C89.9281 25.1199 89.5053 25.2373 88.9941 25.2373C88.5719 25.2372 88.1949 25.1316 87.8623 24.9199C87.5289 24.7083 87.269 24.4109 87.083 24.0283C86.9145 23.6759 86.8223 23.2772 86.8057 22.832H92.0635C92.1439 22.1643 92.0665 21.5536 91.8311 21C91.5965 20.4465 91.2314 20.0109 90.7363 19.6934C90.2411 19.3759 89.6595 19.2168 88.9941 19.2168ZM104.004 19.2168C103.379 19.2168 102.815 19.3677 102.312 19.6689C101.808 19.962 101.411 20.3731 101.118 20.9023C100.834 21.4316 100.691 22.0298 100.691 22.6973C100.691 23.3649 100.834 23.964 101.118 24.4932C101.411 25.0222 101.808 25.4371 102.312 25.7383C102.815 26.0314 103.379 26.1777 104.004 26.1777C104.572 26.1777 105.075 26.0764 105.514 25.873C105.959 25.6613 106.318 25.3758 106.585 25.0176C106.853 24.6594 107.016 24.2526 107.072 23.7969H105.964C105.899 24.2118 105.684 24.5537 105.319 24.8223C104.962 25.091 104.523 25.2256 104.004 25.2256C103.59 25.2256 103.212 25.1198 102.871 24.9082C102.538 24.6965 102.274 24.3992 102.08 24.0166C101.893 23.6258 101.8 23.1858 101.8 22.6973C101.8 22.2089 101.893 21.7732 102.08 21.3906C102.274 20.9999 102.538 20.6989 102.871 20.4873C103.212 20.2756 103.59 20.169 104.004 20.1689C104.491 20.1689 104.905 20.2955 105.246 20.5479C105.595 20.8003 105.814 21.1346 105.903 21.5498H107.012C106.939 21.0778 106.764 20.6664 106.488 20.3164C106.22 19.9664 105.875 19.697 105.453 19.5098C105.031 19.3144 104.548 19.2168 104.004 19.2168ZM113.733 19.2168C113.214 19.2168 112.747 19.3226 112.333 19.5342C111.928 19.7378 111.595 20.0233 111.335 20.3896C111.084 20.7477 110.926 21.1591 110.86 21.623H111.932C111.98 21.3137 112.078 21.0489 112.225 20.8291C112.379 20.6092 112.582 20.4421 112.833 20.3281C113.093 20.206 113.393 20.1446 113.733 20.1445C114.067 20.1445 114.359 20.206 114.611 20.3281C114.871 20.4421 115.074 20.6129 115.22 20.8408C115.366 21.0606 115.439 21.3218 115.439 21.623V21.873L113.661 22.0625C113.02 22.1357 112.488 22.2704 112.066 22.4658C111.653 22.653 111.344 22.9008 111.141 23.21C110.938 23.5112 110.836 23.8699 110.836 24.2852C110.836 24.6677 110.93 25.0012 111.116 25.2861C111.303 25.5711 111.571 25.7916 111.92 25.9463C112.269 26.1009 112.679 26.1777 113.149 26.1777C113.677 26.1777 114.152 26.0603 114.574 25.8242C114.997 25.5881 115.285 25.2909 115.439 24.9326V26.0801H116.51V21.7324C116.51 21.2196 116.388 20.7759 116.145 20.4014C115.909 20.0188 115.585 19.726 115.171 19.5225C114.757 19.3189 114.277 19.2168 113.733 19.2168ZM71.3281 26.0801H72.6309L75.8701 17.5312H74.7139L71.998 24.749L69.2949 17.5312H68.1016L71.3281 26.0801ZM83.2578 26.0801H84.3535V17.4336H83.2578V26.0801ZM96.8818 19.2168C96.395 19.2168 95.9365 19.3353 95.5059 19.5713C95.0843 19.8074 94.7583 20.1082 94.5312 20.4746V19.3145H93.4355V26.0801H94.5312V23.0391C94.5313 22.4369 94.6248 21.9242 94.8115 21.501C94.9984 21.0695 95.2581 20.7433 95.5908 20.5234C95.9234 20.3036 96.2971 20.1934 96.7109 20.1934C97.0352 20.1934 97.3153 20.263 97.5508 20.4014C97.7946 20.5317 97.9814 20.7232 98.1113 20.9756C98.2488 21.2198 98.3184 21.5009 98.3184 21.8184V26.0801H99.415V21.5859C99.415 21.1138 99.3003 20.699 99.0732 20.3408C98.8537 19.9825 98.5498 19.7052 98.1602 19.5098C97.779 19.3145 97.3526 19.2169 96.8818 19.2168ZM108.297 26.0801H109.394V19.3145H108.297V26.0801ZM80.5166 22.8564C80.5166 23.3693 80.4194 23.8049 80.2246 24.1631C80.0379 24.5213 79.7736 24.7942 79.4326 24.9814C79.1 25.1604 78.7145 25.25 78.2764 25.25C77.903 25.25 77.5987 25.156 77.3633 24.9688C77.1278 24.7815 77.0098 24.5411 77.0098 24.248C77.0099 24.004 77.0753 23.7969 77.2051 23.626C77.3349 23.4469 77.5294 23.2959 77.7891 23.1738C78.0488 23.0517 78.3741 22.974 78.7637 22.9414L80.5166 22.7422V22.8564ZM115.439 22.8564C115.439 23.3693 115.341 23.8049 115.146 24.1631C114.96 24.5213 114.696 24.7942 114.354 24.9814C114.022 25.1605 113.636 25.25 113.198 25.25C112.825 25.25 112.521 25.156 112.285 24.9688C112.05 24.7815 111.932 24.5411 111.932 24.248C111.932 24.0041 111.996 23.7968 112.126 23.626C112.256 23.4469 112.451 23.2959 112.711 23.1738C112.971 23.0517 113.296 22.974 113.686 22.9414L115.439 22.7422V22.8564ZM88.9941 20.1445C89.3754 20.1445 89.7124 20.2187 90.0049 20.3652C90.3049 20.5118 90.5366 20.7232 90.6992 21C90.8701 21.2767 90.9551 21.5985 90.9551 21.9648H86.8662C86.9109 21.7297 86.9787 21.5138 87.0703 21.3174C87.2488 20.9348 87.5001 20.6457 87.8252 20.4502C88.1578 20.2467 88.5476 20.1446 88.9941 20.1445ZM108.857 16.9082C108.646 16.9083 108.472 16.9733 108.334 17.1035C108.204 17.2338 108.139 17.401 108.139 17.6045C108.139 17.808 108.204 17.9753 108.334 18.1055C108.472 18.2356 108.646 18.3007 108.857 18.3008C109.06 18.3008 109.228 18.2357 109.357 18.1055C109.495 17.9753 109.564 17.808 109.564 17.6045C109.564 17.401 109.495 17.2338 109.357 17.1035C109.228 16.9732 109.06 16.9082 108.857 16.9082Z" fill="white"/>
</g>
<defs>
<clipPath id="clip0_727_2234">
<rect width="124.862" height="56.976" fill="white" transform="translate(1.16406 6.24219)"/>
</clipPath>
</defs>
</svg>
